<?xml version="1.0" encoding="UTF-8"?>
<svg xmlns="http://www.w3.org/2000/svg" viewBox="0 0 120 104" width="120" height="104">
<g transform="translate(6.00, 5.28) scale(0.11)">
<path d="M0 0 C6.22 -0.07 12.44 -0.06 18.66 -0.07 C20.00 -0.07 21.34 -0.07 22.68 -0.07 C29.64 -0.08 36.60 -0.08 43.57 -0.08 C50.02 -0.08 56.47 -0.09 62.93 -0.11 C68.53 -0.12 74.12 -0.13 79.72 -0.13 C83.04 -0.13 86.36 -0.13 89.68 -0.14 C93.36 -0.15 97.03 -0.15 100.70 -0.14 C101.25 -0.14 101.25 -0.14 104.00 -0.16 C104.50 -0.15 104.50 -0.15 107.03 -0.14 C107.89 -0.14 108.76 -0.14 109.65 -0.15 C112.45 0.14 114.57 0.88 117.10 2.10 C118.84 4.30 119.84 6.57 121.10 9.10 C122.75 9.10 124.40 9.10 126.10 9.10 C126.41 9.67 126.41 9.67 127.97 12.51 C132.18 20.15 136.43 27.73 140.98 35.17 C144.13 40.33 146.84 45.49 149.10 51.10 C148.61 51.27 148.61 51.27 146.10 52.10 C151.28 61.48 156.61 70.73 162.29 79.81 C164.79 83.83 167.05 87.87 169.12 92.13 C170.79 95.49 172.63 98.77 174.48 102.04 C174.67 102.39 174.67 102.39 175.67 104.16 C178.16 108.56 180.82 112.78 183.69 116.95 C187.26 122.40 190.20 128.27 193.10 134.10 C194.19 134.09 195.28 134.08 196.40 134.07 C200.46 134.03 204.52 134.01 208.58 133.99 C210.33 133.98 212.09 133.97 213.84 133.95 C216.37 133.93 218.90 133.92 221.42 133.91 C222.2 133.90 222.98 133.89 223.78 133.88 C224.52 133.88 225.26 133.88 226.02 133.88 C226.67 133.87 227.31 133.87 227.98 133.86 C230.10 134.10 230.10 134.10 236.10 136.10 C236.10 140.72 236.10 145.34 236.10 150.10 C257.88 149.77 279.66 149.44 302.10 149.10 C302.10 144.81 302.10 140.52 302.10 136.10 C302.43 135.77 302.76 135.44 303.10 135.10 C305.19 135.14 307.28 135.18 309.36 135.27 C313.10 135.43 316.83 135.48 320.57 135.53 C322.54 135.58 324.50 135.65 326.46 135.76 C342.21 136.56 342.21 136.56 346.98 132.51 C352.37 125.98 355.12 118.33 356.62 110.09 C357.41 106.83 358.95 104.63 361.10 102.10 C362.77 101.43 364.43 100.76 366.10 100.10 C366.82 98.46 367.48 96.78 368.10 95.10 C369.06 93.28 370.04 91.47 371.04 89.67 C376.65 79.47 376.65 79.47 378.10 75.04 C379.39 71.24 380.89 68.20 383.89 65.49 C386.96 62.18 388.96 58.46 391.16 54.54 C392.15 52.81 393.13 51.09 394.12 49.36 C394.62 48.48 395.11 47.60 395.63 46.70 C398.30 41.99 401.02 37.30 403.75 32.62 C406.45 27.97 409.12 23.30 411.77 18.61 C413.02 16.40 414.28 14.19 415.54 11.98 C416.13 10.92 416.72 9.85 417.33 8.76 C417.89 7.78 418.46 6.79 419.04 5.78 C419.53 4.90 420.03 4.02 420.54 3.12 C422.44 0.67 423.11 0.60 426.10 0.10 C428.13 0.01 430.17 -0.03 432.21 -0.04 C432.83 -0.04 432.83 -0.04 436 -0.06 C437.38 -0.06 438.77 -0.06 440.15 -0.06 C441.62 -0.06 443.07 -0.07 444.54 -0.07 C448.5 -0.09 452.46 -0.09 456.43 -0.10 C458.91 -0.1 461.38 -0.10 463.86 -0.11 C471.61 -0.12 479.36 -0.13 487.12 -0.14 C496.06 -0.14 505.01 -0.16 513.96 -0.19 C520.87 -0.21 527.79 -0.22 534.71 -0.22 C538.84 -0.22 542.97 -0.23 547.10 -0.24 C550.99 -0.26 554.87 -0.26 558.76 -0.26 C560.18 -0.25 561.61 -0.26 563.03 -0.27 C564.98 -0.28 566.92 -0.27 568.87 -0.26 C569.96 -0.27 571.05 -0.27 572.17 -0.27 C575.52 0.16 577.39 1.12 580.10 3.10 C581.68 5.29 581.68 5.29 582.91 7.67 C583.33 8.45 583.75 9.24 584.18 10.04 C585.10 12.10 585.10 12.10 585.10 14.10 C586.42 13.77 587.74 13.44 589.10 13.10 C593.49 20.36 597.86 27.63 602.20 34.91 C603.37 36.87 604.54 38.83 605.71 40.78 C607.02 42.96 608.32 45.15 609.60 47.35 C609.98 47.98 610.36 48.6 610.75 49.24 C612.37 52.06 613.16 53.64 612.75 56.92 C612.53 57.64 612.32 58.36 612.10 59.10 C613.54 61.14 614.74 61.95 617.03 62.91 C619.65 64.42 620.50 65.92 621.98 68.54 C622.49 69.44 623.00 70.34 623.53 71.26 C625.56 74.93 627.57 78.6 629.55 82.28 C631.09 85.08 632.68 87.85 634.29 90.60 C634.58 91.09 634.58 91.09 636.03 93.58 C637.17 95.52 638.32 97.47 639.47 99.41 C640.98 101.95 642.48 104.49 643.98 107.04 C644.47 107.86 644.95 108.67 645.46 109.52 C645.91 110.30 646.37 111.08 646.84 111.88 C647.25 112.57 647.67 113.27 648.09 113.98 C649.22 116.34 649.69 118.53 650.10 121.10 C649.44 121.10 648.78 121.10 648.10 121.10 C648.61 121.91 649.11 122.72 649.63 123.55 C650.28 124.62 650.93 125.69 651.60 126.79 C652.25 127.85 652.90 128.90 653.57 129.99 C655.15 133.20 655.72 134.62 655.10 138.10 C653.63 140.94 653.63 140.94 651.60 144.04 C650.86 145.20 650.11 146.37 649.37 147.53 C649.18 147.83 649.18 147.83 648.22 149.33 C646.49 152.08 644.89 154.90 643.29 157.73 C642.62 158.90 641.96 160.07 641.29 161.25 C640.94 161.86 640.60 162.48 640.24 163.11 C638.08 166.89 635.90 170.65 633.73 174.42 C633.26 175.22 632.80 176.02 632.32 176.85 C630.02 180.81 627.72 184.76 625.39 188.71 C624.95 189.45 624.51 190.19 624.06 190.95 C623.25 192.32 622.44 193.69 621.63 195.06 C619.41 198.80 617.28 202.59 615.21 206.41 C612.14 212.07 608.92 217.62 605.66 223.17 C601.77 229.82 597.88 236.48 594.03 243.16 C593.70 243.74 593.36 244.33 593.02 244.93 C591.40 247.74 589.78 250.56 588.16 253.37 C587.01 255.38 585.84 257.39 584.67 259.39 C583.67 261.12 582.70 262.85 581.76 264.61 C580.65 266.61 579.62 268.39 578.10 270.10 C575.21 270.88 575.21 270.88 572.29 270.60 C571.31 270.53 570.34 270.46 569.33 270.38 C568.60 270.29 567.86 270.20 567.10 270.10 C566.77 271.42 566.44 272.74 566.10 274.10 C550.26 274.10 534.42 274.10 518.10 274.10 C518.10 272.78 518.10 271.46 518.10 270.10 C516.94 270.11 515.78 270.11 514.59 270.12 C512.86 270.12 511.13 270.12 509.41 270.13 C508.93 270.13 508.93 270.13 506.49 270.13 C499.46 270.13 492.44 270.05 485.42 269.93 C479.13 269.83 472.84 269.79 466.55 269.77 C462.45 269.76 458.36 269.72 454.26 269.62 C450.23 269.53 446.20 269.50 442.16 269.52 C440.64 269.52 439.13 269.49 437.61 269.44 C432.84 269.28 428.63 269.39 424.10 271.10 C420.16 274.96 418.23 280.12 416.10 285.10 C415.07 286.89 414.01 288.67 412.91 290.42 C412.42 291.22 411.94 292.02 411.44 292.84 C410.95 293.63 410.47 294.42 409.98 295.23 C406.13 301.57 402.59 307.89 399.39 314.58 C397.74 317.81 395.75 320.73 393.68 323.71 C392.08 326.13 390.70 328.59 389.34 331.15 C386.12 337.11 382.72 342.95 379.29 348.79 C374.80 356.46 370.35 364.15 366.02 371.92 C363.58 376.28 361.04 380.58 358.44 384.86 C356.62 387.91 354.90 391.02 353.21 394.14 C352.10 396.10 352.10 396.10 350.23 398.85 C348.74 401.84 349.19 402.91 350.10 406.10 C351.27 408.51 352.46 410.79 353.79 413.10 C353.95 413.40 353.95 413.40 354.78 414.93 C357.30 419.36 360.13 421.93 364.10 425.10 C365.67 428.12 366.77 431.07 367.81 434.31 C369.42 439.36 371.40 443.54 374.10 448.10 C374.10 448.76 374.10 449.42 374.10 450.10 C374.76 450.10 375.42 450.10 376.10 450.10 C376.33 450.62 376.56 451.14 376.80 451.68 C378.42 455.15 379.65 457.70 382.54 460.29 C385.23 463.24 385.98 465.14 387.29 468.85 C390.12 476.67 394.23 483.4 398.53 490.48 C403.60 498.94 408.45 507.54 413.36 516.09 C414.92 518.79 416.50 521.47 418.10 524.15 C418.53 524.88 418.96 525.62 419.40 526.37 C420.17 527.69 420.96 529.00 421.75 530.30 C423.20 532.80 424.10 534.64 424.09 537.56 C422.71 541.10 420.80 544.22 418.79 547.42 C415.63 552.55 412.68 557.64 410.10 563.10 C409.44 564.44 408.77 565.77 408.10 567.10 C407.44 567.10 406.78 567.10 406.10 567.10 C405.83 567.98 405.56 568.86 405.29 569.77 C404.16 572.94 402.84 575.56 401.13 578.45 C400.54 579.44 399.96 580.43 399.35 581.45 C398.74 582.49 398.12 583.53 397.48 584.60 C396.2 586.77 394.92 588.93 393.65 591.09 C393.03 592.13 392.42 593.17 391.79 594.24 C389.73 597.74 387.72 601.26 385.73 604.79 C382.67 610.17 379.46 615.44 376.16 620.68 C373.93 624.39 371.87 628.18 369.81 631.99 C366.96 637.18 364.03 642.32 361.09 647.46 C360.04 649.30 358.99 651.14 357.94 652.98 C356.60 655.33 355.25 657.66 353.88 660.00 C352.80 661.88 351.76 663.79 350.79 665.73 C348.13 670.77 348.13 670.77 345.22 671.71 C343.01 671.89 340.99 671.81 338.79 671.60 C338.05 671.57 337.31 671.53 336.55 671.49 C334.73 671.4 332.91 671.26 331.10 671.10 C331.10 672.09 331.10 673.08 331.10 674.10 C314.93 674.43 298.76 674.76 282.10 675.10 C282.10 673.78 282.10 672.46 282.10 671.10 C279.79 671.10 277.48 671.10 275.10 671.10 C275.10 672.09 275.10 673.08 275.10 674.10 C266.97 674.26 258.85 674.40 250.72 674.55 C246.94 674.61 243.17 674.68 239.40 674.75 C235.75 674.82 232.11 674.88 228.46 674.95 C227.07 674.97 225.69 675.00 224.30 675.02 C222.35 675.06 220.40 675.09 218.45 675.13 C217.34 675.14 216.24 675.16 215.09 675.18 C212.3 675.11 209.82 674.75 207.10 674.10 C207.10 673.11 207.10 672.12 207.10 671.10 C201.82 671.10 196.54 671.10 191.10 671.10 C190.52 670.06 189.94 669.02 189.34 667.96 C182.26 655.29 182.26 655.29 179.10 650.10 C176.59 645.97 174.21 641.76 171.85 637.54 C165.74 626.61 159.43 615.79 152.79 605.17 C150.07 600.78 147.69 596.36 145.45 591.71 C143.21 587.38 140.57 583.30 137.97 579.18 C133.10 571.16 133.10 571.16 133.10 568.10 C132.44 568.10 131.78 568.10 131.10 568.10 C130.53 566.95 129.97 565.80 129.38 564.61 C127.25 560.34 124.96 556.18 122.60 552.04 C122.22 551.37 121.85 550.70 121.46 550.01 C121.27 549.68 121.27 549.68 120.32 548.00 C119.95 547.36 119.59 546.71 119.21 546.04 C118.46 544.73 117.69 543.43 116.91 542.14 C114.04 537.38 114.04 537.38 114.66 534.48 C115.14 533.69 115.61 532.91 116.10 532.10 C116.64 531.17 117.17 530.25 117.73 529.29 C118.18 528.57 118.63 527.85 119.10 527.10 C118.11 525.78 117.12 524.46 116.10 523.10 C116.42 522.58 116.73 522.06 117.06 521.52 C118.56 519.05 120.05 516.58 121.54 514.10 C121.81 513.65 121.81 513.65 123.19 511.37 C126.97 505.07 130.63 498.71 134.07 492.22 C136.30 488.12 138.70 485.22 142.10 482.10 C143.09 482.43 144.08 482.76 145.10 483.10 C145.33 482.46 145.56 481.82 145.79 481.17 C149.14 473.35 153.84 466.13 158.17 458.82 C161.04 453.94 163.84 449.04 166.60 444.10 C169.71 438.55 172.87 433.03 176.10 427.54 C176.51 426.84 176.92 426.14 177.34 425.42 C179.44 421.86 181.57 418.34 183.81 414.87 C184.23 414.20 184.66 413.52 185.10 412.82 C185.91 411.54 186.74 410.27 187.59 409.01 C188.68 407.27 188.68 407.27 190.10 404.10 C189.37 401.04 188.13 399.15 186.48 396.48 C185.10 394.10 185.10 394.10 185.10 391.10 C184.44 391.10 183.78 391.10 183.10 391.10 C182.80 390.53 182.49 389.96 182.18 389.37 C176.39 378.63 170.22 368.11 164.05 357.60 C163.76 357.11 163.76 357.11 162.29 354.60 C162.05 354.20 162.05 354.20 160.83 352.13 C158.73 348.46 156.72 344.74 154.70 341.02 C152.21 336.46 149.66 331.94 147.10 327.42 C146.83 326.93 146.83 326.93 145.43 324.46 C140.07 315.00 134.59 305.61 129.10 296.23 C122.94 285.71 122.94 285.71 120.28 280.61 C115.43 271.81 115.43 271.81 112.04 270.01 C109.61 269.69 107.54 269.82 105.10 270.10 C104.00 270.16 102.89 270.22 101.75 270.27 C93.09 270.77 93.09 270.77 89.10 272.10 C87.42 272.20 85.73 272.23 84.04 272.23 C83.16 272.23 82.28 272.23 81.38 272.24 C79.10 272.10 79.10 272.10 77.10 271.10 C75.03 271.01 72.96 270.97 70.89 270.97 C69.64 270.97 68.4 270.97 67.12 270.97 C65.81 270.97 64.51 270.97 63.16 270.98 C62.51 270.98 62.51 270.98 59.22 270.97 C57.98 270.97 56.73 270.97 55.45 270.97 C54.88 270.97 54.88 270.97 51.98 270.97 C49.10 271.10 49.10 271.10 46.10 272.10 C43.71 271.85 41.33 271.53 38.95 271.17 C31.17 270.09 23.59 269.90 15.75 270.04 C13.52 270.08 11.28 270.11 9.04 270.13 C2.70 270.19 -3.65 270.26 -9.99 270.37 C-13.91 270.44 -17.82 270.48 -21.74 270.5 C-23.22 270.51 -24.70 270.54 -26.19 270.57 C-28.25 270.62 -30.30 270.63 -32.36 270.64 C-33.53 270.66 -34.70 270.67 -35.91 270.69 C-38.90 270.10 -38.90 270.10 -41.2 267.75 C-42.96 265.01 -44.60 262.27 -46.15 259.42 C-46.67 258.46 -47.19 257.51 -47.73 256.53 C-48.90 254.10 -48.90 254.10 -48.90 252.10 C-49.56 252.10 -50.22 252.10 -50.90 252.10 C-51.26 251.44 -51.62 250.77 -51.99 250.08 C-55.61 243.43 -59.29 236.81 -63.02 230.23 C-63.59 229.23 -64.15 228.24 -64.73 227.21 C-77.83 204.09 -91.08 181.06 -104.46 158.10 C-105.02 157.14 -105.58 156.18 -106.16 155.19 C-106.69 154.28 -107.23 153.36 -107.78 152.42 C-108.29 151.53 -108.80 150.65 -109.33 149.74 C-110.41 147.93 -111.52 146.14 -112.67 144.37 C-113.23 143.5 -113.79 142.63 -114.36 141.73 C-114.87 140.96 -115.38 140.19 -115.91 139.39 C-117.16 136.51 -116.82 135.06 -115.90 132.10 C-114.65 129.75 -113.27 127.54 -111.86 125.29 C-110.69 122.64 -111.20 121.82 -111.90 119.10 C-111.11 117.04 -111.11 117.04 -109.71 114.67 C-109.16 113.71 -108.61 112.75 -108.04 111.77 C-107.71 111.21 -107.38 110.65 -107.05 110.07 C-105.69 107.75 -104.36 105.41 -103.03 103.06 C-98.09 94.35 -93.09 85.68 -87.90 77.10 C-87.40 77.27 -87.40 77.27 -84.90 78.10 C-82.90 75.10 -82.90 75.10 -83.05 71.92 C-82.85 66.93 -81.04 64.17 -78.40 60.04 C-77.47 58.52 -76.54 57.01 -75.61 55.49 C-75.15 54.74 -74.68 54.00 -74.21 53.23 C-72.41 50.31 -70.71 47.34 -69.02 44.35 C-68.39 43.25 -67.77 42.14 -67.12 41.01 C-66.78 40.41 -66.43 39.80 -66.08 39.19 C-63.57 34.76 -61.05 30.34 -58.52 25.92 C-58.00 24.99 -57.47 24.07 -56.93 23.12 C-56.44 22.26 -55.95 21.39 -55.44 20.50 C-55.00 19.72 -54.55 18.95 -54.1 18.15 C-53.09 16.43 -52.00 14.76 -50.90 13.10 C-49.58 13.10 -48.26 13.10 -46.90 13.10 C-45.44 10.52 -45.44 10.52 -43.97 7.18 C-40.78 1.45 -40.78 1.45 -37.09 0.02 C-33.61 -0.31 -30.3 -0.29 -26.81 -0.14 C-25.53 -0.13 -24.25 -0.12 -22.93 -0.11 C-20.25 -0.09 -17.57 -0.06 -14.88 0.02 C-9.92 0.12 -4.96 0.07 0 0 Z " fill="#C5C5C5" transform="translate(241.90,138.90)"/>
<path d="M0 0 C20.79 0 41.58 0 63 0 C63 0.66 63 1.32 63 2 C63.29 2.06 63.29 2.06 64.74 2.34 C78.36 5.50 92.11 12.25 103 21 C103.47 21.38 103.47 21.38 105.86 23.29 C107.74 24.81 109.60 26.34 111.46 27.89 C113.13 29.28 114.84 30.64 116.57 31.96 C119.12 34.10 121.03 36.31 123.06 38.94 C123.71 39.77 124.36 40.61 125.03 41.47 C125.68 42.30 126.33 43.14 127 44 C128.33 45.67 129.66 47.34 131 49 C136.74 48.40 140.93 45.12 145.65 42.06 C147.39 40.97 149.19 39.98 151 39 C155.04 40.35 155.64 42.23 157.75 45.88 C158.38 46.95 159.02 48.02 159.67 49.12 C161 52 161 52 160 55 C158.36 56.26 158.36 56.26 156.25 57.48 C155.50 57.92 154.74 58.36 153.97 58.82 C153.17 59.27 152.38 59.72 151.56 60.19 C150.77 60.65 149.98 61.11 149.17 61.59 C143.28 65 143.28 65 141 65 C141.20 65.52 141.39 66.05 141.59 66.58 C143.76 72.38 145.90 78.18 148 84 C148.32 84.89 148.64 85.78 148.98 86.69 C153.38 99.18 153.6 113.94 153 127 C152.94 128.28 152.89 129.55 152.83 130.87 C151.01 157.04 138.59 181.94 121 201 C119.97 202.27 118.95 203.54 117.94 204.81 C114.18 209.18 109.58 212.55 105 216 C104.63 216.29 104.63 216.29 102.73 217.75 C84.35 231.31 62.91 239.78 40 240 C40 248.25 40 256.5 40 265 C34.06 265 28.12 265 22 265 C22 256.75 22 248.5 22 240 C19.86 240 17.71 240 15.5 240 C-12.41 238.78 -38.03 222.36 -57 203 C-57.23 202.76 -57.23 202.76 -58.41 201.56 C-77.12 182.13 -90.12 155.37 -90 128 C-90.03 126.19 -90.07 124.38 -90.11 122.57 C-90.45 101.77 -86.38 84.33 -79 65 C-79.34 64.88 -79.34 64.88 -81.05 64.25 C-84.60 62.75 -87.91 60.91 -91.25 59 C-91.89 58.64 -92.52 58.29 -93.18 57.92 C-97.88 55.24 -97.88 55.24 -99 53 C-97.76 50.55 -96.47 48.23 -95.06 45.88 C-94.68 45.22 -94.29 44.56 -93.89 43.88 C-92.94 42.25 -91.97 40.62 -91 39 C-86.03 40.73 -81.69 43.43 -77.19 46.13 C-76.40 46.59 -75.61 47.06 -74.80 47.54 C-72.86 48.69 -70.93 49.84 -69 51 C-68.71 50.39 -68.42 49.78 -68.11 49.16 C-58.08 29.76 -33.98 12.42 -13.65 5.16 C-10.35 4.17 -7.06 3.38 -3.68 2.68 C-2.79 2.46 -1.91 2.23 -1 2 C-0.67 1.34 -0.34 0.68 0 0 Z " fill="#000000" transform="translate(480,289)"/>
<path d="M0 0 C1.11 -0.00 2.22 -0.01 3.36 -0.01 C4.57 -0.01 5.77 -0.01 7.02 -0.00 C8.25 -0.00 9.48 -0.01 10.75 -0.01 C14.04 -0.01 17.32 -0.00 20.60 0.00 C22.61 0.00 24.63 0.00 26.64 -0.00 C30.49 -0.01 34.35 -0.01 38.20 -0.00 C38.80 -0.00 38.80 -0.00 41.84 -0.01 C42.96 -0.01 44.08 -0.00 45.23 0 C45.72 0 45.72 0 48.21 0.00 C50.57 0.12 52.53 0.55 54.81 1.13 C56.81 0.81 58.81 0.47 60.81 0.13 C63.85 -0.01 66.88 0.01 69.93 0.03 C70.78 0.03 71.64 0.04 72.52 0.04 C75.24 0.04 77.96 0.05 80.68 0.07 C82.54 0.07 84.39 0.08 86.24 0.08 C90.76 0.09 95.29 0.11 99.81 0.13 C100.22 0.89 100.63 1.65 101.05 2.43 C101.59 3.42 102.13 4.42 102.68 5.44 C103.22 6.43 103.75 7.41 104.30 8.43 C105.81 11.13 105.81 11.13 107.81 14.13 C107.97 15.94 107.97 15.94 108.81 25.13 C92.64 25.46 76.47 25.79 59.81 26.13 C59.81 24.81 59.81 23.49 59.81 22.13 C57.50 22.13 55.19 22.13 52.81 22.13 C52.81 23.12 52.81 24.11 52.81 25.13 C44.68 25.28 36.55 25.43 28.43 25.57 C24.65 25.64 20.88 25.70 17.10 25.78 C13.46 25.85 9.81 25.91 6.17 25.97 C4.78 26.00 3.39 26.02 2.00 26.05 C0.06 26.09 -1.89 26.12 -3.84 26.15 C-4.95 26.17 -6.06 26.19 -7.20 26.21 C-9.99 26.14 -12.48 25.77 -15.19 25.13 C-15.54 15.60 -11.18 8.86 -6.19 1.13 C-4.49 -0.57 -2.32 0.00 0 0 Z " fill="#B9B9B9" transform="translate(464.19,787.87)"/>
<path d="M0 0 C2.02 1.93 3.42 3.63 5 6 C5 6.99 5 7.98 5 9 C5.76 8.32 6.53 7.64 7.31 6.94 C8.20 6.30 9.09 5.66 10 5 C13.57 6.19 13.77 6.84 15.53 10.02 C16.01 10.87 16.48 11.72 16.97 12.59 C17.48 13.51 17.98 14.43 18.5 15.38 C19.57 17.29 20.63 19.20 21.70 21.12 C22.24 22.09 22.79 23.07 23.34 24.08 C24.94 26.90 26.59 29.68 28.27 32.45 C28.78 33.30 29.29 34.15 29.82 35.03 C30.80 36.65 31.79 38.26 32.78 39.87 C36.08 45.38 36.08 45.38 35.67 48.72 C35.45 49.47 35.23 50.22 35 51 C35.94 53.81 35.94 53.81 37 56 C31.33 60.90 26.31 64.19 19 66 C18.40 64.91 17.80 63.81 17.19 62.69 C15.70 60.06 14.20 58.09 12 56 C12 55.34 12 54.68 12 54 C11.34 54 10.68 54 10 54 C9.77 53.50 9.53 53.00 9.29 52.48 C5.86 45.35 1.89 38.57 -2.17 31.78 C-8.86 20.43 -8.86 20.43 -7.76 14.14 C-5.96 9.07 -2.85 4.53 0 0 Z " fill="#AEAEAE" transform="translate(819,147)"/>
<path d="M0 0 C3.88 3.75 3.88 3.75 5 6 C5.60 5.67 6.20 5.34 6.81 5 C9 4 9 4 12 4 C12.62 5.13 13.23 6.25 13.87 7.41 C18.41 15.64 22.97 23.82 27.95 31.79 C30.76 36.34 32.92 41.08 35 46 C31.73 47.84 28.46 49.67 25.19 51.5 C24.26 52.02 23.33 52.55 22.37 53.09 C21.48 53.59 20.59 54.08 19.67 54.59 C18.85 55.05 18.02 55.52 17.18 55.99 C15 57 15 57 12 57 C10.53 54.87 10.53 54.87 9 52 C8.44 51.06 7.89 50.12 7.31 49.16 C5.70 46.41 4.08 43.66 2.48 40.90 C1.78 39.72 1.09 38.54 0.40 37.36 C-0.62 35.64 -1.63 33.92 -2.63 32.20 C-3.23 31.18 -3.83 30.15 -4.44 29.10 C-7.03 23.95 -8.66 18.79 -8 13 C-6.50 9.82 -6.50 9.82 -4.56 6.69 C-3.92 5.64 -3.29 4.59 -2.63 3.51 C-1 1 -1 1 0 0 Z " fill="#AEAEAE" transform="translate(356,144)"/>
<path d="M0 0 C1.11 -0.00 2.22 -0.01 3.36 -0.01 C4.57 -0.01 5.77 -0.01 7.02 -0.00 C8.25 -0.00 9.48 -0.01 10.75 -0.01 C14.04 -0.01 17.32 -0.00 20.60 0.00 C22.61 0.00 24.63 0.00 26.64 -0.00 C30.49 -0.01 34.35 -0.01 38.20 -0.00 C38.80 -0.00 38.80 -0.00 41.84 -0.01 C42.96 -0.01 44.08 -0.00 45.23 0 C45.72 0 45.72 0 48.21 0.00 C50.57 0.12 52.53 0.55 54.81 1.13 C56.81 0.81 58.81 0.47 60.81 0.13 C63.85 -0.01 66.88 0.01 69.93 0.03 C70.78 0.03 71.64 0.04 72.52 0.04 C75.24 0.04 77.96 0.05 80.68 0.07 C82.54 0.07 84.39 0.08 86.24 0.08 C90.76 0.09 95.29 0.11 99.81 0.13 C100.22 0.89 100.63 1.65 101.05 2.43 C101.59 3.42 102.13 4.42 102.68 5.44 C103.22 6.43 103.75 7.41 104.30 8.43 C105.81 11.13 105.81 11.13 107.81 14.13 C108.22 16.83 108.22 16.83 108.43 19.82 C108.47 20.31 108.47 20.31 108.66 22.83 C108.71 23.59 108.76 24.35 108.81 25.13 C106.51 23.02 105.10 21.06 103.75 18.25 C103.43 17.60 103.11 16.94 102.77 16.26 C101.71 13.92 100.77 11.52 99.81 9.13 C86.94 9.13 74.07 9.13 60.81 9.13 C60.81 11.77 60.81 14.41 60.81 17.13 C57.84 17.13 54.87 17.13 51.81 17.13 C51.81 14.49 51.81 11.85 51.81 9.13 C32.67 9.13 13.53 9.13 -6.19 9.13 C-6.85 11.11 -7.51 13.09 -8.19 15.13 C-9.18 16.95 -10.22 18.74 -11.32 20.50 C-11.59 20.94 -11.59 20.94 -12.95 23.15 C-13.36 23.80 -13.77 24.46 -14.19 25.13 C-15.64 20.79 -14.66 17.33 -13.19 13.13 C-6.43 0.01 -6.43 0.01 0 0 Z " fill="#A7A7A7" transform="translate(464.19,787.87)"/>
<path d="M0 0 C2.92 3.62 5.08 7.57 7.31 11.63 C9.89 16.26 12.48 20.86 15.25 25.38 C18.13 30.11 20.6 35.01 23 40 C22 41 22 41 20.13 41.12 C19.32 41.12 18.50 41.12 17.66 41.11 C17.20 41.11 17.20 41.11 14.87 41.11 C13.87 41.11 12.87 41.10 11.84 41.10 C10.82 41.10 9.80 41.09 8.75 41.09 C5.48 41.09 2.21 41.08 -1.06 41.06 C-3.27 41.06 -5.49 41.05 -7.70 41.05 C-13.13 41.04 -18.57 41.02 -24 41 C-23 39 -23 39 -20.81 37.94 C-17.88 36.96 -15.06 36.43 -12 36 C-12.38 35.38 -12.75 34.77 -13.14 34.13 C-14.21 32.36 -15.27 30.58 -16.33 28.80 C-17.39 27.03 -18.46 25.26 -19.55 23.51 C-20.01 22.74 -20.46 21.98 -20.94 21.19 C-21.36 20.5 -21.78 19.81 -22.21 19.11 C-23.27 16.26 -23.07 14.83 -22 12 C-19.89 10.23 -19.89 10.23 -17.25 8.75 C-16.82 8.5 -16.82 8.5 -14.64 7.23 C-12.06 6.03 -9.81 5.42 -7 5 C-7 4.34 -7 3.68 -7 3 C-4.69 2.01 -2.38 1.02 0 0 Z " fill="#959595" transform="translate(412,234)"/>
<path d="M0 0 C3.23 1.02 5.67 2.54 8.49 4.41 C9.46 5.05 10.44 5.69 11.45 6.35 C11.81 6.60 11.81 6.60 13.68 7.85 C10.29 10.68 6.91 12.96 3.05 15.10 C-2.04 17.94 -7.07 20.88 -12.07 23.89 C-13.28 24.62 -14.50 25.35 -15.71 26.07 C-17.55 27.18 -19.38 28.28 -21.20 29.39 C-22.94 30.44 -24.68 31.49 -26.42 32.53 C-26.93 32.84 -26.93 32.84 -29.5 34.39 C-32.18 35.77 -34.35 36.44 -37.32 36.85 C-38.15 35.69 -38.15 35.69 -42.32 29.85 C-36.32 24.27 -30.13 19.40 -23.32 14.85 C-22.04 13.97 -20.75 13.10 -19.46 12.22 C-18.10 11.30 -16.75 10.39 -15.39 9.47 C-15.06 9.25 -15.06 9.25 -13.41 8.13 C-10.74 6.34 -8.40 4.87 -5.32 3.85 C-5.32 3.19 -5.32 2.53 -5.32 1.85 C-2.32 -0.15 -2.32 -0.15 0 0 Z " fill="#9F9F9F" transform="translate(648.32,302.15)"/>
<path d="M0 0 C3.06 1.88 3.06 1.88 6 4 C6.50 4.16 6.50 4.16 9.06 4.94 C13.52 6.55 15.98 9.28 18.38 13.31 C19.25 17.09 19.17 20.29 18 24 C14.28 28.65 10.46 31.69 4.5 32.44 C0.18 31.90 -1.08 31.23 -4 28 C-7.8 21.54 -10.13 15.96 -10.25 8.44 C-10.28 7.49 -10.30 6.54 -10.33 5.56 C-10 3 -10 3 -8.69 1.19 C-5.80 -0.84 -3.42 -0.41 0 0 Z " fill="#AFAFAF" transform="translate(590,555)"/>
<path d="M0 0 C5.51 -0.35 8.56 1.12 12.90 4.25 C15.47 8.41 15.94 12.49 14.90 17.25 C12.30 21.39 9.59 24.68 4.90 26.25 C2.64 26.13 2.64 26.13 0.21 25.81 C-0.60 25.71 -1.41 25.61 -2.24 25.5 C-2.85 25.42 -3.47 25.33 -4.10 25.25 C-4.43 24.26 -4.76 23.27 -5.10 22.25 C-6.87 21.20 -6.87 21.20 -9.10 20.25 C-17.50 16.35 -17.50 16.35 -19.66 12.37 C-18.89 8.04 -16.88 6.40 -13.48 3.73 C-9.14 1.03 -4.98 0.58 0 0 Z " fill="#B6B6B6" transform="translate(283.10,384.75)"/>
<path d="M0 0 C5.70 7.33 5.70 7.33 6.40 11.27 C5.82 15.22 3.48 17.46 0.88 20.31 C-0.14 21.46 -1.15 22.60 -2.15 23.75 C-2.64 24.30 -3.13 24.86 -3.64 25.43 C-6.28 28.48 -8.63 31.73 -11 35 C-14.26 31.91 -16.42 28.44 -18.75 24.63 C-19.17 23.96 -19.60 23.30 -20.04 22.63 C-21.84 19.67 -22.98 17.74 -23.06 14.23 C-21.65 11.26 -20.10 10.35 -17.25 8.75 C-16.82 8.5 -16.82 8.5 -14.64 7.23 C-12.06 6.03 -9.81 5.42 -7 5 C-7 4.34 -7 3.68 -7 3 C-4.69 2.01 -2.38 1.02 0 0 Z " fill="#A3A3A3" transform="translate(412,234)"/>
<path d="M0 0 C0.34 0.00 0.34 0.00 2.09 0.01 C3.77 0.03 5.45 0.04 7.13 0.06 C9.22 3.85 10.51 6.59 10.31 10.94 C10.30 11.33 10.30 11.33 10.23 13.30 C10.20 13.88 10.16 14.46 10.13 15.06 C9.38 14.22 8.64 13.37 7.88 12.5 C5.13 10.06 5.13 10.06 3.12 10.07 C0.18 11.53 -0.32 13.45 -1.56 16.44 C-1.98 17.41 -2.40 18.39 -2.82 19.40 C-3.56 21.27 -4.24 23.16 -4.88 25.06 C-8.43 24.45 -11.56 23.48 -14.88 22.06 C-14.54 20.74 -14.21 19.42 -13.88 18.06 C-14.33 18.03 -14.33 18.03 -16.63 17.88 C-19.88 17.06 -19.88 17.06 -22.25 14.81 C-24.04 11.78 -24.67 10.50 -23.88 7.06 C-17.20 0.39 -9.00 -0.11 0 0 Z " fill="#B9B9B9" transform="translate(328.88,385.94)"/>
<path d="M0 0 C5.30 -0.22 10.60 -0.39 15.91 -0.49 C17.71 -0.54 19.51 -0.60 21.31 -0.68 C36.33 -1.31 36.33 -1.31 40.49 1.96 C42.03 4.27 43.05 6.40 44 9 C44.58 9.82 45.16 10.65 45.75 11.5 C47.58 15.16 48.26 18.99 49 23 C48.67 23.16 48.67 23.16 47 24 C45.85 22.07 44.71 20.13 43.56 18.19 C42.92 17.11 42.29 16.03 41.63 14.92 C40 12 40 12 39 9 C37.85 8.97 36.71 8.95 35.53 8.92 C31.29 8.83 27.06 8.73 22.82 8.63 C20.98 8.58 19.15 8.54 17.31 8.50 C14.68 8.45 12.04 8.38 9.41 8.32 C9.00 8.31 9.00 8.31 6.91 8.27 C1.11 8.11 1.11 8.11 0 7 C-0.04 4.67 -0.04 2.33 0 0 Z " fill="#A8A8A8" transform="translate(760,388)"/>
<path d="M0 0 C2.02 1.93 3.42 3.63 5 6 C5 6.99 5 7.98 5 9 C6.98 7.68 8.96 6.36 11 5 C9.16 12 5.71 19.85 -0.75 23.63 C-4 25 -4 25 -6 25 C-7.90 20.41 -8.66 16.71 -7 12 C-4.84 7.89 -2.47 3.93 0 0 Z " fill="#989998" transform="translate(819,147)"/>
<path d="M0 0 C0.35 0.00 0.35 0.00 2.14 0.01 C3.88 0.03 5.63 0.04 7.38 0.06 C9.47 3.85 10.76 6.59 10.56 10.94 C10.54 11.72 10.51 12.5 10.48 13.30 C10.45 13.88 10.41 14.46 10.38 15.06 C9.61 14.26 8.85 13.45 8.06 12.63 C5.38 10.06 5.38 10.06 2.38 9.06 C2.38 8.40 2.38 7.74 2.38 7.06 C0.29 7.37 -1.79 7.69 -3.88 8 C-5.04 8.17 -6.20 8.35 -7.39 8.53 C-9.86 8.94 -12.22 9.40 -14.63 10.06 C-14.14 5.75 -12.92 3.86 -9.63 1.06 C-6.56 -0.47 -3.36 -0.04 0 0 Z " fill="#9E9E9E" transform="translate(328.63,385.94)"/>
<path d="M0 0 C-0.38 0.36 -0.38 0.36 -2.31 2.19 C-5.77 5.81 -7.62 9.06 -9.5 13.69 C-11 17 -11 17 -14 19 C-16.50 15.24 -16.49 12.34 -16 8 C-15.04 3.46 -13.94 0.74 -10.25 -2.19 C-5.75 -3.31 -4.01 -2.17 0 0 Z " fill="#ADADAD" transform="translate(755,207)"/>
<path d="M0 0 C2.92 1.4 3.56 3.99 4.78 6.86 C0.14 11.26 -4.07 13.18 -10.22 14.86 C-12.06 11.75 -12.84 9.46 -12.22 5.86 C-10.17 4.02 -10.17 4.02 -7.47 2.48 C-6.59 1.96 -5.71 1.43 -4.80 0.90 C-2.22 -0.14 -2.22 -0.14 0 0 Z " fill="#878787" transform="translate(848.22,198.14)"/>
<path d="M0 0 C-2.64 5.61 -5.28 11.22 -8 17 C-11.3 17 -14.6 17 -18 17 C-16.65 13.43 -15.09 10.13 -13.19 6.81 C-12.71 5.95 -12.23 5.09 -11.73 4.21 C-8.40 -0.04 -5.26 0 0 0 Z " fill="#BDBDBD" transform="translate(458,789)"/>
<path d="M0 0 C4.11 0.57 5.76 1.55 8.63 4.5 C8.63 5.16 8.63 5.82 8.63 6.5 C6.98 7.53 5.31 8.53 3.63 9.5 C0.32 11.88 -1.87 13.67 -3.38 17.5 C-4.04 17.5 -4.70 17.5 -5.38 17.5 C-6.34 14.61 -6.57 12.58 -6.63 9.56 C-6.65 8.71 -6.68 7.85 -6.70 6.97 C-6.10 2.41 -4.52 0.67 0 0 Z " fill="#A3A3A3" transform="translate(606.38,590.5)"/>
<path d="M0 0 C2.94 2.5 2.94 2.5 5 5 C4.61 5.12 4.61 5.12 2.63 5.75 C-0.44 7.21 -0.59 8.08 -2 11 C-4.13 11.75 -4.13 11.75 -6 12 C-6.33 13.98 -6.66 15.96 -7 18 C-7.66 18 -8.32 18 -9 18 C-9.95 14.78 -10.20 11.79 -10.25 8.44 C-10.28 7.49 -10.30 6.54 -10.33 5.56 C-10 3 -10 3 -8.70 1.19 C-5.77 -0.86 -3.44 -0.47 0 0 Z " fill="#9A9A9A" transform="translate(590,555)"/>
<path d="M0 0 C-1 3 -1 3 -3.38 4.56 C-6.73 7.68 -7.18 10.37 -8.13 14.76 C-9 17 -9 17 -11.09 18.30 C-11.40 18.42 -11.40 18.42 -13 19 C-14.55 17.31 -14.55 17.31 -16 15 C-15.89 12.56 -15.89 12.56 -15.25 10 C-15.05 9.15 -14.85 8.31 -14.64 7.44 C-14.43 6.63 -14.22 5.83 -14 5 C-13.81 4.24 -13.62 3.47 -13.42 2.69 C-13.28 2.13 -13.14 1.57 -13 1 C-11.68 1 -10.36 1 -9 1 C-9 1.99 -9 2.98 -9 4 C-8.26 3.34 -7.51 2.68 -6.75 2 C-4 0 -4 0 0 0 Z " fill="#AAAAAA" transform="translate(734,208)"/>
<path d="M0 0 C-1 3 -1 3 -3.00 4.10 C-3.40 4.26 -3.40 4.26 -5.44 5.06 C-8.25 6.19 -9.84 6.84 -12 9 C-12.99 9 -13.98 9 -15 9 C-15 9.99 -15 10.98 -15 12 C-15.82 11.67 -15.82 11.67 -20 10 C-19.67 7.01 -19.19 5.25 -17.38 2.81 C-11.78 -1.46 -6.56 -1.15 0 0 Z " fill="#B8B8B8" transform="translate(242,300)"/>
<path d="M0 0 C2.25 2.05 3.00 3.01 4 6 C3.41 7.76 3.41 7.76 2.42 9.69 C2.06 10.39 1.71 11.09 1.34 11.80 C0.96 12.53 0.58 13.25 0.19 14 C-0.18 14.72 -0.55 15.45 -0.93 16.20 C-2.50 19.25 -4.09 22.13 -6 25 C-7.90 20.41 -8.66 16.71 -7 12 C-4.84 7.89 -2.47 3.93 0 0 Z " fill="#A3A3A3" transform="translate(819,147)"/>
<path d="M0 0 C0 0.66 0 1.32 0 2 C-0.98 2.23 -1.95 2.46 -2.96 2.70 C-4.23 3.02 -5.50 3.35 -6.81 3.69 C-8.08 4.00 -9.34 4.31 -10.64 4.64 C-14.44 6.18 -15.36 7.33 -17 11 C-17.82 10.67 -17.82 10.67 -22 9 C-20.68 5.05 -19.29 2.58 -16 0 C-10.52 -2.17 -5.42 -2.71 0 0 Z " fill="#BCBCBC" transform="translate(232,284)"/>
<path d="M0 0 C1 3 1 3 -0.44 6.00 C-1.14 7.15 -1.84 8.30 -2.56 9.44 C-2.90 10.01 -3.23 10.58 -3.58 11.17 C-6.20 15.41 -8.80 17.55 -13 20 C-13.69 18.31 -13.69 18.31 -14 16 C-13.06 14.30 -12.04 12.64 -11 11 C-10.22 8.94 -9.52 6.87 -8.84 4.77 C-8 3 -8 3 -5 1 C-3.68 1 -2.36 1 -1 1 C-0.67 0.67 -0.34 0.34 0 0 Z " fill="#999999" transform="translate(365,148)"/>
<path d="M0 0 C1.32 1.32 2.64 2.64 4 4 C3.40 4.99 2.80 5.98 2.19 7 C-1.06 12.68 -2.99 18.80 -5 25 C-7.82 22.18 -7.95 19.84 -8.31 15.95 C-7.71 10.25 -4.06 4.06 0 0 Z " fill="#A2A2A2" transform="translate(356,144)"/>
<path d="M0 0 C0.33 0.66 0.66 1.32 1 2 C0.32 3.96 0.32 3.96 -0.80 6.37 C-1.00 6.81 -1.00 6.81 -2.01 9.03 C-2.44 9.97 -2.87 10.91 -3.31 11.88 C-6.73 19.61 -9.28 26.52 -10 35 C-10.18 36.50 -10.36 38.00 -10.54 39.5 C-11.06 43.66 -11.54 47.83 -12 52 C-12.33 52 -12.66 52 -13 52 C-13.68 32.49 -10.45 16.63 0 0 Z " fill="#B8B8B8" transform="translate(673,229)"/>
<path d="M0 0 C-0.61 0.68 -1.23 1.37 -1.86 2.07 C-4.21 5.29 -5.17 7.99 -6.25 11.81 C-6.58 12.97 -6.92 14.13 -7.27 15.33 C-7.51 16.21 -7.75 17.09 -8 18 C-9.94 14.73 -10.30 12.21 -10.31 8.44 C-10.33 7.49 -10.35 6.54 -10.36 5.56 C-10 3 -10 3 -8.71 1.17 C-5.96 -0.72 -3.23 -0.18 0 0 Z " fill="#A8A8A8" transform="translate(590,555)"/>
<path d="M0 0 C1.65 0.33 3.3 0.66 5 1 C3.52 6.25 -0.01 10.40 -4 14 C-6.23 14.73 -6.23 14.73 -8 15 C-7.67 14.50 -7.35 14.01 -7.01 13.50 C-4.19 9.11 -1.92 4.84 0 0 Z " fill="#AA3333" transform="translate(340,300)"/>
<path d="M0 0 C1.65 0.33 3.3 0.66 5 1 C6.31 3.06 6.31 3.06 7 5 C6.26 5.43 5.51 5.87 4.75 6.31 C2 8 2 8 -0.13 9.75 C-0.43 9.96 -0.43 9.96 -2 11 C-2.99 10.67 -3.98 10.34 -5 10 C-3.35 6.7 -1.7 3.4 0 0 Z " fill="#969696" transform="translate(608,592)"/>
<path d="M0 0 C-1 3 -1 3 -3.00 4.10 C-3.40 4.26 -3.40 4.26 -5.44 5.06 C-8.25 6.19 -9.84 6.84 -12 9 C-12.99 8.67 -13.98 8.34 -15 8 C-11.59 1.31 -11.59 1.31 -9.19 0.06 C-6.12 -0.03 -3.07 -0.06 0 0 Z " fill="#A5A5A5" transform="translate(242,300)"/>
<path d="M0 0 C5.78 -0.24 10.51 0.13 16 2 C16 2.66 16 3.32 16 4 C9.4 4 2.8 4 -4 4 C-3.67 3.34 -3.34 2.68 -3 2 C-2.01 2 -1.02 2 0 2 C0 1.34 0 0.68 0 0 Z " fill="#ACACAC" transform="translate(505,606)"/>
<path d="M0 0 C1.98 0.66 3.96 1.32 6 2 C5.52 6.31 4.25 8.17 1 11 C0.01 10.34 -0.98 9.68 -2 9 C-1.83 8.63 -1.83 8.63 -1 6.75 C0 4 0 4 0 0 Z " fill="#B2B2B2" transform="translate(159,210)"/>
<path d="M0 0 C0 0.66 0 1.32 0 2 C-1.77 2.53 -3.54 3.05 -5.31 3.56 C-6.30 3.85 -7.29 4.14 -8.30 4.44 C-11 5 -11 5 -14 4 C-13.38 2.06 -13.38 2.06 -12 0 C-7.75 -1.26 -4.29 -0.92 0 0 Z " fill="#AEAEAE" transform="translate(232,284)"/>
<path d="M0 0 C0.33 0 0.66 0 1 0 C1.91 6.95 -0.96 11.44 -5 17 C-5.33 17 -5.66 17 -6 17 C-5.83 10.20 -4.31 5.35 0 0 Z " fill="#1F1F1F" transform="translate(216,198)"/>
<path d="M0 0 C5.26 -0.32 8.45 0.33 13 3 C13 3.33 13 3.66 13 4 C8.05 4 3.1 4 -2 4 C-1.34 2.68 -0.68 1.36 0 0 Z " fill="#A3A3A3" transform="translate(297,245)"/>
<path d="M0 0 C1.60 4.00 0.29 7.05 -1 11 C-1.99 11 -2.98 11 -4 11 C-4.33 8.36 -4.66 5.72 -5 3 C-3.35 2.01 -1.7 1.02 0 0 Z " fill="#969696" transform="translate(841,201)"/>
<path d="M0 0 C0.70 0.01 1.40 0.03 2.13 0.04 C3.86 0.08 5.58 0.13 7.31 0.19 C3.03 3.04 0.17 3.30 -4.88 3.25 C-5.42 3.25 -5.42 3.25 -8.17 3.22 C-9.00 3.21 -9.83 3.20 -10.69 3.19 C-7.98 -0.77 -4.33 -0.16 0 0 Z " fill="#191919" transform="translate(488.69,764.81)"/>
<path d="M0 0 C9.35 -0.49 9.35 -0.49 12.63 2 C13.08 2.66 13.53 3.32 14 4 C11.36 4 8.72 4 6 4 C6 3.01 6 2.02 6 1 C4.68 1.33 3.36 1.66 2 2 C1.67 4.64 1.34 7.28 1 10 C0.67 10 0.34 10 0 10 C0 6.7 0 3.4 0 0 Z " fill="#B9B9B9" transform="translate(538,698)"/>
<path d="M0 0 C3.88 1.55 6.03 4.00 8.75 7.13 C9.55 8.04 10.35 8.95 11.17 9.88 C11.47 10.23 11.47 10.23 13 12 C10 12 10 12 7.63 9.88 C0 1.52 0 1.52 0 0 Z " fill="#3F4040" transform="translate(594,641)"/>
<path d="M0 0 C2.01 0.29 4.01 0.62 6 1 C6 1.99 6 2.98 6 4 C3.03 4.66 0.06 5.32 -3 6 C-1.13 1.13 -1.13 1.13 0 0 Z " fill="#A2A2A2" transform="translate(247,316)"/>
<path d="M0 0 C2.97 0 5.94 0 9 0 C8.67 1.32 8.34 2.64 8 4 C5.69 4 3.38 4 1 4 C0.67 2.68 0.34 1.36 0 0 Z " fill="#CACACA" transform="translate(516,806)"/>
<path d="M0 0 C3.70 1.23 3.94 2.20 5.69 5.56 C6.12 6.39 6.56 7.21 7.01 8.07 C7.34 8.70 7.66 9.34 8 10 C6.68 10 5.36 10 4 10 C1.03 6.37 0 4.75 0 0 Z " fill="#BCBCBC" transform="translate(356,140)"/>
<path d="M0 0 C2.44 -0.08 4.87 -0.14 7.31 -0.19 C7.66 -0.2 7.66 -0.2 9.40 -0.26 C14.56 -0.34 14.56 -0.34 16.98 1.51 C17.32 2.00 17.65 2.49 18 3 C11.80 3.28 6.07 2.23 0 1 C0 0.67 0 0.34 0 0 Z " fill="#313131" transform="translate(526,765)"/>
<path d="M0 0 C-0.99 0.66 -1.98 1.32 -3 2 C-2.01 2.17 -2.01 2.17 3 3 C3 3.33 3 3.66 3 4 C-1.95 4 -6.9 4 -12 4 C-11 2 -11 2 -8.81 0.88 C-5.73 -0.08 -3.21 -0.15 0 0 Z " fill="#A9A9A9" transform="translate(400,271)"/>
<path d="M0 0 C3.67 1.50 5.69 3.64 8.25 6.63 C8.96 7.44 9.66 8.26 10.39 9.10 C10.92 9.73 11.45 10.36 12 11 C11.67 11.66 11.34 12.32 11 13 C9.16 11.21 7.33 9.42 5.5 7.63 C5.24 7.37 5.24 7.37 3.91 6.09 C2.57 4.76 1.28 3.38 0 2 C0 1.34 0 0.68 0 0 Z " fill="#393B3B" transform="translate(415,696)"/>
<path d="M0 0 C1.63 -0.03 3.25 -0.05 4.88 -0.06 C5.78 -0.07 6.68 -0.09 7.62 -0.10 C10 0 10 0 12 1 C12 1.66 12 2.32 12 3 C12.66 3.33 13.32 3.66 14 4 C11.69 4 9.38 4 7 4 C6.67 3.01 6.34 2.02 6 1 C4.35 1 2.7 1 1 1 C0.67 1.66 0.34 2.32 0 3 C0 2.01 0 1.02 0 0 Z " fill="#ADADAD" transform="translate(547,680)"/>
<path d="M0 0 C0.41 0.01 0.41 0.01 2.48 0.03 C2.79 0.03 2.79 0.03 4.38 0.06 C-0.78 3.50 -4.40 4.31 -10.63 4.06 C-6.83 1.15 -4.82 -0.07 0 0 Z " fill="#303030" transform="translate(260.63,363.94)"/>
<path d="M0 0 C1.65 1.65 3.3 3.3 5 5 C4.34 6.32 3.68 7.64 3 9 C0.94 7.31 0.94 7.31 -1 5 C-0.75 2.25 -0.75 2.25 0 0 Z " fill="#B8B8B8" transform="translate(851,196)"/>
<path d="M0 0 C4.55 -0.18 7.88 0.00 12 2 C12 2.33 12 2.66 12 3 C8.04 3 4.08 3 0 3 C0 2.01 0 1.02 0 0 Z " fill="#A5A5A5" transform="translate(621,272)"/>
<path d="M0 0 C0.35 0.20 0.35 0.20 2.13 1.19 C1.53 1.46 0.93 1.72 0.31 2 C-1.88 3.19 -1.88 3.19 -3.5 4.81 C-3.95 5.27 -4.41 5.72 -4.88 6.19 C-5.54 6.19 -6.20 6.19 -6.88 6.19 C-6.88 5.20 -6.88 4.21 -6.88 3.19 C-7.54 2.86 -8.20 2.53 -8.88 2.19 C-3.58 -1.01 -3.58 -1.01 0 0 Z " fill="#B8B8B8" transform="translate(731.88,205.81)"/>
<path d="M0 0 C0.33 0.66 0.66 1.32 1 2 C-0.14 4.35 -0.14 4.35 -1.81 7.06 C-2.35 7.96 -2.90 8.86 -3.46 9.79 C-5 12 -5 12 -7 13 C-6.71 7.03 -3.97 4.11 0 0 Z " fill="#8C8C8C" transform="translate(359,153)"/>
<path d="M0 0 C-3.21 2.85 -5.5 3.44 -9.75 3.69 C-10.73 3.75 -11.72 3.82 -12.73 3.89 C-13.48 3.92 -14.23 3.96 -15 4 C-10.79 -0.21 -5.69 -0.23 0 0 Z " fill="#2C2C2C" transform="translate(308,181)"/>
<path d="M0 0 C0.66 0.33 1.32 0.66 2 1 C-0.31 4.63 -2.62 8.26 -5 12 C-6 8 -6 8 -4.79 5.86 C-4.22 5.16 -3.65 4.47 -3.06 3.75 C-2.50 3.04 -1.93 2.34 -1.35 1.61 C-0.90 1.08 -0.46 0.55 0 0 Z " fill="#8B8C8B" transform="translate(822,157)"/>
<path d="M0 0 C0 0.99 0 1.98 0 3 C-3.3 3 -6.6 3 -10 3 C-6.88 -0.12 -4.21 -0.11 0 0 Z M-12 3 C-10 4 -10 4 -10 4 Z " fill="#A2A3A3" transform="translate(719,246)"/>
<path d="M0 0 C0 3.95 -1.37 5.15 -4 8 C-4.99 8.33 -5.98 8.66 -7 9 C-4.20 1.90 -4.20 1.90 0 0 Z " fill="#1C1D1D" transform="translate(190,248)"/>
<path d="M0 0 C0.99 0.99 1.98 1.98 3 3 C0.80 5.20 -1.56 7.07 -4 9 C-3.47 5.18 -2.50 2.94 0 0 Z " fill="#939393" transform="translate(359,149)"/>
<path d="M0 0 C0.99 0.17 0.99 0.17 6 1 C6 1.66 6 2.32 6 3 C4.51 3.17 4.51 3.17 -3 4 C-2.01 2.68 -1.02 1.36 0 0 Z " fill="#A2A2A2" transform="translate(226,283)"/>
<path d="M0 0 C0 3 0 3 -2.38 5.69 C-5 8 -5 8 -7 8 C-5.51 4.21 -3.24 2.39 0 0 Z " fill="#303131" transform="translate(606,696)"/>
<path d="M0 0 C0.66 0.33 1.32 0.66 2 1 C-2 7.57 -2 7.57 -6 9 C-5.53 4.75 -3.03 2.8 0 0 Z " fill="#7B7B7B" transform="translate(194,241)"/>
<path d="M0 0 C1.5 1.06 1.5 1.06 3 3 C3.19 6.69 3.19 6.69 3 10 C1.5 8.94 1.5 8.94 0 7 C-0.19 3.31 -0.19 3.31 0 0 Z " fill="#2E2F2F" transform="translate(211,336)"/>
<path d="M0 0 C4.55 -0.37 4.55 -0.37 6.81 1.5 C7.20 2.00 7.60 2.49 8 3 C5.36 3 2.72 3 0 3 C0 2.01 0 1.02 0 0 Z " fill="#999999" transform="translate(544,699)"/>
<path d="M0 0 C1.65 0 3.3 0 5 0 C5 0.66 5 1.32 5 2 C5.66 2.33 6.32 2.66 7 3 C4.36 3 1.72 3 -1 3 C-0.67 2.01 -0.34 1.02 0 0 Z " fill="#A5A5A4" transform="translate(563,663)"/>
<path d="M0 0 C3.13 0.19 3.13 0.19 6 1 C6.33 1.66 6.66 2.32 7 3 C3.7 3 0.4 3 -3 3 C-2.01 2.01 -1.02 1.02 0 0 Z " fill="#A6A6A6" transform="translate(784,300)"/>
<path d="M0 0 C2.31 0 4.62 0 7 0 C3.68 3.94 3.68 3.94 0.25 4.25 C-0.49 4.17 -1.24 4.08 -2 4 C-1.34 2.68 -0.68 1.36 0 0 Z " fill="#ABABAB" transform="translate(297,245)"/>
<path d="M0 0 C0.66 0.33 1.32 0.66 2 1 C-2.75 5.88 -2.75 5.88 -5 7 C-3.75 3.35 -3.33 2.22 0 0 Z " fill="#565757" transform="translate(421,647)"/>
<path d="M0 0 C1.5 1.13 1.5 1.13 3 3 C3.19 6.19 3.19 6.19 3 9 C1.5 7.88 1.5 7.88 0 6 C-0.19 2.81 -0.19 2.81 0 0 Z " fill="#474849" transform="translate(346,203)"/>
<path d="M0 0 C0.33 0.99 0.66 1.98 1 3 C-0.65 4.65 -2.3 6.3 -4 8 C-3.40 4.64 -2.15 2.62 0 0 Z " fill="#ABACAC" transform="translate(354,306)"/>
</g>
</svg>