<?xml version="1.0" encoding="UTF-8"?>
<svg xmlns="http://www.w3.org/2000/svg" viewBox="0 0 60 52" width="60" height="52">
<g transform="translate(3.00, 2.64) scale(0.11)">
<path d="M0 0 C4.76 0.01 9.53 0.01 14.29 0.01 C23.25 0.01 32.22 0.02 41.18 0.03 C51.41 0.04 61.63 0.05 71.86 0.05 C92.85 0.06 113.83 0.08 134.82 0.10 C136.82 3.98 136.82 3.98 136.82 5.10 C137.10 5.10 137.10 5.10 138.49 5.09 C154.98 4.95 171.32 5.51 187.82 6.10 C187.82 111.37 187.82 216.64 187.82 325.10 C183.88 325.76 180.79 326.23 176.92 326.21 C176.00 326.21 175.08 326.21 174.13 326.21 C173.15 326.21 172.18 326.20 171.17 326.20 C170.16 326.20 169.15 326.20 168.10 326.19 C164.88 326.19 161.67 326.18 158.45 326.16 C156.26 326.16 154.07 326.15 151.88 326.15 C146.53 326.14 141.18 326.12 135.82 326.10 C135.16 324.45 134.50 322.80 133.82 321.10 C131.74 324.87 130.48 328.90 129.14 332.98 C128.89 333.75 128.63 334.51 128.37 335.31 C127.56 337.76 126.75 340.21 125.95 342.66 C125.15 345.09 124.34 347.52 123.54 349.95 C123.04 351.45 122.55 352.96 122.05 354.47 C120.10 360.39 117.97 366.25 115.82 372.10 C85.64 373.45 55.43 373.25 25.22 373.23 C19.43 373.23 13.63 373.23 7.84 373.23 C2.18 373.24 -3.48 373.24 -9.14 373.24 C-12.49 373.24 -15.84 373.24 -19.19 373.24 C-22.90 373.24 -26.61 373.24 -30.32 373.23 C-31.41 373.23 -32.50 373.24 -33.62 373.24 C-39.23 373.22 -44.62 372.94 -50.18 372.10 C-52.12 366.43 -54.06 360.75 -55.99 355.08 C-56.65 353.15 -57.31 351.22 -57.97 349.30 C-58.92 346.51 -59.87 343.73 -60.82 340.95 C-61.11 340.10 -61.40 339.25 -61.70 338.37 C-63.55 332.96 -65.38 327.53 -67.18 322.10 C-67.84 323.42 -68.50 324.74 -69.18 326.10 C-76.57 326.13 -83.95 326.14 -91.34 326.16 C-93.86 326.16 -96.37 326.17 -98.89 326.18 C-102.49 326.19 -106.10 326.19 -109.71 326.20 C-110.27 326.20 -110.27 326.20 -113.14 326.21 C-114.18 326.21 -115.22 326.21 -116.29 326.21 C-117.21 326.22 -118.13 326.22 -119.08 326.22 C-121.18 326.10 -121.18 326.10 -122.18 325.10 C-122.28 323.40 -122.30 321.70 -122.30 320.00 C-122.30 318.88 -122.31 317.77 -122.31 316.62 C-122.31 316.00 -122.31 316.00 -122.30 312.87 C-122.30 311.57 -122.3 310.26 -122.30 308.92 C-122.30 305.29 -122.30 301.65 -122.29 298.02 C-122.29 294.10 -122.29 290.19 -122.29 286.28 C-122.29 279.49 -122.29 272.70 -122.28 265.92 C-122.28 256.11 -122.27 246.29 -122.27 236.48 C-122.27 220.57 -122.26 204.65 -122.25 188.73 C-122.25 173.27 -122.24 157.80 -122.23 142.34 C-122.23 141.38 -122.23 140.43 -122.23 139.45 C-122.23 134.67 -122.23 129.89 -122.23 125.11 C-122.22 85.44 -122.20 45.77 -122.18 6.10 C-119.74 4.88 -118.18 4.98 -115.45 4.99 C-114.47 4.99 -113.49 4.99 -112.48 4.99 C-111.42 4.99 -110.36 5.00 -109.26 5.00 C-108.72 5.00 -108.72 5.00 -105.98 5.01 C-102.50 5.01 -99.03 5.03 -95.55 5.04 C-93.20 5.04 -90.85 5.05 -88.50 5.05 C-82.72 5.06 -76.95 5.08 -71.18 5.10 C-70.85 3.78 -70.52 2.46 -70.18 1.10 C-46.78 0.18 -23.41 -0.04 0 0 Z " fill="#CACACA" transform="translate(223.18,34.90)"/>
<path d="M0 0 C54.12 0 108.24 0 164 0 C164 26.73 164 53.46 164 81 C109.88 81 55.76 81 0 81 C0 54.27 0 27.54 0 0 Z " fill="#ED5F4B" transform="translate(174,58)"/>
<path d="M0 0 C4.76 0.01 9.53 0.01 14.29 0.01 C23.25 0.01 32.22 0.02 41.18 0.03 C51.41 0.04 61.63 0.05 71.86 0.05 C92.85 0.06 113.83 0.08 134.82 0.10 C132.83 5.45 130.93 9.24 125.82 12.10 C119.92 13.17 114.06 13.07 108.08 13.02 C106.26 13.03 104.44 13.05 102.62 13.06 C97.68 13.10 92.75 13.09 87.82 13.07 C83.69 13.06 79.57 13.07 75.45 13.09 C65.72 13.11 55.99 13.10 46.27 13.07 C36.24 13.04 26.21 13.06 16.18 13.11 C7.57 13.15 -1.05 13.15 -9.67 13.14 C-14.81 13.13 -19.96 13.13 -25.1 13.16 C-29.94 13.19 -34.77 13.18 -39.61 13.13 C-41.38 13.13 -43.16 13.13 -44.93 13.15 C-58.34 13.28 -58.34 13.28 -62.95 10.32 C-64.92 8.35 -66.52 6.34 -68.18 4.10 C-69.17 3.44 -70.16 2.78 -71.18 2.10 C-69.42 0.34 -66.91 0.87 -64.52 0.79 C-63.29 0.75 -62.06 0.70 -60.8 0.66 C-59.42 0.62 -58.05 0.58 -56.68 0.55 C-55.97 0.52 -55.27 0.50 -54.54 0.48 C-36.36 -0.05 -18.18 -0.03 0 0 Z " fill="#A1A1A1" transform="translate(223.18,34.90)"/>
<path d="M0 0 C0.55 0.34 1.10 0.68 1.67 1.02 C4.55 2.23 6.27 2.01 9.35 1.63 C16.37 0.91 23.30 0.86 30.35 0.87 C31.69 0.87 33.04 0.87 34.39 0.86 C37.19 0.86 39.99 0.86 42.79 0.87 C46.35 0.88 49.91 0.87 53.47 0.87 C56.24 0.86 59.02 0.86 61.79 0.87 C63.73 0.87 65.67 0.86 67.61 0.86 C85.01 0.91 85.01 0.91 91.18 2.60 C93 3 93 3 95 2 C98.44 1.63 98.44 1.63 102 2 C104.38 4.84 105 6.28 105 10 C59.46 10 13.92 10 -33 10 C-32 7 -32 7 -30.19 5.81 C-28 5 -28 5 -24 5 C-24 4.34 -24 3.68 -24 3 C-23.01 3 -22.02 3 -21 3 C-20.67 2.34 -20.34 1.68 -20 1 C-13.4 1.33 -6.8 1.66 0 2 C0 1.34 0 0.68 0 0 Z " fill="#E34832" transform="translate(208,129)"/>
<path d="M0 0 C7.59 0 15.18 0 23 0 C23 16.5 23 33 23 50 C17 48 17 48 15.83 46.19 C15.64 45.47 15.44 44.74 15.24 44 C15.01 43.2 14.78 42.40 14.54 41.57 C14.43 41.15 14.43 41.15 13.88 39 C13.38 37.27 12.88 35.54 12.38 33.81 C12.26 33.39 12.26 33.39 11.67 31.29 C10.24 26.39 8.71 21.17 5.52 17.13 C3.65 14.51 2.8 11.99 1.81 8.94 C1.47 7.89 1.12 6.85 0.77 5.78 C0 3 0 3 0 0 Z " fill="#AEAEAE" transform="translate(315,150)"/>
<path d="M0 0 C0.90 0.02 1.80 0.03 2.73 0.05 C3.75 0.07 4.76 0.09 5.81 0.10 C6.37 0.11 6.37 0.11 9.17 0.17 C10.30 0.20 11.43 0.22 12.59 0.24 C14.98 0.29 17.37 0.34 19.76 0.39 C23.43 0.46 27.11 0.53 30.78 0.60 C33.10 0.64 35.41 0.69 37.73 0.74 C38.28 0.75 38.28 0.75 41.09 0.80 C42.10 0.82 43.12 0.84 44.17 0.87 C45.07 0.89 45.97 0.91 46.90 0.92 C48.95 1.09 48.95 1.09 49.95 2.09 C50.08 5.59 50.08 5.59 49.95 9.09 C48.95 10.09 48.95 10.09 46.86 10.21 C45.93 10.21 45.01 10.21 44.06 10.20 C43.02 10.20 41.98 10.20 40.91 10.20 C39.78 10.20 38.64 10.19 37.48 10.19 C36.33 10.19 35.17 10.18 33.98 10.18 C30.29 10.18 26.59 10.16 22.89 10.15 C20.39 10.15 17.89 10.14 15.39 10.14 C9.24 10.13 3.10 10.11 -3.05 10.09 C-3.08 8.61 -3.10 7.13 -3.11 5.65 C-3.12 4.83 -3.13 4.00 -3.15 3.15 C-3.02 0.36 -2.79 0.12 0 0 Z " fill="#A8A8A9" transform="translate(104.05,39.91)"/>
<path d="M0 0 C17.36 -0.14 34.66 0.27 52 1 C52 3.97 52 6.94 52 10 C34.84 10 17.68 10 0 10 C0 6.7 0 3.4 0 0 Z " fill="#A6A6A6" transform="translate(359,40)"/>
<path d="M0 0 C0.67 1.75 0.67 1.75 1 4 C-0.11 6 -0.11 6 -1.75 8 C-2.28 8.66 -2.81 9.32 -3.36 10 C-4.46 11.34 -5.58 12.68 -6.70 14 C-8 16 -8 16 -8 20 C-9 22 -10 24 -11 26 C-11.36 28.00 -11.69 30.00 -12 32 C-12.40 33.59 -12.84 35.18 -13.31 36.75 C-13.54 37.51 -13.76 38.27 -13.99 39.05 C-15.25 41.49 -16.48 42.02 -19 43 C-18.41 38.97 -17.54 35.24 -16.26 31.38 C-15.91 30.34 -15.57 29.30 -15.21 28.23 C-14.86 27.17 -14.50 26.1 -14.13 25 C-13.77 23.93 -13.42 22.86 -13.06 21.77 C-7.43 4.96 -7.43 4.96 0 0 Z " fill="#A2A2A2" transform="translate(196,156)"/>
<path d="M0 0 C4.83 -0.08 9.24 0.05 14 1 C11.86 3.14 10.87 3.43 8 4 C8.33 5.65 8.66 7.3 9 9 C2.07 9 -4.86 9 -12 9 C-11 6 -11 6 -9.19 4.81 C-7 4 -7 4 -3 4 C-3 3.34 -3 2.68 -3 2 C-2.01 2 -1.02 2 0 2 C0 1.34 0 0.68 0 0 Z " fill="#E0442D" transform="translate(187,130)"/>
<path d="M0 0 C0.33 0 0.66 0 1 0 C1.17 0.60 1.34 1.21 1.52 1.83 C2.30 4.60 3.09 7.36 3.88 10.13 C4.14 11.08 4.41 12.03 4.69 13.01 C5.79 16.86 6.89 20.68 8.19 24.47 C9.13 27.41 9.15 29.93 9 33 C8.34 33 7.68 33 7 33 C-1.36 10.40 -1.36 10.40 0 0 Z " fill="#B9B9B9" transform="translate(154,339)"/>
<path d="M0 0 C0.56 0.01 0.56 0.01 3.41 0.03 C7.00 0.07 10.58 0.16 14.17 0.25 C16.60 0.28 19.04 0.31 21.47 0.34 C27.43 0.42 33.39 0.54 39.35 0.68 C39.35 1.01 39.35 1.34 39.35 1.68 C23.18 2.01 7.01 2.34 -9.64 2.68 C-9.97 4.00 -10.30 5.32 -10.64 6.68 C-12.49 8.39 -12.49 8.39 -14.71 9.93 C-15.44 10.45 -16.17 10.97 -16.93 11.51 C-17.50 11.90 -18.06 12.29 -18.64 12.68 C-15.07 1.98 -11.17 -0.37 0 0 Z " fill="#DE4028" transform="translate(201.64,113.32)"/>
<path d="M0 0 C1.43 0.01 2.87 0.01 4.30 0.01 C7.76 0.03 11.23 0.04 14.69 0.06 C12.26 3.00 12.26 3.00 9.73 3.29 C9.36 3.26 9.36 3.26 7.53 3.10 C7.13 3.07 7.13 3.07 5.12 2.92 C4.71 2.88 4.71 2.88 2.63 2.69 C0.99 2.55 -0.65 2.42 -2.29 2.29 C-3.01 2.22 -3.73 2.16 -4.48 2.09 C-6.31 2.06 -6.31 2.06 -8.31 3.06 C-9.24 2.90 -10.17 2.73 -11.13 2.56 C-16.82 1.60 -22.60 2.50 -28.31 3.06 C-28.64 2.40 -28.97 1.74 -29.31 1.06 C-19.52 0.13 -9.82 -0.06 0 0 Z " fill="#E24730" transform="translate(280.31,112.94)"/>
<path d="M0 0 C0.33 0 0.66 0 1 0 C1.39 7.63 0.57 13.82 -2 21 C-2.39 22.20 -2.78 23.39 -3.19 24.63 C-3.46 25.41 -3.72 26.19 -4 27 C-4.99 26.67 -5.98 26.34 -7 26 C-5.46 19.54 -3.81 13.19 -1.63 6.91 C-0.88 4.64 -0.38 2.36 0 0 Z " fill="#BCBCBC" transform="translate(357,339)"/>
<path d="M0 0 C0.33 0 0.66 0 1 0 C0.43 6.16 -0.94 11.60 -2.94 17.44 C-3.20 18.25 -3.47 19.07 -3.74 19.90 C-4 20.68 -4.26 21.45 -4.53 22.25 C-4.76 22.94 -5.00 23.64 -5.24 24.36 C-6 26 -6 26 -8 27 C-7.39 22.17 -6.46 17.62 -5.13 12.94 C-4.96 12.35 -4.96 12.35 -4.13 9.40 C-3.02 6.07 -1.65 3.09 0 0 Z " fill="#BFBFBF" transform="translate(351,364)"/>
<path d="M0 0 C0 2.64 0 5.28 0 8 C-3.38 8.85 -5.67 9.11 -9 8 C-7.47 4.12 -4.50 0 0 0 Z " fill="#BBBCBB" transform="translate(155,352)"/>
<path d="M0 0 C2.10 3.78 3.34 7.83 4.63 11.94 C4.85 12.64 5.08 13.34 5.32 14.07 C6.50 17.81 7.29 21.07 7 25 C3.96 21.96 3.16 18.21 1.81 14.19 C1.53 13.38 1.24 12.57 0.95 11.74 C-1.53 4.37 -1.53 4.37 0 0 Z " fill="#BBBCBB" transform="translate(163,370)"/>
<path d="M0 0 C1.65 0.33 3.3 0.66 5 1 C2.44 3.56 -0.21 4.62 -3.5 6.13 C-4.67 6.66 -5.83 7.20 -7.03 7.76 C-10 9 -10 9 -12 9 C-11 6 -11 6 -9.19 4.81 C-7 4 -7 4 -3 4 C-3 3.34 -3 2.68 -3 2 C-2.01 2 -1.02 2 0 2 C0 1.34 0 0.68 0 0 Z " fill="#D53316" transform="translate(187,130)"/>
<path d="M0 0 C4.29 0 8.58 0 13 0 C9.11 2.92 7.67 3.70 3 4 C2.01 3.34 1.02 2.68 0 2 C0 1.34 0 0.68 0 0 Z " fill="#A2A1A1" transform="translate(211,150)"/>
<path d="M0 0 C0.33 0 0.66 0 1 0 C1.37 11.52 1.37 11.52 -1 17 C-1.33 17 -1.66 17 -2 17 C-2.22 11.00 -1.51 5.81 0 0 Z " fill="#7F7F7E" transform="translate(357,339)"/>
<path d="M0 0 C0.33 0 0.66 0 1 0 C2.23 6.07 3.28 11.80 3 18 C0.13 15.13 0.03 13 -0.10 8.98 C-0.09 7.92 -0.07 6.85 -0.06 5.75 C-0.06 5.21 -0.06 5.21 -0.04 2.48 C-0.02 1.67 -0.01 0.84 0 0 Z " fill="#757473" transform="translate(154,339)"/>
<path d="M0 0 C1.60 -0.08 3.21 -0.14 4.81 -0.19 C5.26 -0.20 5.26 -0.20 7.52 -0.29 C10 0 10 0 13 3 C8.71 3 4.42 3 0 3 C0 2.01 0 1.02 0 0 Z " fill="#ACACAC" transform="translate(250,187)"/>
<path d="M0 0 C1.93 2.90 2.55 4.60 3.25 7.94 C3.44 8.79 3.63 9.65 3.83 10.53 C4.02 13.34 3.47 14.63 2 17 C1.66 14.92 1.33 12.83 1 10.75 C0.81 9.59 0.63 8.43 0.44 7.23 C0 4 0 4 0 0 Z " fill="#AEAEAE" transform="translate(156,346)"/>
<path d="M0 0 C0.33 0.66 0.66 1.32 1 2 C0.22 3.17 -0.58 4.34 -1.38 5.5 C-1.82 6.15 -2.26 6.80 -2.71 7.47 C-3.14 7.97 -3.56 8.48 -4 9 C-4.66 9 -5.32 9 -6 9 C-5.53 4.75 -3.03 2.8 0 0 Z " fill="#9A9A9A" transform="translate(194,160)"/>
<path d="M0 0 C0.33 0 0.66 0 1 0 C1 3.3 1 6.6 1 10 C-0.32 9.67 -1.64 9.34 -3 9 C-2.01 6.03 -1.02 3.06 0 0 Z " fill="#E54D37" transform="translate(336,129)"/>
<path d="M0 0 C0.99 0.33 1.98 0.66 3 1 C4.13 3.88 4.13 3.88 5 7 C5.33 7.99 5.66 8.98 6 10 C5.34 10 4.68 10 4 10 C1.16 6.33 0 4.73 0 0 Z " fill="#AA3333" transform="translate(319,161)"/>
<path d="M0 0 C1.65 0 3.3 0 5 0 C4.67 0.66 4.34 1.32 4 2 C3.34 2 2.68 2 2 2 C1.67 3.98 1.34 5.96 1 8 C0.67 8 0.34 8 0 8 C0 5.36 0 2.72 0 0 Z " fill="#F26653" transform="translate(175,58)"/>
</g>
</svg>