<?xml version="1.0" encoding="UTF-8"?>
<svg xmlns="http://www.w3.org/2000/svg" viewBox="0 0 60 52" width="60" height="52">
<g transform="translate(3.00, 2.64) scale(0.11)">
<path d="M0 0 C0.63 0.05 0.63 0.05 3.82 0.28 C4.78 0.35 5.74 0.42 6.72 0.50 C6.75 47.33 6.76 94.16 6.77 140.99 C6.78 146.51 6.78 152.04 6.78 157.56 C6.78 158.11 6.78 158.11 6.78 160.89 C6.78 178.72 6.79 196.54 6.8 214.37 C6.81 232.65 6.82 250.93 6.82 269.21 C6.82 280.5 6.82 291.79 6.83 303.07 C6.84 310.81 6.84 318.54 6.84 326.27 C6.84 330.74 6.84 335.20 6.84 339.67 C6.85 343.75 6.85 347.83 6.84 351.92 C6.84 353.40 6.84 354.88 6.85 356.37 C6.85 358.37 6.85 360.38 6.85 362.38 C6.85 363.50 6.85 364.62 6.85 365.77 C6.72 368.50 6.72 368.50 5.72 371.50 C1.95 371.70 -1.82 371.88 -5.59 372.06 C-6.62 372.12 -7.66 372.17 -8.72 372.23 C-18.75 372.69 -28.09 372.04 -38.28 371.50 C-38.28 356.65 -38.28 341.80 -38.28 326.50 C-84.48 326.50 -130.68 326.50 -178.28 326.50 C-178.28 341.35 -178.28 356.20 -178.28 371.50 C-181.76 372.20 -184.05 372.62 -187.43 372.52 C-188.21 372.5 -188.99 372.48 -189.79 372.46 C-190.62 372.43 -191.44 372.40 -192.30 372.38 C-193.16 372.35 -194.01 372.33 -194.90 372.31 C-197.63 372.23 -200.36 372.15 -203.09 372.06 C-204.95 372.01 -206.80 371.95 -208.66 371.90 C-213.20 371.77 -217.74 371.64 -222.28 371.50 C-223.17 367.67 -223.40 364.12 -223.40 360.19 C-223.41 358.90 -223.41 357.62 -223.41 356.31 C-223.41 354.89 -223.41 353.47 -223.40 352.05 C-223.41 350.54 -223.41 349.03 -223.41 347.52 C-223.41 343.37 -223.41 339.22 -223.41 335.07 C-223.41 330.60 -223.41 326.13 -223.41 321.66 C-223.42 312.89 -223.41 304.13 -223.41 295.37 C-223.41 288.25 -223.41 281.13 -223.41 274.02 C-223.41 273.00 -223.41 271.99 -223.41 270.95 C-223.41 268.89 -223.41 266.84 -223.41 264.78 C-223.41 245.5 -223.41 226.22 -223.41 206.93 C-223.40 190.37 -223.40 173.81 -223.41 157.24 C-223.41 138.03 -223.41 118.81 -223.41 99.59 C-223.41 97.54 -223.41 95.49 -223.41 93.44 C-223.41 92.44 -223.41 91.43 -223.41 90.39 C-223.41 83.28 -223.41 76.16 -223.41 69.05 C-223.42 60.39 -223.42 51.72 -223.41 43.06 C-223.41 38.64 -223.41 34.22 -223.41 29.79 C-223.41 25.75 -223.41 21.71 -223.41 17.66 C-223.41 16.20 -223.41 14.73 -223.41 13.26 C-223.41 11.28 -223.41 9.29 -223.40 7.31 C-223.40 6.20 -223.40 5.10 -223.40 3.96 C-223.28 1.50 -223.28 1.50 -222.28 0.50 C-220.90 0.41 -219.51 0.38 -218.13 0.39 C-217.23 0.39 -216.34 0.39 -215.42 0.39 C-214.47 0.39 -213.53 0.40 -212.56 0.40 C-211.69 0.40 -210.83 0.40 -209.94 0.40 C-206.70 0.41 -203.46 0.42 -200.22 0.44 C-192.97 0.46 -185.74 0.48 -178.28 0.50 C-178.28 15.02 -178.28 29.54 -178.28 44.50 C-132.08 44.50 -85.88 44.50 -38.28 44.50 C-38.28 29.98 -38.28 15.46 -38.28 0.50 C-35.86 0.41 -35.86 0.41 -23.65 -0.06 C-22.16 -0.13 -20.67 -0.19 -19.13 -0.25 C-17.91 -0.29 -16.69 -0.34 -15.43 -0.38 C-14.2 -0.43 -12.97 -0.47 -11.71 -0.52 C-7.79 -0.58 -3.91 -0.29 0 0 Z M-178.28 70.50 C-178.28 89.97 -178.28 109.44 -178.28 129.50 C-132.08 129.50 -85.88 129.50 -38.28 129.50 C-38.28 110.03 -38.28 90.56 -38.28 70.50 C-84.48 70.50 -130.68 70.50 -178.28 70.50 Z M-178.28 155.50 C-178.28 174.97 -178.28 194.44 -178.28 214.50 C-174.44 215.27 -171.52 215.62 -167.69 215.63 C-167.13 215.63 -167.13 215.63 -164.31 215.63 C-163.1 215.63 -161.89 215.63 -160.64 215.63 C-160.00 215.63 -160.00 215.63 -156.75 215.63 C-153.24 215.64 -149.73 215.64 -146.21 215.63 C-142.54 215.63 -138.86 215.63 -135.18 215.63 C-129.01 215.64 -122.84 215.63 -116.67 215.63 C-109.53 215.62 -102.39 215.63 -95.26 215.63 C-89.13 215.63 -83.00 215.64 -76.87 215.63 C-73.21 215.63 -69.55 215.63 -65.89 215.63 C-61.81 215.64 -57.73 215.63 -53.66 215.63 C-52.44 215.63 -51.22 215.63 -49.97 215.63 C-48.86 215.63 -47.76 215.63 -46.62 215.63 C-45.65 215.63 -44.69 215.63 -43.69 215.62 C-41.28 215.50 -41.28 215.50 -38.28 214.50 C-38.28 195.36 -38.28 176.22 -38.28 156.50 C-42.85 155.85 -46.66 155.37 -51.17 155.38 C-51.73 155.38 -51.73 155.38 -54.59 155.37 C-55.20 155.38 -55.20 155.38 -58.28 155.38 C-59.58 155.38 -60.88 155.38 -62.22 155.38 C-65.76 155.38 -69.30 155.39 -72.84 155.40 C-76.55 155.40 -80.26 155.40 -83.97 155.41 C-90.99 155.41 -98.00 155.42 -105.02 155.43 C-114.50 155.44 -123.99 155.44 -133.47 155.45 C-148.41 155.46 -163.34 155.48 -178.28 155.50 Z M-178.28 241.50 C-178.28 260.97 -178.28 280.44 -178.28 300.50 C-132.08 300.50 -85.88 300.50 -38.28 300.50 C-38.28 281.03 -38.28 261.56 -38.28 241.50 C-84.48 241.50 -130.68 241.50 -178.28 241.50 Z " fill="#CACACA" transform="translate(364.28,35.50)"/>
<path d="M0 0 C0 9.9 0 19.8 0 30 C-14.85 29.67 -29.7 29.34 -45 29 C-45 19.43 -45 9.86 -45 0 C-40.84 -0.17 -36.68 -0.33 -32.52 -0.48 C-31.12 -0.54 -29.71 -0.59 -28.30 -0.65 C-26.25 -0.73 -24.20 -0.81 -22.15 -0.88 C-20.92 -0.93 -19.70 -0.97 -18.43 -1.02 C-12.28 -0.99 -6.14 -0.44 0 0 Z " fill="#B5B5B5" transform="translate(371,36)"/>
<path d="M0 0 C0.78 0.00 1.56 0.00 2.36 0.01 C2.80 0.01 2.80 0.01 5.03 0.01 C5.99 0.01 6.95 0.02 7.93 0.02 C8.42 0.02 8.42 0.02 10.89 0.03 C14.02 0.03 17.14 0.04 20.27 0.06 C22.39 0.06 24.50 0.07 26.62 0.07 C31.82 0.08 37.01 0.10 42.21 0.12 C42.21 9.69 42.21 19.26 42.21 29.12 C27.36 29.45 12.51 29.78 -2.79 30.12 C-2.81 25.36 -2.83 20.59 -2.85 15.68 C-2.86 14.18 -2.87 12.67 -2.88 11.12 C-2.88 9.95 -2.89 8.77 -2.89 7.56 C-2.89 6.35 -2.90 5.14 -2.90 3.90 C-2.75 0.18 -2.75 0.18 0 0 Z " fill="#B5B5B5" transform="translate(143.79,35.88)"/>
<path d="M0 0 C46.2 0 92.4 0 140 0 C140.33 1.65 140.66 3.3 141 5 C137.69 6.00 134.72 6.11 131.28 6.08 C130.11 6.08 128.95 6.07 127.75 6.06 C126.47 6.05 125.19 6.04 123.88 6.02 C122.52 6.01 121.16 6.00 119.80 5.99 C116.11 5.97 112.42 5.93 108.73 5.90 C104.87 5.87 101.01 5.84 97.16 5.81 C89.85 5.75 82.55 5.69 75.25 5.63 C66.94 5.55 58.62 5.49 50.31 5.42 C33.20 5.29 16.10 5.15 -1 5 C-0.67 3.35 -0.34 1.7 0 0 Z " fill="#A5A5A5" transform="translate(186,80)"/>
<path d="M0 0 C46.2 0 92.4 0 140 0 C140.33 1.65 140.66 3.3 141 5 C94.14 5 47.28 5 -1 5 C-0.67 3.35 -0.34 1.7 0 0 Z " fill="#A5A6A5" transform="translate(186,165)"/>
<path d="M0 0 C46.2 0 92.4 0 140 0 C140.33 1.65 140.66 3.3 141 5 C94.14 5 47.28 5 -1 5 C-0.67 3.35 -0.34 1.7 0 0 Z " fill="#9E9F9E" transform="translate(186,250)"/>
<path d="M0 0 C1.13 -0.00 2.27 -0.01 3.44 -0.01 C4.06 -0.01 4.06 -0.01 7.21 -0.01 C7.87 -0.01 7.87 -0.01 11.18 -0.02 C14.78 -0.03 18.38 -0.03 21.97 -0.03 C24.98 -0.03 27.98 -0.04 30.98 -0.04 C38.06 -0.05 45.14 -0.05 52.23 -0.05 C59.53 -0.05 66.84 -0.06 74.15 -0.08 C80.42 -0.09 86.69 -0.10 92.97 -0.10 C96.71 -0.10 100.46 -0.10 104.21 -0.11 C108.39 -0.12 112.56 -0.12 116.74 -0.11 C117.36 -0.11 117.36 -0.11 120.51 -0.13 C121.65 -0.12 122.78 -0.12 123.95 -0.11 C124.94 -0.11 125.93 -0.12 126.95 -0.12 C129.62 0.14 131.26 0.77 133.54 2.13 C133.54 3.12 133.54 4.11 133.54 5.13 C86.68 5.13 39.82 5.13 -8.46 5.13 C-8.46 3.81 -8.46 2.49 -8.46 1.13 C-5.37 0.10 -3.24 0.01 0 0 Z " fill="#A2A3A2" transform="translate(193.46,334.87)"/>
<path d="M0 0 C0.33 0 0.66 0 1 0 C1 4.95 1 9.9 1 15 C-15.30 15.90 -31.55 16.15 -47.88 16.13 C-50.38 16.13 -52.90 16.13 -55.41 16.14 C-60.62 16.14 -65.83 16.14 -71.04 16.13 C-77.04 16.13 -83.05 16.13 -89.06 16.13 C-94.88 16.14 -100.71 16.14 -106.54 16.13 C-109.00 16.13 -111.46 16.13 -113.93 16.14 C-117.35 16.14 -120.78 16.14 -124.20 16.13 C-124.71 16.13 -124.71 16.13 -127.26 16.14 C-131.96 16.12 -136.38 15.98 -141 15 C-141 14.34 -141 13.68 -141 13 C-96.12 13 -51.24 13 -5 13 C-3.76 9.90 -2.54 6.81 -1.38 3.69 C-0.92 2.47 -0.47 1.25 0 0 Z " fill="#BDBEBD" transform="translate(326,91)"/>
<path d="M0 0 C0.46 -0.00 0.46 -0.00 2.80 -0.01 C3.82 -0.01 4.84 -0.00 5.89 -0.00 C6.96 -0.00 8.03 -0.01 9.13 -0.01 C12.70 -0.01 16.26 -0.01 19.82 -0.01 C22.32 -0.01 24.81 -0.01 27.30 -0.01 C32.54 -0.01 37.79 -0.01 43.03 -0.00 C49.69 0.00 56.33 -0.00 62.98 -0.01 C68.14 -0.01 73.31 -0.01 78.47 -0.01 C80.92 -0.01 83.36 -0.01 85.81 -0.01 C102.43 -0.02 119.00 0.36 135.61 1.13 C135.28 1.79 134.95 2.45 134.61 3.13 C88.41 3.13 42.21 3.13 -5.39 3.13 C-5.72 2.47 -6.05 1.81 -6.39 1.13 C-4.03 -0.05 -2.63 0.00 0 0 Z " fill="#BFBFBF" transform="translate(191.39,273.87)"/>
<path d="M0 0 C1.09 -0.00 2.19 -0.01 3.32 -0.01 C3.91 -0.01 3.91 -0.01 6.93 -0.00 C8.14 -0.00 9.36 -0.01 10.61 -0.01 C13.18 -0.01 15.76 -0.01 18.33 -0.00 C22.29 0.00 26.24 -0.00 30.19 -0.01 C32.69 -0.01 35.18 -0.01 37.68 -0.00 C38.87 -0.01 40.06 -0.01 41.28 -0.01 C41.83 -0.01 41.83 -0.01 44.61 0 C45.09 0 45.09 0 47.55 0.00 C49.87 0.13 49.87 0.13 51.87 1.13 C52.43 0.99 52.99 0.85 53.56 0.70 C58.50 -0.53 63.80 -0.06 68.88 -0.06 C70.99 -0.06 73.11 -0.08 75.22 -0.10 C76.57 -0.10 77.91 -0.1 79.25 -0.10 C79.86 -0.10 79.86 -0.10 82.95 -0.11 C85.87 0.13 85.87 0.13 87.87 2.13 C83.44 3.23 79.1 3.28 74.56 3.27 C74.15 3.28 74.15 3.28 72.07 3.29 C69.35 3.29 66.64 3.30 63.93 3.30 C62.04 3.30 60.15 3.30 58.26 3.31 C54.31 3.31 50.35 3.31 46.40 3.31 C41.33 3.31 36.26 3.33 31.19 3.35 C27.29 3.36 23.39 3.36 19.49 3.36 C17.62 3.36 15.75 3.36 13.88 3.37 C11.27 3.38 8.66 3.38 6.05 3.37 C5.66 3.38 5.66 3.38 3.71 3.39 C-0.06 3.37 -2.94 3.24 -6.13 1.13 C-4.44 -0.56 -2.31 0.00 0 0 Z " fill="#BEBEBE" transform="translate(236.13,188.87)"/>
<path d="M0 0 C3.29 -0.03 6.58 -0.05 9.88 -0.06 C10.81 -0.07 11.75 -0.08 12.71 -0.09 C13.16 -0.09 13.16 -0.09 15.43 -0.10 C15.84 -0.1 15.84 -0.1 17.94 -0.11 C20 0 20 0 22 1 C22 1.66 22 2.32 22 3 C14.08 3 6.16 3 -2 3 C-1.34 2.67 -0.68 2.34 0 2 C0 1.34 0 0.68 0 0 Z " fill="#B8B8B8" transform="translate(189,189)"/>
<path d="M0 0 C3.63 -0.06 7.25 -0.09 10.88 -0.13 C11.91 -0.14 12.94 -0.16 14.00 -0.18 C14.99 -0.18 15.98 -0.19 16.99 -0.20 C17.45 -0.20 17.45 -0.20 19.75 -0.23 C22 0 22 0 24 2 C19.43 3.13 14.99 3.22 10.31 3.25 C9.54 3.27 8.77 3.29 7.97 3.31 C5.74 3.33 5.74 3.33 2 3 C1.34 2.01 0.68 1.02 0 0 Z " fill="#B6B6B6" transform="translate(300,189)"/>
<path d="M0 0 C1.07 -0.01 2.15 -0.03 3.25 -0.04 C6 0.19 6 0.19 8 2.19 C4.58 3.33 1.91 3.29 -1.69 3.25 C-2.28 3.25 -2.28 3.25 -5.26 3.22 C-6.17 3.21 -7.07 3.20 -8 3.19 C-8 2.53 -8 1.87 -8 1.19 C-5.28 -0.17 -3.04 0.02 0 0 Z " fill="#B9BAB9" transform="translate(221,188.81)"/>
<path d="M0 0 C1.92 -0.03 3.83 -0.05 5.75 -0.06 C6.28 -0.07 6.28 -0.07 8.98 -0.10 C11.53 -0.01 13.58 0.25 16 1 C15.67 1.66 15.34 2.32 15 3 C9.87 3.10 5.05 3.04 0 2 C0 1.34 0 0.68 0 0 Z " fill="#B8B8B8" transform="translate(185,104)"/>
<path d="M0 0 C0 0.66 0 1.32 0 2 C-3.63 1.67 -7.26 1.34 -11 1 C-6.47 -1.27 -4.82 -0.93 0 0 Z " fill="#BFBFBE" transform="translate(211,190)"/>
<path d="M0 0 C6.15 0.59 6.15 0.59 8 1 C8.33 1.66 8.66 2.32 9 3 C5.7 2.67 2.4 2.34 -1 2 C-0.67 1.34 -0.34 0.68 0 0 Z " fill="#BBBCBB" transform="translate(231,189)"/>
</g>
</svg>