<?xml version="1.0" encoding="UTF-8"?>
<svg xmlns="http://www.w3.org/2000/svg" viewBox="0 0 60 52" width="60" height="52">
<g transform="translate(3.00, 2.64) scale(0.11)">
<path d="M0 0 C1.19 0.02 2.37 0.05 3.59 0.07 C7.35 0.15 11.11 0.23 14.87 0.32 C17.43 0.37 19.99 0.42 22.55 0.47 C28.80 0.60 35.06 0.74 41.31 0.88 C41.31 3.85 41.31 6.82 41.31 9.88 C42.53 9.84 43.75 9.81 45.01 9.77 C49.54 9.64 54.07 9.52 58.61 9.40 C60.57 9.34 62.53 9.29 64.49 9.23 C67.31 9.15 70.13 9.07 72.95 9 C73.83 8.97 74.70 8.95 75.60 8.92 C76.42 8.90 77.25 8.88 78.09 8.86 C78.81 8.84 79.53 8.82 80.27 8.80 C82.41 8.88 84.26 9.29 86.31 9.88 C87.59 16.91 88.59 25.03 86.31 31.88 C84.31 33.63 84.31 33.63 81.87 35.44 C79.53 37.19 77.37 38.82 75.31 40.88 C74.71 45.06 74.75 49.28 74.68 53.50 C74.63 54.67 74.57 55.83 74.51 57.03 C74.38 65.53 74.38 65.53 77.02 69.37 C79.02 71.36 81.10 73.11 83.31 74.88 C84.44 76.11 85.55 77.35 86.62 78.63 C89.70 82.21 92.86 85.71 96.06 89.19 C96.30 89.45 96.30 89.45 97.49 90.75 C101.15 94.74 101.15 94.74 103.09 96.44 C104.77 98.43 104.81 100.00 105.00 102.57 C105.06 103.38 105.13 104.18 105.19 105.02 C105.21 105.32 105.21 105.32 105.31 106.88 C106.11 106.86 106.92 106.84 107.75 106.82 C110.31 106.88 110.31 106.88 111.31 107.88 C111.39 109.37 111.42 110.86 111.41 112.35 C111.40 113.25 111.4 114.15 111.40 115.08 C111.39 116.02 111.38 116.97 111.37 117.94 C111.37 118.89 111.36 119.84 111.36 120.82 C111.35 123.17 111.33 125.53 111.31 127.88 C109.00 127.88 106.69 127.88 104.31 127.88 C104.31 133.82 104.31 139.76 104.31 145.88 C105.30 145.55 106.29 145.22 107.31 144.88 C108.63 145.21 109.95 145.54 111.31 145.88 C111.31 152.48 111.31 159.08 111.31 165.88 C109.00 165.88 106.69 165.88 104.31 165.88 C104.64 171.49 104.97 177.10 105.31 182.88 C107.29 182.88 109.27 182.88 111.31 182.88 C111.50 185.82 111.69 188.75 111.87 191.69 C111.93 192.53 111.98 193.36 112.04 194.22 C112.09 195.02 112.14 195.82 112.19 196.65 C112.23 197.39 112.28 198.13 112.33 198.89 C112.31 200.88 112.31 200.88 111.31 203.88 C109.00 203.88 106.69 203.88 104.31 203.88 C104.41 205.18 104.52 206.48 104.62 207.82 C104.61 215.85 101.79 223.33 99.31 230.88 C99.19 231.25 99.19 231.25 98.58 233.10 C97.36 236.81 96.11 240.51 94.87 244.22 C93.17 249.25 91.54 254.31 89.93 259.38 C89.67 260.20 89.41 261.02 89.14 261.86 C87.31 267.64 87.31 267.64 87.31 269.88 C89.62 271.20 91.93 272.52 94.31 273.88 C90.60 281.27 86.28 288.00 81.55 294.76 C78.54 299.08 75.62 303.43 72.81 307.88 C67.85 315.69 62.59 323.28 57.31 330.88 C54.34 329.56 51.37 328.24 48.31 326.88 C46.99 328.00 45.67 329.12 44.34 330.23 C43.19 331.21 42.03 332.19 40.87 333.18 C37.79 335.77 34.72 338.38 31.66 340.99 C31.07 341.48 30.49 341.98 29.89 342.49 C28.77 343.44 27.65 344.39 26.54 345.35 C24.19 347.34 21.88 349.17 19.31 350.88 C18.88 353.03 18.88 353.03 18.80 355.67 C18.76 356.61 18.73 357.55 18.69 358.52 C18.67 359.50 18.64 360.49 18.62 361.50 C18.59 362.50 18.55 363.49 18.52 364.51 C18.43 366.97 18.37 369.42 18.31 371.88 C13.98 372.46 9.75 373.02 5.37 373.00 C4.62 373.01 3.87 373.01 3.09 373.01 C1.31 372.88 1.31 372.88 0.31 371.88 C0.26 370.40 0.27 368.92 0.31 367.43 C0.39 352.52 0.39 352.52 -2.48 348.18 C-4.80 346.47 -7.13 345.18 -9.69 343.88 C-11.06 342.77 -12.39 341.63 -13.69 340.44 C-14.33 339.87 -14.97 339.30 -15.64 338.72 C-17.13 337.38 -18.63 336.04 -20.12 334.69 C-20.93 333.97 -21.73 333.25 -22.57 332.50 C-23.31 331.84 -24.05 331.17 -24.81 330.48 C-26.69 328.88 -26.69 328.88 -28.69 327.88 C-28.69 327.22 -28.69 326.56 -28.69 325.88 C-31.99 327.53 -35.29 329.18 -38.69 330.88 C-40.03 328.92 -41.36 326.97 -42.69 325.00 C-43.43 323.91 -44.18 322.82 -44.94 321.70 C-46.69 318.88 -46.69 318.88 -46.69 316.88 C-47.35 316.88 -48.01 316.88 -48.69 316.88 C-50.17 314.7 -51.54 312.52 -52.88 310.25 C-57.84 302.06 -63.21 294.18 -68.69 286.33 C-69.31 285.44 -69.93 284.54 -70.57 283.62 C-71.12 282.82 -71.67 282.03 -72.25 281.21 C-73.72 278.84 -74.73 276.5 -75.69 273.88 C-74.54 273.22 -74.54 273.22 -68.69 269.88 C-72.28 256.12 -76.33 242.62 -80.92 229.17 C-86.27 213.38 -86.27 213.38 -86.69 205.88 C-86.53 205.55 -86.53 205.55 -85.69 203.88 C-88.00 203.88 -90.31 203.88 -92.69 203.88 C-92.69 197.28 -92.69 190.68 -92.69 183.88 C-91.70 183.55 -91.70 183.55 -86.69 181.88 C-86.36 176.60 -86.03 171.32 -85.69 165.88 C-87.34 166.21 -88.99 166.54 -90.69 166.88 C-91.35 166.55 -92.01 166.22 -92.69 165.88 C-92.69 158.95 -92.69 152.02 -92.69 144.88 C-90.38 145.21 -88.07 145.54 -85.69 145.88 C-85.69 139.94 -85.69 134.00 -85.69 127.88 C-86.68 128.21 -87.67 128.54 -88.69 128.88 C-90.01 128.55 -91.33 128.22 -92.69 127.88 C-92.69 121.28 -92.69 114.68 -92.69 107.88 C-88.69 106.88 -88.69 106.88 -85.69 107.88 C-85.84 106.58 -85.98 105.28 -86.13 103.94 C-86.16 97.73 -82.78 94.22 -78.69 89.88 C-78.00 89.13 -77.30 88.39 -76.58 87.62 C-74.69 85.88 -74.69 85.88 -72.69 85.88 C-72.42 85.30 -72.16 84.72 -71.88 84.13 C-70.66 81.82 -69.39 79.86 -67.69 77.88 C-67.03 77.88 -66.37 77.88 -65.69 77.88 C-65.44 77.28 -65.18 76.68 -64.91 76.06 C-63.58 73.68 -62.26 72.61 -60.14 70.93 C-55.99 66.88 -55.69 63.16 -55.52 57.53 C-55.53 56.38 -55.55 55.24 -55.57 54.07 C-55.57 52.89 -55.57 51.71 -55.58 50.5 C-55.97 40.88 -55.97 40.88 -59.13 37.59 C-61.11 36.13 -63.12 34.73 -65.17 33.38 C-69.32 29.27 -68.89 24.63 -68.98 19.03 C-68.95 15.75 -68.73 13.00 -67.69 9.88 C-61.98 9.04 -56.58 8.80 -50.82 9 C-50.01 9.02 -49.20 9.05 -48.36 9.07 C-45.80 9.15 -43.25 9.23 -40.69 9.32 C-38.95 9.37 -37.20 9.42 -35.45 9.47 C-31.20 9.60 -26.95 9.74 -22.69 9.88 C-22.71 8.58 -22.73 7.28 -22.75 5.94 C-22.77 4.59 -22.76 3.23 -22.69 1.88 C-18.59 -2.22 -5.38 -0.13 0 0 Z " fill="#C4C4C4" transform="translate(246.69,35.12)"/>
<path d="M0 0 C12.61 -0.02 25.23 -0.04 37.84 -0.05 C43.69 -0.06 49.55 -0.06 55.41 -0.07 C61.05 -0.09 66.70 -0.09 72.35 -0.10 C74.51 -0.10 76.67 -0.1 78.83 -0.11 C81.84 -0.11 84.85 -0.11 87.87 -0.11 C88.77 -0.12 89.67 -0.12 90.59 -0.12 C96.77 -0.11 96.77 -0.11 99 1 C99 1.66 99 2.32 99 3 C100.65 3.33 102.3 3.66 104 4 C104 4.66 104 5.32 104 6 C105.65 6.66 107.3 7.32 109 8 C109 8.33 109 8.66 109 9 C69.4 9 29.8 9 -11 9 C-8.66 7.24 -6.27 5.53 -3.81 3.94 C-1 2 -1 2 0 0 Z " fill="#A1A1A0" transform="translate(206,59)"/>
<path d="M0 0 C2.44 1.54 3.52 3.01 5.09 5.42 C5.37 5.85 5.37 5.85 6.79 8.00 C7.38 8.93 7.98 9.85 8.59 10.80 C9.22 11.76 9.84 12.71 10.48 13.69 C12.48 16.74 14.46 19.80 16.44 22.86 C17.77 24.90 19.10 26.93 20.43 28.97 C22.89 32.73 25.34 36.50 27.79 40.27 C30.85 44.97 33.95 49.64 37.07 54.3 C34.27 57.41 31.98 58.86 28.07 60.3 C26.73 58.35 25.40 56.39 24.07 54.42 C23.70 53.88 23.70 53.88 21.82 51.12 C20.07 48.3 20.07 48.3 20.07 46.3 C19.41 46.3 18.75 46.3 18.07 46.3 C16.59 44.12 15.22 41.94 13.88 39.67 C8.92 31.49 3.55 23.60 -1.93 15.75 C-2.55 14.86 -3.17 13.96 -3.81 13.04 C-4.36 12.24 -4.92 11.45 -5.49 10.63 C-6.96 8.26 -7.97 5.92 -8.93 3.3 C-2.50 -0.91 -2.50 -0.91 0 0 Z " fill="#B4B4B4" transform="translate(179.93,305.70)"/>
<path d="M0 0 C3.87 1.12 6.29 2.03 9 5 C3.57 13.83 -1.97 22.52 -7.93 31 C-9.81 33.73 -11.61 36.50 -13.38 39.31 C-18.01 46.70 -23.03 53.84 -28 61 C-30.97 59.35 -33.94 57.7 -37 56 C-33.43 49.36 -29.51 43.09 -25.27 36.85 C-24.64 35.92 -24.01 34.99 -23.37 34.03 C-22.05 32.08 -20.72 30.12 -19.40 28.17 C-17.37 25.18 -15.35 22.19 -13.33 19.20 C-12.04 17.29 -10.75 15.39 -9.46 13.48 C-8.86 12.59 -8.26 11.70 -7.63 10.78 C-7.07 9.95 -6.50 9.12 -5.92 8.26 C-5.43 7.53 -4.94 6.80 -4.43 6.05 C-3.00 4.00 -1.51 1.99 0 0 Z " fill="#B2B2B2" transform="translate(332,305)"/>
<path d="M0 0 C1.19 0.02 2.37 0.05 3.59 0.07 C7.35 0.15 11.11 0.23 14.87 0.32 C17.43 0.37 19.99 0.42 22.55 0.47 C28.80 0.60 35.06 0.74 41.31 0.88 C41.31 3.19 41.31 5.50 41.31 7.88 C20.19 7.88 -0.93 7.88 -22.69 7.88 C-22.69 1.88 -22.69 1.88 -21.69 0.88 C-14.43 -0.22 -7.33 -0.17 0 0 Z " fill="#CACACA" transform="translate(246.69,35.12)"/>
<path d="M0 0 C3.36 1.26 5.63 2.26 8 5 C11.43 3.79 13.50 2.62 16 0 C16.66 0 17.32 0 18 0 C18 6.6 18 13.2 18 20 C8.89 21.14 8.89 21.14 5.06 21.13 C4.69 21.13 4.69 21.13 2.79 21.13 C1 21 1 21 0 20 C-0.09 18.51 -0.11 17.02 -0.10 15.53 C-0.09 14.63 -0.09 13.73 -0.09 12.80 C-0.08 11.86 -0.07 10.91 -0.06 9.94 C-0.06 8.99 -0.05 8.04 -0.05 7.06 C-0.04 4.71 -0.02 2.35 0 0 Z " fill="#B2B2B2" transform="translate(247,387)"/>
<path d="M0 0 C21.12 0 42.24 0 64 0 C63.67 0.99 63.34 1.98 63 3 C42.54 3 22.08 3 1 3 C0.67 2.01 0.34 1.02 0 0 Z " fill="#A7A7A7" transform="translate(224,43)"/>
<path d="M0 0 C0.33 0.66 0.66 1.32 1 2 C2.32 2.69 3.66 3.35 5 4 C6.35 4.98 7.69 5.97 9 7 C7.55 10.44 5.72 12.36 2.88 14.75 C2.51 15.06 2.51 15.06 0.68 16.61 C0.13 17.07 -0.43 17.53 -1 18 C-4.92 16.18 -7.74 13.82 -11 11 C-9.52 7.33 -7.52 5.59 -4.38 3.25 C-3.56 2.64 -2.74 2.02 -1.90 1.39 C-1.58 1.16 -1.58 1.16 0 0 Z " fill="#A1A1A1" transform="translate(258,368)"/>
<path d="M0 0 C2.34 0.29 4.67 0.62 7 1 C7.03 4.15 7.05 7.29 7.06 10.44 C7.07 11.34 7.08 12.23 7.09 13.16 C7.09 14.01 7.09 14.87 7.10 15.75 C7.10 16.54 7.11 17.33 7.11 18.14 C7 20 7 20 6 21 C3.67 21.04 1.33 21.04 -1 21 C-1.03 17.69 -1.05 14.38 -1.06 11.06 C-1.07 10.12 -1.08 9.17 -1.09 8.20 C-1.09 7.30 -1.09 6.40 -1.10 5.47 C-1.10 4.64 -1.11 3.81 -1.11 2.95 C-1 1 -1 1 0 0 Z " fill="#A9A8A8" transform="translate(155,218)"/>
<path d="M0 0 C2.64 0.33 5.28 0.66 8 1 C8 7.27 8 13.54 8 20 C6.02 20.66 4.04 21.32 2 22 C1.34 21.67 0.68 21.34 0 21 C0 14.07 0 7.14 0 0 Z " fill="#A8A8A8" transform="translate(154,180)"/>
<path d="M0 0 C3 0.13 3 0.13 4 1.13 C4.09 2.61 4.11 4.11 4.10 5.60 C4.09 6.50 4.09 7.40 4.09 8.32 C4.08 9.27 4.07 10.21 4.06 11.19 C4.06 12.14 4.05 13.09 4.05 14.06 C4.04 16.42 4.02 18.77 4 21.13 C1.67 21.17 -0.67 21.17 -3 21.13 C-4.56 19.57 -4.13 18.07 -4.13 15.91 C-4.13 15.06 -4.13 14.21 -4.14 13.33 C-4.13 12.44 -4.13 11.54 -4.13 10.63 C-4.13 9.73 -4.13 8.84 -4.14 7.92 C-4.13 7.07 -4.13 6.22 -4.13 5.34 C-4.13 4.56 -4.13 3.77 -4.13 2.97 C-3.91 -0.19 -3.21 0.13 0 0 Z " fill="#B2B2B2" transform="translate(354,141.88)"/>
<path d="M0 0 C0 6.27 0 12.54 0 19 C-4 21 -4 21 -8 20 C-8 13.4 -8 6.8 -8 0 C-6 -1 -6 -1 0 0 Z " fill="#A8A8A8" transform="translate(162,143)"/>
<path d="M0 0 C0 6.6 0 13.2 0 20 C-2.31 20 -4.62 20 -7 20 C-8 19 -8 19 -8.11 17.14 C-8.11 16.35 -8.10 15.56 -8.10 14.75 C-8.09 13.89 -8.09 13.04 -8.09 12.16 C-8.08 11.26 -8.07 10.36 -8.06 9.44 C-8.06 8.54 -8.05 7.63 -8.05 6.71 C-8.04 4.47 -8.02 2.23 -8 0 C-5 -1 -5 -1 0 0 Z " fill="#AFAFAF" transform="translate(358,181)"/>
<path d="M0 0 C0.20 2.94 0.38 5.87 0.56 8.81 C0.62 9.65 0.68 10.48 0.73 11.34 C0.78 12.14 0.83 12.94 0.88 13.77 C0.93 14.51 0.97 15.25 1.02 16.01 C1 18 1 18 0 21 C-2.31 21 -4.62 21 -7 21 C-7.33 14.4 -7.66 7.8 -8 1 C-3 0 -3 0 0 0 Z " fill="#ADADAD" transform="translate(358,218)"/>
<path d="M0 0 C0.33 0.66 0.66 1.32 1 2 C2.33 2.68 3.66 3.35 5 4 C5.66 4.66 6.32 5.32 7 6 C0.76 10.04 0.76 10.04 -2.69 9.88 C-5 9 -5 9 -9 7 C-6.03 4.69 -3.06 2.38 0 0 Z " fill="#B2B2B2" transform="translate(258,368)"/>
<path d="M0 0 C2 -0.04 4 -0.04 6 0 C7 1 7 1 7.10 3.29 C7.09 4.20 7.07 5.12 7.06 6.06 C7.05 6.98 7.04 7.90 7.04 8.85 C7.02 9.56 7.01 10.27 7 11 C4.69 11 2.38 11 0 11 C0 7.37 0 3.74 0 0 Z " fill="#A9A9A9" transform="translate(351,142)"/>
<path d="M0 0 C0.99 0.33 1.98 0.66 3 1 C3 7.27 3 13.54 3 20 C2.01 20 1.02 20 0 20 C0 13.4 0 6.8 0 0 Z " fill="#A4A4A4" transform="translate(247,387)"/>
<path d="M0 0 C0.33 0.66 0.66 1.32 1 2 C0.07 4.03 -0.93 6.04 -2 8 C-2.66 8 -3.32 8 -4 8 C-4 5.69 -4 3.38 -4 1 C-2.68 0.67 -1.36 0.34 0 0 Z " fill="#B8B8B8" transform="translate(158,190)"/>
<path d="M0 0 C1.65 0 3.3 0 5 0 C5.33 1.32 5.66 2.64 6 4 C3.69 4 1.38 4 -1 4 C-0.67 2.68 -0.34 1.36 0 0 Z " fill="#878786" transform="translate(155,218)"/>
<path d="M0 0 C0.99 0 1.98 0 3 0 C2.13 5.75 2.13 5.75 1 8 C0.34 8 -0.32 8 -1 8 C-1.04 5.67 -1.04 3.33 -1 1 C-0.67 0.67 -0.34 0.34 0 0 Z " fill="#B7B7B7" transform="translate(155,153)"/>
<path d="M0 0 C1.32 0 2.64 0 4 0 C3.67 1.98 3.34 3.96 3 6 C2.01 6.33 1.02 6.66 0 7 C0 4.69 0 2.38 0 0 Z " fill="#B8B8B8" transform="translate(154,229)"/>
<path d="M0 0 C0 1.32 0 2.64 0 4 C-2.31 4 -4.62 4 -7 4 C-7 3.01 -7 2.02 -7 1 C-4.51 0.31 -2.62 0 0 0 Z " fill="#7D7C7C" transform="translate(358,218)"/>
<path d="M0 0 C1.98 0 3.96 0 6 0 C6.33 1.32 6.66 2.64 7 4 C4.69 4 2.38 4 0 4 C0 2.68 0 1.36 0 0 Z " fill="#7A797A" transform="translate(351,142)"/>
<path d="M0 0 C2.31 0.33 4.62 0.66 7 1 C7 1.99 7 2.98 7 4 C4.69 4 2.38 4 0 4 C0 2.68 0 1.36 0 0 Z " fill="#868685" transform="translate(154,180)"/>
<path d="M0 0 C0 0.99 0 1.98 0 3 C-2.31 3 -4.62 3 -7 3 C-7 2.01 -7 1.02 -7 0 C-4.33 -1.33 -2.83 -0.67 0 0 Z " fill="#878786" transform="translate(161,143)"/>
<path d="M0 0 C0 0.99 0 1.98 0 3 C-2.31 3 -4.62 3 -7 3 C-7 2.01 -7 1.02 -7 0 C-4.33 -1.33 -2.83 -0.67 0 0 Z " fill="#AA8833" transform="translate(358,181)"/>
</g>
</svg>