<?xml version="1.0" encoding="UTF-8"?>
<svg xmlns="http://www.w3.org/2000/svg" viewBox="0 0 60 52" width="60" height="52">
<g transform="translate(3.00, 2.64) scale(0.11)">
<path d="M0 0 C1.01 0.00 2.02 0.00 3.06 0.01 C3.63 0.01 3.63 0.01 6.52 0.01 C7.76 0.01 9.00 0.02 10.28 0.02 C10.91 0.02 10.91 0.02 14.11 0.03 C17.48 0.03 20.84 0.04 24.21 0.05 C27.64 0.06 31.07 0.07 34.50 0.07 C41.24 0.08 47.98 0.10 54.72 0.12 C55.48 6.22 55.86 12.14 55.84 18.29 C55.84 19.16 55.85 20.04 55.85 20.95 C55.85 23.87 55.85 26.80 55.84 29.72 C55.85 31.83 55.85 33.94 55.85 36.05 C55.85 41.79 55.85 47.53 55.85 53.27 C55.85 59.37 55.85 65.47 55.85 71.57 C55.85 81.89 55.85 92.22 55.85 102.54 C55.84 112.96 55.84 123.37 55.85 133.79 C55.87 183.92 55.87 234.05 55.30 284.18 C55.27 286.96 55.24 289.74 55.21 292.52 C55.17 296.77 55.12 301.02 55.06 305.27 C55.04 306.81 55.02 308.35 55.00 309.89 C54.98 311.95 54.95 314.02 54.92 316.09 C54.90 317.24 54.89 318.39 54.87 319.57 C54.72 322.12 54.72 322.12 53.72 323.12 C51.97 323.22 50.22 323.25 48.48 323.25 C47.36 323.25 46.24 323.26 45.09 323.26 C43.87 323.26 42.66 323.25 41.40 323.25 C40.16 323.25 38.92 323.25 37.65 323.26 C35.02 323.26 32.40 323.25 29.77 323.25 C26.40 323.25 23.02 323.25 19.65 323.25 C16.44 323.26 13.24 323.26 10.03 323.25 C8.81 323.25 7.59 323.26 6.34 323.26 C5.22 323.26 4.11 323.25 2.95 323.25 C1.96 323.25 0.97 323.25 -0.04 323.25 C-2.28 323.12 -2.28 323.12 -3.28 322.12 C-3.68 317.84 -3.72 313.53 -3.84 309.24 C-3.86 308.53 -3.88 307.82 -3.90 307.09 C-4.58 283.57 -4.43 260.03 -4.42 236.50 C-4.42 231.60 -4.42 226.70 -4.42 221.80 C-4.42 221.10 -4.42 220.39 -4.42 219.66 C-4.42 218.23 -4.42 216.79 -4.42 215.36 C-4.42 202.00 -4.42 188.65 -4.41 175.30 C-4.41 163.92 -4.41 152.53 -4.42 141.15 C-4.42 127.83 -4.42 114.51 -4.42 101.19 C-4.42 99.76 -4.42 98.33 -4.42 96.90 C-4.42 96.2 -4.42 95.50 -4.42 94.77 C-4.42 89.90 -4.42 85.02 -4.42 80.14 C-4.42 73.55 -4.42 66.95 -4.42 60.35 C-4.41 57.96 -4.42 55.57 -4.42 53.17 C-4.43 40.12 -4.26 27.07 -3.84 14.02 C-3.8 12.75 -3.76 11.48 -3.72 10.17 C-3.68 9 -3.64 7.83 -3.60 6.63 C-3.58 6.11 -3.58 6.11 -3.49 3.48 C-3.22 0.35 -3.13 0.17 0 0 Z " fill="#CFCFCF" transform="translate(346.28,59.88)"/>
<path d="M0 0 C2.36 -0.37 2.36 -0.37 5.35 -0.36 C5.91 -0.36 5.91 -0.36 8.74 -0.37 C9.95 -0.35 11.16 -0.34 12.41 -0.33 C13.65 -0.33 14.89 -0.32 16.16 -0.32 C19.45 -0.31 22.75 -0.29 26.04 -0.26 C29.39 -0.24 32.75 -0.24 36.10 -0.23 C38.64 -0.23 41.18 -0.21 43.72 -0.20 C44.94 -0.20 46.15 -0.20 47.4 -0.19 C47.96 -0.18 47.96 -0.18 50.78 -0.16 C51.76 -0.15 52.75 -0.15 53.77 -0.14 C56 0 56 0 57 1 C57.25 3.86 57.42 6.70 57.55 9.56 C57.58 10.01 57.58 10.01 57.68 12.28 C58.15 23.17 58.14 34.06 58.13 44.96 C58.13 47.3 58.13 49.63 58.13 51.97 C58.14 58.27 58.14 64.56 58.13 70.86 C58.13 76.84 58.13 82.83 58.13 88.82 C58.14 101.44 58.13 114.06 58.13 126.69 C58.13 137.38 58.13 148.08 58.13 158.77 C58.14 171.30 58.14 183.83 58.13 196.36 C58.13 197.72 58.13 199.07 58.13 200.43 C58.13 200.76 58.13 200.76 58.13 202.45 C58.13 207.01 58.13 211.57 58.14 216.13 C58.15 251.77 57.72 287.37 57 323 C37.86 323 18.72 323 -1 323 C-1.70 318.83 -2.13 315.49 -2.13 311.37 C-2.13 310.26 -2.13 309.16 -2.14 308.02 C-2.14 306.82 -2.13 305.62 -2.13 304.38 C-2.14 303.09 -2.14 301.81 -2.14 300.48 C-2.15 296.92 -2.15 293.36 -2.15 289.80 C-2.15 285.96 -2.15 282.12 -2.15 278.27 C-2.16 270.75 -2.17 263.23 -2.17 255.70 C-2.17 249.59 -2.17 243.47 -2.17 237.36 C-2.18 220.04 -2.19 202.71 -2.19 185.39 C-2.19 184.45 -2.19 183.52 -2.19 182.56 C-2.19 181.62 -2.19 180.69 -2.19 179.72 C-2.19 164.56 -2.19 149.39 -2.21 134.22 C-2.22 118.65 -2.23 103.08 -2.23 87.52 C-2.23 78.77 -2.23 70.03 -2.24 61.28 C-2.25 53.85 -2.25 46.41 -2.25 38.97 C-2.24 35.17 -2.24 31.37 -2.25 27.57 C-2.26 23.46 -2.25 19.35 -2.25 15.24 C-2.25 14.03 -2.26 12.82 -2.26 11.58 C-2.26 10.48 -2.25 9.39 -2.25 8.26 C-2.25 7.31 -2.25 6.36 -2.25 5.38 C-2 3 -2 3 0 0 Z " fill="#CFCFCF" transform="translate(112,60)"/>
<path d="M0 0 C0.03 4.11 0.04 8.22 0.06 12.34 C0.06 13.73 0.07 15.13 0.07 16.53 C0.09 18.54 0.09 20.55 0.10 22.56 C0.10 23.77 0.11 24.98 0.11 26.22 C0 29 0 29 -1 30 C-9.25 30 -17.5 30 -26 30 C-25.67 47.16 -25.34 64.32 -25 82 C-31.75 83.13 -31.75 83.13 -35.15 83.13 C-35.53 83.13 -35.53 83.13 -37.45 83.14 C-38.24 83.14 -39.04 83.14 -39.86 83.13 C-40.70 83.13 -41.53 83.14 -42.39 83.14 C-44.13 83.14 -45.88 83.14 -47.63 83.13 C-50.32 83.13 -53.01 83.13 -55.70 83.14 C-57.40 83.14 -59.1 83.14 -60.80 83.13 C-61.61 83.14 -62.41 83.14 -63.25 83.14 C-68.89 83.11 -68.89 83.11 -70 82 C-72.55 65.07 -71.44 47.00 -70 30 C-70.75 30.00 -71.50 30.01 -72.28 30.02 C-75.67 30.04 -79.05 30.05 -82.44 30.06 C-83.03 30.07 -83.03 30.07 -86.03 30.09 C-87.15 30.09 -88.28 30.09 -89.43 30.10 C-89.95 30.1 -89.95 30.1 -92.59 30.11 C-95 30 -95 30 -96 29 C-96.1 26.94 -96.13 24.88 -96.13 22.81 C-96.13 21.56 -96.14 20.30 -96.14 19.01 C-96.14 18.35 -96.13 17.69 -96.13 17.02 C-96.13 15.01 -96.13 13 -96.14 10.99 C-96.14 9.74 -96.13 8.48 -96.13 7.19 C-96.13 6.61 -96.13 6.61 -96.13 3.67 C-96 1 -96 1 -95 0 C-93.46 -0.13 -91.91 -0.19 -90.36 -0.22 C-89.37 -0.24 -88.37 -0.27 -87.34 -0.29 C-86.80 -0.30 -86.80 -0.30 -84.02 -0.35 C-83.45 -0.36 -83.45 -0.36 -80.58 -0.42 C-76.84 -0.50 -73.11 -0.56 -69.38 -0.63 C-68.11 -0.65 -66.85 -0.67 -65.56 -0.69 C-43.68 -1.08 -21.86 -0.88 0 0 Z " fill="#C8C8C8" transform="translate(304,214)"/>
<path d="M0 0 C7.53 -0.03 15.06 -0.04 22.59 -0.06 C25.15 -0.06 27.72 -0.07 30.28 -0.07 C33.96 -0.09 37.63 -0.09 41.31 -0.10 C42.46 -0.10 43.62 -0.11 44.81 -0.11 C45.34 -0.11 45.34 -0.11 48.02 -0.11 C48.96 -0.12 49.9 -0.12 50.87 -0.12 C53 0 53 0 54 1 C54.09 2.66 54.12 4.32 54.11 5.98 C54.11 7.04 54.11 8.10 54.11 9.19 C54.11 10.35 54.10 11.50 54.10 12.69 C54.10 13.87 54.09 15.04 54.09 16.25 C54.09 20.02 54.08 23.79 54.06 27.56 C54.06 30.11 54.05 32.66 54.05 35.21 C54.04 41.47 54.02 47.74 54 54 C50.94 54.89 48.23 55.12 45.05 55.11 C44.07 55.11 43.09 55.11 42.08 55.11 C41.02 55.11 39.97 55.10 38.89 55.10 C37.81 55.10 36.73 55.09 35.61 55.09 C32.16 55.09 28.70 55.08 25.25 55.06 C22.91 55.06 20.57 55.05 18.22 55.05 C12.48 55.04 6.74 55.02 1 55 C-0.81 51.90 -1.25 49.65 -1.24 46.08 C-1.25 45.10 -1.25 44.13 -1.25 43.13 C-1.25 42.08 -1.24 41.04 -1.23 39.96 C-1.23 38.88 -1.23 37.81 -1.23 36.70 C-1.23 34.42 -1.22 32.15 -1.21 29.87 C-1.19 26.38 -1.19 22.89 -1.19 19.40 C-1.18 17.19 -1.18 14.98 -1.17 12.77 C-1.17 11.72 -1.17 10.68 -1.17 9.60 C-1.16 8.63 -1.15 7.66 -1.15 6.66 C-1.14 5.81 -1.14 4.95 -1.13 4.07 C-1 2 -1 2 0 0 Z " fill="#C7C7C7" transform="translate(42,185)"/>
<path d="M0 0 C17.82 0 35.64 0 54 0 C54.66 6.55 55.15 12.79 55.13 19.33 C55.13 20.17 55.13 21.01 55.14 21.88 C55.14 23.63 55.13 25.39 55.13 27.14 C55.13 29.82 55.13 32.50 55.14 35.19 C55.14 36.90 55.13 38.62 55.13 40.33 C55.13 41.13 55.14 41.92 55.14 42.74 C55.12 46.62 54.95 50.23 54 54 C48.38 55.19 42.88 55.14 37.17 55.13 C36.14 55.13 35.10 55.13 34.04 55.14 C31.87 55.14 29.69 55.13 27.52 55.13 C24.18 55.13 20.84 55.13 17.50 55.14 C15.39 55.14 13.28 55.13 11.17 55.13 C10.16 55.13 9.16 55.14 8.13 55.14 C7.67 55.14 7.67 55.14 5.33 55.13 C4.52 55.13 3.70 55.13 2.86 55.13 C1 55 1 55 0 54 C-0.09 52.31 -0.12 50.62 -0.11 48.93 C-0.11 47.83 -0.11 46.74 -0.11 45.61 C-0.11 44.45 -0.10 43.29 -0.10 42.09 C-0.10 41.56 -0.10 41.56 -0.10 38.88 C-0.09 34.90 -0.07 30.92 -0.06 26.94 C-0.04 18.05 -0.02 9.16 0 0 Z " fill="#C7C7C7" transform="translate(416,185)"/>
<path d="M0 0 C7.14 4.02 10.93 9.90 13.5 17.56 C14.63 27.72 12.98 35.32 6.75 43.38 C2.48 48.06 -3.79 51.28 -10.14 51.77 C-19.66 51.91 -25.90 50.65 -32.97 44.10 C-38.99 38.07 -40.57 32.96 -40.81 24.63 C-40.62 15.98 -38.28 10.66 -32.41 4.32 C-23.48 -3.93 -10.90 -4.94 0 0 Z " fill="#C8C8C8" transform="translate(269.5,94.44)"/>
<path d="M0 0 C11.17 -0.02 22.34 -0.04 33.52 -0.05 C38.71 -0.06 43.90 -0.06 49.09 -0.07 C70.76 -0.12 92.36 -0.12 114 1 C114 7.6 114 14.2 114 21 C103.32 22.26 92.67 22.14 81.93 22.13 C79.89 22.13 77.84 22.13 75.80 22.14 C71.53 22.14 67.26 22.14 62.99 22.13 C57.53 22.13 52.08 22.13 46.63 22.13 C42.41 22.14 38.19 22.14 33.97 22.13 C31.96 22.13 29.95 22.13 27.94 22.14 C25.13 22.14 22.31 22.14 19.50 22.13 C19.09 22.13 19.09 22.13 17.02 22.14 C11.3 22.11 5.68 21.66 0 21 C-0.96 18.13 -1.07 16.71 -0.88 13.77 C-0.83 12.97 -0.78 12.16 -0.73 11.34 C-0.68 10.51 -0.62 9.67 -0.56 8.81 C-0.54 8.39 -0.54 8.39 -0.40 6.25 C-0.28 4.17 -0.14 2.08 0 0 Z " fill="#CBCBCB" transform="translate(199,61)"/>
<path d="M0 0 C1.16 0.05 2.32 0.10 3.51 0.16 C6.3 0.28 9.09 0.42 11.88 0.56 C12.51 10.52 12.98 20.46 13 30.44 C13.01 31.27 13.01 32.11 13.01 32.97 C13.01 33.76 13.01 34.55 13.01 35.37 C13.01 36.06 13.01 36.75 13.00 37.46 C12.86 39.89 12.40 42.19 11.88 44.56 C5.77 44.59 -0.34 44.60 -6.44 44.62 C-8.52 44.62 -10.60 44.63 -12.68 44.64 C-15.66 44.65 -18.64 44.66 -21.62 44.66 C-22.09 44.66 -22.09 44.66 -24.46 44.68 C-24.89 44.68 -24.89 44.68 -27.06 44.68 C-27.83 44.68 -28.59 44.68 -29.37 44.68 C-31.13 44.56 -31.13 44.56 -32.13 43.56 C-32.22 42.21 -32.24 40.86 -32.24 39.50 C-32.24 38.64 -32.24 37.78 -32.24 36.89 C-32.23 35.96 -32.23 35.02 -32.22 34.06 C-32.22 33.58 -32.22 33.58 -32.22 31.17 C-32.21 28.11 -32.2 25.06 -32.19 22 C-32.18 19.93 -32.18 17.87 -32.17 15.80 C-32.16 10.72 -32.15 5.64 -32.13 0.56 C-21.36 -0.17 -10.79 -0.56 0 0 Z " fill="#C9C9C9" transform="translate(88.13,111.44)"/>
<path d="M0 0 C5.34 3.85 9.34 8.35 10.69 14.94 C11.26 20.98 10.59 25.08 6.69 29.94 C1.88 34.79 -1.65 37.07 -8.63 37.19 C-14.81 37.11 -18.25 35.67 -23 31.69 C-27.03 26.89 -28.88 22.14 -28.60 15.92 C-27.73 9.88 -24.90 5.78 -20.31 1.94 C-14.20 -2.28 -6.91 -2.21 0 0 Z " fill="#C9C9C9" transform="translate(433.31,288.06)"/>
<path d="M0 0 C1.01 0.00 2.02 0.00 3.06 0.01 C3.63 0.01 3.63 0.01 6.52 0.01 C7.76 0.01 9.00 0.02 10.28 0.02 C10.91 0.02 10.91 0.02 14.11 0.03 C17.48 0.03 20.84 0.04 24.21 0.05 C27.64 0.06 31.07 0.07 34.50 0.07 C41.24 0.08 47.98 0.10 54.72 0.12 C54.91 1.47 55.1 2.83 55.28 4.18 C55.33 4.56 55.33 4.56 55.59 6.47 C55.72 9.12 55.72 9.12 54.72 16.12 C35.58 16.12 16.44 16.12 -3.28 16.12 C-3.28 0.17 -3.28 0.17 0 0 Z " fill="#A9A9A9" transform="translate(346.28,59.88)"/>
<path d="M0 0 C2.36 -0.37 2.36 -0.37 5.35 -0.36 C5.91 -0.36 5.91 -0.36 8.74 -0.37 C9.95 -0.35 11.16 -0.34 12.41 -0.33 C13.65 -0.33 14.89 -0.32 16.16 -0.32 C19.45 -0.31 22.75 -0.29 26.04 -0.26 C29.39 -0.24 32.75 -0.24 36.10 -0.23 C38.64 -0.23 41.18 -0.21 43.72 -0.20 C44.94 -0.20 46.15 -0.20 47.4 -0.19 C47.96 -0.18 47.96 -0.18 50.78 -0.16 C51.76 -0.15 52.75 -0.15 53.77 -0.14 C56 0 56 0 57 1 C57 5.95 57 10.9 57 16 C37.86 16 18.72 16 -1 16 C-2 3 -2 3 0 0 Z " fill="#A9A9A9" transform="translate(112,60)"/>
<path d="M0 0 C-2.89 3.03 -4.14 3.96 -8.48 4.15 C-10.01 4.16 -11.53 4.17 -13.06 4.18 C-13.89 4.18 -14.72 4.19 -15.58 4.20 C-18.34 4.22 -21.11 4.23 -23.87 4.24 C-24.81 4.24 -25.75 4.25 -26.72 4.25 C-31.71 4.27 -36.69 4.29 -41.67 4.29 C-46.83 4.31 -51.98 4.34 -57.14 4.38 C-61.09 4.41 -65.05 4.42 -69.01 4.42 C-70.91 4.42 -72.81 4.43 -74.71 4.45 C-77.37 4.48 -80.03 4.48 -82.68 4.47 C-83.47 4.48 -84.26 4.50 -85.07 4.51 C-88.74 4.47 -90.61 4.31 -93.52 1.97 C-93.76 1.65 -93.76 1.65 -95 0 C-63.30 -0.76 -31.69 -1.27 0 0 Z " fill="#A4A4A4" transform="translate(304,214)"/>
<path d="M0 0 C17.82 0 35.64 0 54 0 C52.80 3.59 52.33 4.26 49 6 C45.70 6.44 42.42 6.40 39.09 6.36 C38.13 6.36 37.16 6.36 36.17 6.37 C34.13 6.36 32.10 6.35 30.06 6.34 C26.95 6.31 23.83 6.32 20.71 6.32 C18.73 6.32 16.75 6.31 14.78 6.30 C13.84 6.30 12.91 6.30 11.95 6.30 C11.51 6.30 11.51 6.30 9.32 6.28 C8.55 6.27 7.79 6.26 7.00 6.26 C5 6 5 6 2 4 C2.00 4.64 2.01 5.28 2.02 5.94 C2.04 8.89 2.05 11.85 2.06 14.81 C2.07 15.82 2.08 16.82 2.09 17.86 C2.11 24.63 1.74 31.27 1 38 C0.67 38 0.34 38 0 38 C0 25.46 0 12.92 0 0 Z " fill="#A3A2A3" transform="translate(416,185)"/>
<path d="M0 0 C17.49 0 34.98 0 53 0 C53.16 0.33 53.16 0.33 54 2 C50.98 5.16 48.73 6.28 44.46 6.50 C42.65 6.52 40.84 6.52 39.03 6.50 C38.55 6.50 38.55 6.50 36.12 6.50 C34.09 6.50 32.07 6.49 30.04 6.47 C26.95 6.44 23.85 6.45 20.75 6.46 C18.78 6.45 16.81 6.44 14.84 6.43 C13.91 6.44 12.99 6.44 12.03 6.44 C4.27 6.33 4.27 6.33 1 3 C0.34 2.67 -0.32 2.34 -1 2 C-0.67 1.34 -0.34 0.68 0 0 Z " fill="#A6A6A6" transform="translate(42,185)"/>
<path d="M0 0 C0.63 9.96 1.10 19.89 1.13 29.88 C1.13 30.71 1.13 31.55 1.14 32.41 C1.13 36.41 0.99 40.10 0 44 C-0.33 44 -0.66 44 -1 44 C-1.33 30.47 -1.66 16.94 -2 3 C-2.66 3 -3.32 3 -4 3 C-4 3.66 -4 4.32 -4 5 C-8.91 5.12 -13.82 5.21 -18.73 5.28 C-20.40 5.3 -22.07 5.33 -23.75 5.38 C-26.15 5.44 -28.55 5.47 -30.95 5.49 C-31.70 5.51 -32.44 5.54 -33.21 5.57 C-35.33 5.57 -35.33 5.57 -39 5 C-41.50 2.47 -41.50 2.47 -43 0 C-28.62 -1.30 -14.41 -0.73 0 0 Z " fill="#A4A4A3" transform="translate(100,112)"/>
<path d="M0 0 C2.46 1.51 2.46 1.51 5 4 C5.50 6.83 5.68 9.05 5.63 11.87 C5.63 12.63 5.63 13.39 5.64 14.17 C5.63 15.78 5.62 17.38 5.60 18.98 C5.56 21.43 5.58 23.87 5.60 26.31 C5.59 27.88 5.58 29.44 5.57 31.00 C5.57 31.72 5.58 32.45 5.58 33.2 C5.47 38.06 4.40 40.54 1 44 C0 43 0 43 -0.12 41.25 C-0.12 40.49 -0.12 39.72 -0.11 38.94 C-0.11 38.08 -0.11 37.22 -0.11 36.33 C-0.11 35.40 -0.10 34.46 -0.10 33.50 C-0.10 33.02 -0.10 33.02 -0.09 30.61 C-0.09 27.55 -0.07 24.49 -0.06 21.44 C-0.06 19.37 -0.05 17.30 -0.05 15.24 C-0.04 10.16 -0.02 5.08 0 0 Z " fill="#BABABA" transform="translate(56,112)"/>
<path d="M0 0 C5.00 3.61 8.87 7.95 10.69 13.94 C9.37 13.94 8.05 13.94 6.69 13.94 C5.61 11.29 4.59 8.65 3.69 5.94 C1.94 4.88 1.94 4.88 -0.31 3.94 C-1.08 3.57 -1.84 3.19 -2.63 2.81 C-7.60 1.19 -11.73 1.44 -16.5 3.5 C-19.75 5.33 -22.00 7.29 -23.70 10.73 C-24.98 15.34 -24.93 20.22 -24.31 24.94 C-23.65 25.60 -22.99 26.26 -22.31 26.94 C-21.69 29.56 -21.69 29.56 -21.31 31.94 C-21.97 31.94 -22.63 31.94 -23.31 31.94 C-26.90 25.81 -29.05 21.25 -28.31 13.94 C-26.25 7.54 -23.17 3.91 -17.69 0.13 C-11.80 -1.95 -5.94 -1.90 0 0 Z " fill="#A5A6A5" transform="translate(433.31,288.06)"/>
<path d="M0 0 C0.87 0.49 1.73 0.99 2.63 1.5 C1.97 2.16 1.30 2.82 0.63 3.5 C-0.98 3.29 -2.59 3.08 -4.19 2.81 C-12.29 1.67 -18.39 2.14 -25.38 6.5 C-25.70 6.67 -25.70 6.67 -27.38 7.5 C-27.70 6.18 -28.04 4.86 -28.38 3.5 C-19.73 -1.56 -9.78 -4.26 0 0 Z " fill="#AAAAAA" transform="translate(267.38,93.5)"/>
<path d="M0 0 C4.55 3.08 7.45 7.25 9.13 12.44 C7.80 12.44 6.49 12.44 5.13 12.44 C4.05 9.79 3.03 7.15 2.13 4.44 C0.25 3.38 0.25 3.38 -1.88 2.44 C-2.87 1.78 -3.85 1.12 -4.88 0.44 C-1.88 -0.56 -1.88 -0.56 0 0 Z " fill="#ACACAC" transform="translate(434.88,289.56)"/>
<path d="M0 0 C9.60 0.59 9.60 0.59 13 4 C7.58 5.23 7.58 5.23 4.63 4.06 C4.09 3.71 3.55 3.36 3 3 C3 2.34 3 1.68 3 1 C2.01 0.67 1.02 0.34 0 0 Z " fill="#A6A6A6" transform="translate(257,92)"/>
<path d="M0 0 C-0.56 0.27 -1.11 0.54 -1.69 0.81 C-4.20 2.10 -6.59 3.53 -9 5 C-9.33 3.68 -9.66 2.36 -10 1 C-6.22 -0.84 -4.05 -1.16 0 0 Z " fill="#B2B2B2" transform="translate(249,96)"/>
</g>
</svg>