<?xml version="1.0" encoding="UTF-8"?>
<svg xmlns="http://www.w3.org/2000/svg" viewBox="0 0 60 52" width="60" height="52">
<g transform="translate(3.00, 2.64) scale(0.11)">
<path d="M0 0 C0.89 7.35 1.15 14.60 1.13 22 C1.13 23.12 1.14 24.23 1.14 25.38 C1.14 27.73 1.14 30.08 1.13 32.42 C1.13 35.99 1.13 39.56 1.14 43.13 C1.14 45.42 1.14 47.71 1.13 50 C1.14 51.05 1.14 52.11 1.14 53.20 C1.14 53.70 1.14 53.70 1.13 56.25 C1.13 57.12 1.13 57.99 1.13 58.89 C0.95 63.27 0.44 67.64 0 72 C-11.55 72 -23.1 72 -35 72 C-36.50 66.74 -37.25 63.82 -37.24 58.67 C-37.25 57.46 -37.25 56.25 -37.25 55.01 C-37.24 53.72 -37.24 52.44 -37.23 51.11 C-37.23 49.77 -37.23 48.42 -37.23 47.07 C-37.23 44.26 -37.22 41.44 -37.21 38.63 C-37.19 35.03 -37.19 31.43 -37.19 27.83 C-37.19 25.05 -37.18 22.27 -37.17 19.49 C-37.17 17.52 -37.17 15.55 -37.16 13.57 C-37.16 12.97 -37.16 12.97 -37.15 9.94 C-37.14 8.89 -37.14 7.83 -37.13 6.75 C-37.02 4.33 -36.70 2.31 -36 0 C-7.62 -1.65 -7.62 -1.65 0 0 Z " fill="#F0614E" transform="translate(274,186)"/>
<path d="M0 0 C0.89 7.35 1.15 14.60 1.13 22 C1.13 23.12 1.14 24.23 1.14 25.38 C1.14 27.73 1.14 30.08 1.13 32.42 C1.13 35.99 1.13 39.56 1.14 43.13 C1.14 45.42 1.14 47.71 1.13 50 C1.14 51.05 1.14 52.11 1.14 53.20 C1.14 53.70 1.14 53.70 1.13 56.25 C1.13 57.12 1.13 57.99 1.13 58.89 C0.95 63.27 0.44 67.64 0 72 C-11.55 72 -23.1 72 -35 72 C-36.50 66.74 -37.25 63.82 -37.24 58.67 C-37.25 57.46 -37.25 56.25 -37.25 55.01 C-37.24 53.72 -37.24 52.44 -37.23 51.11 C-37.23 49.77 -37.23 48.42 -37.23 47.07 C-37.23 44.26 -37.22 41.44 -37.21 38.63 C-37.19 35.03 -37.19 31.43 -37.19 27.83 C-37.19 25.05 -37.18 22.27 -37.17 19.49 C-37.17 17.52 -37.17 15.55 -37.16 13.57 C-37.16 12.97 -37.16 12.97 -37.15 9.94 C-37.14 8.89 -37.14 7.83 -37.13 6.75 C-37.02 4.33 -36.70 2.31 -36 0 C-7.62 -1.65 -7.62 -1.65 0 0 Z M-32 8 C-32 26.48 -32 44.96 -32 64 C-22.76 64 -13.52 64 -4 64 C-4 45.52 -4 27.04 -4 8 C-13.24 8 -22.48 8 -32 8 Z " fill="#E0442C" transform="translate(274,186)"/>
<path d="M0 0 C0.89 7.35 1.15 14.60 1.13 22 C1.13 23.12 1.14 24.23 1.14 25.38 C1.14 27.73 1.14 30.08 1.13 32.42 C1.13 35.99 1.13 39.56 1.14 43.13 C1.14 45.42 1.14 47.71 1.13 50 C1.14 51.05 1.14 52.11 1.14 53.20 C1.12 59.52 0.76 65.72 0 72 C-0.33 72 -0.66 72 -1 72 C-1.33 49.56 -1.66 27.12 -2 4 C-2.66 4.99 -3.32 5.98 -4 7 C-6.89 7.34 -6.89 7.34 -10.54 7.29 C-11.19 7.29 -11.19 7.29 -14.48 7.26 C-15.87 7.24 -17.25 7.21 -18.63 7.19 C-20.01 7.17 -21.40 7.16 -22.79 7.15 C-26.19 7.11 -29.60 7.06 -33 7 C-33.33 6.01 -33.66 5.02 -34 4 C-34.33 25.45 -34.66 46.9 -35 69 C-37.02 64.96 -37.25 63.38 -37.24 59.01 C-37.24 58.41 -37.24 58.41 -37.25 55.35 C-37.24 54.05 -37.24 52.75 -37.23 51.41 C-37.23 50.05 -37.23 48.70 -37.23 47.35 C-37.23 44.52 -37.22 41.69 -37.21 38.86 C-37.19 35.23 -37.19 31.61 -37.19 27.98 C-37.19 25.19 -37.18 22.40 -37.17 19.61 C-37.17 17.62 -37.17 15.64 -37.16 13.65 C-37.16 12.44 -37.15 11.23 -37.15 9.99 C-37.14 8.93 -37.14 7.87 -37.13 6.77 C-37.02 4.34 -36.70 2.31 -36 0 C-7.62 -1.65 -7.62 -1.65 0 0 Z " fill="#BF1E02" transform="translate(274,186)"/>
<path d="M0 0 C1.24 -0.00 2.48 -0.00 3.76 -0.00 C5.05 0.02 6.35 0.04 7.69 0.06 C8.98 0.05 10.28 0.04 11.62 0.04 C21.05 0.10 21.05 0.10 23.64 1.71 C24.69 3.50 24.69 3.50 23.69 8.50 C12.80 8.50 1.91 8.50 -9.31 8.50 C-9.31 4.50 -9.31 4.50 -8.21 2.28 C-5.51 -0.26 -3.66 -0.01 0 0 Z " fill="#E7503B" transform="translate(248.31,249.50)"/>
<path d="M0 0 C0.33 0.17 0.33 0.17 2 1 C2 1.99 2 2.98 2 4 C6.95 3.83 6.95 3.83 32 3 C32 3.66 32 4.32 32 5 C22.43 5 12.86 5 3 5 C2.67 10.61 2.34 16.22 2 22 C0 20 0 20 -0.23 17.94 C-0.22 17.11 -0.21 16.28 -0.20 15.43 C-0.19 14.53 -0.18 13.64 -0.18 12.71 C-0.16 11.78 -0.14 10.84 -0.13 9.88 C-0.12 8.93 -0.11 7.99 -0.10 7.01 C-0.07 4.67 -0.04 2.34 0 0 Z " fill="#DA3A20" transform="translate(239,189)"/>
</g>
</svg>