<?xml version="1.0" encoding="UTF-8"?>
<!-- Generator: visioncortex VTracer 0.6.5 -->
<svg version="1.1" xmlns="http://www.w3.org/2000/svg" width="1024" height="886">
<path d="M0 0 C6.221 -0.073 12.443 -0.063 18.664 -0.065 C20.002 -0.066 21.339 -0.068 22.677 -0.07 C29.64 -0.079 36.603 -0.083 43.566 -0.082 C50.02 -0.082 56.474 -0.092 62.928 -0.108 C68.525 -0.121 74.123 -0.126 79.72 -0.126 C83.04 -0.126 86.36 -0.129 89.68 -0.139 C93.355 -0.149 97.029 -0.146 100.703 -0.14 C101.247 -0.143 101.247 -0.143 103.996 -0.157 C104.496 -0.155 104.496 -0.155 107.026 -0.144 C107.891 -0.145 108.756 -0.145 109.647 -0.146 C112.45 0.138 114.569 0.883 117.102 2.103 C118.841 4.305 119.836 6.571 121.102 9.103 C122.752 9.103 124.402 9.103 126.102 9.103 C126.411 9.666 126.411 9.666 127.973 12.513 C132.179 20.147 136.426 27.731 140.977 35.166 C144.132 40.33 146.835 45.486 149.102 51.103 C148.607 51.268 148.607 51.268 146.102 52.103 C151.277 61.482 156.613 70.726 162.294 79.81 C164.79 83.829 167.048 87.873 169.121 92.125 C170.791 95.494 172.632 98.765 174.477 102.041 C174.674 102.391 174.674 102.391 175.669 104.162 C178.165 108.561 180.818 112.784 183.692 116.947 C187.261 122.404 190.197 128.271 193.102 134.103 C194.191 134.093 195.281 134.082 196.403 134.071 C200.462 134.035 204.521 134.012 208.58 133.993 C210.334 133.983 212.088 133.97 213.841 133.952 C216.368 133.928 218.895 133.917 221.422 133.908 C222.2 133.897 222.979 133.887 223.781 133.876 C224.521 133.876 225.261 133.876 226.024 133.876 C226.668 133.872 227.312 133.867 227.976 133.863 C230.102 134.103 230.102 134.103 236.102 136.103 C236.102 140.723 236.102 145.343 236.102 150.103 C257.882 149.773 279.662 149.443 302.102 149.103 C302.102 144.813 302.102 140.523 302.102 136.103 C302.432 135.773 302.762 135.443 303.102 135.103 C305.189 135.138 307.277 135.183 309.362 135.273 C313.098 135.428 316.834 135.478 320.572 135.534 C322.535 135.58 324.497 135.654 326.458 135.758 C342.213 136.555 342.213 136.555 346.982 132.506 C352.368 125.976 355.116 118.329 356.62 110.092 C357.41 106.83 358.947 104.628 361.102 102.103 C362.766 101.43 364.432 100.762 366.102 100.103 C366.818 98.457 367.476 96.785 368.102 95.103 C369.056 93.277 370.036 91.465 371.039 89.666 C376.654 79.474 376.654 79.474 378.102 75.041 C379.394 71.244 380.886 68.202 383.887 65.49 C386.957 62.181 388.963 58.463 391.164 54.541 C392.149 52.814 393.133 51.087 394.117 49.361 C394.616 48.482 395.114 47.603 395.627 46.698 C398.304 41.988 401.024 37.304 403.749 32.623 C406.455 27.969 409.124 23.297 411.766 18.607 C413.024 16.397 414.281 14.188 415.539 11.978 C416.131 10.916 416.722 9.853 417.332 8.759 C417.894 7.777 418.456 6.795 419.035 5.783 C419.531 4.903 420.027 4.024 420.537 3.118 C422.436 0.673 423.109 0.605 426.102 0.103 C428.135 0.008 430.171 -0.032 432.206 -0.037 C432.832 -0.04 432.832 -0.04 436 -0.055 C437.385 -0.056 438.769 -0.057 440.154 -0.058 C441.615 -0.063 443.075 -0.068 444.536 -0.073 C448.5 -0.086 452.465 -0.093 456.43 -0.097 C458.907 -0.1 461.385 -0.104 463.862 -0.109 C471.613 -0.122 479.364 -0.132 487.115 -0.136 C496.062 -0.14 505.009 -0.158 513.956 -0.187 C520.874 -0.208 527.791 -0.219 534.708 -0.22 C538.839 -0.221 542.97 -0.227 547.101 -0.245 C550.986 -0.261 554.871 -0.263 558.756 -0.255 C560.181 -0.254 561.606 -0.258 563.031 -0.268 C564.977 -0.281 566.924 -0.273 568.871 -0.264 C569.96 -0.266 571.049 -0.267 572.171 -0.269 C575.524 0.157 577.388 1.121 580.102 3.103 C581.684 5.294 581.684 5.294 582.914 7.666 C583.333 8.451 583.752 9.236 584.184 10.044 C585.102 12.103 585.102 12.103 585.102 14.103 C586.422 13.773 587.742 13.443 589.102 13.103 C593.49 20.36 597.857 27.629 602.199 34.914 C603.366 36.87 604.536 38.825 605.712 40.777 C607.023 42.961 608.316 45.154 609.602 47.353 C609.981 47.976 610.36 48.6 610.75 49.242 C612.371 52.058 613.16 53.643 612.746 56.919 C612.534 57.64 612.321 58.361 612.102 59.103 C613.538 61.143 614.74 61.952 617.035 62.908 C619.647 64.419 620.495 65.925 621.977 68.541 C622.491 69.439 623.005 70.338 623.535 71.263 C625.557 74.928 627.565 78.6 629.555 82.283 C631.091 85.083 632.677 87.846 634.289 90.603 C634.576 91.094 634.576 91.094 636.028 93.576 C637.17 95.523 638.318 97.466 639.47 99.407 C640.979 101.948 642.478 104.494 643.977 107.041 C644.466 107.858 644.954 108.675 645.458 109.517 C645.915 110.297 646.373 111.077 646.844 111.88 C647.255 112.574 647.666 113.267 648.09 113.982 C649.215 116.34 649.689 118.531 650.102 121.103 C649.442 121.103 648.782 121.103 648.102 121.103 C648.607 121.911 649.112 122.72 649.633 123.552 C650.283 124.621 650.932 125.69 651.602 126.791 C652.251 127.846 652.901 128.902 653.571 129.99 C655.15 133.201 655.718 134.617 655.102 138.103 C653.633 140.943 653.633 140.943 651.602 144.041 C650.856 145.202 650.113 146.365 649.371 147.529 C649.181 147.826 649.181 147.826 648.218 149.328 C646.488 152.079 644.89 154.901 643.289 157.728 C642.624 158.901 641.959 160.075 641.293 161.248 C640.944 161.863 640.595 162.479 640.235 163.113 C638.083 166.891 635.905 170.653 633.727 174.416 C633.263 175.218 632.799 176.019 632.321 176.846 C630.024 180.809 627.716 184.765 625.387 188.709 C624.95 189.449 624.513 190.189 624.062 190.951 C623.252 192.321 622.44 193.69 621.626 195.057 C619.409 198.802 617.284 202.585 615.211 206.412 C612.144 212.066 608.923 217.62 605.664 223.166 C601.766 229.819 597.877 236.478 594.031 243.162 C593.696 243.744 593.361 244.326 593.016 244.926 C591.397 247.74 589.78 250.556 588.165 253.373 C587.008 255.384 585.844 257.392 584.672 259.394 C583.674 261.116 582.701 262.853 581.764 264.609 C580.651 266.608 579.618 268.391 578.102 270.103 C575.207 270.884 575.207 270.884 572.289 270.603 C571.313 270.531 570.338 270.459 569.332 270.384 C568.596 270.291 567.86 270.199 567.102 270.103 C566.772 271.423 566.442 272.743 566.102 274.103 C550.262 274.103 534.422 274.103 518.102 274.103 C518.102 272.783 518.102 271.463 518.102 270.103 C516.941 270.107 515.781 270.112 514.586 270.116 C512.859 270.12 511.133 270.124 509.406 270.126 C508.925 270.127 508.925 270.127 506.486 270.132 C499.463 270.134 492.445 270.053 485.424 269.933 C479.132 269.83 472.841 269.785 466.549 269.769 C462.45 269.756 458.356 269.716 454.259 269.62 C450.225 269.526 446.196 269.501 442.161 269.523 C440.644 269.519 439.126 269.491 437.609 269.438 C432.841 269.278 428.629 269.386 424.102 271.103 C420.16 274.959 418.233 280.12 416.102 285.103 C415.069 286.895 414.011 288.674 412.906 290.423 C412.421 291.22 411.936 292.016 411.436 292.836 C410.955 293.626 410.473 294.415 409.977 295.228 C406.134 301.566 402.593 307.895 399.391 314.58 C397.738 317.815 395.753 320.731 393.679 323.708 C392.084 326.13 390.704 328.591 389.34 331.15 C386.121 337.11 382.723 342.953 379.289 348.791 C374.795 356.46 370.352 364.152 366.021 371.915 C363.579 376.284 361.041 380.584 358.442 384.861 C356.619 387.911 354.903 391.016 353.207 394.138 C352.102 396.103 352.102 396.103 350.227 398.853 C348.735 401.837 349.187 402.907 350.102 406.103 C351.269 408.509 352.463 410.791 353.789 413.103 C353.953 413.405 353.953 413.405 354.78 414.931 C357.297 419.359 360.135 421.934 364.102 425.103 C365.668 428.119 366.774 431.075 367.805 434.306 C369.42 439.358 371.401 443.539 374.102 448.103 C374.102 448.763 374.102 449.423 374.102 450.103 C374.762 450.103 375.422 450.103 376.102 450.103 C376.333 450.623 376.563 451.142 376.801 451.677 C378.423 455.146 379.655 457.702 382.539 460.291 C385.229 463.242 385.981 465.136 387.289 468.853 C390.12 476.666 394.23 483.4 398.53 490.483 C403.604 498.941 408.451 507.535 413.36 516.089 C414.92 518.788 416.502 521.472 418.098 524.15 C418.528 524.883 418.959 525.617 419.402 526.372 C420.174 527.687 420.957 528.996 421.752 530.297 C423.204 532.796 424.104 534.645 424.09 537.564 C422.715 541.096 420.803 544.224 418.789 547.416 C415.627 552.547 412.676 557.645 410.102 563.103 C409.438 564.438 408.772 565.771 408.102 567.103 C407.442 567.103 406.782 567.103 406.102 567.103 C405.833 567.983 405.565 568.863 405.288 569.769 C404.159 572.941 402.839 575.558 401.125 578.447 C400.541 579.439 399.956 580.431 399.354 581.453 C398.735 582.493 398.115 583.532 397.477 584.603 C396.2 586.766 394.924 588.928 393.649 591.091 C393.034 592.13 392.42 593.168 391.787 594.238 C389.73 597.736 387.723 601.258 385.727 604.791 C382.67 610.173 379.458 615.442 376.156 620.677 C373.928 624.393 371.868 628.178 369.806 631.988 C366.965 637.181 364.027 642.318 361.088 647.456 C360.035 649.298 358.985 651.141 357.936 652.984 C356.599 655.33 355.247 657.665 353.885 659.997 C352.804 661.881 351.759 663.787 350.785 665.729 C348.135 670.77 348.135 670.77 345.22 671.709 C343.015 671.892 340.991 671.808 338.789 671.603 C338.049 671.567 337.308 671.531 336.545 671.494 C334.728 671.4 332.914 671.256 331.102 671.103 C331.102 672.093 331.102 673.083 331.102 674.103 C314.932 674.433 298.762 674.763 282.102 675.103 C282.102 673.783 282.102 672.463 282.102 671.103 C279.792 671.103 277.482 671.103 275.102 671.103 C275.102 672.093 275.102 673.083 275.102 674.103 C266.974 674.257 258.846 674.405 250.718 674.546 C246.944 674.612 243.17 674.679 239.396 674.751 C235.752 674.821 232.108 674.885 228.464 674.946 C227.075 674.97 225.686 674.996 224.298 675.024 C222.35 675.062 220.401 675.094 218.453 675.125 C217.345 675.145 216.236 675.165 215.095 675.185 C212.3 675.109 209.816 674.747 207.102 674.103 C207.102 673.113 207.102 672.123 207.102 671.103 C201.822 671.103 196.542 671.103 191.102 671.103 C190.522 670.064 189.942 669.025 189.344 667.955 C182.256 655.289 182.256 655.289 179.102 650.103 C176.588 645.967 174.212 641.765 171.852 637.541 C165.735 626.607 159.425 615.793 152.789 605.166 C150.066 600.78 147.687 596.361 145.453 591.712 C143.211 587.383 140.575 583.298 137.969 579.181 C133.102 571.157 133.102 571.157 133.102 568.103 C132.442 568.103 131.782 568.103 131.102 568.103 C130.535 566.949 129.967 565.796 129.383 564.607 C127.25 560.342 124.958 556.185 122.602 552.041 C122.224 551.372 121.846 550.704 121.457 550.015 C121.27 549.684 121.27 549.684 120.321 548.005 C119.955 547.357 119.59 546.709 119.213 546.042 C118.462 544.732 117.694 543.432 116.91 542.141 C114.044 537.375 114.044 537.375 114.664 534.478 C115.139 533.694 115.613 532.911 116.102 532.103 C116.638 531.175 117.174 530.247 117.727 529.291 C118.181 528.569 118.634 527.847 119.102 527.103 C118.112 525.783 117.122 524.463 116.102 523.103 C116.418 522.581 116.735 522.059 117.061 521.521 C118.556 519.05 120.048 516.577 121.539 514.103 C121.811 513.652 121.811 513.652 123.188 511.37 C126.971 505.069 130.631 498.714 134.07 492.218 C136.304 488.116 138.698 485.223 142.102 482.103 C143.092 482.433 144.082 482.763 145.102 483.103 C145.329 482.464 145.556 481.824 145.789 481.166 C149.141 473.345 153.843 466.13 158.166 458.817 C161.039 453.945 163.845 449.041 166.602 444.103 C169.707 438.545 172.874 433.028 176.102 427.541 C176.512 426.839 176.922 426.137 177.345 425.415 C179.435 421.857 181.572 418.343 183.805 414.873 C184.233 414.196 184.661 413.519 185.102 412.822 C185.915 411.542 186.742 410.271 187.586 409.011 C188.68 407.275 188.68 407.275 190.102 404.103 C189.365 401.044 188.13 399.148 186.477 396.478 C185.102 394.103 185.102 394.103 185.102 391.103 C184.442 391.103 183.782 391.103 183.102 391.103 C182.796 390.529 182.491 389.956 182.176 389.365 C176.393 378.63 170.22 368.114 164.047 357.599 C163.757 357.105 163.757 357.105 162.289 354.603 C162.049 354.196 162.049 354.196 160.832 352.134 C158.734 348.458 156.719 344.739 154.697 341.021 C152.205 336.463 149.658 331.937 147.102 327.416 C146.827 326.929 146.827 326.929 145.434 324.464 C140.072 315.004 134.595 305.611 129.098 296.228 C122.941 285.71 122.941 285.71 120.278 280.611 C115.428 271.806 115.428 271.806 112.039 270.009 C109.608 269.688 107.54 269.822 105.102 270.103 C103.995 270.16 102.887 270.216 101.746 270.275 C93.087 270.775 93.087 270.775 89.102 272.103 C87.416 272.196 85.727 272.233 84.039 272.228 C83.161 272.231 82.284 272.233 81.379 272.236 C79.102 272.103 79.102 272.103 77.102 271.103 C75.032 271.006 72.959 270.972 70.887 270.97 C69.644 270.969 68.4 270.968 67.119 270.966 C65.814 270.97 64.509 270.974 63.164 270.978 C62.514 270.976 62.514 270.976 59.221 270.966 C57.976 270.968 56.732 270.969 55.449 270.97 C54.877 270.971 54.877 270.971 51.981 270.974 C49.102 271.103 49.102 271.103 46.102 272.103 C43.71 271.851 41.325 271.527 38.947 271.167 C31.168 270.089 23.595 269.897 15.754 270.044 C13.517 270.085 11.28 270.109 9.043 270.128 C2.696 270.185 -3.65 270.264 -9.995 270.37 C-13.911 270.435 -17.825 270.475 -21.741 270.5 C-23.223 270.514 -24.704 270.537 -26.186 270.571 C-28.246 270.616 -30.304 270.631 -32.364 270.639 C-33.533 270.656 -34.701 270.673 -35.905 270.691 C-38.898 270.103 -38.898 270.103 -41.2 267.746 C-42.956 265.013 -44.604 262.274 -46.148 259.416 C-46.669 258.463 -47.19 257.51 -47.726 256.529 C-48.898 254.103 -48.898 254.103 -48.898 252.103 C-49.558 252.103 -50.218 252.103 -50.898 252.103 C-51.26 251.435 -51.622 250.767 -51.995 250.079 C-55.611 243.427 -59.291 236.815 -63.023 230.228 C-63.587 229.233 -64.15 228.237 -64.731 227.212 C-77.828 204.092 -91.08 181.06 -104.461 158.103 C-105.02 157.143 -105.579 156.183 -106.156 155.194 C-106.691 154.277 -107.226 153.36 -107.777 152.416 C-108.289 151.533 -108.801 150.65 -109.328 149.74 C-110.406 147.929 -111.522 146.141 -112.667 144.373 C-113.227 143.5 -113.786 142.627 -114.363 141.728 C-114.873 140.957 -115.384 140.186 -115.91 139.392 C-117.155 136.509 -116.821 135.061 -115.898 132.103 C-114.654 129.754 -113.271 127.538 -111.859 125.287 C-110.693 122.638 -111.203 121.818 -111.898 119.103 C-111.105 117.044 -111.105 117.044 -109.711 114.666 C-109.16 113.709 -108.61 112.753 -108.043 111.767 C-107.714 111.207 -107.384 110.646 -107.045 110.069 C-105.689 107.745 -104.362 105.405 -103.035 103.064 C-98.088 94.349 -93.086 85.677 -87.898 77.103 C-87.403 77.268 -87.403 77.268 -84.898 78.103 C-82.898 75.103 -82.898 75.103 -83.054 71.919 C-82.85 66.93 -81.036 64.169 -78.398 60.041 C-77.468 58.524 -76.538 57.007 -75.609 55.49 C-75.146 54.744 -74.683 53.998 -74.206 53.23 C-72.409 50.307 -70.714 47.338 -69.023 44.353 C-68.394 43.248 -67.765 42.144 -67.117 41.005 C-66.775 40.405 -66.434 39.804 -66.082 39.185 C-63.566 34.76 -61.045 30.337 -58.523 25.916 C-57.999 24.994 -57.474 24.072 -56.934 23.122 C-56.44 22.256 -55.946 21.39 -55.437 20.498 C-54.996 19.723 -54.555 18.948 -54.1 18.149 C-53.091 16.431 -52.003 14.761 -50.898 13.103 C-49.578 13.103 -48.258 13.103 -46.898 13.103 C-45.437 10.522 -45.437 10.522 -43.966 7.181 C-40.784 1.445 -40.784 1.445 -37.094 0.022 C-33.614 -0.31 -30.3 -0.291 -26.808 -0.136 C-25.53 -0.129 -24.251 -0.121 -22.934 -0.113 C-20.247 -0.094 -17.57 -0.056 -14.885 0.016 C-9.92 0.124 -4.965 0.065 0 0 Z " fill="#C5C5C5" transform="translate(241.898193359375,138.89693927764893)"/>
<path d="M0 0 C20.79 0 41.58 0 63 0 C63 0.66 63 1.32 63 2 C63.287 2.056 63.287 2.056 64.738 2.34 C78.356 5.501 92.114 12.25 103 21 C103.472 21.378 103.472 21.378 105.863 23.293 C107.736 24.814 109.602 26.344 111.457 27.887 C113.133 29.28 114.838 30.639 116.57 31.961 C119.117 34.098 121.028 36.313 123.062 38.938 C123.713 39.772 124.364 40.606 125.035 41.465 C125.684 42.301 126.332 43.138 127 44 C128.331 45.669 129.663 47.336 131 49 C136.737 48.402 140.933 45.121 145.648 42.062 C147.389 40.969 149.192 39.977 151 39 C155.045 40.348 155.636 42.233 157.75 45.875 C158.384 46.945 159.018 48.015 159.672 49.117 C161 52 161 52 160 55 C158.358 56.259 158.358 56.259 156.254 57.48 C155.499 57.922 154.744 58.363 153.967 58.818 C153.173 59.27 152.38 59.722 151.562 60.188 C150.773 60.651 149.983 61.114 149.17 61.592 C143.282 65 143.282 65 141 65 C141.196 65.523 141.393 66.046 141.595 66.585 C143.764 72.378 145.896 78.184 148 84 C148.322 84.889 148.644 85.777 148.976 86.693 C153.384 99.183 153.6 113.941 153 127 C152.943 128.276 152.887 129.552 152.828 130.867 C151.012 157.044 138.586 181.939 121 201 C119.974 202.266 118.952 203.536 117.938 204.812 C114.178 209.175 109.584 212.553 105 216 C104.626 216.288 104.626 216.288 102.73 217.746 C84.35 231.305 62.91 239.784 40 240 C40 248.25 40 256.5 40 265 C34.06 265 28.12 265 22 265 C22 256.75 22 248.5 22 240 C19.855 240 17.71 240 15.5 240 C-12.409 238.785 -38.026 222.36 -57 203 C-57.233 202.762 -57.233 202.762 -58.414 201.558 C-77.118 182.13 -90.122 155.368 -90 128 C-90.035 126.19 -90.071 124.38 -90.109 122.57 C-90.447 101.771 -86.384 84.329 -79 65 C-79.338 64.876 -79.338 64.876 -81.047 64.25 C-84.597 62.747 -87.91 60.912 -91.25 59 C-91.887 58.644 -92.524 58.288 -93.18 57.922 C-97.879 55.242 -97.879 55.242 -99 53 C-97.757 50.55 -96.471 48.227 -95.062 45.875 C-94.676 45.216 -94.29 44.558 -93.893 43.879 C-92.936 42.248 -91.969 40.624 -91 39 C-86.026 40.734 -81.685 43.433 -77.188 46.125 C-76.399 46.593 -75.611 47.061 -74.799 47.543 C-72.864 48.692 -70.931 49.845 -69 51 C-68.708 50.391 -68.416 49.782 -68.115 49.155 C-58.076 29.76 -33.976 12.416 -13.654 5.163 C-10.347 4.165 -7.06 3.385 -3.676 2.684 C-2.793 2.458 -1.91 2.232 -1 2 C-0.67 1.34 -0.34 0.68 0 0 Z " fill="#000000" transform="translate(480,289)"/>
<path d="M0 0 C1.108 -0.003 2.216 -0.006 3.358 -0.01 C4.565 -0.008 5.773 -0.006 7.016 -0.003 C8.248 -0.004 9.481 -0.005 10.75 -0.006 C14.035 -0.007 17.32 -0.003 20.604 0.002 C22.615 0.004 24.626 0.002 26.637 -0.001 C30.492 -0.007 34.348 -0.006 38.204 -0.003 C38.804 -0.004 38.804 -0.004 41.844 -0.01 C42.961 -0.006 44.079 -0.003 45.23 0 C45.722 0 45.722 0 48.209 0.002 C50.573 0.118 52.532 0.547 54.809 1.129 C56.811 0.807 58.811 0.472 60.809 0.129 C63.849 -0.01 66.884 0.013 69.927 0.032 C70.784 0.033 71.641 0.035 72.524 0.036 C75.244 0.042 77.964 0.054 80.684 0.067 C82.536 0.072 84.387 0.076 86.239 0.081 C90.762 0.092 95.286 0.109 99.809 0.129 C100.219 0.889 100.629 1.648 101.052 2.43 C101.59 3.424 102.129 4.418 102.684 5.442 C103.218 6.428 103.752 7.414 104.302 8.43 C105.809 11.129 105.809 11.129 107.809 14.129 C107.974 15.944 107.974 15.944 108.809 25.129 C92.639 25.459 76.469 25.789 59.809 26.129 C59.809 24.809 59.809 23.489 59.809 22.129 C57.499 22.129 55.189 22.129 52.809 22.129 C52.809 23.119 52.809 24.109 52.809 25.129 C44.682 25.283 36.554 25.432 28.426 25.572 C24.652 25.638 20.877 25.705 17.103 25.778 C13.459 25.847 9.815 25.911 6.171 25.972 C4.783 25.996 3.394 26.022 2.005 26.05 C0.057 26.089 -1.891 26.12 -3.84 26.151 C-4.948 26.171 -6.056 26.191 -7.198 26.212 C-9.992 26.135 -12.477 25.773 -15.191 25.129 C-15.542 15.598 -11.179 8.859 -6.191 1.129 C-4.492 -0.57 -2.324 0.002 0 0 Z " fill="#B9B9B9" transform="translate(464.190673828125,787.87060546875)"/>
<path d="M0 0 C2.025 1.933 3.421 3.632 5 6 C5 6.99 5 7.98 5 9 C5.763 8.319 6.526 7.639 7.312 6.938 C8.199 6.298 9.086 5.659 10 5 C13.568 6.189 13.771 6.843 15.531 10.023 C16.007 10.871 16.483 11.719 16.974 12.592 C17.477 13.51 17.981 14.429 18.5 15.375 C19.565 17.29 20.632 19.204 21.699 21.117 C22.242 22.094 22.786 23.071 23.345 24.077 C24.941 26.896 26.59 29.675 28.27 32.445 C28.781 33.297 29.293 34.148 29.82 35.026 C30.798 36.647 31.786 38.261 32.785 39.869 C36.076 45.381 36.076 45.381 35.668 48.719 C35.448 49.472 35.227 50.224 35 51 C35.938 53.812 35.938 53.812 37 56 C31.328 60.895 26.31 64.185 19 66 C18.402 64.907 17.804 63.814 17.188 62.688 C15.698 60.058 14.197 58.087 12 56 C12 55.34 12 54.68 12 54 C11.34 54 10.68 54 10 54 C9.767 53.499 9.533 52.997 9.293 52.48 C5.856 45.352 1.893 38.566 -2.165 31.778 C-8.864 20.427 -8.864 20.427 -7.758 14.145 C-5.965 9.072 -2.851 4.534 0 0 Z " fill="#AEAEAE" transform="translate(819,147)"/>
<path d="M0 0 C3.875 3.75 3.875 3.75 5 6 C5.598 5.67 6.196 5.34 6.812 5 C9 4 9 4 12 4 C12.617 5.125 13.235 6.251 13.871 7.41 C18.405 15.638 22.969 23.823 27.955 31.787 C30.756 36.339 32.919 41.082 35 46 C31.735 47.844 28.462 49.673 25.188 51.5 C24.259 52.025 23.33 52.549 22.373 53.09 C21.48 53.586 20.588 54.082 19.668 54.594 C18.846 55.055 18.024 55.515 17.177 55.99 C15 57 15 57 12 57 C10.531 54.871 10.531 54.871 9 52 C8.444 51.062 7.887 50.123 7.314 49.157 C5.695 46.408 4.082 43.655 2.475 40.899 C1.784 39.718 1.091 38.539 0.395 37.362 C-0.621 35.644 -1.625 33.92 -2.629 32.195 C-3.228 31.175 -3.827 30.154 -4.444 29.102 C-7.031 23.945 -8.665 18.786 -8 13 C-6.504 9.824 -6.504 9.824 -4.562 6.688 C-3.924 5.639 -3.286 4.591 -2.629 3.512 C-1 1 -1 1 0 0 Z " fill="#AEAEAE" transform="translate(356,144)"/>
<path d="M0 0 C1.108 -0.003 2.216 -0.006 3.358 -0.01 C4.565 -0.008 5.773 -0.006 7.016 -0.003 C8.248 -0.004 9.481 -0.005 10.75 -0.006 C14.035 -0.007 17.32 -0.003 20.604 0.002 C22.615 0.004 24.626 0.002 26.637 -0.001 C30.492 -0.007 34.348 -0.006 38.204 -0.003 C38.804 -0.004 38.804 -0.004 41.844 -0.01 C42.961 -0.006 44.079 -0.003 45.23 0 C45.722 0 45.722 0 48.209 0.002 C50.573 0.118 52.532 0.547 54.809 1.129 C56.811 0.807 58.811 0.472 60.809 0.129 C63.849 -0.01 66.884 0.013 69.927 0.032 C70.784 0.033 71.641 0.035 72.524 0.036 C75.244 0.042 77.964 0.054 80.684 0.067 C82.536 0.072 84.387 0.076 86.239 0.081 C90.762 0.092 95.286 0.109 99.809 0.129 C100.219 0.889 100.629 1.648 101.052 2.43 C101.59 3.424 102.129 4.418 102.684 5.442 C103.218 6.428 103.752 7.414 104.302 8.43 C105.809 11.129 105.809 11.129 107.809 14.129 C108.223 16.829 108.223 16.829 108.434 19.817 C108.472 20.314 108.472 20.314 108.661 22.829 C108.71 23.588 108.759 24.347 108.809 25.129 C106.509 23.019 105.097 21.064 103.747 18.254 C103.426 17.597 103.105 16.94 102.774 16.262 C101.713 13.916 100.766 11.52 99.809 9.129 C86.939 9.129 74.069 9.129 60.809 9.129 C60.809 11.769 60.809 14.409 60.809 17.129 C57.839 17.129 54.869 17.129 51.809 17.129 C51.809 14.489 51.809 11.849 51.809 9.129 C32.669 9.129 13.529 9.129 -6.191 9.129 C-6.851 11.109 -7.511 13.089 -8.191 15.129 C-9.181 16.95 -10.222 18.744 -11.316 20.504 C-11.585 20.941 -11.585 20.941 -12.948 23.153 C-13.358 23.805 -13.768 24.457 -14.191 25.129 C-15.637 20.789 -14.659 17.327 -13.191 13.129 C-6.43 0.005 -6.43 0.005 0 0 Z " fill="#A7A7A7" transform="translate(464.190673828125,787.87060546875)"/>
<path d="M0 0 C2.922 3.618 5.076 7.568 7.312 11.625 C9.886 16.256 12.48 20.857 15.25 25.375 C18.131 30.107 20.6 35.01 23 40 C22 41 22 41 20.133 41.12 C19.318 41.118 18.503 41.116 17.664 41.114 C17.203 41.113 17.203 41.113 14.873 41.113 C13.872 41.108 12.871 41.103 11.84 41.098 C10.82 41.096 9.801 41.095 8.75 41.093 C5.479 41.088 2.208 41.075 -1.062 41.062 C-3.274 41.057 -5.486 41.053 -7.697 41.049 C-13.132 41.038 -18.566 41.021 -24 41 C-23 39 -23 39 -20.812 37.938 C-17.88 36.96 -15.057 36.427 -12 36 C-12.375 35.383 -12.75 34.765 -13.137 34.129 C-14.207 32.358 -15.27 30.583 -16.328 28.805 C-17.386 27.03 -18.457 25.263 -19.547 23.508 C-20.006 22.742 -20.465 21.976 -20.938 21.188 C-21.359 20.5 -21.781 19.813 -22.215 19.105 C-23.275 16.264 -23.072 14.828 -22 12 C-19.891 10.234 -19.891 10.234 -17.25 8.75 C-16.819 8.5 -16.819 8.5 -14.641 7.234 C-12.06 6.028 -9.806 5.424 -7 5 C-7 4.34 -7 3.68 -7 3 C-4.69 2.01 -2.38 1.02 0 0 Z " fill="#959595" transform="translate(412,234)"/>
<path d="M0 0 C3.227 1.022 5.669 2.542 8.488 4.41 C9.464 5.051 10.44 5.691 11.445 6.352 C11.813 6.598 11.813 6.598 13.676 7.848 C10.289 10.68 6.911 12.963 3.051 15.098 C-2.045 17.938 -7.072 20.881 -12.07 23.891 C-13.284 24.619 -14.497 25.347 -15.71 26.075 C-17.545 27.176 -19.377 28.279 -21.205 29.39 C-22.94 30.444 -24.681 31.488 -26.422 32.531 C-26.93 32.838 -26.93 32.838 -29.5 34.392 C-32.183 35.775 -34.352 36.439 -37.324 36.848 C-38.149 35.693 -38.149 35.693 -42.324 29.848 C-36.322 24.266 -30.13 19.403 -23.324 14.848 C-22.036 13.973 -20.748 13.098 -19.461 12.223 C-18.103 11.305 -16.745 10.389 -15.387 9.473 C-15.061 9.252 -15.061 9.252 -13.414 8.135 C-10.736 6.344 -8.396 4.872 -5.324 3.848 C-5.324 3.188 -5.324 2.528 -5.324 1.848 C-2.324 -0.152 -2.324 -0.152 0 0 Z " fill="#9F9F9F" transform="translate(648.32421875,302.15234375)"/>
<path d="M0 0 C3.062 1.875 3.062 1.875 6 4 C6.505 4.155 6.505 4.155 9.062 4.938 C13.522 6.55 15.979 9.283 18.375 13.312 C19.253 17.089 19.166 20.29 18 24 C14.282 28.647 10.462 31.692 4.5 32.438 C0.185 31.898 -1.082 31.225 -4 28 C-7.8 21.538 -10.127 15.959 -10.25 8.438 C-10.276 7.487 -10.302 6.537 -10.328 5.559 C-10 3 -10 3 -8.691 1.188 C-5.798 -0.844 -3.419 -0.406 0 0 Z " fill="#AFAFAF" transform="translate(590,555)"/>
<path d="M0 0 C5.515 -0.351 8.556 1.12 12.898 4.246 C15.472 8.406 15.94 12.491 14.898 17.246 C12.299 21.389 9.593 24.681 4.898 26.246 C2.637 26.125 2.637 26.125 0.211 25.809 C-0.597 25.707 -1.406 25.605 -2.238 25.5 C-2.853 25.416 -3.468 25.332 -4.102 25.246 C-4.432 24.256 -4.762 23.266 -5.102 22.246 C-6.871 21.199 -6.871 21.199 -9.102 20.246 C-17.502 16.349 -17.502 16.349 -19.664 12.371 C-18.885 8.041 -16.875 6.402 -13.484 3.727 C-9.138 1.026 -4.98 0.583 0 0 Z " fill="#B6B6B6" transform="translate(283.1015625,384.75390625)"/>
<path d="M0 0 C5.704 7.334 5.704 7.334 6.402 11.266 C5.82 15.221 3.485 17.464 0.875 20.312 C-0.136 21.457 -1.145 22.603 -2.152 23.75 C-2.642 24.303 -3.132 24.856 -3.636 25.426 C-6.281 28.479 -8.63 31.733 -11 35 C-14.26 31.905 -16.416 28.438 -18.75 24.625 C-19.174 23.965 -19.598 23.305 -20.035 22.625 C-21.844 19.667 -22.983 17.738 -23.062 14.227 C-21.647 11.261 -20.099 10.351 -17.25 8.75 C-16.819 8.5 -16.819 8.5 -14.641 7.234 C-12.06 6.028 -9.806 5.424 -7 5 C-7 4.34 -7 3.68 -7 3 C-4.69 2.01 -2.38 1.02 0 0 Z " fill="#A3A3A3" transform="translate(412,234)"/>
<path d="M0 0 C0.344 0.002 0.344 0.002 2.086 0.014 C3.766 0.025 5.445 0.043 7.125 0.062 C9.216 3.85 10.51 6.588 10.312 10.938 C10.299 11.328 10.299 11.328 10.23 13.305 C10.196 13.885 10.161 14.465 10.125 15.062 C9.382 14.217 8.64 13.371 7.875 12.5 C5.125 10.062 5.125 10.062 3.121 10.074 C0.178 11.531 -0.32 13.451 -1.562 16.438 C-1.979 17.415 -2.395 18.392 -2.824 19.398 C-3.561 21.266 -4.24 23.158 -4.875 25.062 C-8.433 24.453 -11.558 23.484 -14.875 22.062 C-14.545 20.743 -14.215 19.423 -13.875 18.062 C-14.329 18.032 -14.329 18.032 -16.625 17.875 C-19.875 17.062 -19.875 17.062 -22.25 14.812 C-24.043 11.779 -24.667 10.496 -23.875 7.062 C-17.202 0.39 -9.002 -0.113 0 0 Z " fill="#B9B9B9" transform="translate(328.875,385.9375)"/>
<path d="M0 0 C5.302 -0.223 10.601 -0.386 15.906 -0.494 C17.708 -0.54 19.511 -0.601 21.312 -0.679 C36.329 -1.313 36.329 -1.313 40.488 1.956 C42.029 4.27 43.048 6.397 44 9 C44.577 9.825 45.155 10.65 45.75 11.5 C47.581 15.162 48.258 18.993 49 23 C48.67 23.165 48.67 23.165 47 24 C45.851 22.065 44.706 20.127 43.562 18.188 C42.924 17.109 42.286 16.03 41.629 14.918 C40 12 40 12 39 9 C37.854 8.975 36.708 8.95 35.528 8.924 C31.291 8.83 27.056 8.73 22.82 8.628 C20.983 8.584 19.147 8.543 17.311 8.503 C14.677 8.445 12.044 8.381 9.41 8.316 C8.997 8.308 8.997 8.308 6.907 8.266 C1.114 8.114 1.114 8.114 0 7 C-0.041 4.667 -0.042 2.333 0 0 Z " fill="#A8A8A8" transform="translate(760,388)"/>
<path d="M0 0 C2.025 1.933 3.421 3.632 5 6 C5 6.99 5 7.98 5 9 C6.98 7.68 8.96 6.36 11 5 C9.158 12 5.708 19.85 -0.75 23.625 C-4 25 -4 25 -6 25 C-7.902 20.413 -8.665 16.713 -7 12 C-4.843 7.887 -2.472 3.931 0 0 Z " fill="#989998" transform="translate(819,147)"/>
<path d="M0 0 C0.353 0.002 0.353 0.002 2.141 0.014 C3.885 0.025 5.63 0.043 7.375 0.062 C9.466 3.85 10.76 6.588 10.562 10.938 C10.535 11.719 10.508 12.5 10.48 13.305 C10.446 13.885 10.411 14.465 10.375 15.062 C9.612 14.258 8.849 13.454 8.062 12.625 C5.375 10.062 5.375 10.062 2.375 9.062 C2.375 8.402 2.375 7.743 2.375 7.062 C0.291 7.373 -1.792 7.686 -3.875 8 C-5.035 8.174 -6.195 8.348 -7.391 8.527 C-9.856 8.935 -12.219 9.402 -14.625 10.062 C-14.145 5.747 -12.923 3.861 -9.625 1.062 C-6.56 -0.47 -3.357 -0.04 0 0 Z " fill="#9E9E9E" transform="translate(328.625,385.9375)"/>
<path d="M0 0 C-0.382 0.361 -0.382 0.361 -2.312 2.188 C-5.77 5.806 -7.618 9.061 -9.5 13.688 C-11 17 -11 17 -14 19 C-16.505 15.243 -16.487 12.342 -16 8 C-15.038 3.455 -13.935 0.744 -10.25 -2.188 C-5.755 -3.311 -4.014 -2.168 0 0 Z " fill="#ADADAD" transform="translate(755,207)"/>
<path d="M0 0 C2.915 1.4 3.563 3.993 4.781 6.855 C0.139 11.26 -4.069 13.175 -10.219 14.855 C-12.058 11.752 -12.836 9.458 -12.219 5.855 C-10.172 4.02 -10.172 4.02 -7.469 2.48 C-6.587 1.957 -5.705 1.434 -4.797 0.895 C-2.219 -0.145 -2.219 -0.145 0 0 Z " fill="#878787" transform="translate(848.21875,198.14453125)"/>
<path d="M0 0 C-2.64 5.61 -5.28 11.22 -8 17 C-11.3 17 -14.6 17 -18 17 C-16.647 13.428 -15.087 10.126 -13.188 6.812 C-12.707 5.953 -12.226 5.093 -11.73 4.207 C-8.399 -0.041 -5.257 0 0 0 Z " fill="#BDBDBD" transform="translate(458,789)"/>
<path d="M0 0 C4.112 0.567 5.762 1.55 8.625 4.5 C8.625 5.16 8.625 5.82 8.625 6.5 C6.979 7.534 5.308 8.528 3.625 9.5 C0.324 11.88 -1.871 13.673 -3.375 17.5 C-4.035 17.5 -4.695 17.5 -5.375 17.5 C-6.338 14.611 -6.571 12.578 -6.625 9.562 C-6.651 8.708 -6.677 7.853 -6.703 6.973 C-6.098 2.41 -4.517 0.669 0 0 Z " fill="#A3A3A3" transform="translate(606.375,590.5)"/>
<path d="M0 0 C2.938 2.5 2.938 2.5 5 5 C4.608 5.124 4.608 5.124 2.625 5.75 C-0.436 7.208 -0.587 8.08 -2 11 C-4.125 11.75 -4.125 11.75 -6 12 C-6.33 13.98 -6.66 15.96 -7 18 C-7.66 18 -8.32 18 -9 18 C-9.945 14.777 -10.195 11.792 -10.25 8.438 C-10.276 7.487 -10.302 6.537 -10.328 5.559 C-10 3 -10 3 -8.695 1.191 C-5.771 -0.863 -3.444 -0.475 0 0 Z " fill="#9A9A9A" transform="translate(590,555)"/>
<path d="M0 0 C-1 3 -1 3 -3.375 4.562 C-6.73 7.678 -7.185 10.372 -8.129 14.758 C-9 17 -9 17 -11.09 18.305 C-11.405 18.419 -11.405 18.419 -13 19 C-14.547 17.312 -14.547 17.312 -16 15 C-15.891 12.562 -15.891 12.562 -15.25 10 C-15.049 9.154 -14.848 8.309 -14.641 7.438 C-14.429 6.633 -14.218 5.829 -14 5 C-13.809 4.237 -13.618 3.474 -13.422 2.688 C-13.283 2.131 -13.143 1.574 -13 1 C-11.68 1 -10.36 1 -9 1 C-9 1.99 -9 2.98 -9 4 C-8.258 3.34 -7.515 2.68 -6.75 2 C-4 0 -4 0 0 0 Z " fill="#AAAAAA" transform="translate(734,208)"/>
<path d="M0 0 C-1 3 -1 3 -2.996 4.098 C-3.399 4.257 -3.399 4.257 -5.438 5.062 C-8.249 6.186 -9.837 6.837 -12 9 C-12.99 9 -13.98 9 -15 9 C-15 9.99 -15 10.98 -15 12 C-15.825 11.67 -15.825 11.67 -20 10 C-19.667 7.007 -19.186 5.251 -17.375 2.812 C-11.778 -1.459 -6.556 -1.15 0 0 Z " fill="#B8B8B8" transform="translate(242,300)"/>
<path d="M0 0 C2.248 2.052 3.002 3.007 4 6 C3.411 7.762 3.411 7.762 2.418 9.688 C2.063 10.386 1.708 11.085 1.342 11.805 C0.961 12.529 0.58 13.254 0.188 14 C-0.182 14.724 -0.551 15.449 -0.932 16.195 C-2.504 19.255 -4.088 22.131 -6 25 C-7.902 20.413 -8.665 16.713 -7 12 C-4.843 7.887 -2.472 3.931 0 0 Z " fill="#A3A3A3" transform="translate(819,147)"/>
<path d="M0 0 C0 0.66 0 1.32 0 2 C-0.976 2.231 -1.952 2.461 -2.957 2.699 C-4.229 3.025 -5.502 3.351 -6.812 3.688 C-8.077 4.001 -9.342 4.314 -10.645 4.637 C-14.439 6.178 -15.362 7.328 -17 11 C-17.825 10.67 -17.825 10.67 -22 9 C-20.685 5.055 -19.294 2.582 -16 0 C-10.516 -2.173 -5.42 -2.71 0 0 Z " fill="#BCBCBC" transform="translate(232,284)"/>
<path d="M0 0 C1 3 1 3 -0.441 5.996 C-1.137 7.15 -1.845 8.297 -2.562 9.438 C-2.898 10.01 -3.234 10.583 -3.58 11.174 C-6.199 15.411 -8.798 17.546 -13 20 C-13.688 18.312 -13.688 18.312 -14 16 C-13.056 14.301 -12.043 12.64 -11 11 C-10.222 8.939 -9.518 6.867 -8.844 4.77 C-8 3 -8 3 -5 1 C-3.68 1 -2.36 1 -1 1 C-0.67 0.67 -0.34 0.34 0 0 Z " fill="#999999" transform="translate(365,148)"/>
<path d="M0 0 C1.32 1.32 2.64 2.64 4 4 C3.402 4.99 2.804 5.98 2.188 7 C-1.057 12.675 -2.986 18.802 -5 25 C-7.816 22.184 -7.951 19.839 -8.309 15.949 C-7.712 10.249 -4.063 4.063 0 0 Z " fill="#A2A2A2" transform="translate(356,144)"/>
<path d="M0 0 C0.33 0.66 0.66 1.32 1 2 C0.319 3.964 0.319 3.964 -0.801 6.367 C-1.001 6.807 -1.001 6.807 -2.011 9.032 C-2.441 9.97 -2.87 10.908 -3.312 11.875 C-6.731 19.614 -9.275 26.52 -10 35 C-10.176 36.501 -10.357 38.001 -10.543 39.5 C-11.056 43.664 -11.536 47.83 -12 52 C-12.33 52 -12.66 52 -13 52 C-13.676 32.495 -10.445 16.634 0 0 Z " fill="#B8B8B8" transform="translate(673,229)"/>
<path d="M0 0 C-0.614 0.684 -1.227 1.369 -1.859 2.074 C-4.214 5.293 -5.169 7.99 -6.25 11.812 C-6.585 12.974 -6.92 14.135 -7.266 15.332 C-7.508 16.212 -7.75 17.093 -8 18 C-9.937 14.735 -10.297 12.214 -10.312 8.438 C-10.329 7.487 -10.346 6.537 -10.363 5.559 C-10 3 -10 3 -8.711 1.172 C-5.955 -0.716 -3.231 -0.183 0 0 Z " fill="#A8A8A8" transform="translate(590,555)"/>
<path d="M0 0 C1.65 0.33 3.3 0.66 5 1 C3.524 6.247 -0.008 10.396 -4 14 C-6.227 14.734 -6.227 14.734 -8 15 C-7.674 14.504 -7.348 14.007 -7.012 13.496 C-4.193 9.114 -1.917 4.844 0 0 Z " fill="#B0B0B0" transform="translate(340,300)"/>
<path d="M0 0 C1.65 0.33 3.3 0.66 5 1 C6.312 3.062 6.312 3.062 7 5 C6.258 5.433 5.515 5.866 4.75 6.312 C2 8 2 8 -0.125 9.75 C-0.434 9.956 -0.434 9.956 -2 11 C-2.99 10.67 -3.98 10.34 -5 10 C-3.35 6.7 -1.7 3.4 0 0 Z " fill="#969696" transform="translate(608,592)"/>
<path d="M0 0 C-1 3 -1 3 -2.996 4.098 C-3.399 4.257 -3.399 4.257 -5.438 5.062 C-8.249 6.186 -9.837 6.837 -12 9 C-12.99 8.67 -13.98 8.34 -15 8 C-11.592 1.306 -11.592 1.306 -9.188 0.062 C-6.121 -0.025 -3.068 -0.059 0 0 Z " fill="#A5A5A5" transform="translate(242,300)"/>
<path d="M0 0 C5.778 -0.236 10.513 0.132 16 2 C16 2.66 16 3.32 16 4 C9.4 4 2.8 4 -4 4 C-3.67 3.34 -3.34 2.68 -3 2 C-2.01 2 -1.02 2 0 2 C0 1.34 0 0.68 0 0 Z " fill="#ACACAC" transform="translate(505,606)"/>
<path d="M0 0 C1.98 0.66 3.96 1.32 6 2 C5.521 6.314 4.254 8.166 1 11 C0.01 10.34 -0.98 9.68 -2 9 C-1.835 8.629 -1.835 8.629 -1 6.75 C0 4 0 4 0 0 Z " fill="#B2B2B2" transform="translate(159,210)"/>
<path d="M0 0 C0 0.66 0 1.32 0 2 C-1.768 2.531 -3.539 3.05 -5.312 3.562 C-6.299 3.853 -7.285 4.143 -8.301 4.441 C-11 5 -11 5 -14 4 C-13.375 2.062 -13.375 2.062 -12 0 C-7.75 -1.256 -4.293 -0.92 0 0 Z " fill="#AEAEAE" transform="translate(232,284)"/>
<path d="M0 0 C0.33 0 0.66 0 1 0 C1.907 6.952 -0.964 11.444 -5 17 C-5.33 17 -5.66 17 -6 17 C-5.827 10.198 -4.312 5.346 0 0 Z " fill="#1F1F1F" transform="translate(216,198)"/>
<path d="M0 0 C5.261 -0.316 8.446 0.334 13 3 C13 3.33 13 3.66 13 4 C8.05 4 3.1 4 -2 4 C-1.34 2.68 -0.68 1.36 0 0 Z " fill="#A3A3A3" transform="translate(297,245)"/>
<path d="M0 0 C1.601 4.002 0.293 7.046 -1 11 C-1.99 11 -2.98 11 -4 11 C-4.33 8.36 -4.66 5.72 -5 3 C-3.35 2.01 -1.7 1.02 0 0 Z " fill="#969696" transform="translate(841,201)"/>
<path d="M0 0 C0.702 0.014 1.404 0.027 2.127 0.041 C3.856 0.076 5.584 0.13 7.312 0.188 C3.03 3.043 0.168 3.304 -4.875 3.25 C-5.418 3.245 -5.418 3.245 -8.168 3.223 C-8.999 3.211 -9.831 3.199 -10.688 3.188 C-7.979 -0.767 -4.333 -0.158 0 0 Z " fill="#191919" transform="translate(488.6875,764.8125)"/>
<path d="M0 0 C9.354 -0.492 9.354 -0.492 12.625 2 C13.079 2.66 13.533 3.32 14 4 C11.36 4 8.72 4 6 4 C6 3.01 6 2.02 6 1 C4.68 1.33 3.36 1.66 2 2 C1.67 4.64 1.34 7.28 1 10 C0.67 10 0.34 10 0 10 C0 6.7 0 3.4 0 0 Z " fill="#B9B9B9" transform="translate(538,698)"/>
<path d="M0 0 C3.884 1.55 6.03 4.005 8.75 7.125 C9.549 8.035 10.348 8.945 11.172 9.883 C11.474 10.232 11.474 10.232 13 12 C10 12 10 12 7.625 9.875 C0 1.524 0 1.524 0 0 Z " fill="#3F4040" transform="translate(594,641)"/>
<path d="M0 0 C2.007 0.287 4.009 0.619 6 1 C6 1.99 6 2.98 6 4 C3.03 4.66 0.06 5.32 -3 6 C-1.125 1.125 -1.125 1.125 0 0 Z " fill="#A2A2A2" transform="translate(247,316)"/>
<path d="M0 0 C2.97 0 5.94 0 9 0 C8.67 1.32 8.34 2.64 8 4 C5.69 4 3.38 4 1 4 C0.67 2.68 0.34 1.36 0 0 Z " fill="#CACACA" transform="translate(516,806)"/>
<path d="M0 0 C3.698 1.233 3.935 2.201 5.688 5.562 C6.124 6.389 6.561 7.215 7.012 8.066 C7.338 8.704 7.664 9.343 8 10 C6.68 10 5.36 10 4 10 C1.033 6.373 0 4.755 0 0 Z " fill="#BCBCBC" transform="translate(356,140)"/>
<path d="M0 0 C2.438 -0.081 4.874 -0.14 7.312 -0.188 C7.658 -0.2 7.658 -0.2 9.404 -0.264 C14.557 -0.338 14.557 -0.338 16.98 1.512 C17.317 2.003 17.653 2.494 18 3 C11.799 3.276 6.068 2.229 0 1 C0 0.67 0 0.34 0 0 Z " fill="#313131" transform="translate(526,765)"/>
<path d="M0 0 C-0.99 0.66 -1.98 1.32 -3 2 C-2.01 2.165 -2.01 2.165 3 3 C3 3.33 3 3.66 3 4 C-1.95 4 -6.9 4 -12 4 C-11 2 -11 2 -8.812 0.875 C-5.732 -0.083 -3.207 -0.149 0 0 Z " fill="#A9A9A9" transform="translate(400,271)"/>
<path d="M0 0 C3.668 1.503 5.689 3.637 8.25 6.625 C8.956 7.442 9.663 8.26 10.391 9.102 C10.922 9.728 11.453 10.355 12 11 C11.67 11.66 11.34 12.32 11 13 C9.161 11.214 7.328 9.422 5.5 7.625 C5.238 7.371 5.238 7.371 3.91 6.086 C2.568 4.762 1.28 3.384 0 2 C0 1.34 0 0.68 0 0 Z " fill="#393B3B" transform="translate(415,696)"/>
<path d="M0 0 C1.625 -0.027 3.25 -0.046 4.875 -0.062 C5.78 -0.074 6.685 -0.086 7.617 -0.098 C10 0 10 0 12 1 C12 1.66 12 2.32 12 3 C12.66 3.33 13.32 3.66 14 4 C11.69 4 9.38 4 7 4 C6.67 3.01 6.34 2.02 6 1 C4.35 1 2.7 1 1 1 C0.67 1.66 0.34 2.32 0 3 C0 2.01 0 1.02 0 0 Z " fill="#ADADAD" transform="translate(547,680)"/>
<path d="M0 0 C0.409 0.005 0.409 0.005 2.477 0.027 C2.79 0.033 2.79 0.033 4.375 0.062 C-0.779 3.499 -4.402 4.307 -10.625 4.062 C-6.825 1.149 -4.817 -0.069 0 0 Z " fill="#303030" transform="translate(260.625,363.9375)"/>
<path d="M0 0 C1.65 1.65 3.3 3.3 5 5 C4.34 6.32 3.68 7.64 3 9 C0.938 7.312 0.938 7.312 -1 5 C-0.75 2.25 -0.75 2.25 0 0 Z " fill="#B8B8B8" transform="translate(851,196)"/>
<path d="M0 0 C4.548 -0.178 7.879 0.002 12 2 C12 2.33 12 2.66 12 3 C8.04 3 4.08 3 0 3 C0 2.01 0 1.02 0 0 Z " fill="#A5A5A5" transform="translate(621,272)"/>
<path d="M0 0 C0.351 0.196 0.351 0.196 2.125 1.188 C1.527 1.456 0.929 1.724 0.312 2 C-1.875 3.188 -1.875 3.188 -3.5 4.812 C-3.954 5.266 -4.408 5.72 -4.875 6.188 C-5.535 6.188 -6.195 6.188 -6.875 6.188 C-6.875 5.197 -6.875 4.208 -6.875 3.188 C-7.535 2.857 -8.195 2.528 -8.875 2.188 C-3.583 -1.012 -3.583 -1.012 0 0 Z " fill="#B8B8B8" transform="translate(731.875,205.8125)"/>
<path d="M0 0 C0.33 0.66 0.66 1.32 1 2 C-0.145 4.348 -0.145 4.348 -1.812 7.062 C-2.355 7.961 -2.898 8.859 -3.457 9.785 C-5 12 -5 12 -7 13 C-6.709 7.03 -3.972 4.105 0 0 Z " fill="#8C8C8C" transform="translate(359,153)"/>
<path d="M0 0 C-3.209 2.85 -5.5 3.435 -9.75 3.688 C-10.735 3.753 -11.72 3.819 -12.734 3.887 C-13.482 3.924 -14.23 3.961 -15 4 C-10.792 -0.208 -5.687 -0.227 0 0 Z " fill="#2C2C2C" transform="translate(308,181)"/>
<path d="M0 0 C0.66 0.33 1.32 0.66 2 1 C-0.31 4.63 -2.62 8.26 -5 12 C-6 8 -6 8 -4.785 5.859 C-4.217 5.163 -3.648 4.467 -3.062 3.75 C-2.497 3.044 -1.931 2.337 -1.348 1.609 C-0.903 1.078 -0.458 0.547 0 0 Z " fill="#8B8C8B" transform="translate(822,157)"/>
<path d="M0 0 C0 0.99 0 1.98 0 3 C-3.3 3 -6.6 3 -10 3 C-6.884 -0.116 -4.212 -0.114 0 0 Z M-12 3 C-10 4 -10 4 -10 4 Z " fill="#A2A3A3" transform="translate(719,246)"/>
<path d="M0 0 C0 3.952 -1.372 5.146 -4 8 C-4.99 8.33 -5.98 8.66 -7 9 C-4.195 1.895 -4.195 1.895 0 0 Z " fill="#1C1D1D" transform="translate(190,248)"/>
<path d="M0 0 C0.99 0.99 1.98 1.98 3 3 C0.801 5.199 -1.561 7.074 -4 9 C-3.469 5.179 -2.503 2.938 0 0 Z " fill="#939393" transform="translate(359,149)"/>
<path d="M0 0 C0.99 0.165 0.99 0.165 6 1 C6 1.66 6 2.32 6 3 C4.515 3.165 4.515 3.165 -3 4 C-2.01 2.68 -1.02 1.36 0 0 Z " fill="#A2A2A2" transform="translate(226,283)"/>
<path d="M0 0 C0 3 0 3 -2.375 5.688 C-5 8 -5 8 -7 8 C-5.509 4.205 -3.243 2.39 0 0 Z " fill="#303131" transform="translate(606,696)"/>
<path d="M0 0 C0.66 0.33 1.32 0.66 2 1 C-2 7.571 -2 7.571 -6 9 C-5.528 4.752 -3.033 2.8 0 0 Z " fill="#7B7B7B" transform="translate(194,241)"/>
<path d="M0 0 C1.5 1.062 1.5 1.062 3 3 C3.188 6.688 3.188 6.688 3 10 C1.5 8.938 1.5 8.938 0 7 C-0.188 3.312 -0.188 3.312 0 0 Z " fill="#2E2F2F" transform="translate(211,336)"/>
<path d="M0 0 C4.554 -0.369 4.554 -0.369 6.812 1.5 C7.204 1.995 7.596 2.49 8 3 C5.36 3 2.72 3 0 3 C0 2.01 0 1.02 0 0 Z " fill="#999999" transform="translate(544,699)"/>
<path d="M0 0 C1.65 0 3.3 0 5 0 C5 0.66 5 1.32 5 2 C5.66 2.33 6.32 2.66 7 3 C4.36 3 1.72 3 -1 3 C-0.67 2.01 -0.34 1.02 0 0 Z " fill="#A5A5A4" transform="translate(563,663)"/>
<path d="M0 0 C3.125 0.188 3.125 0.188 6 1 C6.33 1.66 6.66 2.32 7 3 C3.7 3 0.4 3 -3 3 C-2.01 2.01 -1.02 1.02 0 0 Z " fill="#A6A6A6" transform="translate(784,300)"/>
<path d="M0 0 C2.31 0 4.62 0 7 0 C3.677 3.938 3.677 3.938 0.25 4.25 C-0.493 4.167 -1.235 4.085 -2 4 C-1.34 2.68 -0.68 1.36 0 0 Z " fill="#ABABAB" transform="translate(297,245)"/>
<path d="M0 0 C0.66 0.33 1.32 0.66 2 1 C-2.75 5.875 -2.75 5.875 -5 7 C-3.75 3.347 -3.329 2.219 0 0 Z " fill="#565757" transform="translate(421,647)"/>
<path d="M0 0 C1.5 1.125 1.5 1.125 3 3 C3.188 6.188 3.188 6.188 3 9 C1.5 7.875 1.5 7.875 0 6 C-0.188 2.812 -0.188 2.812 0 0 Z " fill="#474849" transform="translate(346,203)"/>
<path d="M0 0 C0.33 0.99 0.66 1.98 1 3 C-0.65 4.65 -2.3 6.3 -4 8 C-3.401 4.644 -2.154 2.622 0 0 Z " fill="#ABACAC" transform="translate(354,306)"/>
</svg>
