<?xml version="1.0" encoding="UTF-8"?>
<!-- Generator: visioncortex VTracer 0.6.5 -->
<svg version="1.1" xmlns="http://www.w3.org/2000/svg" width="1024" height="443">
<path d="M0 0 C0.356 0.001 0.356 0.001 2.16 0.005 C5.56 0.005 8.952 -0.037 12.349 -0.159 C34.865 -0.964 34.865 -0.964 40.365 2.136 C43.508 5.169 44.98 8.86 46.458 12.905 C47.966 16.605 50.244 19.83 52.426 23.16 C53.269 24.506 54.109 25.853 54.945 27.203 C57.481 31.268 60.051 35.312 62.633 39.348 C63.183 40.214 63.734 41.08 64.301 41.973 C64.708 42.486 65.116 42.999 65.536 43.527 C70.085 49.701 69.993 55.349 69.902 62.817 C69.904 63.46 69.904 63.46 69.915 66.711 C69.926 70.262 69.906 73.812 69.881 77.363 C69.859 81.198 69.867 85.033 69.871 88.868 C69.873 95.507 69.858 102.146 69.829 108.785 C69.789 118.384 69.776 127.982 69.769 137.581 C69.759 153.156 69.725 168.73 69.678 184.304 C69.632 199.431 69.597 214.557 69.575 229.684 C69.574 230.617 69.573 231.55 69.571 232.511 C69.565 237.191 69.559 241.871 69.552 246.55 C69.501 285.358 69.413 324.165 69.301 362.973 C67.421 363.45 65.54 363.926 63.659 364.401 C62.612 364.666 61.565 364.931 60.486 365.204 C50.036 367.725 39.747 368.359 29.051 368.598 C27.612 368.636 26.173 368.675 24.734 368.715 C21.257 368.809 17.779 368.894 14.301 368.973 C13.971 369.963 13.641 370.953 13.301 371.973 C2.273 373.049 -8.52 372.924 -19.574 372.535 C-21.245 372.482 -22.915 372.429 -24.586 372.377 C-28.624 372.25 -32.662 372.114 -36.699 371.973 C-37.029 370.653 -37.359 369.333 -37.699 367.973 C-38.523 367.994 -39.347 368.015 -40.196 368.036 C-80.788 368.928 -80.788 368.928 -92.699 362.973 C-92.974 323.422 -93.186 283.871 -93.312 244.32 C-93.327 239.643 -93.343 234.966 -93.358 230.288 C-93.362 229.357 -93.365 228.426 -93.368 227.467 C-93.42 212.422 -93.515 197.378 -93.625 182.333 C-93.738 166.878 -93.804 151.423 -93.828 135.968 C-93.845 126.442 -93.896 116.919 -93.994 107.394 C-94.058 100.849 -94.077 94.304 -94.061 87.758 C-94.054 83.99 -94.065 80.224 -94.13 76.456 C-94.414 59.158 -93.288 46.481 -82.07 32.701 C-80.265 30.426 -78.816 27.997 -77.387 25.473 C-74.277 20.23 -71.021 15.084 -67.699 9.973 C-67.518 9.607 -67.518 9.607 -66.599 7.756 C-63.166 1.476 -63.166 1.476 -59.275 0.141 C-56.275 -0.167 -53.387 -0.196 -50.371 -0.125 C-49.268 -0.134 -48.165 -0.144 -47.029 -0.154 C-43.501 -0.174 -39.977 -0.133 -36.449 -0.09 C-34.124 -0.093 -31.798 -0.1 -29.473 -0.111 C-23.882 -0.129 -18.293 -0.101 -12.702 -0.052 C-8.468 -0.017 -4.234 -0.004 0 0 Z " fill="#CBCBCB" transform="translate(523.69921875,35.02734375)"/>
<path d="M0 0 C32.01 0 64.02 0 97 0 C97 1.32 97 2.64 97 4 C64.99 4 32.98 4 0 4 C0 2.68 0 1.36 0 0 Z " fill="#ABACAC" transform="translate(463,234)"/>
<path d="M0 0 C31.68 0 63.36 0 96 0 C96.165 0.495 96.165 0.495 97 3 C95.111 4.889 92.359 4.12 89.847 4.124 C88.962 4.121 88.077 4.117 87.166 4.114 C86.239 4.114 85.312 4.114 84.357 4.114 C81.279 4.113 78.2 4.105 75.121 4.098 C72.993 4.096 70.864 4.094 68.736 4.093 C63.121 4.09 57.507 4.08 51.893 4.069 C46.169 4.058 40.445 4.054 34.721 4.049 C23.48 4.038 12.24 4.021 1 4 C0.67 2.68 0.34 1.36 0 0 Z " fill="#ACACAC" transform="translate(463,357)"/>
<path d="M0 0 C31.68 0 63.36 0 96 0 C96.165 0.495 96.165 0.495 97 3 C64.99 3 32.98 3 0 3 C0 2.01 0 1.02 0 0 Z " fill="#A5A5A5" transform="translate(463,296)"/>
<path d="M0 0 C31.35 0 62.7 0 95 0 C95 0.66 95 1.32 95 2 C95.33 2.165 95.33 2.165 97 3 C64.99 3 32.98 3 0 3 C0 2.01 0 1.02 0 0 Z " fill="#A4A4A4" transform="translate(463,173)"/>
<path d="M0 0 C0.45 0 0.45 0 2.73 0 C3.704 0.005 4.678 0.011 5.681 0.016 C6.677 0.017 7.673 0.019 8.699 0.02 C11.889 0.026 15.078 0.038 18.267 0.051 C20.426 0.056 22.585 0.061 24.744 0.065 C30.043 0.076 35.343 0.092 40.642 0.114 C40.642 1.104 40.642 2.094 40.642 3.114 C25.132 3.114 9.622 3.114 -6.358 3.114 C-6.358 2.454 -6.358 1.794 -6.358 1.114 C-4.006 -0.062 -2.621 -0.007 0 0 Z " fill="#A7A7A7" transform="translate(493.35791015625,393.886474609375)"/>
<path d="M0 0 C2.31 0 4.62 0 7 0 C6.67 0.165 6.67 0.165 5 1 C5 1.66 5 2.32 5 3 C21.17 2.67 37.34 2.34 54 2 C53.67 2.66 53.34 3.32 53 4 C37.16 4 21.32 4 5 4 C5 5.32 5 6.64 5 8 C3.35 8.33 1.7 8.66 0 9 C0 6.03 0 3.06 0 0 Z " fill="#BEBEBE" transform="translate(482,394)"/>
</svg>
