<?xml version="1.0" encoding="UTF-8"?>
<!-- Generator: visioncortex VTracer 0.6.5 -->
<svg version="1.1" xmlns="http://www.w3.org/2000/svg" width="512" height="443">
<path d="M0 0 C0.63 0.046 0.63 0.046 3.816 0.281 C4.775 0.353 5.735 0.425 6.723 0.499 C6.746 47.329 6.763 94.159 6.774 140.989 C6.775 146.512 6.776 152.036 6.778 157.56 C6.778 158.11 6.778 158.11 6.779 160.893 C6.783 178.719 6.791 196.545 6.8 214.372 C6.809 232.652 6.815 250.932 6.817 269.212 C6.818 280.5 6.823 291.787 6.831 303.074 C6.836 310.806 6.838 318.537 6.836 326.269 C6.836 330.735 6.837 335.201 6.842 339.667 C6.847 343.751 6.847 347.835 6.844 351.919 C6.843 353.401 6.845 354.883 6.848 356.365 C6.852 358.371 6.849 360.376 6.846 362.382 C6.846 363.499 6.847 364.616 6.847 365.766 C6.723 368.499 6.723 368.499 5.723 371.499 C1.953 371.702 -1.818 371.883 -5.59 372.061 C-6.623 372.117 -7.656 372.173 -8.721 372.231 C-18.746 372.685 -28.09 372.035 -38.277 371.499 C-38.277 356.649 -38.277 341.799 -38.277 326.499 C-84.477 326.499 -130.677 326.499 -178.277 326.499 C-178.277 341.349 -178.277 356.199 -178.277 371.499 C-181.762 372.196 -184.047 372.619 -187.425 372.52 C-188.205 372.5 -188.986 372.48 -189.79 372.459 C-190.617 372.432 -191.444 372.405 -192.297 372.378 C-193.155 372.354 -194.014 372.33 -194.898 372.306 C-197.629 372.23 -200.359 372.146 -203.09 372.061 C-204.946 372.008 -206.802 371.955 -208.658 371.903 C-213.198 371.774 -217.738 371.638 -222.277 371.499 C-223.173 367.666 -223.402 364.118 -223.403 360.186 C-223.406 358.905 -223.408 357.624 -223.411 356.305 C-223.409 354.886 -223.407 353.466 -223.404 352.047 C-223.405 350.538 -223.407 349.029 -223.409 347.52 C-223.413 343.371 -223.411 339.223 -223.408 335.075 C-223.406 330.602 -223.409 326.129 -223.412 321.656 C-223.416 312.894 -223.415 304.131 -223.412 295.369 C-223.41 288.252 -223.41 281.134 -223.411 274.017 C-223.411 273.005 -223.411 271.993 -223.411 270.95 C-223.412 268.894 -223.412 266.839 -223.412 264.783 C-223.415 245.5 -223.412 226.216 -223.407 206.933 C-223.402 190.37 -223.403 173.807 -223.408 157.244 C-223.413 138.025 -223.415 118.806 -223.412 99.586 C-223.412 97.539 -223.411 95.492 -223.411 93.445 C-223.411 92.438 -223.411 91.431 -223.411 90.393 C-223.41 83.278 -223.411 76.163 -223.413 69.048 C-223.416 60.386 -223.416 51.724 -223.41 43.063 C-223.408 38.639 -223.407 34.216 -223.41 29.793 C-223.413 25.75 -223.411 21.708 -223.406 17.665 C-223.405 16.196 -223.405 14.728 -223.408 13.259 C-223.411 11.275 -223.407 9.292 -223.403 7.308 C-223.403 6.202 -223.403 5.097 -223.403 3.957 C-223.277 1.499 -223.277 1.499 -222.277 0.499 C-220.896 0.406 -219.509 0.381 -218.125 0.385 C-217.231 0.385 -216.338 0.385 -215.418 0.385 C-214.473 0.391 -213.528 0.396 -212.555 0.401 C-211.691 0.402 -210.827 0.403 -209.936 0.404 C-206.696 0.409 -203.455 0.423 -200.215 0.436 C-192.975 0.457 -185.736 0.477 -178.277 0.499 C-178.277 15.019 -178.277 29.539 -178.277 44.499 C-132.077 44.499 -85.877 44.499 -38.277 44.499 C-38.277 29.979 -38.277 15.459 -38.277 0.499 C-35.864 0.406 -35.864 0.406 -23.652 -0.064 C-22.161 -0.125 -20.67 -0.186 -19.134 -0.25 C-17.91 -0.293 -16.687 -0.336 -15.426 -0.38 C-14.2 -0.427 -12.975 -0.475 -11.712 -0.523 C-7.789 -0.581 -3.911 -0.29 0 0 Z M-178.277 70.499 C-178.277 89.969 -178.277 109.439 -178.277 129.499 C-132.077 129.499 -85.877 129.499 -38.277 129.499 C-38.277 110.029 -38.277 90.559 -38.277 70.499 C-84.477 70.499 -130.677 70.499 -178.277 70.499 Z M-178.277 155.499 C-178.277 174.969 -178.277 194.439 -178.277 214.499 C-174.438 215.267 -171.517 215.624 -167.685 215.626 C-167.128 215.627 -167.128 215.627 -164.312 215.634 C-163.1 215.632 -161.888 215.63 -160.64 215.628 C-159.998 215.629 -159.998 215.629 -156.751 215.633 C-153.239 215.638 -149.727 215.636 -146.214 215.633 C-142.538 215.63 -138.861 215.633 -135.184 215.634 C-129.012 215.636 -122.84 215.634 -116.668 215.629 C-109.531 215.624 -102.393 215.625 -95.256 215.631 C-89.127 215.635 -82.998 215.636 -76.868 215.633 C-73.208 215.632 -69.548 215.632 -65.887 215.635 C-61.81 215.638 -57.733 215.634 -53.656 215.628 C-52.44 215.63 -51.224 215.632 -49.972 215.634 C-48.864 215.631 -47.757 215.629 -46.616 215.626 C-45.651 215.625 -44.687 215.625 -43.694 215.624 C-41.277 215.499 -41.277 215.499 -38.277 214.499 C-38.277 195.359 -38.277 176.219 -38.277 156.499 C-42.846 155.846 -46.659 155.374 -51.168 155.378 C-51.733 155.378 -51.733 155.378 -54.588 155.374 C-55.198 155.376 -55.198 155.376 -58.281 155.385 C-59.579 155.385 -60.877 155.385 -62.215 155.385 C-65.758 155.384 -69.301 155.39 -72.844 155.397 C-76.552 155.404 -80.261 155.404 -83.97 155.405 C-90.986 155.408 -98.002 155.417 -105.017 155.427 C-114.503 155.44 -123.989 155.445 -133.474 155.451 C-148.409 155.461 -163.343 155.48 -178.277 155.499 Z M-178.277 241.499 C-178.277 260.969 -178.277 280.439 -178.277 300.499 C-132.077 300.499 -85.877 300.499 -38.277 300.499 C-38.277 281.029 -38.277 261.559 -38.277 241.499 C-84.477 241.499 -130.677 241.499 -178.277 241.499 Z " fill="#CACACA" transform="translate(364.2771911621094,35.50135803222656)"/>
<path d="M0 0 C0 9.9 0 19.8 0 30 C-14.85 29.67 -29.7 29.34 -45 29 C-45 19.43 -45 9.86 -45 0 C-40.842 -0.168 -36.683 -0.331 -32.524 -0.482 C-31.116 -0.535 -29.709 -0.59 -28.301 -0.648 C-26.25 -0.732 -24.199 -0.806 -22.148 -0.879 C-20.923 -0.926 -19.698 -0.973 -18.435 -1.022 C-12.281 -0.992 -6.139 -0.438 0 0 Z " fill="#B5B5B5" transform="translate(371,36)"/>
<path d="M0 0 C0.779 0.002 1.559 0.004 2.362 0.007 C2.802 0.007 2.802 0.007 5.031 0.007 C5.988 0.012 6.946 0.017 7.932 0.023 C8.42 0.023 8.42 0.023 10.887 0.027 C14.015 0.033 17.144 0.045 20.272 0.058 C22.387 0.063 24.502 0.067 26.618 0.071 C31.815 0.082 37.012 0.101 42.209 0.12 C42.209 9.69 42.209 19.26 42.209 29.12 C27.359 29.45 12.509 29.78 -2.791 30.12 C-2.811 25.356 -2.832 20.592 -2.853 15.683 C-2.862 14.178 -2.871 12.673 -2.881 11.122 C-2.883 9.947 -2.886 8.772 -2.888 7.562 C-2.894 6.352 -2.899 5.142 -2.904 3.896 C-2.752 0.185 -2.752 0.185 0 0 Z " fill="#B5B5B5" transform="translate(143.79066467285156,35.87974548339844)"/>
<path d="M0 0 C46.2 0 92.4 0 140 0 C140.33 1.65 140.66 3.3 141 5 C137.694 5.996 134.725 6.11 131.28 6.082 C130.113 6.075 128.947 6.068 127.745 6.061 C126.469 6.048 125.193 6.035 123.878 6.022 C122.518 6.012 121.158 6.002 119.797 5.993 C116.108 5.966 112.418 5.933 108.728 5.899 C104.871 5.865 101.014 5.837 97.157 5.807 C89.854 5.751 82.552 5.69 75.249 5.627 C66.935 5.555 58.62 5.489 50.306 5.424 C33.204 5.289 16.102 5.147 -1 5 C-0.67 3.35 -0.34 1.7 0 0 Z " fill="#A5A5A5" transform="translate(186,80)"/>
<path d="M0 0 C46.2 0 92.4 0 140 0 C140.33 1.65 140.66 3.3 141 5 C94.14 5 47.28 5 -1 5 C-0.67 3.35 -0.34 1.7 0 0 Z " fill="#A5A6A5" transform="translate(186,165)"/>
<path d="M0 0 C46.2 0 92.4 0 140 0 C140.33 1.65 140.66 3.3 141 5 C94.14 5 47.28 5 -1 5 C-0.67 3.35 -0.34 1.7 0 0 Z " fill="#9E9F9E" transform="translate(186,250)"/>
<path d="M0 0 C1.134 -0.004 2.269 -0.009 3.437 -0.013 C4.06 -0.013 4.06 -0.013 7.211 -0.012 C7.866 -0.013 7.866 -0.013 11.183 -0.022 C14.78 -0.031 18.377 -0.033 21.974 -0.034 C24.976 -0.034 27.978 -0.038 30.98 -0.042 C38.062 -0.05 45.144 -0.052 52.226 -0.052 C59.534 -0.051 66.841 -0.062 74.149 -0.077 C80.422 -0.09 86.695 -0.096 92.967 -0.095 C96.714 -0.095 100.461 -0.098 104.208 -0.108 C108.386 -0.12 112.564 -0.115 116.742 -0.109 C117.364 -0.112 117.364 -0.112 120.509 -0.126 C121.646 -0.122 122.784 -0.118 123.955 -0.114 C124.943 -0.114 125.931 -0.115 126.949 -0.115 C129.616 0.141 131.257 0.772 133.541 2.134 C133.541 3.124 133.541 4.114 133.541 5.134 C86.681 5.134 39.821 5.134 -8.459 5.134 C-8.459 3.814 -8.459 2.494 -8.459 1.134 C-5.366 0.103 -3.242 0.006 0 0 Z " fill="#A2A3A2" transform="translate(193.45896911621094,334.8662872314453)"/>
<path d="M0 0 C0.33 0 0.66 0 1 0 C1 4.95 1 9.9 1 15 C-15.301 15.902 -31.551 16.149 -47.875 16.133 C-50.385 16.133 -52.895 16.134 -55.405 16.136 C-60.616 16.137 -65.826 16.135 -71.036 16.13 C-77.043 16.125 -83.05 16.127 -89.056 16.132 C-94.884 16.137 -100.711 16.137 -106.539 16.134 C-109.001 16.133 -111.463 16.134 -113.926 16.136 C-117.352 16.139 -120.777 16.135 -124.203 16.129 C-124.708 16.13 -124.708 16.13 -127.263 16.136 C-131.957 16.121 -136.384 15.977 -141 15 C-141 14.34 -141 13.68 -141 13 C-96.12 13 -51.24 13 -5 13 C-3.761 9.901 -2.54 6.813 -1.375 3.688 C-0.921 2.471 -0.467 1.254 0 0 Z " fill="#BDBEBD" transform="translate(326,91)"/>
<path d="M0 0 C0.462 -0.001 0.462 -0.001 2.801 -0.009 C3.819 -0.007 4.837 -0.004 5.886 -0.002 C6.956 -0.004 8.027 -0.006 9.13 -0.008 C12.695 -0.012 16.26 -0.009 19.825 -0.006 C22.316 -0.007 24.807 -0.007 27.298 -0.009 C32.544 -0.01 37.789 -0.008 43.035 -0.003 C49.685 0.003 56.334 -0.001 62.984 -0.007 C68.145 -0.011 73.307 -0.009 78.469 -0.007 C80.915 -0.006 83.361 -0.007 85.806 -0.009 C102.429 -0.022 119.001 0.364 135.607 1.127 C135.277 1.787 134.947 2.447 134.607 3.127 C88.407 3.127 42.207 3.127 -5.393 3.127 C-5.723 2.467 -6.053 1.807 -6.393 1.127 C-4.034 -0.053 -2.631 0.001 0 0 Z " fill="#BFBFBF" transform="translate(191.3934326171875,273.8730163574219)"/>
<path d="M0 0 C1.095 -0.003 2.189 -0.006 3.317 -0.01 C3.913 -0.009 3.913 -0.009 6.928 -0.003 C8.143 -0.004 9.357 -0.005 10.609 -0.006 C13.184 -0.007 15.759 -0.005 18.333 -0.001 C22.286 0.004 26.239 -0.001 30.192 -0.007 C32.687 -0.007 35.183 -0.005 37.678 -0.003 C38.868 -0.005 40.057 -0.007 41.283 -0.01 C41.832 -0.008 41.832 -0.008 44.609 0 C45.094 0 45.094 0 47.548 0.002 C49.869 0.129 49.869 0.129 51.869 1.129 C52.429 0.988 52.988 0.848 53.564 0.702 C58.503 -0.525 63.805 -0.057 68.879 -0.056 C70.994 -0.058 73.109 -0.076 75.225 -0.095 C76.567 -0.098 77.91 -0.1 79.252 -0.101 C79.863 -0.103 79.863 -0.103 82.952 -0.114 C85.869 0.129 85.869 0.129 87.869 2.129 C83.437 3.228 79.1 3.277 74.562 3.275 C74.151 3.276 74.151 3.276 72.067 3.285 C69.354 3.294 66.641 3.296 63.928 3.297 C62.039 3.301 60.15 3.304 58.261 3.307 C54.306 3.313 50.351 3.315 46.396 3.315 C41.326 3.315 36.257 3.328 31.187 3.345 C27.288 3.357 23.389 3.359 19.49 3.358 C17.62 3.359 15.751 3.364 13.881 3.371 C11.27 3.381 8.658 3.378 6.047 3.372 C5.661 3.375 5.661 3.375 3.706 3.389 C-0.058 3.367 -2.938 3.241 -6.131 1.129 C-4.44 -0.561 -2.315 0.002 0 0 Z " fill="#BEBEBE" transform="translate(236.130615234375,188.87060546875)"/>
<path d="M0 0 C3.292 -0.029 6.583 -0.047 9.875 -0.062 C10.812 -0.071 11.749 -0.079 12.715 -0.088 C13.163 -0.09 13.163 -0.09 15.43 -0.098 C15.843 -0.1 15.843 -0.1 17.937 -0.114 C20 0 20 0 22 1 C22 1.66 22 2.32 22 3 C14.08 3 6.16 3 -2 3 C-1.34 2.67 -0.68 2.34 0 2 C0 1.34 0 0.68 0 0 Z " fill="#B8B8B8" transform="translate(189,189)"/>
<path d="M0 0 C3.625 -0.058 7.25 -0.094 10.875 -0.125 C11.908 -0.142 12.94 -0.159 14.004 -0.176 C14.99 -0.182 15.976 -0.189 16.992 -0.195 C17.448 -0.201 17.448 -0.201 19.753 -0.227 C22 0 22 0 24 2 C19.428 3.132 14.993 3.218 10.312 3.25 C9.541 3.271 8.769 3.291 7.975 3.312 C5.738 3.328 5.738 3.328 2 3 C1.34 2.01 0.68 1.02 0 0 Z " fill="#B6B6B6" transform="translate(300,189)"/>
<path d="M0 0 C1.072 -0.014 2.145 -0.028 3.25 -0.043 C6 0.188 6 0.188 8 2.188 C4.578 3.328 1.913 3.286 -1.688 3.25 C-2.277 3.245 -2.277 3.245 -5.262 3.223 C-6.165 3.211 -7.069 3.199 -8 3.188 C-8 2.528 -8 1.868 -8 1.188 C-5.275 -0.175 -3.039 0.018 0 0 Z " fill="#B9BAB9" transform="translate(221,188.8125)"/>
<path d="M0 0 C1.917 -0.027 3.833 -0.046 5.75 -0.062 C6.284 -0.068 6.284 -0.068 8.984 -0.098 C11.534 -0.015 13.579 0.254 16 1 C15.67 1.66 15.34 2.32 15 3 C9.874 3.103 5.05 3.036 0 2 C0 1.34 0 0.68 0 0 Z " fill="#B8B8B8" transform="translate(185,104)"/>
<path d="M0 0 C0 0.66 0 1.32 0 2 C-3.63 1.67 -7.26 1.34 -11 1 C-6.468 -1.266 -4.822 -0.927 0 0 Z " fill="#BFBFBE" transform="translate(211,190)"/>
<path d="M0 0 C6.152 0.586 6.152 0.586 8 1 C8.33 1.66 8.66 2.32 9 3 C5.7 2.67 2.4 2.34 -1 2 C-0.67 1.34 -0.34 0.68 0 0 Z " fill="#BBBCBB" transform="translate(231,189)"/>
</svg>
