<?xml version="1.0" encoding="UTF-8"?>
<!-- Generator: visioncortex VTracer 0.6.5 -->
<svg version="1.1" xmlns="http://www.w3.org/2000/svg" width="512" height="443">
<path d="M0 0 C3.235 1.527 6.187 3.241 9.199 5.172 C14.085 8.258 19.037 11.128 24.129 13.859 C27.469 15.67 30.776 17.537 34.074 19.422 C34.666 19.76 35.257 20.098 35.866 20.446 C40.297 22.988 44.675 25.611 49.023 28.293 C51.012 29.422 51.012 29.422 54.012 30.422 C54.012 31.082 54.012 31.742 54.012 32.422 C54.795 32.628 55.579 32.834 56.387 33.047 C60.345 34.548 63.612 36.538 67.199 38.758 C71.992 41.594 77.003 43.995 82.012 46.422 C82.012 47.082 82.012 47.742 82.012 48.422 C82.899 48.69 83.785 48.958 84.699 49.234 C88.012 50.422 88.012 50.422 90.07 51.992 C94.466 54.129 98.575 53.661 103.387 53.484 C105.228 53.424 107.069 53.373 108.91 53.332 C109.721 53.302 110.533 53.273 111.369 53.242 C114.012 53.422 114.012 53.422 121.012 55.422 C121.342 60.372 121.672 65.322 122.012 70.422 C123.109 70.869 124.206 71.316 125.336 71.777 C126.791 72.387 128.245 72.998 129.699 73.609 C130.42 73.901 131.142 74.193 131.885 74.494 C132.591 74.794 133.296 75.094 134.023 75.402 C134.668 75.669 135.312 75.936 135.975 76.212 C141.988 79.785 144.32 84.61 146.754 90.844 C147.085 91.662 147.417 92.48 147.758 93.323 C148.813 95.935 149.85 98.553 150.887 101.172 C151.574 102.885 152.263 104.597 152.953 106.309 C154.315 109.689 155.667 113.073 157.015 116.459 C158.336 119.767 159.691 123.057 161.079 126.338 C161.242 126.726 161.242 126.726 162.069 128.69 C162.686 130.148 163.308 131.603 163.936 133.056 C165.378 136.475 166.012 138.643 166.012 142.422 C163.702 142.752 161.392 143.082 159.012 143.422 C159.156 143.664 159.156 143.664 159.887 144.891 C162.74 150.043 163.431 153.552 163.012 159.422 C164.002 159.092 164.992 158.762 166.012 158.422 C175.174 175.297 175.174 175.297 177.988 182.824 C179.364 186.316 180.928 189.708 182.512 193.109 C182.654 193.419 182.654 193.419 183.375 194.983 C184.829 198.087 186.367 201.09 188.094 204.051 C189.716 206.902 191.023 209.62 192.199 212.672 C192.523 213.502 192.846 214.332 193.18 215.188 C193.825 216.92 194.427 218.668 195.012 220.422 C191.24 223.659 186.9 225.403 182.387 227.359 C181.585 227.711 180.783 228.063 179.958 228.426 C174.354 230.874 168.717 233.221 163.012 235.422 C157.822 225.144 152.753 214.818 147.847 204.403 C146.819 202.223 145.783 200.046 144.748 197.869 C140.792 189.505 137.176 181.124 134.012 172.422 C134.672 172.092 135.332 171.762 136.012 171.422 C135.352 170.968 134.692 170.514 134.012 170.047 C133.352 169.511 132.692 168.974 132.012 168.422 C132.012 167.762 132.012 167.102 132.012 166.422 C131.352 166.422 130.692 166.422 130.012 166.422 C129.682 165.762 129.352 165.102 129.012 164.422 C129.011 164.788 129.011 164.788 129.007 166.642 C128.99 173.543 128.948 180.443 128.88 187.344 C128.845 190.892 128.82 194.44 128.816 197.988 C128.811 202.067 128.766 206.144 128.719 210.223 C128.723 211.498 128.727 212.773 128.731 214.087 C128.711 215.267 128.691 216.448 128.671 217.665 C128.664 218.707 128.658 219.748 128.651 220.821 C128.012 223.422 128.012 223.422 125.596 225.282 C123.012 226.422 123.012 226.422 121.012 226.422 C121.012 232.032 121.012 237.642 121.012 243.422 C119.141 243.413 117.271 243.404 115.344 243.395 C90.171 243.576 90.171 243.576 80.012 251.422 C78.538 252.43 77.059 253.431 75.574 254.422 C74.867 254.91 74.159 255.399 73.43 255.902 C69.956 258.085 66.286 259.814 62.597 261.601 C57.364 264.17 52.389 267.085 47.425 270.138 C43.457 272.577 39.431 274.875 35.352 277.123 C31.397 279.318 27.487 281.59 23.574 283.859 C23.159 284.1 23.159 284.1 21.06 285.316 C5.423 294.394 5.423 294.394 1.566 297.203 C-0.988 298.422 -0.988 298.422 -3.356 297.657 C-5.857 296.483 -8.261 295.238 -10.664 293.875 C-11.562 293.367 -12.459 292.86 -13.384 292.336 C-14.347 291.787 -15.309 291.238 -16.301 290.672 C-17.316 290.096 -18.33 289.519 -19.376 288.925 C-27.542 284.275 -35.666 279.552 -43.777 274.805 C-49.07 271.706 -54.37 268.619 -59.684 265.555 C-60.798 264.911 -61.913 264.268 -63.061 263.605 C-65.294 262.322 -67.532 261.046 -69.773 259.777 C-74.462 257.112 -79.056 254.461 -83.422 251.289 C-95.353 242.841 -107.24 243.103 -121.574 243.469 C-123.988 243.422 -123.988 243.422 -124.988 242.422 C-124.903 240.15 -124.795 237.879 -124.676 235.609 C-124.629 231.742 -124.629 231.742 -124.988 228.422 C-127.926 225.984 -127.926 225.984 -130.988 224.422 C-132.51 218.137 -132.115 211.574 -132.086 205.145 C-132.085 203.978 -132.083 202.812 -132.082 201.61 C-132.076 197.901 -132.064 194.193 -132.051 190.484 C-132.046 187.963 -132.041 185.441 -132.037 182.92 C-132.026 176.754 -132.009 170.588 -131.988 164.422 C-133.138 165.376 -134.283 166.335 -135.426 167.297 C-136.064 167.831 -136.702 168.364 -137.359 168.914 C-138.988 170.422 -138.988 170.422 -139.988 172.422 C-139.328 172.422 -138.668 172.422 -137.988 172.422 C-139.237 177.143 -140.751 181.373 -142.863 185.797 C-143.009 186.104 -143.009 186.104 -143.747 187.661 C-144.821 189.918 -145.904 192.17 -146.988 194.422 C-148.517 197.602 -150.045 200.783 -151.573 203.963 C-152.621 206.144 -153.672 208.323 -154.724 210.501 C-157.283 215.81 -159.791 221.129 -162.147 226.531 C-163.338 229.207 -164.652 231.816 -165.988 234.422 C-170.526 233.848 -174.129 232.643 -178.262 230.699 C-178.839 230.43 -178.839 230.43 -181.758 229.068 C-182.948 228.504 -184.137 227.94 -185.363 227.359 C-186.588 226.785 -187.813 226.212 -189.039 225.639 C-192.025 224.24 -195.008 222.834 -197.988 221.422 C-197.232 217.333 -196.029 213.868 -194.363 210.047 C-194.231 209.742 -194.231 209.742 -193.56 208.2 C-191.37 203.201 -189.07 198.254 -186.738 193.32 C-184.74 189.08 -182.829 184.808 -180.951 180.514 C-177.631 172.928 -174.155 165.588 -169.988 158.422 C-169.328 158.422 -168.668 158.422 -167.988 158.422 C-167.807 157.602 -167.625 156.782 -167.438 155.938 C-167.186 154.86 -166.935 153.782 -166.676 152.672 C-166.432 151.605 -166.189 150.537 -165.938 149.438 C-165.013 146.5 -163.987 144.729 -161.988 142.422 C-164.628 142.422 -167.268 142.422 -169.988 142.422 C-169.369 136.256 -166.958 130.809 -164.676 125.109 C-164.285 124.115 -163.893 123.12 -163.49 122.096 C-161.732 117.654 -159.934 113.244 -157.965 108.891 C-156.484 105.613 -155.153 102.304 -153.875 98.941 C-153.513 98.005 -153.152 97.068 -152.779 96.104 C-152.041 94.184 -151.317 92.26 -150.607 90.33 C-147.684 82.868 -144.334 78.447 -137.004 75.031 C-136.091 74.748 -135.179 74.464 -134.238 74.172 C-131.01 73.144 -128.84 72.323 -125.988 70.422 C-125.148 66.601 -124.953 62.939 -124.988 59.047 C-124.988 55.422 -124.988 55.422 -123.988 54.422 C-122.106 54.337 -120.22 54.314 -118.336 54.316 C-117.751 54.309 -117.751 54.309 -114.791 54.271 C-112.333 54.247 -109.874 54.241 -107.416 54.256 C-98.894 54.102 -93.872 52.324 -86.988 47.422 C-85.396 46.525 -83.793 45.648 -82.176 44.797 C-68.846 37.596 -55.777 29.898 -42.675 22.293 C-38.577 19.915 -34.471 17.555 -30.349 15.219 C-24.112 11.683 -17.994 8 -11.926 4.184 C-10.956 3.602 -9.987 3.021 -8.988 2.422 C-7.998 1.81 -7.008 1.197 -5.988 0.566 C-2.988 -0.578 -2.988 -0.578 0 0 Z M-135.988 142.422 C-134.668 144.732 -133.348 147.042 -131.988 149.422 C-131.301 146.931 -130.988 145.043 -130.988 142.422 C-132.638 142.422 -134.288 142.422 -135.988 142.422 Z M128.012 142.422 C127.012 145.422 127.012 145.422 127.949 147.609 C128.3 148.208 128.65 148.806 129.012 149.422 C130.002 147.112 130.992 144.802 132.012 142.422 C130.692 142.422 129.372 142.422 128.012 142.422 Z M-131.988 160.422 C-130.988 162.422 -130.988 162.422 -130.988 162.422 Z " fill="#000000" transform="translate(266.98828125,36.578125)"/>
<path d="M0 0 C3.235 1.527 6.187 3.241 9.199 5.172 C14.085 8.258 19.037 11.128 24.129 13.859 C27.469 15.67 30.776 17.537 34.074 19.422 C34.666 19.76 35.257 20.098 35.866 20.446 C40.297 22.988 44.675 25.611 49.023 28.293 C51.012 29.422 51.012 29.422 54.012 30.422 C54.012 31.082 54.012 31.742 54.012 32.422 C54.795 32.628 55.579 32.834 56.387 33.047 C60.345 34.548 63.612 36.538 67.199 38.758 C71.992 41.594 77.003 43.995 82.012 46.422 C82.012 47.082 82.012 47.742 82.012 48.422 C82.899 48.69 83.785 48.958 84.699 49.234 C88.012 50.422 88.012 50.422 90.07 51.992 C94.466 54.129 98.575 53.661 103.387 53.484 C105.228 53.424 107.069 53.373 108.91 53.332 C109.721 53.302 110.533 53.273 111.369 53.242 C114.012 53.422 114.012 53.422 121.012 55.422 C121.342 60.372 121.672 65.322 122.012 70.422 C123.109 70.869 124.206 71.316 125.336 71.777 C126.791 72.387 128.245 72.998 129.699 73.609 C130.42 73.901 131.142 74.193 131.885 74.494 C132.591 74.794 133.296 75.094 134.023 75.402 C134.668 75.669 135.312 75.936 135.975 76.212 C141.988 79.785 144.32 84.61 146.754 90.844 C147.085 91.662 147.417 92.48 147.758 93.323 C148.813 95.935 149.85 98.553 150.887 101.172 C151.574 102.885 152.263 104.597 152.953 106.309 C154.315 109.689 155.667 113.073 157.015 116.459 C158.336 119.767 159.691 123.057 161.079 126.338 C161.242 126.726 161.242 126.726 162.069 128.69 C162.686 130.148 163.308 131.603 163.936 133.056 C165.378 136.475 166.012 138.643 166.012 142.422 C163.702 142.752 161.392 143.082 159.012 143.422 C159.156 143.664 159.156 143.664 159.887 144.891 C162.74 150.043 163.431 153.552 163.012 159.422 C164.002 159.092 164.992 158.762 166.012 158.422 C175.174 175.297 175.174 175.297 177.988 182.824 C179.364 186.316 180.928 189.708 182.512 193.109 C182.654 193.419 182.654 193.419 183.375 194.983 C184.829 198.087 186.367 201.09 188.094 204.051 C189.716 206.902 191.023 209.62 192.199 212.672 C192.523 213.502 192.846 214.332 193.18 215.188 C193.825 216.92 194.427 218.668 195.012 220.422 C191.24 223.659 186.9 225.403 182.387 227.359 C181.585 227.711 180.783 228.063 179.958 228.426 C174.354 230.874 168.717 233.221 163.012 235.422 C157.822 225.144 152.753 214.818 147.847 204.403 C146.819 202.223 145.783 200.046 144.748 197.869 C140.792 189.505 137.176 181.124 134.012 172.422 C134.672 172.092 135.332 171.762 136.012 171.422 C135.352 170.968 134.692 170.514 134.012 170.047 C133.352 169.511 132.692 168.974 132.012 168.422 C132.012 167.762 132.012 167.102 132.012 166.422 C131.352 166.422 130.692 166.422 130.012 166.422 C129.682 165.762 129.352 165.102 129.012 164.422 C129.011 164.788 129.011 164.788 129.007 166.642 C128.99 173.543 128.948 180.443 128.88 187.344 C128.845 190.892 128.82 194.44 128.816 197.988 C128.811 202.067 128.766 206.144 128.719 210.223 C128.723 211.498 128.727 212.773 128.731 214.087 C128.711 215.267 128.691 216.448 128.671 217.665 C128.664 218.707 128.658 219.748 128.651 220.821 C128.012 223.422 128.012 223.422 125.596 225.282 C123.012 226.422 123.012 226.422 121.012 226.422 C121.012 232.032 121.012 237.642 121.012 243.422 C119.141 243.413 117.271 243.404 115.344 243.395 C90.171 243.576 90.171 243.576 80.012 251.422 C78.538 252.43 77.059 253.431 75.574 254.422 C74.867 254.91 74.159 255.399 73.43 255.902 C69.956 258.085 66.286 259.814 62.597 261.601 C57.364 264.17 52.389 267.085 47.425 270.138 C43.457 272.577 39.431 274.875 35.352 277.123 C31.397 279.318 27.487 281.59 23.574 283.859 C23.159 284.1 23.159 284.1 21.06 285.316 C5.423 294.394 5.423 294.394 1.566 297.203 C-0.988 298.422 -0.988 298.422 -3.356 297.657 C-5.857 296.483 -8.261 295.238 -10.664 293.875 C-11.562 293.367 -12.459 292.86 -13.384 292.336 C-14.347 291.787 -15.309 291.238 -16.301 290.672 C-17.316 290.096 -18.33 289.519 -19.376 288.925 C-27.542 284.275 -35.666 279.552 -43.777 274.805 C-49.07 271.706 -54.37 268.619 -59.684 265.555 C-60.798 264.911 -61.913 264.268 -63.061 263.605 C-65.294 262.322 -67.532 261.046 -69.773 259.777 C-74.462 257.112 -79.056 254.461 -83.422 251.289 C-95.353 242.841 -107.24 243.103 -121.574 243.469 C-123.988 243.422 -123.988 243.422 -124.988 242.422 C-124.903 240.15 -124.795 237.879 -124.676 235.609 C-124.629 231.742 -124.629 231.742 -124.988 228.422 C-127.926 225.984 -127.926 225.984 -130.988 224.422 C-132.51 218.137 -132.115 211.574 -132.086 205.145 C-132.085 203.978 -132.083 202.812 -132.082 201.61 C-132.076 197.901 -132.064 194.193 -132.051 190.484 C-132.046 187.963 -132.041 185.441 -132.037 182.92 C-132.026 176.754 -132.009 170.588 -131.988 164.422 C-133.138 165.376 -134.283 166.335 -135.426 167.297 C-136.064 167.831 -136.702 168.364 -137.359 168.914 C-138.988 170.422 -138.988 170.422 -139.988 172.422 C-139.328 172.422 -138.668 172.422 -137.988 172.422 C-139.237 177.143 -140.751 181.373 -142.863 185.797 C-143.009 186.104 -143.009 186.104 -143.747 187.661 C-144.821 189.918 -145.904 192.17 -146.988 194.422 C-148.517 197.602 -150.045 200.783 -151.573 203.963 C-152.621 206.144 -153.672 208.323 -154.724 210.501 C-157.283 215.81 -159.791 221.129 -162.147 226.531 C-163.338 229.207 -164.652 231.816 -165.988 234.422 C-170.526 233.848 -174.129 232.643 -178.262 230.699 C-178.839 230.43 -178.839 230.43 -181.758 229.068 C-182.948 228.504 -184.137 227.94 -185.363 227.359 C-186.588 226.785 -187.813 226.212 -189.039 225.639 C-192.025 224.24 -195.008 222.834 -197.988 221.422 C-197.232 217.333 -196.029 213.868 -194.363 210.047 C-194.231 209.742 -194.231 209.742 -193.56 208.2 C-191.37 203.201 -189.07 198.254 -186.738 193.32 C-184.74 189.08 -182.829 184.808 -180.951 180.514 C-177.631 172.928 -174.155 165.588 -169.988 158.422 C-169.328 158.422 -168.668 158.422 -167.988 158.422 C-167.807 157.602 -167.625 156.782 -167.438 155.938 C-167.186 154.86 -166.935 153.782 -166.676 152.672 C-166.432 151.605 -166.189 150.537 -165.938 149.438 C-165.013 146.5 -163.987 144.729 -161.988 142.422 C-164.628 142.422 -167.268 142.422 -169.988 142.422 C-169.369 136.256 -166.958 130.809 -164.676 125.109 C-164.285 124.115 -163.893 123.12 -163.49 122.096 C-161.732 117.654 -159.934 113.244 -157.965 108.891 C-156.484 105.613 -155.153 102.304 -153.875 98.941 C-153.513 98.005 -153.152 97.068 -152.779 96.104 C-152.041 94.184 -151.317 92.26 -150.607 90.33 C-147.684 82.868 -144.334 78.447 -137.004 75.031 C-136.091 74.748 -135.179 74.464 -134.238 74.172 C-131.01 73.144 -128.84 72.323 -125.988 70.422 C-125.148 66.601 -124.953 62.939 -124.988 59.047 C-124.988 55.422 -124.988 55.422 -123.988 54.422 C-122.106 54.337 -120.22 54.314 -118.336 54.316 C-117.751 54.309 -117.751 54.309 -114.791 54.271 C-112.333 54.247 -109.874 54.241 -107.416 54.256 C-98.894 54.102 -93.872 52.324 -86.988 47.422 C-85.396 46.525 -83.793 45.648 -82.176 44.797 C-68.846 37.596 -55.777 29.898 -42.675 22.293 C-38.577 19.915 -34.471 17.555 -30.349 15.219 C-24.112 11.683 -17.994 8 -11.926 4.184 C-10.956 3.602 -9.987 3.021 -8.988 2.422 C-7.998 1.81 -7.008 1.197 -5.988 0.566 C-2.988 -0.578 -2.988 -0.578 0 0 Z M-66.988 38.422 C-68.319 39.093 -69.652 39.762 -70.988 40.422 C-70.988 41.082 -70.988 41.742 -70.988 42.422 C-71.706 42.668 -72.424 42.914 -73.164 43.168 C-78.475 45.526 -82.605 49.67 -86.988 53.422 C-87.842 54.127 -88.695 54.832 -89.574 55.559 C-108.538 71.741 -121.437 96.347 -126.988 120.422 C-127.166 121.18 -127.343 121.938 -127.526 122.72 C-129.257 130.962 -129.346 139.163 -129.301 147.547 C-129.298 148.28 -129.296 149.012 -129.293 149.767 C-129.099 186.752 -114.213 217.163 -88.34 243.074 C-63.893 266.338 -30.68 277.362 2.621 276.645 C9.211 276.417 15.541 275.756 22.012 274.422 C23.244 274.177 24.476 273.932 25.746 273.68 C57.909 266.752 85.731 247.202 104.281 220.223 C106.012 217.422 106.012 217.422 106.012 215.422 C112.612 215.422 119.212 215.422 126.012 215.422 C126.012 171.532 126.012 127.642 126.012 82.422 C119.742 82.092 113.472 81.762 107.012 81.422 C103.574 77.337 102.058 75.031 100.012 70.422 C96.797 66.05 92.93 62.162 89.012 58.422 C88.686 58.105 88.686 58.105 87.039 56.5 C60.008 31.048 27.124 20.394 -9.516 21.141 C-30.613 21.878 -48.487 28.677 -66.988 38.422 Z M-135.988 142.422 C-134.668 144.732 -133.348 147.042 -131.988 149.422 C-131.301 146.931 -130.988 145.043 -130.988 142.422 C-132.638 142.422 -134.288 142.422 -135.988 142.422 Z M128.012 142.422 C127.012 145.422 127.012 145.422 127.949 147.609 C128.3 148.208 128.65 148.806 129.012 149.422 C130.002 147.112 130.992 144.802 132.012 142.422 C130.692 142.422 129.372 142.422 128.012 142.422 Z M-131.988 160.422 C-130.988 162.422 -130.988 162.422 -130.988 162.422 Z " fill="#C5C5C5" transform="translate(266.98828125,36.578125)"/>
<path d="M0 0 C3.235 1.527 6.187 3.241 9.199 5.172 C14.085 8.258 19.037 11.128 24.129 13.859 C27.469 15.67 30.776 17.537 34.074 19.422 C34.666 19.76 35.257 20.098 35.866 20.446 C40.297 22.988 44.675 25.611 49.023 28.293 C51.012 29.422 51.012 29.422 54.012 30.422 C54.012 31.082 54.012 31.742 54.012 32.422 C54.795 32.628 55.579 32.834 56.387 33.047 C60.345 34.548 63.612 36.538 67.199 38.758 C71.992 41.594 77.003 43.995 82.012 46.422 C82.012 48.402 82.012 50.382 82.012 52.422 C80.719 51.569 79.428 50.715 78.137 49.859 C77.305 49.309 76.474 48.759 75.617 48.191 C73.973 47.075 72.347 45.929 70.75 44.746 C43.591 24.688 9.651 18.817 -23.42 23.196 C-37.824 25.503 -50.865 31.027 -63.695 37.785 C-66.227 39.043 -68.235 39.943 -70.988 40.422 C-70.988 41.082 -70.988 41.742 -70.988 42.422 C-72.465 43.508 -72.465 43.508 -74.613 44.797 C-100.973 61.899 -118.968 89.976 -125.988 120.422 C-126.162 121.174 -126.336 121.925 -126.515 122.7 C-128.267 131.124 -128.43 139.543 -128.613 148.109 C-128.652 149.601 -128.691 151.092 -128.73 152.584 C-128.825 156.196 -128.91 159.809 -128.988 163.422 C-129.776 163.716 -130.564 164.011 -131.376 164.314 C-134.226 165.523 -135.394 166.652 -137.301 169.047 C-137.813 169.679 -138.324 170.31 -138.852 170.961 C-139.227 171.443 -139.602 171.925 -139.988 172.422 C-139.328 172.422 -138.668 172.422 -137.988 172.422 C-139.237 177.143 -140.751 181.373 -142.863 185.797 C-143.009 186.104 -143.009 186.104 -143.747 187.661 C-144.821 189.918 -145.904 192.17 -146.988 194.422 C-148.517 197.602 -150.045 200.783 -151.573 203.963 C-152.621 206.144 -153.672 208.323 -154.724 210.501 C-157.283 215.81 -159.791 221.129 -162.147 226.531 C-163.338 229.207 -164.652 231.816 -165.988 234.422 C-170.526 233.848 -174.129 232.643 -178.262 230.699 C-178.839 230.43 -178.839 230.43 -181.758 229.068 C-182.948 228.504 -184.137 227.94 -185.363 227.359 C-186.588 226.785 -187.813 226.212 -189.039 225.639 C-192.025 224.24 -195.008 222.834 -197.988 221.422 C-197.232 217.333 -196.029 213.868 -194.363 210.047 C-194.231 209.742 -194.231 209.742 -193.56 208.2 C-191.37 203.201 -189.07 198.254 -186.738 193.32 C-184.74 189.08 -182.829 184.808 -180.951 180.514 C-177.631 172.928 -174.155 165.588 -169.988 158.422 C-169.328 158.422 -168.668 158.422 -167.988 158.422 C-167.807 157.602 -167.625 156.782 -167.438 155.938 C-167.186 154.86 -166.935 153.782 -166.676 152.672 C-166.432 151.605 -166.189 150.537 -165.938 149.438 C-165.013 146.5 -163.987 144.729 -161.988 142.422 C-164.628 142.422 -167.268 142.422 -169.988 142.422 C-169.369 136.256 -166.958 130.809 -164.676 125.109 C-164.285 124.115 -163.893 123.12 -163.49 122.096 C-161.732 117.654 -159.934 113.244 -157.965 108.891 C-156.484 105.613 -155.153 102.304 -153.875 98.941 C-153.513 98.005 -153.152 97.068 -152.779 96.104 C-152.041 94.184 -151.317 92.26 -150.607 90.33 C-147.684 82.868 -144.334 78.447 -137.004 75.031 C-136.091 74.748 -135.179 74.464 -134.238 74.172 C-131.01 73.144 -128.84 72.323 -125.988 70.422 C-125.148 66.601 -124.953 62.939 -124.988 59.047 C-124.988 55.422 -124.988 55.422 -123.988 54.422 C-122.106 54.337 -120.22 54.314 -118.336 54.316 C-117.751 54.309 -117.751 54.309 -114.791 54.271 C-112.333 54.247 -109.874 54.241 -107.416 54.256 C-98.894 54.102 -93.872 52.324 -86.988 47.422 C-85.396 46.525 -83.793 45.648 -82.176 44.797 C-68.846 37.596 -55.777 29.898 -42.675 22.293 C-38.577 19.915 -34.471 17.555 -30.349 15.219 C-24.112 11.683 -17.994 8 -11.926 4.184 C-10.956 3.602 -9.987 3.021 -8.988 2.422 C-7.998 1.81 -7.008 1.197 -5.988 0.566 C-2.988 -0.578 -2.988 -0.578 0 0 Z M-135.988 142.422 C-134.668 144.732 -133.348 147.042 -131.988 149.422 C-131.301 146.931 -130.988 145.043 -130.988 142.422 C-132.638 142.422 -134.288 142.422 -135.988 142.422 Z M-131.988 160.422 C-130.988 162.422 -130.988 162.422 -130.988 162.422 Z " fill="#BCBCBC" transform="translate(266.98828125,36.578125)"/>
<path d="M0 0 C6.562 5.565 9.885 16.431 12.906 24.297 C14.329 27.813 15.902 31.248 17.5 34.688 C17.785 35.306 18.07 35.924 18.363 36.56 C19.817 39.664 21.355 42.668 23.082 45.629 C24.704 48.48 26.012 51.198 27.188 54.25 C27.349 54.665 27.349 54.665 28.168 56.766 C28.813 58.498 29.415 60.246 30 62 C26.228 65.237 21.888 66.981 17.375 68.938 C16.573 69.289 15.772 69.641 14.946 70.004 C9.342 72.452 3.706 74.799 -2 77 C-7.189 66.723 -12.259 56.397 -17.165 45.981 C-18.193 43.801 -19.228 41.624 -20.264 39.447 C-24.22 31.083 -27.836 22.702 -31 14 C-30.534 13.844 -30.534 13.844 -28.177 13.054 C-18.335 9.726 -8.685 5.79 0 0 Z " fill="#C8C8C8" transform="translate(432,195)"/>
<path d="M0 0 C3.07 1.153 5.698 2.365 8.375 4.25 C15.279 8.694 23.973 12.297 32 14 C30.751 18.721 29.237 22.951 27.125 27.375 C26.833 27.99 26.542 28.605 26.241 29.239 C25.167 31.496 24.084 33.748 23 36 C21.472 39.18 19.943 42.361 18.416 45.542 C17.367 47.722 16.317 49.901 15.264 52.08 C12.705 57.388 10.197 62.707 7.842 68.11 C6.65 70.785 5.336 73.394 4 76 C-0.538 75.426 -4.141 74.221 -8.273 72.277 C-9.427 71.739 -10.581 71.201 -11.77 70.646 C-12.959 70.083 -14.149 69.519 -15.375 68.938 C-16.6 68.363 -17.825 67.79 -19.051 67.217 C-22.037 65.818 -25.02 64.412 -28 63 C-27.244 58.911 -26.041 55.447 -24.375 51.625 C-24.242 51.32 -24.242 51.32 -23.572 49.778 C-21.381 44.779 -19.082 39.832 -16.75 34.898 C-14.752 30.658 -12.841 26.386 -10.962 22.092 C-7.643 14.506 -4.167 7.166 0 0 Z " fill="#C6C7C6" transform="translate(97,195)"/>
<path d="M0 0 C0.66 0.33 1.32 0.66 2 1 C2.474 3.464 2.848 5.892 3.188 8.375 C7.981 38.813 25.995 66.969 50 86 C58.863 92.304 68.175 97.356 78 102 C77.835 102.495 77.835 102.495 77 105 C71.38 102.868 66.338 99.904 61.125 96.938 C60.086 96.358 59.046 95.779 57.975 95.183 C49.148 90.227 49.148 90.227 45.137 87.176 C34.044 78.931 21.868 79.804 8.446 80.062 C6 80 6 80 5 79 C5.085 76.728 5.193 74.458 5.312 72.188 C5.359 68.32 5.359 68.32 5 65 C2.062 62.562 2.062 62.562 -1 61 C-2.455 54.881 -2.161 48.525 -2.168 42.266 C-2.171 41.151 -2.175 40.036 -2.178 38.887 C-2.183 36.54 -2.185 34.194 -2.185 31.847 C-2.188 28.248 -2.206 24.65 -2.225 21.051 C-2.228 18.768 -2.23 16.486 -2.23 14.203 C-2.238 13.125 -2.245 12.047 -2.252 10.936 C-2.249 9.938 -2.246 8.94 -2.243 7.911 C-2.244 7.033 -2.246 6.155 -2.247 5.25 C-2 3 -2 3 0 0 Z " fill="#C0C0C0" transform="translate(137,200)"/>
<path d="M0 0 C3.235 1.527 6.187 3.241 9.199 5.172 C14.085 8.258 19.037 11.128 24.129 13.859 C27.469 15.67 30.776 17.537 34.074 19.422 C34.666 19.76 35.257 20.098 35.866 20.446 C40.297 22.988 44.675 25.611 49.023 28.293 C51.012 29.422 51.012 29.422 54.012 30.422 C54.012 31.082 54.012 31.742 54.012 32.422 C54.795 32.628 55.579 32.834 56.387 33.047 C60.345 34.548 63.612 36.538 67.199 38.758 C71.992 41.594 77.003 43.995 82.012 46.422 C82.012 48.402 82.012 50.382 82.012 52.422 C80.719 51.569 79.428 50.715 78.137 49.859 C77.721 49.584 77.721 49.584 75.617 48.191 C73.973 47.075 72.347 45.929 70.75 44.746 C43.591 24.688 9.651 18.817 -23.42 23.196 C-37.824 25.503 -50.865 31.027 -63.695 37.785 C-66.227 39.043 -68.235 39.943 -70.988 40.422 C-70.988 41.082 -70.988 41.742 -70.988 42.422 C-72.852 43.859 -72.852 43.859 -75.301 45.422 C-75.701 45.68 -75.701 45.68 -77.727 46.984 C-78.473 47.459 -79.219 47.933 -79.988 48.422 C-80.978 49.082 -81.968 49.742 -82.988 50.422 C-82.615 47.777 -82.169 46.603 -80.256 44.687 C-74.887 40.646 -69.432 37.235 -63.488 34.109 C-61.724 33.161 -59.961 32.21 -58.199 31.258 C-57.325 30.786 -56.451 30.314 -55.55 29.827 C-51.69 27.71 -47.898 25.483 -44.113 23.234 C-39.015 20.206 -33.9 17.217 -28.738 14.297 C-23.042 11.062 -17.47 7.67 -11.926 4.184 C-10.956 3.602 -9.987 3.021 -8.988 2.422 C-7.998 1.81 -7.008 1.197 -5.988 0.566 C-2.988 -0.578 -2.988 -0.578 0 0 Z " fill="#999999" transform="translate(266.98828125,36.578125)"/>
<path d="M0 0 C1.126 0.005 2.252 0.01 3.412 0.016 C4.627 0.019 5.842 0.022 7.094 0.026 C8.373 0.034 9.652 0.042 10.97 0.051 C12.254 0.056 13.537 0.06 14.859 0.065 C18.042 0.077 21.225 0.093 24.408 0.114 C22.001 2.641 19.786 4.682 16.728 6.367 C16.046 6.747 15.364 7.127 14.662 7.518 C13.959 7.9 13.257 8.282 12.533 8.676 C11.838 9.062 11.143 9.448 10.427 9.846 C-0.912 16.114 -0.912 16.114 -3.592 16.114 C-3.619 13.634 -3.639 11.155 -3.655 8.676 C-3.659 8.323 -3.659 8.323 -3.68 6.533 C-3.689 4.727 -3.644 2.92 -3.592 1.114 C-2.592 0.114 -2.592 0.114 0 0 Z " fill="#B1B1B1" transform="translate(145.592041015625,90.886474609375)"/>
<path d="M0 0 C3.861 1.287 6.731 3.23 9.98 5.645 C12.239 7.16 14.549 8.321 17 9.5 C20.159 11.019 22.999 12.597 25.812 14.688 C28.576 16.693 30.857 17.798 34 19 C34.165 19.33 34.165 19.33 35 21 C18.777 22.931 18.777 22.931 14.281 19.805 C11.074 16.33 9.13 12.196 7 8 C4.837 5.121 2.61 2.48 0 0 Z " fill="#8C8C8C" transform="translate(358,98)"/>
<path d="M0 0 C0 3 0 3 -1.898 5.121 C-2.716 5.886 -3.533 6.65 -4.375 7.438 C-8.821 11.608 -8.821 11.608 -9.949 14.074 C-11.499 16.914 -13.633 17.822 -16.438 19.375 C-17.514 19.977 -18.59 20.579 -19.699 21.199 C-20.244 21.496 -20.244 21.496 -23 23 C-23.976 23.543 -24.952 24.085 -25.957 24.645 C-31.242 27.564 -36.58 30.341 -42 33 C-42 32.34 -42 31.68 -42 31 C-42.66 30.67 -43.32 30.34 -44 30 C-42.973 29.504 -41.945 29.007 -40.887 28.496 C-25.572 21.022 -11.787 12.489 0 0 Z " fill="#B7B6B6" transform="translate(357,273)"/>
<path d="M0 0 C1.32 0.33 2.64 0.66 4 1 C-1.702 5.143 -7.724 8.573 -13.938 11.875 C-14.695 12.28 -15.453 12.686 -16.234 13.103 C-16.95 13.479 -17.665 13.855 -18.402 14.242 C-19.047 14.581 -19.691 14.92 -20.355 15.269 C-22 16 -22 16 -24 16 C-24 14.02 -24 12.04 -24 10 C-23.67 10.66 -23.34 11.32 -23 12 C-21.312 11.084 -19.625 10.167 -17.938 9.25 C-16.933 8.706 -15.929 8.162 -14.895 7.602 C-12.595 6.329 -10.361 5.003 -8.125 3.625 C-5.027 2.014 -3.42 1.585 0 2 C0 1.34 0 0.68 0 0 Z " fill="#A4A4A4" transform="translate(166,91)"/>
<path d="M0 0 C5.705 2.204 10.789 5.162 16.043 8.281 C19.625 10.363 23.268 12.206 27 14 C27 15.98 27 17.96 27 20 C21.413 16.316 15.905 12.537 10.441 8.672 C7.503 6.66 4.48 4.827 1.398 3.043 C0.937 2.699 0.475 2.355 0 2 C0 1.34 0 0.68 0 0 Z " fill="#ADADAD" transform="translate(322,69)"/>
<path d="M0 0 C3.601 1.437 6.645 3.23 9.914 5.312 C16.801 9.679 16.801 9.679 20.289 11.312 C19.959 11.972 19.629 12.633 19.289 13.312 C11.369 9.682 3.449 6.053 -4.711 2.312 C-4.711 1.653 -4.711 0.992 -4.711 0.312 C-2.711 -0.688 -2.711 -0.688 0 0 Z " fill="#B9B9B8" transform="translate(266.7109375,36.6875)"/>
<path d="M0 0 C2.374 0.95 4.748 1.9 7.121 2.852 C9.006 3.604 10.894 4.349 12.785 5.086 C13.66 5.429 14.536 5.772 15.438 6.125 C16.241 6.437 17.044 6.749 17.871 7.07 C20 8 20 8 23 10 C23 10.66 23 11.32 23 12 C23.66 12.33 24.32 12.66 25 13 C20.286 12.317 16.254 10.54 11.938 8.625 C11.23 8.321 10.523 8.017 9.795 7.703 C2.852 4.652 2.852 4.652 0 2 C0 1.34 0 0.68 0 0 Z " fill="#ADADAD" transform="translate(100,195)"/>
<path d="M0 0 C0 0.66 0 1.32 0 2 C-7.791 6.592 -15.87 11.039 -25 12 C-22.773 9.537 -20.648 8.159 -17.656 6.738 C-16.822 6.342 -15.988 5.946 -15.129 5.537 C-14.695 5.335 -14.695 5.335 -12.5 4.312 C-11.632 3.897 -10.765 3.481 -9.871 3.053 C-3.385 0 -3.385 0 0 0 Z " fill="#ABABAB" transform="translate(429,196)"/>
<path d="M0 0 C4.689 0.556 8.199 1.882 12.375 4.062 C13.435 4.61 14.494 5.158 15.586 5.723 C16.383 6.144 17.179 6.566 18 7 C18 7.99 18 8.98 18 10 C13.403 9.446 10.019 7.443 6.188 5 C5.59 4.631 4.993 4.263 4.377 3.883 C2.896 2.956 1.445 1.982 0 1 C0 0.67 0 0.34 0 0 Z " fill="#A1A1A1" transform="translate(370,97)"/>
<path d="M0 0 C0 0.99 0 1.98 0 3 C-0.66 3 -1.32 3 -2 3 C-2 3.66 -2 4.32 -2 5 C-3.863 6.438 -3.863 6.438 -6.312 8 C-6.713 8.258 -6.713 8.258 -8.738 9.562 C-9.485 10.037 -10.231 10.511 -11 11 C-11.99 11.66 -12.98 12.32 -14 13 C-13.637 10.204 -13.139 9.134 -11.074 7.148 C-10.287 6.563 -9.499 5.978 -8.688 5.375 C-7.908 4.785 -7.128 4.194 -6.324 3.586 C-4.266 2.182 -2.258 1.044 0 0 Z " fill="#A3A3A2" transform="translate(198,74)"/>
<path d="M0 0 C13.483 5.337 13.483 5.337 16.23 10.16 C16.484 10.767 16.738 11.374 17 12 C13.452 10.696 10.487 9.139 7.375 7 C6.62 6.484 5.864 5.969 5.086 5.438 C4.398 4.963 3.709 4.489 3 4 C2.01 3.34 1.02 2.68 0 2 C0 1.34 0 0.68 0 0 Z " fill="#A5A5A4" transform="translate(322,69)"/>
<path d="M0 0 C11.488 0.848 11.488 0.848 15 3 C15.33 4.32 15.66 5.64 16 7 C10.72 5.02 5.44 3.04 0 1 C0 0.67 0 0.34 0 0 Z " fill="#8F8F8F" transform="translate(306,64)"/>
<path d="M0 0 C5.07 0.654 9.42 2.855 14 5 C13.67 5.99 13.34 6.98 13 8 C8.276 6.376 4.058 3.89 0 1 C0 0.67 0 0.34 0 0 Z " fill="#C1C2C1" transform="translate(201,297)"/>
<path d="M0 0 C-2.97 1.65 -5.94 3.3 -9 5 C-9 4.34 -9 3.68 -9 3 C-9.66 2.67 -10.32 2.34 -11 2 C-4.5 -1.125 -4.5 -1.125 0 0 Z " fill="#BDBDBD" transform="translate(324,301)"/>
</svg>
