<?xml version="1.0" encoding="UTF-8"?>
<!-- Generator: visioncortex VTracer 0.6.5 -->
<svg version="1.1" xmlns="http://www.w3.org/2000/svg" width="512" height="443">
<path d="M0 0 C1.01 0.002 2.021 0.004 3.062 0.007 C3.632 0.007 3.632 0.007 6.52 0.007 C7.761 0.012 9.003 0.017 10.282 0.023 C10.914 0.023 10.914 0.023 14.112 0.027 C17.477 0.032 20.842 0.041 24.208 0.052 C27.639 0.062 31.071 0.066 34.503 0.071 C41.241 0.082 47.978 0.099 54.716 0.12 C55.48 6.218 55.86 12.145 55.843 18.286 C55.844 19.165 55.846 20.044 55.848 20.949 C55.851 23.874 55.848 26.798 55.845 29.723 C55.847 31.832 55.848 33.942 55.851 36.052 C55.855 41.792 55.853 47.533 55.85 53.273 C55.848 59.373 55.85 65.472 55.852 71.572 C55.853 81.895 55.851 92.219 55.846 102.542 C55.841 112.958 55.841 123.374 55.846 133.79 C55.869 183.923 55.87 234.054 55.302 284.184 C55.271 286.962 55.241 289.741 55.212 292.52 C55.166 296.772 55.115 301.023 55.058 305.275 C55.038 306.812 55.02 308.349 55.003 309.886 C54.98 311.953 54.95 314.021 54.919 316.088 C54.904 317.238 54.889 318.388 54.873 319.572 C54.716 322.12 54.716 322.12 53.716 323.12 C51.972 323.219 50.224 323.248 48.478 323.25 C47.36 323.253 46.242 323.256 45.09 323.259 C43.873 323.257 42.657 323.255 41.403 323.253 C40.164 323.254 38.925 323.255 37.648 323.256 C35.022 323.257 32.396 323.255 29.77 323.251 C26.397 323.245 23.024 323.248 19.651 323.254 C16.443 323.259 13.236 323.256 10.028 323.253 C8.812 323.255 7.595 323.257 6.342 323.259 C5.224 323.256 4.106 323.253 2.954 323.25 C1.964 323.249 0.975 323.248 -0.045 323.247 C-2.284 323.12 -2.284 323.12 -3.284 322.12 C-3.678 317.841 -3.717 313.532 -3.838 309.236 C-3.859 308.529 -3.88 307.821 -3.902 307.092 C-4.576 283.569 -4.431 260.028 -4.419 236.497 C-4.417 231.599 -4.417 226.701 -4.418 221.803 C-4.418 221.097 -4.418 220.391 -4.418 219.664 C-4.419 218.228 -4.419 216.793 -4.419 215.357 C-4.422 202.005 -4.419 188.652 -4.414 175.299 C-4.409 163.917 -4.41 152.534 -4.415 141.152 C-4.42 127.83 -4.422 114.508 -4.419 101.186 C-4.419 99.758 -4.418 98.33 -4.418 96.902 C-4.418 96.2 -4.418 95.498 -4.418 94.774 C-4.417 89.897 -4.418 85.02 -4.42 80.144 C-4.424 73.547 -4.421 66.951 -4.416 60.355 C-4.414 57.961 -4.415 55.567 -4.417 53.173 C-4.428 40.116 -4.258 27.074 -3.839 14.024 C-3.8 12.751 -3.761 11.479 -3.721 10.168 C-3.68 9 -3.639 7.832 -3.596 6.628 C-3.578 6.108 -3.578 6.108 -3.487 3.475 C-3.218 0.355 -3.129 0.165 0 0 Z " fill="#CFCFCF" transform="translate(346.28419494628906,59.87974548339844)"/>
<path d="M0 0 C2.36 -0.367 2.36 -0.367 5.352 -0.356 C5.911 -0.358 5.911 -0.358 8.739 -0.366 C9.951 -0.353 11.162 -0.341 12.41 -0.328 C13.648 -0.326 14.886 -0.324 16.161 -0.322 C19.454 -0.314 22.746 -0.292 26.039 -0.264 C29.393 -0.241 32.748 -0.239 36.104 -0.234 C38.643 -0.225 41.183 -0.215 43.723 -0.203 C44.936 -0.199 46.15 -0.195 47.4 -0.19 C47.957 -0.185 47.957 -0.185 50.778 -0.161 C51.764 -0.154 52.751 -0.147 53.767 -0.14 C56 0 56 0 57 1 C57.246 3.861 57.424 6.698 57.554 9.565 C57.575 10.012 57.575 10.012 57.682 12.276 C58.151 23.17 58.14 34.062 58.129 44.964 C58.131 47.3 58.133 49.635 58.135 51.971 C58.139 58.267 58.138 64.562 58.134 70.858 C58.132 76.844 58.134 82.83 58.135 88.816 C58.138 101.439 58.135 114.063 58.129 126.686 C58.125 137.381 58.126 148.076 58.13 158.771 C58.136 171.302 58.138 183.832 58.135 196.362 C58.134 197.718 58.134 199.073 58.134 200.429 C58.134 200.762 58.134 200.762 58.133 202.448 C58.133 207.009 58.134 211.571 58.136 216.132 C58.152 251.771 57.72 287.368 57 323 C37.86 323 18.72 323 -1 323 C-1.695 318.83 -2.126 315.493 -2.129 311.366 C-2.132 310.262 -2.135 309.158 -2.138 308.021 C-2.137 306.819 -2.135 305.617 -2.134 304.378 C-2.136 303.093 -2.138 301.808 -2.141 300.483 C-2.147 296.923 -2.147 293.362 -2.145 289.801 C-2.145 285.959 -2.151 282.116 -2.155 278.274 C-2.164 270.749 -2.166 263.225 -2.167 255.701 C-2.168 249.588 -2.17 243.475 -2.173 237.362 C-2.182 220.037 -2.186 202.712 -2.185 185.386 C-2.185 184.453 -2.185 183.519 -2.185 182.557 C-2.185 181.622 -2.185 180.687 -2.185 179.724 C-2.185 164.556 -2.194 149.388 -2.208 134.22 C-2.223 118.651 -2.23 103.083 -2.229 87.515 C-2.229 78.771 -2.231 70.028 -2.242 61.285 C-2.251 53.846 -2.253 46.406 -2.247 38.966 C-2.243 35.168 -2.243 31.371 -2.252 27.573 C-2.261 23.462 -2.255 19.352 -2.247 15.241 C-2.252 14.032 -2.258 12.823 -2.263 11.578 C-2.258 10.482 -2.254 9.386 -2.249 8.256 C-2.249 7.307 -2.249 6.357 -2.25 5.379 C-2 3 -2 3 0 0 Z " fill="#CFCFCF" transform="translate(112,60)"/>
<path d="M0 0 C0.025 4.112 0.043 8.223 0.055 12.335 C0.06 13.735 0.067 15.135 0.075 16.534 C0.088 18.542 0.093 20.551 0.098 22.559 C0.103 23.768 0.108 24.978 0.114 26.224 C0 29 0 29 -1 30 C-9.25 30 -17.5 30 -26 30 C-25.67 47.16 -25.34 64.32 -25 82 C-31.752 83.125 -31.752 83.125 -35.154 83.129 C-35.532 83.131 -35.532 83.131 -37.448 83.139 C-38.245 83.137 -39.042 83.135 -39.863 83.133 C-40.696 83.134 -41.528 83.135 -42.386 83.136 C-44.135 83.136 -45.884 83.135 -47.633 83.13 C-50.321 83.125 -53.009 83.13 -55.697 83.137 C-57.398 83.136 -59.1 83.135 -60.801 83.133 C-61.608 83.135 -62.415 83.137 -63.247 83.139 C-68.885 83.115 -68.885 83.115 -70 82 C-72.554 65.067 -71.444 46.999 -70 30 C-70.752 30.005 -71.504 30.01 -72.279 30.016 C-75.665 30.037 -79.051 30.05 -82.438 30.062 C-83.03 30.067 -83.03 30.067 -86.025 30.088 C-87.15 30.091 -88.275 30.094 -89.434 30.098 C-89.955 30.1 -89.955 30.1 -92.592 30.114 C-95 30 -95 30 -96 29 C-96.1 26.939 -96.131 24.875 -96.133 22.812 C-96.134 21.557 -96.135 20.301 -96.137 19.008 C-96.135 18.351 -96.133 17.694 -96.13 17.017 C-96.125 15.008 -96.13 13 -96.137 10.992 C-96.135 9.737 -96.134 8.481 -96.133 7.188 C-96.132 6.607 -96.132 6.607 -96.129 3.668 C-96 1 -96 1 -95 0 C-93.458 -0.128 -91.911 -0.188 -90.365 -0.221 C-89.368 -0.244 -88.372 -0.267 -87.345 -0.291 C-86.797 -0.301 -86.797 -0.301 -84.023 -0.352 C-83.455 -0.363 -83.455 -0.363 -80.577 -0.423 C-76.843 -0.497 -73.109 -0.562 -69.375 -0.625 C-68.114 -0.648 -66.854 -0.671 -65.555 -0.694 C-43.676 -1.079 -21.864 -0.875 0 0 Z " fill="#C8C8C8" transform="translate(304,214)"/>
<path d="M0 0 C7.53 -0.025 15.059 -0.043 22.589 -0.055 C25.153 -0.06 27.717 -0.067 30.281 -0.075 C33.957 -0.088 37.633 -0.093 41.309 -0.098 C42.463 -0.103 43.617 -0.108 44.806 -0.113 C45.337 -0.113 45.337 -0.113 48.021 -0.114 C48.961 -0.116 49.9 -0.118 50.868 -0.12 C53 0 53 0 54 1 C54.093 2.657 54.117 4.319 54.114 5.979 C54.113 7.04 54.113 8.101 54.113 9.194 C54.108 10.348 54.103 11.502 54.098 12.691 C54.096 13.866 54.095 15.041 54.093 16.252 C54.088 20.022 54.075 23.792 54.062 27.562 C54.057 30.111 54.053 32.66 54.049 35.209 C54.038 41.473 54.021 47.736 54 54 C50.944 54.891 48.227 55.122 45.048 55.114 C44.067 55.113 43.086 55.113 42.076 55.113 C41.025 55.108 39.974 55.103 38.891 55.098 C37.809 55.096 36.727 55.095 35.612 55.093 C32.158 55.088 28.704 55.075 25.25 55.062 C22.908 55.057 20.565 55.053 18.223 55.049 C12.482 55.038 6.741 55.021 1 55 C-0.806 51.897 -1.249 49.654 -1.243 46.08 C-1.246 45.105 -1.249 44.131 -1.252 43.127 C-1.245 42.082 -1.238 41.037 -1.23 39.961 C-1.23 38.884 -1.23 37.807 -1.229 36.697 C-1.226 34.422 -1.218 32.148 -1.206 29.873 C-1.188 26.381 -1.185 22.89 -1.186 19.398 C-1.181 17.19 -1.175 14.982 -1.168 12.773 C-1.167 11.724 -1.166 10.676 -1.165 9.595 C-1.158 8.627 -1.152 7.659 -1.145 6.662 C-1.141 5.808 -1.138 4.954 -1.134 4.074 C-1 2 -1 2 0 0 Z " fill="#C7C7C7" transform="translate(42,185)"/>
<path d="M0 0 C17.82 0 35.64 0 54 0 C54.655 6.554 55.15 12.792 55.133 19.332 C55.134 20.172 55.135 21.011 55.136 21.876 C55.136 23.632 55.135 25.387 55.13 27.142 C55.125 29.823 55.13 32.504 55.137 35.186 C55.136 36.901 55.135 38.617 55.133 40.332 C55.135 41.128 55.137 41.924 55.139 42.744 C55.123 46.619 54.946 50.233 54 54 C48.38 55.19 42.882 55.144 37.168 55.133 C36.136 55.134 35.103 55.135 34.04 55.136 C31.867 55.136 29.694 55.135 27.522 55.13 C24.182 55.125 20.842 55.13 17.502 55.137 C15.391 55.136 13.279 55.135 11.168 55.133 C10.164 55.135 9.16 55.137 8.125 55.139 C7.665 55.137 7.665 55.137 5.333 55.129 C4.518 55.129 3.703 55.128 2.864 55.127 C1 55 1 55 0 54 C-0.094 52.312 -0.117 50.62 -0.114 48.929 C-0.113 47.833 -0.113 46.737 -0.113 45.608 C-0.108 44.447 -0.103 43.286 -0.098 42.09 C-0.097 41.56 -0.097 41.56 -0.095 38.876 C-0.089 34.897 -0.075 30.917 -0.062 26.938 C-0.042 18.048 -0.021 9.159 0 0 Z " fill="#C7C7C7" transform="translate(416,185)"/>
<path d="M0 0 C7.14 4.018 10.933 9.896 13.5 17.562 C14.631 27.719 12.982 35.322 6.75 43.375 C2.477 48.061 -3.785 51.276 -10.137 51.766 C-19.656 51.912 -25.901 50.647 -32.965 44.098 C-38.988 38.074 -40.571 32.956 -40.812 24.625 C-40.619 15.982 -38.281 10.659 -32.406 4.324 C-23.478 -3.927 -10.899 -4.938 0 0 Z " fill="#C8C8C8" transform="translate(269.5,94.4375)"/>
<path d="M0 0 C11.172 -0.023 22.345 -0.041 33.517 -0.052 C38.708 -0.057 43.898 -0.064 49.089 -0.075 C70.757 -0.122 92.355 -0.116 114 1 C114 7.6 114 14.2 114 21 C103.317 22.256 92.673 22.145 81.934 22.133 C79.888 22.133 77.843 22.134 75.797 22.136 C71.527 22.137 67.256 22.135 62.986 22.13 C57.533 22.125 52.081 22.128 46.628 22.134 C42.41 22.138 38.192 22.136 33.973 22.134 C31.964 22.133 29.954 22.134 27.944 22.136 C25.129 22.139 22.313 22.135 19.498 22.129 C19.09 22.13 19.09 22.13 17.024 22.136 C11.3 22.115 5.684 21.657 0 21 C-0.958 18.125 -1.067 16.71 -0.879 13.77 C-0.831 12.967 -0.782 12.165 -0.732 11.338 C-0.676 10.505 -0.62 9.671 -0.562 8.812 C-0.536 8.39 -0.536 8.39 -0.404 6.252 C-0.275 4.168 -0.138 2.084 0 0 Z " fill="#CBCBCB" transform="translate(199,61)"/>
<path d="M0 0 C1.159 0.052 2.318 0.104 3.512 0.158 C6.3 0.285 9.088 0.42 11.875 0.562 C12.506 10.521 12.978 20.457 13 30.438 C13.005 31.274 13.009 32.111 13.014 32.974 C13.012 33.764 13.01 34.553 13.008 35.367 C13.007 36.058 13.006 36.749 13.004 37.46 C12.855 39.892 12.397 42.185 11.875 44.562 C5.769 44.587 -0.336 44.605 -6.442 44.617 C-8.52 44.622 -10.599 44.629 -12.678 44.638 C-15.659 44.65 -18.64 44.656 -21.621 44.66 C-22.089 44.663 -22.089 44.663 -24.456 44.676 C-24.886 44.676 -24.886 44.676 -27.064 44.676 C-27.826 44.678 -28.588 44.68 -29.372 44.683 C-31.125 44.562 -31.125 44.562 -32.125 43.562 C-32.218 42.212 -32.242 40.856 -32.239 39.502 C-32.238 38.641 -32.238 37.78 -32.238 36.893 C-32.233 35.958 -32.228 35.022 -32.223 34.059 C-32.222 33.582 -32.222 33.582 -32.218 31.171 C-32.213 28.114 -32.2 25.057 -32.188 22 C-32.182 19.933 -32.178 17.866 -32.174 15.799 C-32.163 10.72 -32.146 5.641 -32.125 0.562 C-21.362 -0.17 -10.789 -0.555 0 0 Z " fill="#C9C9C9" transform="translate(88.125,111.4375)"/>
<path d="M0 0 C5.345 3.854 9.343 8.348 10.688 14.938 C11.263 20.982 10.594 25.077 6.688 29.938 C1.883 34.786 -1.651 37.072 -8.625 37.188 C-14.812 37.114 -18.246 35.667 -23 31.688 C-27.034 26.89 -28.875 22.143 -28.598 15.918 C-27.728 9.877 -24.904 5.782 -20.312 1.938 C-14.204 -2.28 -6.905 -2.215 0 0 Z " fill="#C9C9C9" transform="translate(433.3125,288.0625)"/>
<path d="M0 0 C1.01 0.002 2.021 0.004 3.062 0.007 C3.632 0.007 3.632 0.007 6.52 0.007 C7.761 0.012 9.003 0.017 10.282 0.023 C10.914 0.023 10.914 0.023 14.112 0.027 C17.477 0.032 20.842 0.041 24.208 0.052 C27.639 0.062 31.071 0.066 34.503 0.071 C41.241 0.082 47.978 0.099 54.716 0.12 C54.915 1.473 55.1 2.827 55.278 4.183 C55.331 4.56 55.331 4.56 55.595 6.468 C55.716 9.12 55.716 9.12 54.716 16.12 C35.576 16.12 16.436 16.12 -3.284 16.12 C-3.284 0.173 -3.284 0.173 0 0 Z " fill="#A9A9A9" transform="translate(346.28419494628906,59.87974548339844)"/>
<path d="M0 0 C2.36 -0.367 2.36 -0.367 5.352 -0.356 C5.911 -0.358 5.911 -0.358 8.739 -0.366 C9.951 -0.353 11.162 -0.341 12.41 -0.328 C13.648 -0.326 14.886 -0.324 16.161 -0.322 C19.454 -0.314 22.746 -0.292 26.039 -0.264 C29.393 -0.241 32.748 -0.239 36.104 -0.234 C38.643 -0.225 41.183 -0.215 43.723 -0.203 C44.936 -0.199 46.15 -0.195 47.4 -0.19 C47.957 -0.185 47.957 -0.185 50.778 -0.161 C51.764 -0.154 52.751 -0.147 53.767 -0.14 C56 0 56 0 57 1 C57 5.95 57 10.9 57 16 C37.86 16 18.72 16 -1 16 C-2 3 -2 3 0 0 Z " fill="#A9A9A9" transform="translate(112,60)"/>
<path d="M0 0 C-2.894 3.026 -4.137 3.963 -8.478 4.147 C-10.005 4.162 -11.532 4.172 -13.058 4.177 C-13.891 4.184 -14.723 4.19 -15.581 4.197 C-18.343 4.217 -21.105 4.228 -23.867 4.238 C-24.809 4.242 -25.751 4.246 -26.722 4.251 C-31.706 4.271 -36.69 4.286 -41.674 4.295 C-46.828 4.306 -51.982 4.341 -57.136 4.38 C-61.094 4.406 -65.052 4.415 -69.011 4.418 C-70.911 4.423 -72.811 4.435 -74.711 4.453 C-77.369 4.478 -80.025 4.477 -82.683 4.47 C-83.47 4.483 -84.256 4.496 -85.067 4.509 C-88.736 4.474 -90.615 4.31 -93.52 1.971 C-93.764 1.645 -93.764 1.645 -95 0 C-63.299 -0.76 -31.692 -1.268 0 0 Z " fill="#A4A4A4" transform="translate(304,214)"/>
<path d="M0 0 C17.82 0 35.64 0 54 0 C52.803 3.591 52.329 4.262 49 6 C45.696 6.437 42.418 6.396 39.09 6.363 C38.126 6.364 37.162 6.364 36.169 6.365 C34.134 6.362 32.099 6.353 30.064 6.336 C26.946 6.313 23.828 6.316 20.709 6.322 C18.732 6.317 16.755 6.31 14.777 6.301 C13.843 6.302 12.909 6.303 11.946 6.304 C11.512 6.299 11.512 6.299 9.316 6.275 C8.553 6.27 7.79 6.265 7.004 6.261 C5 6 5 6 2 4 C2.005 4.639 2.01 5.278 2.016 5.937 C2.037 8.895 2.05 11.854 2.062 14.812 C2.071 15.817 2.079 16.822 2.088 17.857 C2.11 24.629 1.737 31.269 1 38 C0.67 38 0.34 38 0 38 C0 25.46 0 12.92 0 0 Z " fill="#A3A2A3" transform="translate(416,185)"/>
<path d="M0 0 C17.49 0 34.98 0 53 0 C53.165 0.33 53.165 0.33 54 2 C50.985 5.163 48.725 6.283 44.457 6.502 C42.647 6.521 40.837 6.518 39.027 6.496 C38.547 6.497 38.547 6.497 36.118 6.501 C34.093 6.499 32.068 6.487 30.044 6.467 C26.945 6.438 23.847 6.446 20.748 6.459 C18.779 6.453 16.809 6.444 14.84 6.434 C13.914 6.437 12.988 6.439 12.033 6.442 C4.274 6.329 4.274 6.329 1 3 C0.34 2.67 -0.32 2.34 -1 2 C-0.67 1.34 -0.34 0.68 0 0 Z " fill="#A6A6A6" transform="translate(42,185)"/>
<path d="M0 0 C0.631 9.959 1.103 19.895 1.125 29.875 C1.13 30.712 1.134 31.549 1.139 32.411 C1.129 36.407 0.995 40.101 0 44 C-0.33 44 -0.66 44 -1 44 C-1.33 30.47 -1.66 16.94 -2 3 C-2.66 3 -3.32 3 -4 3 C-4 3.66 -4 4.32 -4 5 C-8.911 5.124 -13.821 5.214 -18.734 5.275 C-20.404 5.3 -22.075 5.334 -23.745 5.377 C-26.148 5.438 -28.549 5.466 -30.953 5.488 C-31.698 5.514 -32.443 5.54 -33.211 5.566 C-35.333 5.568 -35.333 5.568 -39 5 C-41.503 2.469 -41.503 2.469 -43 0 C-28.617 -1.302 -14.407 -0.733 0 0 Z " fill="#A4A4A3" transform="translate(100,112)"/>
<path d="M0 0 C2.461 1.508 2.461 1.508 5 4 C5.498 6.828 5.68 9.048 5.629 11.871 C5.631 12.63 5.634 13.39 5.636 14.172 C5.635 15.775 5.622 17.378 5.597 18.981 C5.563 21.426 5.576 23.869 5.596 26.314 C5.589 27.875 5.579 29.436 5.566 30.996 C5.571 31.723 5.576 32.451 5.581 33.2 C5.469 38.064 4.401 40.538 1 44 C0 43 0 43 -0.12 41.247 C-0.118 40.486 -0.116 39.724 -0.114 38.939 C-0.113 38.078 -0.113 37.218 -0.113 36.331 C-0.108 35.395 -0.103 34.46 -0.098 33.496 C-0.097 33.02 -0.097 33.02 -0.093 30.608 C-0.088 27.551 -0.075 24.494 -0.062 21.438 C-0.057 19.37 -0.053 17.303 -0.049 15.236 C-0.038 10.158 -0.021 5.079 0 0 Z " fill="#BABABA" transform="translate(56,112)"/>
<path d="M0 0 C5.002 3.606 8.873 7.949 10.688 13.938 C9.368 13.938 8.048 13.938 6.688 13.938 C5.612 11.285 4.593 8.654 3.688 5.938 C1.938 4.875 1.938 4.875 -0.312 3.938 C-1.076 3.566 -1.839 3.195 -2.625 2.812 C-7.604 1.191 -11.732 1.435 -16.5 3.5 C-19.754 5.326 -22.004 7.295 -23.695 10.73 C-24.984 15.338 -24.929 20.217 -24.312 24.938 C-23.652 25.598 -22.993 26.257 -22.312 26.938 C-21.688 29.562 -21.688 29.562 -21.312 31.938 C-21.973 31.938 -22.632 31.938 -23.312 31.938 C-26.896 25.811 -29.053 21.252 -28.312 13.938 C-26.252 7.54 -23.169 3.91 -17.688 0.125 C-11.798 -1.947 -5.937 -1.904 0 0 Z " fill="#A5A6A5" transform="translate(433.3125,288.0625)"/>
<path d="M0 0 C0.866 0.495 1.733 0.99 2.625 1.5 C1.965 2.16 1.305 2.82 0.625 3.5 C-0.983 3.295 -2.589 3.078 -4.188 2.809 C-12.286 1.666 -18.395 2.144 -25.375 6.5 C-25.705 6.665 -25.705 6.665 -27.375 7.5 C-27.705 6.18 -28.035 4.86 -28.375 3.5 C-19.726 -1.559 -9.775 -4.264 0 0 Z " fill="#AAAAAA" transform="translate(267.375,93.5)"/>
<path d="M0 0 C4.552 3.079 7.446 7.248 9.125 12.438 C7.805 12.438 6.485 12.438 5.125 12.438 C4.05 9.785 3.03 7.154 2.125 4.438 C0.25 3.375 0.25 3.375 -1.875 2.438 C-2.865 1.777 -3.855 1.118 -4.875 0.438 C-1.875 -0.562 -1.875 -0.562 0 0 Z " fill="#ACACAC" transform="translate(434.875,289.5625)"/>
<path d="M0 0 C9.595 0.595 9.595 0.595 13 4 C7.585 5.231 7.585 5.231 4.625 4.062 C4.089 3.712 3.553 3.361 3 3 C3 2.34 3 1.68 3 1 C2.01 0.67 1.02 0.34 0 0 Z " fill="#A6A6A6" transform="translate(257,92)"/>
<path d="M0 0 C-0.557 0.268 -1.114 0.536 -1.688 0.812 C-4.197 2.101 -6.593 3.529 -9 5 C-9.33 3.68 -9.66 2.36 -10 1 C-6.218 -0.837 -4.054 -1.158 0 0 Z " fill="#B2B2B2" transform="translate(249,96)"/>
</svg>
