<?xml version="1.0" encoding="UTF-8"?>
<!-- Generator: visioncortex VTracer 0.6.5 -->
<svg version="1.1" xmlns="http://www.w3.org/2000/svg" width="512" height="443">
<path d="M0 0 C0.892 7.354 1.147 14.597 1.133 22 C1.134 23.116 1.135 24.233 1.136 25.383 C1.136 27.729 1.135 30.076 1.13 32.422 C1.125 35.99 1.13 39.557 1.137 43.125 C1.136 45.417 1.135 47.708 1.133 50 C1.135 51.054 1.137 52.109 1.139 53.195 C1.137 53.699 1.137 53.699 1.129 56.25 C1.129 57.121 1.128 57.993 1.127 58.891 C0.948 63.273 0.436 67.636 0 72 C-11.55 72 -23.1 72 -35 72 C-36.503 66.741 -37.25 63.823 -37.243 58.669 C-37.246 57.461 -37.249 56.254 -37.252 55.009 C-37.245 53.723 -37.238 52.438 -37.23 51.113 C-37.229 49.765 -37.229 48.417 -37.229 47.069 C-37.228 44.256 -37.219 41.443 -37.206 38.63 C-37.189 35.028 -37.185 31.427 -37.186 27.826 C-37.185 25.047 -37.18 22.269 -37.173 19.49 C-37.168 17.518 -37.166 15.546 -37.165 13.574 C-37.161 12.975 -37.161 12.975 -37.145 9.943 C-37.141 8.889 -37.138 7.835 -37.134 6.75 C-37.016 4.334 -36.695 2.306 -36 0 C-7.618 -1.647 -7.618 -1.647 0 0 Z " fill="#F0614E" transform="translate(274,186)"/>
<path d="M0 0 C0.892 7.354 1.147 14.597 1.133 22 C1.134 23.116 1.135 24.233 1.136 25.383 C1.136 27.729 1.135 30.076 1.13 32.422 C1.125 35.99 1.13 39.557 1.137 43.125 C1.136 45.417 1.135 47.708 1.133 50 C1.135 51.054 1.137 52.109 1.139 53.195 C1.137 53.699 1.137 53.699 1.129 56.25 C1.129 57.121 1.128 57.993 1.127 58.891 C0.948 63.273 0.436 67.636 0 72 C-11.55 72 -23.1 72 -35 72 C-36.503 66.741 -37.25 63.823 -37.243 58.669 C-37.246 57.461 -37.249 56.254 -37.252 55.009 C-37.245 53.723 -37.238 52.438 -37.23 51.113 C-37.229 49.765 -37.229 48.417 -37.229 47.069 C-37.228 44.256 -37.219 41.443 -37.206 38.63 C-37.189 35.028 -37.185 31.427 -37.186 27.826 C-37.185 25.047 -37.18 22.269 -37.173 19.49 C-37.168 17.518 -37.166 15.546 -37.165 13.574 C-37.161 12.975 -37.161 12.975 -37.145 9.943 C-37.141 8.889 -37.138 7.835 -37.134 6.75 C-37.016 4.334 -36.695 2.306 -36 0 C-7.618 -1.647 -7.618 -1.647 0 0 Z M-32 8 C-32 26.48 -32 44.96 -32 64 C-22.76 64 -13.52 64 -4 64 C-4 45.52 -4 27.04 -4 8 C-13.24 8 -22.48 8 -32 8 Z " fill="#E0442C" transform="translate(274,186)"/>
<path d="M0 0 C0.892 7.354 1.147 14.597 1.133 22 C1.134 23.116 1.135 24.233 1.136 25.383 C1.136 27.729 1.135 30.076 1.13 32.422 C1.125 35.99 1.13 39.557 1.137 43.125 C1.136 45.417 1.135 47.708 1.133 50 C1.135 51.054 1.137 52.109 1.139 53.195 C1.119 59.523 0.762 65.718 0 72 C-0.33 72 -0.66 72 -1 72 C-1.33 49.56 -1.66 27.12 -2 4 C-2.66 4.99 -3.32 5.98 -4 7 C-6.889 7.341 -6.889 7.341 -10.539 7.293 C-11.19 7.288 -11.19 7.288 -14.484 7.264 C-15.865 7.239 -17.245 7.213 -18.625 7.188 C-20.013 7.172 -21.401 7.159 -22.789 7.146 C-26.193 7.111 -29.596 7.062 -33 7 C-33.33 6.01 -33.66 5.02 -34 4 C-34.33 25.45 -34.66 46.9 -35 69 C-37.022 64.956 -37.249 63.379 -37.243 59.01 C-37.244 58.406 -37.244 58.406 -37.252 55.349 C-37.245 54.048 -37.238 52.747 -37.23 51.406 C-37.229 50.054 -37.229 48.702 -37.229 47.349 C-37.228 44.518 -37.219 41.687 -37.206 38.856 C-37.189 35.231 -37.185 31.606 -37.186 27.982 C-37.185 25.19 -37.18 22.398 -37.173 19.607 C-37.168 17.622 -37.166 15.636 -37.165 13.651 C-37.158 12.443 -37.152 11.235 -37.145 9.99 C-37.141 8.928 -37.138 7.865 -37.134 6.77 C-37.017 4.345 -36.699 2.314 -36 0 C-7.618 -1.647 -7.618 -1.647 0 0 Z " fill="#BF1E02" transform="translate(274,186)"/>
<path d="M0 0 C1.24 -0.001 2.48 -0.001 3.758 -0.002 C5.055 0.018 6.351 0.038 7.688 0.059 C8.984 0.052 10.281 0.044 11.617 0.037 C21.051 0.101 21.051 0.101 23.645 1.711 C24.688 3.496 24.688 3.496 23.688 8.496 C12.798 8.496 1.907 8.496 -9.312 8.496 C-9.312 4.496 -9.312 4.496 -8.207 2.277 C-5.509 -0.259 -3.661 -0.006 0 0 Z " fill="#E7503B" transform="translate(248.3125,249.50390625)"/>
<path d="M0 0 C0.33 0.165 0.33 0.165 2 1 C2 1.99 2 2.98 2 4 C6.95 3.835 6.95 3.835 32 3 C32 3.66 32 4.32 32 5 C22.43 5 12.86 5 3 5 C2.67 10.61 2.34 16.22 2 22 C0 20 0 20 -0.227 17.937 C-0.217 17.11 -0.206 16.282 -0.195 15.43 C-0.189 14.534 -0.182 13.638 -0.176 12.715 C-0.159 11.778 -0.142 10.841 -0.125 9.875 C-0.116 8.93 -0.107 7.985 -0.098 7.012 C-0.074 4.674 -0.041 2.337 0 0 Z " fill="#DA3A20" transform="translate(239,189)"/>
</svg>
