<?xml version="1.0" encoding="UTF-8"?>
<!-- Generator: visioncortex VTracer 0.6.5 -->
<svg version="1.1" xmlns="http://www.w3.org/2000/svg" width="512" height="443">
<path d="M0 0 C1.186 0.024 2.372 0.047 3.593 0.072 C7.353 0.148 11.112 0.232 14.871 0.316 C17.432 0.37 19.992 0.422 22.553 0.475 C28.805 0.603 35.057 0.738 41.309 0.879 C41.309 3.849 41.309 6.819 41.309 9.879 C42.53 9.843 43.751 9.808 45.009 9.771 C49.541 9.641 54.073 9.518 58.606 9.397 C60.567 9.343 62.529 9.288 64.49 9.231 C67.309 9.149 70.129 9.074 72.949 9 C73.825 8.973 74.702 8.946 75.604 8.918 C76.425 8.898 77.245 8.878 78.091 8.857 C78.81 8.837 79.53 8.817 80.271 8.797 C82.407 8.883 84.258 9.29 86.309 9.879 C87.587 16.91 88.591 25.03 86.309 31.879 C84.312 33.633 84.312 33.633 81.871 35.441 C79.535 37.185 77.371 38.816 75.309 40.879 C74.713 45.063 74.752 49.282 74.684 53.504 C74.626 54.668 74.568 55.832 74.508 57.031 C74.383 65.531 74.383 65.531 77.017 69.367 C79.023 71.363 81.103 73.11 83.309 74.879 C84.439 76.105 85.548 77.352 86.621 78.629 C89.704 82.21 92.865 85.709 96.059 89.191 C96.295 89.449 96.295 89.449 97.49 90.755 C101.148 94.738 101.148 94.738 103.094 96.441 C104.772 98.427 104.81 100.003 104.996 102.566 C105.062 103.375 105.128 104.183 105.195 105.016 C105.214 105.323 105.214 105.323 105.309 106.879 C106.113 106.858 106.917 106.838 107.746 106.816 C110.309 106.879 110.309 106.879 111.309 107.879 C111.395 109.368 111.416 110.86 111.406 112.352 C111.403 113.251 111.4 114.15 111.396 115.076 C111.388 116.022 111.38 116.967 111.371 117.941 C111.367 118.891 111.362 119.84 111.357 120.818 C111.346 123.172 111.329 125.525 111.309 127.879 C108.999 127.879 106.689 127.879 104.309 127.879 C104.309 133.819 104.309 139.759 104.309 145.879 C105.299 145.549 106.289 145.219 107.309 144.879 C108.629 145.209 109.949 145.539 111.309 145.879 C111.309 152.479 111.309 159.079 111.309 165.879 C108.999 165.879 106.689 165.879 104.309 165.879 C104.639 171.489 104.969 177.099 105.309 182.879 C107.289 182.879 109.269 182.879 111.309 182.879 C111.503 185.816 111.69 188.753 111.871 191.691 C111.927 192.525 111.983 193.358 112.041 194.217 C112.089 195.019 112.138 195.822 112.188 196.648 C112.235 197.387 112.282 198.125 112.33 198.886 C112.309 200.879 112.309 200.879 111.309 203.879 C108.999 203.879 106.689 203.879 104.309 203.879 C104.412 205.178 104.515 206.478 104.621 207.816 C104.61 215.846 101.79 223.332 99.309 230.879 C99.188 231.245 99.188 231.245 98.58 233.101 C97.356 236.81 96.115 240.514 94.867 244.215 C93.174 249.254 91.544 254.313 89.934 259.379 C89.671 260.199 89.408 261.018 89.137 261.863 C87.309 267.642 87.309 267.642 87.309 269.879 C89.619 271.199 91.929 272.519 94.309 273.879 C90.598 281.269 86.277 287.996 81.55 294.762 C78.537 299.077 75.624 303.433 72.809 307.879 C67.853 315.69 62.586 323.283 57.309 330.879 C54.339 329.559 51.369 328.239 48.309 326.879 C46.987 327.997 45.666 329.115 44.345 330.233 C43.186 331.214 42.026 332.195 40.866 333.176 C37.792 335.775 34.721 338.378 31.656 340.988 C31.074 341.484 30.491 341.979 29.891 342.489 C28.772 343.441 27.654 344.394 26.536 345.349 C24.189 347.343 21.876 349.168 19.309 350.879 C18.876 353.034 18.876 353.034 18.797 355.668 C18.761 356.609 18.726 357.55 18.689 358.52 C18.667 359.504 18.644 360.489 18.621 361.504 C18.587 362.496 18.553 363.489 18.518 364.512 C18.435 366.967 18.366 369.423 18.309 371.879 C13.977 372.457 9.748 373.019 5.371 373.004 C4.62 373.006 3.868 373.009 3.094 373.012 C1.309 372.879 1.309 372.879 0.309 371.879 C0.261 370.398 0.272 368.915 0.309 367.434 C0.392 352.519 0.392 352.519 -2.477 348.176 C-4.797 346.472 -7.128 345.183 -9.691 343.879 C-11.06 342.775 -12.395 341.629 -13.691 340.441 C-14.333 339.873 -14.975 339.304 -15.637 338.719 C-17.133 337.379 -18.627 336.038 -20.121 334.695 C-20.928 333.972 -21.735 333.249 -22.566 332.504 C-23.306 331.836 -24.046 331.168 -24.809 330.48 C-26.691 328.879 -26.691 328.879 -28.691 327.879 C-28.691 327.219 -28.691 326.559 -28.691 325.879 C-31.991 327.529 -35.291 329.179 -38.691 330.879 C-40.03 328.924 -41.363 326.966 -42.691 325.004 C-43.434 323.913 -44.176 322.823 -44.941 321.699 C-46.691 318.879 -46.691 318.879 -46.691 316.879 C-47.351 316.879 -48.011 316.879 -48.691 316.879 C-50.174 314.7 -51.536 312.519 -52.879 310.254 C-57.844 302.065 -63.206 294.183 -68.688 286.332 C-69.308 285.436 -69.928 284.54 -70.566 283.617 C-71.121 282.824 -71.675 282.03 -72.246 281.212 C-73.718 278.836 -74.734 276.5 -75.691 273.879 C-74.536 273.219 -74.536 273.219 -68.691 269.879 C-72.278 256.122 -76.331 242.621 -80.916 229.166 C-86.267 213.384 -86.267 213.384 -86.691 205.879 C-86.526 205.549 -86.526 205.549 -85.691 203.879 C-88.001 203.879 -90.311 203.879 -92.691 203.879 C-92.691 197.279 -92.691 190.679 -92.691 183.879 C-91.701 183.549 -91.701 183.549 -86.691 181.879 C-86.361 176.599 -86.031 171.319 -85.691 165.879 C-87.341 166.209 -88.991 166.539 -90.691 166.879 C-91.351 166.549 -92.011 166.219 -92.691 165.879 C-92.691 158.949 -92.691 152.019 -92.691 144.879 C-90.381 145.209 -88.071 145.539 -85.691 145.879 C-85.691 139.939 -85.691 133.999 -85.691 127.879 C-86.681 128.209 -87.671 128.539 -88.691 128.879 C-90.011 128.549 -91.331 128.219 -92.691 127.879 C-92.691 121.279 -92.691 114.679 -92.691 107.879 C-88.691 106.879 -88.691 106.879 -85.691 107.879 C-85.836 106.58 -85.98 105.28 -86.129 103.941 C-86.158 97.73 -82.78 94.225 -78.691 89.879 C-77.995 89.133 -77.299 88.386 -76.582 87.617 C-74.691 85.879 -74.691 85.879 -72.691 85.879 C-72.423 85.301 -72.155 84.724 -71.879 84.129 C-70.662 81.823 -69.388 79.858 -67.691 77.879 C-67.031 77.879 -66.371 77.879 -65.691 77.879 C-65.435 77.28 -65.178 76.681 -64.914 76.063 C-63.58 73.679 -62.262 72.611 -60.137 70.93 C-55.993 66.884 -55.693 63.165 -55.517 57.527 C-55.534 56.385 -55.55 55.243 -55.566 54.066 C-55.57 52.889 -55.574 51.713 -55.578 50.5 C-55.966 40.879 -55.966 40.879 -59.133 37.586 C-61.109 36.13 -63.122 34.725 -65.172 33.375 C-69.32 29.265 -68.888 24.626 -68.982 19.031 C-68.946 15.75 -68.733 13.004 -67.691 9.879 C-61.98 9.038 -56.579 8.797 -50.816 9 C-50.006 9.024 -49.197 9.047 -48.362 9.072 C-45.805 9.147 -43.248 9.232 -40.691 9.316 C-38.945 9.37 -37.199 9.422 -35.453 9.475 C-31.199 9.603 -26.945 9.739 -22.691 9.879 C-22.712 8.58 -22.733 7.28 -22.754 5.941 C-22.775 4.587 -22.763 3.231 -22.691 1.879 C-18.594 -2.219 -5.378 -0.128 0 0 Z " fill="#C4C4C4" transform="translate(246.69140625,35.12109375)"/>
<path d="M0 0 C12.613 -0.023 25.225 -0.041 37.838 -0.052 C43.694 -0.057 49.55 -0.064 55.406 -0.075 C61.054 -0.086 66.701 -0.092 72.349 -0.095 C74.507 -0.097 76.666 -0.1 78.825 -0.106 C81.839 -0.113 84.854 -0.114 87.869 -0.114 C88.768 -0.117 89.668 -0.121 90.595 -0.124 C96.772 -0.114 96.772 -0.114 99 1 C99 1.66 99 2.32 99 3 C100.65 3.33 102.3 3.66 104 4 C104 4.66 104 5.32 104 6 C105.65 6.66 107.3 7.32 109 8 C109 8.33 109 8.66 109 9 C69.4 9 29.8 9 -11 9 C-8.656 7.242 -6.273 5.529 -3.812 3.938 C-1 2 -1 2 0 0 Z " fill="#A1A1A0" transform="translate(206,59)"/>
<path d="M0 0 C2.445 1.537 3.517 3.008 5.09 5.423 C5.37 5.849 5.37 5.849 6.789 8.004 C7.384 8.928 7.979 9.852 8.592 10.804 C9.216 11.757 9.84 12.709 10.482 13.69 C12.478 16.742 14.461 19.802 16.444 22.863 C17.771 24.898 19.099 26.932 20.428 28.966 C22.887 32.731 25.34 36.499 27.789 40.271 C30.846 44.972 33.947 49.642 37.069 54.3 C34.266 57.414 31.975 58.862 28.069 60.3 C26.73 58.346 25.397 56.387 24.069 54.425 C23.697 53.88 23.697 53.88 21.819 51.12 C20.069 48.3 20.069 48.3 20.069 46.3 C19.409 46.3 18.749 46.3 18.069 46.3 C16.586 44.121 15.224 41.94 13.881 39.675 C8.916 31.486 3.554 23.604 -1.928 15.753 C-2.548 14.857 -3.168 13.961 -3.806 13.038 C-4.361 12.245 -4.915 11.451 -5.486 10.633 C-6.958 8.257 -7.974 5.921 -8.931 3.3 C-2.499 -0.906 -2.499 -0.906 0 0 Z " fill="#B4B4B4" transform="translate(179.93130493164063,305.69981384277344)"/>
<path d="M0 0 C3.868 1.118 6.289 2.029 9 5 C3.57 13.831 -1.967 22.515 -7.926 31 C-9.815 33.733 -11.612 36.498 -13.375 39.312 C-18.012 46.701 -23.028 53.835 -28 61 C-30.97 59.35 -33.94 57.7 -37 56 C-33.426 49.356 -29.512 43.092 -25.273 36.855 C-24.644 35.923 -24.014 34.991 -23.366 34.031 C-22.045 32.076 -20.722 30.122 -19.397 28.169 C-17.371 25.181 -15.349 22.189 -13.328 19.197 C-12.039 17.291 -10.75 15.386 -9.461 13.48 C-8.858 12.589 -8.255 11.697 -7.633 10.778 C-7.069 9.947 -6.505 9.115 -5.923 8.259 C-5.43 7.531 -4.936 6.803 -4.428 6.053 C-2.998 3.998 -1.515 1.993 0 0 Z " fill="#B2B2B2" transform="translate(332,305)"/>
<path d="M0 0 C1.186 0.024 2.372 0.047 3.593 0.072 C7.353 0.148 11.112 0.232 14.871 0.316 C17.432 0.37 19.992 0.422 22.553 0.475 C28.805 0.603 35.057 0.738 41.309 0.879 C41.309 3.189 41.309 5.499 41.309 7.879 C20.189 7.879 -0.931 7.879 -22.691 7.879 C-22.691 1.879 -22.691 1.879 -21.691 0.879 C-14.425 -0.22 -7.333 -0.175 0 0 Z " fill="#CACACA" transform="translate(246.69140625,35.12109375)"/>
<path d="M0 0 C3.356 1.263 5.633 2.259 8 5 C11.433 3.794 13.504 2.615 16 0 C16.66 0 17.32 0 18 0 C18 6.6 18 13.2 18 20 C8.892 21.138 8.892 21.138 5.062 21.125 C4.687 21.126 4.687 21.126 2.785 21.133 C1 21 1 21 0 20 C-0.087 18.511 -0.107 17.019 -0.098 15.527 C-0.094 14.628 -0.091 13.729 -0.088 12.803 C-0.08 11.857 -0.071 10.912 -0.062 9.938 C-0.058 8.988 -0.053 8.039 -0.049 7.061 C-0.037 4.707 -0.021 2.354 0 0 Z " fill="#B2B2B2" transform="translate(247,387)"/>
<path d="M0 0 C21.12 0 42.24 0 64 0 C63.67 0.99 63.34 1.98 63 3 C42.54 3 22.08 3 1 3 C0.67 2.01 0.34 1.02 0 0 Z " fill="#A7A7A7" transform="translate(224,43)"/>
<path d="M0 0 C0.33 0.66 0.66 1.32 1 2 C2.324 2.685 3.659 3.349 5 4 C6.351 4.976 7.689 5.97 9 7 C7.552 10.444 5.723 12.361 2.875 14.75 C2.513 15.057 2.513 15.057 0.68 16.609 C0.125 17.068 -0.429 17.527 -1 18 C-4.923 16.175 -7.738 13.817 -11 11 C-9.522 7.329 -7.524 5.589 -4.375 3.25 C-3.558 2.636 -2.74 2.023 -1.898 1.391 C-1.585 1.161 -1.585 1.161 0 0 Z " fill="#A1A1A1" transform="translate(258,368)"/>
<path d="M0 0 C2.339 0.287 4.674 0.619 7 1 C7.029 4.146 7.047 7.292 7.062 10.438 C7.071 11.335 7.079 12.233 7.088 13.158 C7.091 14.012 7.094 14.866 7.098 15.746 C7.103 16.537 7.108 17.328 7.114 18.142 C7 20 7 20 6 21 C3.667 21.041 1.333 21.042 -1 21 C-1.029 17.688 -1.047 14.375 -1.062 11.062 C-1.071 10.117 -1.079 9.171 -1.088 8.197 C-1.091 7.298 -1.094 6.399 -1.098 5.473 C-1.103 4.64 -1.108 3.807 -1.114 2.949 C-1 1 -1 1 0 0 Z " fill="#A9A8A8" transform="translate(155,218)"/>
<path d="M0 0 C2.64 0.33 5.28 0.66 8 1 C8 7.27 8 13.54 8 20 C6.02 20.66 4.04 21.32 2 22 C1.34 21.67 0.68 21.34 0 21 C0 14.07 0 7.14 0 0 Z " fill="#A8A8A8" transform="translate(154,180)"/>
<path d="M0 0 C3 0.125 3 0.125 4 1.125 C4.087 2.614 4.107 4.106 4.098 5.598 C4.094 6.497 4.091 7.396 4.088 8.322 C4.08 9.268 4.071 10.213 4.062 11.188 C4.058 12.137 4.053 13.086 4.049 14.064 C4.037 16.418 4.021 18.771 4 21.125 C1.667 21.167 -0.667 21.166 -3 21.125 C-4.556 19.569 -4.13 18.065 -4.133 15.906 C-4.134 15.057 -4.135 14.207 -4.137 13.332 C-4.133 12.439 -4.129 11.545 -4.125 10.625 C-4.129 9.732 -4.133 8.838 -4.137 7.918 C-4.135 7.068 -4.134 6.219 -4.133 5.344 C-4.132 4.559 -4.131 3.775 -4.129 2.967 C-3.908 -0.186 -3.211 0.134 0 0 Z " fill="#B2B2B2" transform="translate(354,141.875)"/>
<path d="M0 0 C0 6.27 0 12.54 0 19 C-4 21 -4 21 -8 20 C-8 13.4 -8 6.8 -8 0 C-6 -1 -6 -1 0 0 Z " fill="#A8A8A8" transform="translate(162,143)"/>
<path d="M0 0 C0 6.6 0 13.2 0 20 C-2.31 20 -4.62 20 -7 20 C-8 19 -8 19 -8.114 17.142 C-8.108 16.352 -8.103 15.561 -8.098 14.746 C-8.094 13.892 -8.091 13.038 -8.088 12.158 C-8.08 11.26 -8.071 10.363 -8.062 9.438 C-8.058 8.536 -8.053 7.634 -8.049 6.705 C-8.037 4.47 -8.021 2.235 -8 0 C-5 -1 -5 -1 0 0 Z " fill="#AFAFAF" transform="translate(358,181)"/>
<path d="M0 0 C0.195 2.937 0.381 5.874 0.562 8.812 C0.619 9.646 0.675 10.479 0.732 11.338 C0.781 12.14 0.829 12.943 0.879 13.77 C0.926 14.508 0.973 15.246 1.022 16.007 C1 18 1 18 0 21 C-2.31 21 -4.62 21 -7 21 C-7.33 14.4 -7.66 7.8 -8 1 C-3 0 -3 0 0 0 Z " fill="#ADADAD" transform="translate(358,218)"/>
<path d="M0 0 C0.33 0.66 0.66 1.32 1 2 C2.325 2.684 3.659 3.35 5 4 C5.66 4.66 6.32 5.32 7 6 C0.763 10.036 0.763 10.036 -2.688 9.875 C-5 9 -5 9 -9 7 C-6.03 4.69 -3.06 2.38 0 0 Z " fill="#B2B2B2" transform="translate(258,368)"/>
<path d="M0 0 C2 -0.043 4 -0.041 6 0 C7 1 7 1 7.098 3.285 C7.086 4.202 7.074 5.118 7.062 6.062 C7.053 6.982 7.044 7.901 7.035 8.848 C7.024 9.558 7.012 10.268 7 11 C4.69 11 2.38 11 0 11 C0 7.37 0 3.74 0 0 Z " fill="#A9A9A9" transform="translate(351,142)"/>
<path d="M0 0 C0.99 0.33 1.98 0.66 3 1 C3 7.27 3 13.54 3 20 C2.01 20 1.02 20 0 20 C0 13.4 0 6.8 0 0 Z " fill="#A4A4A4" transform="translate(247,387)"/>
<path d="M0 0 C0.33 0.66 0.66 1.32 1 2 C0.066 4.031 -0.932 6.035 -2 8 C-2.66 8 -3.32 8 -4 8 C-4 5.69 -4 3.38 -4 1 C-2.68 0.67 -1.36 0.34 0 0 Z " fill="#B8B8B8" transform="translate(158,190)"/>
<path d="M0 0 C1.65 0 3.3 0 5 0 C5.33 1.32 5.66 2.64 6 4 C3.69 4 1.38 4 -1 4 C-0.67 2.68 -0.34 1.36 0 0 Z " fill="#878786" transform="translate(155,218)"/>
<path d="M0 0 C0.99 0 1.98 0 3 0 C2.125 5.75 2.125 5.75 1 8 C0.34 8 -0.32 8 -1 8 C-1.042 5.667 -1.041 3.333 -1 1 C-0.67 0.67 -0.34 0.34 0 0 Z " fill="#B7B7B7" transform="translate(155,153)"/>
<path d="M0 0 C1.32 0 2.64 0 4 0 C3.67 1.98 3.34 3.96 3 6 C2.01 6.33 1.02 6.66 0 7 C0 4.69 0 2.38 0 0 Z " fill="#B8B8B8" transform="translate(154,229)"/>
<path d="M0 0 C0 1.32 0 2.64 0 4 C-2.31 4 -4.62 4 -7 4 C-7 3.01 -7 2.02 -7 1 C-4.509 0.313 -2.621 0 0 0 Z " fill="#7D7C7C" transform="translate(358,218)"/>
<path d="M0 0 C1.98 0 3.96 0 6 0 C6.33 1.32 6.66 2.64 7 4 C4.69 4 2.38 4 0 4 C0 2.68 0 1.36 0 0 Z " fill="#7A797A" transform="translate(351,142)"/>
<path d="M0 0 C2.31 0.33 4.62 0.66 7 1 C7 1.99 7 2.98 7 4 C4.69 4 2.38 4 0 4 C0 2.68 0 1.36 0 0 Z " fill="#868685" transform="translate(154,180)"/>
<path d="M0 0 C0 0.99 0 1.98 0 3 C-2.31 3 -4.62 3 -7 3 C-7 2.01 -7 1.02 -7 0 C-4.333 -1.333 -2.833 -0.671 0 0 Z " fill="#878786" transform="translate(161,143)"/>
<path d="M0 0 C0 0.99 0 1.98 0 3 C-2.31 3 -4.62 3 -7 3 C-7 2.01 -7 1.02 -7 0 C-4.333 -1.333 -2.833 -0.671 0 0 Z " fill="#7A7A7A" transform="translate(358,181)"/>
</svg>
