<?xml version="1.0" encoding="UTF-8"?>
<!-- Generator: visioncortex VTracer 0.6.5 -->
<svg version="1.1" xmlns="http://www.w3.org/2000/svg" width="512" height="443">
<path d="M0 0 C1.124 0.001 2.247 0.002 3.405 0.004 C30.189 0.037 56.974 0.287 83.757 0.531 C87.258 0.563 90.76 0.592 94.261 0.622 C99.824 0.669 105.387 0.721 110.951 0.778 C113.036 0.798 115.122 0.817 117.207 0.834 C120.077 0.858 122.947 0.888 125.816 0.92 C126.669 0.925 127.522 0.931 128.401 0.937 C134.198 1.011 134.198 1.011 135.312 2.125 C135.312 6.745 135.312 11.365 135.312 16.125 C152.472 16.125 169.632 16.125 187.312 16.125 C188.014 20.335 188.438 23.711 188.438 27.881 C188.44 28.446 188.44 28.446 188.446 31.309 C188.445 31.925 188.445 31.925 188.439 35.044 C188.441 36.361 188.443 37.678 188.444 39.036 C188.448 42.686 188.446 46.336 188.443 49.986 C188.441 53.924 188.444 57.863 188.447 61.802 C188.452 69.514 188.451 77.227 188.448 84.94 C188.446 91.207 188.445 97.474 188.446 103.741 C188.446 104.633 188.447 105.525 188.447 106.443 C188.447 108.255 188.447 110.066 188.448 111.877 C188.451 128.864 188.447 145.85 188.442 162.836 C188.437 177.417 188.438 191.998 188.443 206.58 C188.448 223.508 188.45 240.436 188.447 257.364 C188.447 259.168 188.447 260.972 188.446 262.777 C188.446 263.664 188.446 264.552 188.446 265.467 C188.445 271.728 188.446 277.99 188.449 284.252 C188.452 291.88 188.451 299.507 188.446 307.135 C188.443 311.028 188.442 314.921 188.445 318.814 C188.449 323.029 188.444 327.245 188.439 331.46 C188.442 332.697 188.444 333.934 188.446 335.209 C188.444 336.335 188.441 337.461 188.438 338.621 C188.438 339.594 188.438 340.568 188.438 341.57 C188.323 343.907 187.977 345.89 187.312 348.125 C180.871 348.294 174.43 348.454 167.989 348.607 C165.799 348.66 163.609 348.716 161.418 348.773 C158.266 348.855 155.114 348.93 151.961 349.004 C151.473 349.017 151.473 349.017 149.006 349.086 C148.085 349.106 147.165 349.126 146.216 349.147 C145.814 349.157 145.814 349.157 143.78 349.207 C141.313 349.125 141.313 349.125 135.312 348.125 C135.312 353.075 135.312 358.025 135.312 363.125 C131.448 363.898 128.466 364.253 124.602 364.258 C123.521 364.259 122.441 364.26 121.328 364.262 C120.209 364.258 119.09 364.254 117.938 364.25 C116.826 364.254 115.715 364.258 114.57 364.262 C109.046 364.255 103.752 364.113 98.312 363.125 C97.653 366.095 96.993 369.065 96.312 372.125 C91.833 372.154 87.354 372.172 82.875 372.188 C81.596 372.196 80.316 372.204 78.998 372.213 C78.391 372.215 78.391 372.215 75.316 372.223 C74.19 372.228 73.065 372.233 71.905 372.239 C69.312 372.125 69.312 372.125 68.312 371.125 C67.945 368.797 67.61 366.463 67.312 364.125 C66.805 364.128 66.805 364.128 64.239 364.141 C60.476 364.159 56.714 364.17 52.951 364.18 C51.322 364.185 49.694 364.192 48.065 364.2 C45.724 364.213 43.384 364.218 41.043 364.223 C40.315 364.228 39.587 364.233 38.836 364.238 C35.716 364.239 33.296 364.12 30.312 363.125 C30.312 366.095 30.312 369.065 30.312 372.125 C21.403 372.125 12.493 372.125 3.312 372.125 C1.312 366.125 1.312 366.125 1.312 363.125 C0.811 363.206 0.811 363.206 -1.727 363.617 C-7.797 364.374 -13.89 364.274 -19.999 364.255 C-22.079 364.25 -24.158 364.255 -26.238 364.262 C-26.894 364.261 -26.894 364.261 -30.211 364.258 C-31.406 364.257 -32.602 364.256 -33.833 364.254 C-36.688 364.125 -36.688 364.125 -38.688 363.125 C-38.688 358.175 -38.688 353.225 -38.688 348.125 C-41.08 348.29 -43.472 348.455 -45.938 348.625 C-54.435 349.139 -62.925 349.237 -71.438 349.25 C-72.044 349.252 -72.044 349.252 -75.114 349.264 C-76.268 349.262 -77.421 349.26 -78.609 349.258 C-79.636 349.257 -80.663 349.256 -81.722 349.254 C-84.781 349.121 -87.681 348.689 -90.688 348.125 C-91.915 341.437 -91.827 334.818 -91.814 328.034 C-91.816 326.697 -91.817 325.36 -91.819 324.024 C-91.823 320.361 -91.821 316.698 -91.818 313.034 C-91.816 309.08 -91.819 305.126 -91.822 301.172 C-91.827 293.431 -91.826 285.69 -91.823 277.949 C-91.821 271.661 -91.82 265.372 -91.821 259.084 C-91.821 258.189 -91.822 257.294 -91.822 256.372 C-91.822 254.554 -91.822 252.736 -91.823 250.918 C-91.826 233.876 -91.822 216.835 -91.817 199.793 C-91.812 185.159 -91.813 170.525 -91.818 155.892 C-91.823 138.903 -91.825 121.915 -91.822 104.926 C-91.822 103.116 -91.822 101.307 -91.821 99.497 C-91.821 98.607 -91.821 97.716 -91.821 96.799 C-91.82 90.513 -91.821 84.227 -91.824 77.941 C-91.827 70.288 -91.826 62.635 -91.821 54.983 C-91.818 51.076 -91.817 47.169 -91.82 43.261 C-91.824 39.035 -91.819 34.808 -91.814 30.581 C-91.817 29.335 -91.819 28.088 -91.821 26.804 C-91.82 26.242 -91.82 26.242 -91.813 23.396 C-91.813 22.419 -91.813 21.443 -91.813 20.436 C-91.688 18.125 -91.688 18.125 -90.688 16.125 C-73.528 16.125 -56.368 16.125 -38.688 16.125 C-38.688 11.175 -38.688 6.225 -38.688 1.125 C-25.77 0.159 -12.95 -0.031 0 0 Z " fill="#CACACA" transform="translate(207.6875,34.875)"/>
<path d="M0 0 C37.62 0 75.24 0 114 0 C114 18.48 114 36.96 114 56 C76.38 56 38.76 56 0 56 C0 37.52 0 19.04 0 0 Z " fill="#F46D5B" transform="translate(199,59)"/>
<path d="M0 0 C0.165 0.33 0.165 0.33 1 2 C3.906 2.068 6.583 2.086 9.438 1.5 C12.654 0.872 15.731 0.936 19 1 C21.095 4.632 23.145 8.239 25 12 C25.353 12.695 25.706 13.39 26.07 14.105 C26.418 14.793 26.766 15.48 27.125 16.188 C27.478 16.882 27.831 17.577 28.195 18.293 C29 20 29 20 29 21 C-7.96 21 -44.92 21 -83 21 C-80.734 14.201 -80.734 14.201 -78.562 10.812 C-78.151 10.159 -77.74 9.505 -77.316 8.832 C-77.099 8.53 -77.099 8.53 -76 7 C-75.623 6.474 -75.246 5.948 -74.858 5.407 C-71.991 3.236 -69.511 3.641 -65.958 3.659 C-65.246 3.659 -64.533 3.659 -63.799 3.658 C-61.445 3.66 -59.092 3.684 -56.738 3.707 C-55.106 3.713 -53.474 3.717 -51.841 3.72 C-47.545 3.731 -43.25 3.761 -38.954 3.794 C-34.57 3.825 -30.187 3.838 -25.803 3.854 C-17.202 3.886 -8.601 3.937 0 4 C0 2.68 0 1.36 0 0 Z " fill="#DB3A21" transform="translate(283,94)"/>
<path d="M0 0 C16.5 0 33 0 50 0 C50 18.48 50 36.96 50 56 C47.011 54.505 46.462 51.924 45 49 C44.34 48.67 43.68 48.34 43 48 C42.184 46.004 42.184 46.004 41.438 43.562 C40.063 39.127 40.063 39.127 39 37 C37.928 37.021 36.855 37.041 35.75 37.062 C32.852 37.014 30.714 36.868 28 36 C27.835 36.33 27.835 36.33 27 38 C25.02 37.67 23.04 37.34 21 37 C20.835 37.33 20.835 37.33 20 39 C-4.42 39.33 -28.84 39.66 -54 40 C-54 39.34 -54 38.68 -54 38 C-42.12 37.835 -42.12 37.835 18 37 C19.119 33.643 19.114 31.118 19.098 27.582 C19.094 26.328 19.091 25.075 19.088 23.783 C19.08 22.473 19.071 21.163 19.062 19.812 C19.057 18.477 19.053 17.142 19.049 15.807 C19.037 12.538 19.021 9.269 19 6 C16.69 5.67 14.38 5.34 12 5 C12 4.34 12 3.68 12 3 C11.453 3.083 11.453 3.083 8.688 3.5 C5 4 5 4 2 4 C1.34 2.68 0.68 1.36 0 0 Z " fill="#ED5F4C" transform="translate(263,59)"/>
<path d="M0 0 C0.8 -0.004 1.599 -0.007 2.423 -0.011 C5.035 -0.019 7.647 -0.014 10.259 -0.007 C12.091 -0.008 13.922 -0.01 15.753 -0.013 C19.577 -0.016 23.402 -0.011 27.226 -0.002 C32.116 0.009 37.006 0.003 41.896 -0.009 C45.673 -0.016 49.449 -0.014 53.225 -0.009 C55.028 -0.008 56.831 -0.009 58.634 -0.014 C61.156 -0.019 63.677 -0.011 66.199 0 C66.936 -0.004 67.673 -0.008 68.432 -0.012 C73.173 0.026 77.015 0.789 81.47 2.259 C79.47 4.259 79.47 4.259 75.908 4.321 C74.773 4.301 73.639 4.28 72.47 4.259 C72.14 4.589 71.81 4.919 71.47 5.259 C68.67 5.354 65.895 5.384 63.095 5.372 C62.656 5.372 62.656 5.372 60.434 5.373 C57.518 5.372 54.602 5.364 51.685 5.356 C49.669 5.355 47.652 5.353 45.636 5.352 C40.318 5.348 34.999 5.339 29.681 5.327 C24.259 5.317 18.836 5.313 13.414 5.308 C2.766 5.297 -7.882 5.28 -18.53 5.259 C-18.2 4.269 -17.87 3.279 -17.53 2.259 C-12.05 0.021 -5.84 -0.032 0 0 Z " fill="#E34933" transform="translate(224.52978515625,109.7412109375)"/>
<path d="M0 0 C0 2.64 0 5.28 0 8 C-17.49 8 -34.98 8 -53 8 C-54 3 -54 3 -53 1 C-45.613 0.857 -38.225 0.715 -30.838 0.573 C-28.323 0.524 -25.808 0.476 -23.292 0.427 C-19.686 0.358 -16.079 0.288 -12.473 0.219 C-11.907 0.208 -11.907 0.208 -9.042 0.152 C-8.001 0.132 -6.96 0.112 -5.887 0.092 C-4.965 0.074 -4.044 0.056 -3.094 0.038 C-1 0 -1 0 0 0 Z " fill="#A9A9A9" transform="translate(170,50)"/>
<path d="M0 0 C17.49 0.33 34.98 0.66 53 1 C53.165 1.99 53.165 1.99 54 7 C53 8 53 8 50.868 8.12 C49.928 8.118 48.989 8.116 48.021 8.114 C46.96 8.113 45.899 8.113 44.806 8.113 C44.229 8.111 44.229 8.111 41.309 8.098 C40.134 8.096 38.959 8.095 37.748 8.093 C33.978 8.088 30.208 8.075 26.438 8.062 C23.889 8.057 21.34 8.053 18.791 8.049 C12.527 8.038 6.264 8.021 0 8 C0 5.36 0 2.72 0 0 Z " fill="#A6A6A5" transform="translate(342,50)"/>
<path d="M0 0 C0 0.66 0 1.32 0 2 C-1.98 2 -3.96 2 -6 2 C-6.144 2.299 -6.144 2.299 -6.875 3.812 C-8 6 -8 6 -10 9 C-12.625 9.688 -12.625 9.688 -15 10 C-15.391 6.575 -15.134 5.21 -13.25 2.25 C-9.001 -1.999 -5.722 -0.99 0 0 Z " fill="#B6B6B6" transform="translate(302,188)"/>
<path d="M0 0 C-5.968 7.258 -5.968 7.258 -8 9 C-8.66 9 -9.32 9 -10 9 C-10.66 6.03 -11.32 3.06 -12 0 C-7.447 -2.483 -4.775 -1.685 0 0 Z " fill="#AFAFAF" transform="translate(287,157)"/>
<path d="M0 0 C0 0.66 0 1.32 0 2 C0.66 2 1.32 2 2 2 C2 2.99 2 3.98 2 5 C-0.667 4.333 -3.333 3.667 -6 3 C-6 2.34 -6 1.68 -6 1 C-4 0 -4 0 0 0 Z " fill="#B3B3B2" transform="translate(216,187)"/>
<path d="M0 0 C0.99 0 1.98 0 3 0 C3.75 1.688 3.75 1.688 4 4 C2.062 6.75 2.062 6.75 0 9 C0 6.03 0 3.06 0 0 Z " fill="#B4B4B2" transform="translate(276,397)"/>
<path d="M0 0 C2.31 0.33 4.62 0.66 7 1 C7 1.66 7 2.32 7 3 C4.36 3 1.72 3 -1 3 C-0.67 2.01 -0.34 1.02 0 0 Z " fill="#A8A8A8" transform="translate(295,187)"/>
</svg>
