<?xml version="1.0" encoding="UTF-8"?>
<!-- Generator: visioncortex VTracer 0.6.5 -->
<svg version="1.1" xmlns="http://www.w3.org/2000/svg" width="512" height="443">
<path d="M0 0 C4.763 0.006 9.526 0.007 14.289 0.008 C23.252 0.011 32.215 0.019 41.177 0.029 C51.405 0.041 61.633 0.046 71.861 0.051 C92.848 0.061 113.835 0.079 134.822 0.101 C136.822 3.976 136.822 3.976 136.822 5.101 C137.097 5.099 137.097 5.099 138.489 5.086 C154.979 4.952 171.317 5.512 187.822 6.101 C187.822 111.371 187.822 216.641 187.822 325.101 C183.876 325.759 180.792 326.226 176.918 326.215 C175.997 326.215 175.077 326.215 174.128 326.215 C173.153 326.21 172.178 326.204 171.173 326.199 C170.161 326.198 169.148 326.196 168.105 326.195 C164.885 326.189 161.666 326.177 158.447 326.164 C156.258 326.159 154.069 326.154 151.88 326.15 C146.527 326.139 141.175 326.123 135.822 326.101 C135.162 324.451 134.502 322.801 133.822 321.101 C131.739 324.873 130.476 328.903 129.142 332.98 C128.888 333.748 128.634 334.515 128.372 335.305 C127.561 337.757 126.753 340.211 125.947 342.664 C125.147 345.092 124.345 347.52 123.543 349.947 C123.044 351.454 122.548 352.961 122.053 354.469 C120.097 360.391 117.975 366.248 115.822 372.101 C85.639 373.448 55.429 373.255 25.224 373.23 C19.429 373.226 13.633 373.229 7.837 373.234 C2.178 373.238 -3.48 373.239 -9.139 373.236 C-12.49 373.235 -15.841 373.235 -19.192 373.238 C-22.901 373.24 -26.61 373.236 -30.319 373.231 C-31.407 373.233 -32.496 373.235 -33.617 373.237 C-39.233 373.221 -44.623 372.94 -50.178 372.101 C-52.118 366.427 -54.057 360.753 -55.995 355.079 C-56.653 353.152 -57.312 351.224 -57.971 349.297 C-58.922 346.515 -59.872 343.732 -60.823 340.949 C-61.114 340.099 -61.404 339.248 -61.704 338.372 C-63.553 332.957 -65.376 327.533 -67.178 322.101 C-67.838 323.421 -68.498 324.741 -69.178 326.101 C-76.566 326.127 -83.953 326.144 -91.34 326.156 C-93.856 326.161 -96.371 326.168 -98.886 326.177 C-102.493 326.189 -106.099 326.195 -109.706 326.199 C-110.272 326.202 -110.272 326.202 -113.137 326.215 C-114.178 326.215 -115.219 326.215 -116.291 326.215 C-117.213 326.217 -118.134 326.219 -119.084 326.222 C-121.178 326.101 -121.178 326.101 -122.178 325.101 C-122.276 323.402 -122.302 321.699 -122.301 319.996 C-122.303 318.883 -122.305 317.77 -122.307 316.623 C-122.306 316.004 -122.306 316.004 -122.299 312.871 C-122.299 311.567 -122.3 310.264 -122.301 308.921 C-122.303 305.286 -122.299 301.651 -122.294 298.016 C-122.29 294.103 -122.292 290.189 -122.292 286.276 C-122.293 279.49 -122.29 272.704 -122.284 265.918 C-122.276 256.107 -122.273 246.295 -122.272 236.484 C-122.27 220.568 -122.263 204.651 -122.254 188.734 C-122.245 173.269 -122.238 157.803 -122.233 142.338 C-122.233 141.385 -122.233 140.433 -122.232 139.451 C-122.231 134.673 -122.23 129.894 -122.229 125.115 C-122.218 85.444 -122.201 45.773 -122.178 6.101 C-119.739 4.882 -118.179 4.981 -115.453 4.988 C-114.472 4.988 -113.492 4.988 -112.481 4.988 C-111.419 4.993 -110.358 4.998 -109.264 5.004 C-108.722 5.004 -108.722 5.004 -105.977 5.008 C-102.502 5.014 -99.028 5.026 -95.553 5.039 C-93.202 5.044 -90.85 5.048 -88.499 5.053 C-82.725 5.064 -76.952 5.08 -71.178 5.101 C-70.848 3.781 -70.518 2.461 -70.178 1.101 C-46.779 0.178 -23.415 -0.037 0 0 Z " fill="#CACACA" transform="translate(223.1783390045166,34.898606061935425)"/>
<path d="M0 0 C54.12 0 108.24 0 164 0 C164 26.73 164 53.46 164 81 C109.88 81 55.76 81 0 81 C0 54.27 0 27.54 0 0 Z " fill="#ED5F4B" transform="translate(174,58)"/>
<path d="M0 0 C4.763 0.006 9.526 0.007 14.289 0.008 C23.252 0.011 32.215 0.019 41.177 0.029 C51.405 0.041 61.633 0.046 71.861 0.051 C92.848 0.061 113.835 0.079 134.822 0.101 C132.831 5.452 130.929 9.238 125.822 12.101 C119.916 13.17 114.065 13.07 108.08 13.023 C106.259 13.034 104.439 13.048 102.618 13.065 C97.684 13.101 92.751 13.093 87.817 13.075 C83.694 13.063 79.571 13.074 75.448 13.085 C65.72 13.111 55.993 13.102 46.265 13.069 C36.237 13.036 26.211 13.057 16.183 13.106 C7.565 13.146 -1.052 13.155 -9.67 13.139 C-14.814 13.129 -19.957 13.131 -25.1 13.161 C-29.938 13.188 -34.773 13.176 -39.611 13.134 C-41.383 13.125 -43.155 13.13 -44.927 13.149 C-58.337 13.283 -58.337 13.283 -62.95 10.323 C-64.921 8.35 -66.522 6.337 -68.178 4.101 C-69.168 3.441 -70.158 2.781 -71.178 2.101 C-69.419 0.343 -66.914 0.869 -64.521 0.788 C-63.293 0.747 -62.065 0.705 -60.8 0.663 C-59.425 0.623 -58.051 0.584 -56.676 0.545 C-55.971 0.524 -55.267 0.503 -54.54 0.481 C-36.362 -0.051 -18.184 -0.029 0 0 Z " fill="#A1A1A1" transform="translate(223.1783390045166,34.898606061935425)"/>
<path d="M0 0 C0.55 0.338 1.099 0.675 1.665 1.023 C4.546 2.228 6.266 2.011 9.353 1.633 C16.367 0.913 23.302 0.856 30.348 0.867 C31.694 0.867 33.041 0.866 34.387 0.864 C37.188 0.863 39.989 0.865 42.79 0.87 C46.349 0.875 49.908 0.872 53.467 0.866 C56.241 0.862 59.015 0.864 61.788 0.866 C63.728 0.867 65.669 0.864 67.609 0.861 C85.011 0.907 85.011 0.907 91.179 2.597 C93 3 93 3 95 2 C98.438 1.625 98.438 1.625 102 2 C104.382 4.843 105 6.284 105 10 C59.46 10 13.92 10 -33 10 C-32 7 -32 7 -30.188 5.812 C-28 5 -28 5 -24 5 C-24 4.34 -24 3.68 -24 3 C-23.01 3 -22.02 3 -21 3 C-20.67 2.34 -20.34 1.68 -20 1 C-13.4 1.33 -6.8 1.66 0 2 C0 1.34 0 0.68 0 0 Z " fill="#E34832" transform="translate(208,129)"/>
<path d="M0 0 C7.59 0 15.18 0 23 0 C23 16.5 23 33 23 50 C17 48 17 48 15.832 46.188 C15.637 45.466 15.443 44.744 15.242 44 C15.011 43.2 14.78 42.399 14.542 41.574 C14.432 41.15 14.432 41.15 13.875 39 C13.379 37.269 12.88 35.538 12.379 33.809 C12.262 33.393 12.262 33.393 11.668 31.289 C10.238 26.391 8.711 21.173 5.523 17.125 C3.65 14.512 2.8 11.992 1.812 8.938 C1.468 7.895 1.124 6.852 0.77 5.777 C0 3 0 3 0 0 Z " fill="#AEAEAE" transform="translate(315,150)"/>
<path d="M0 0 C0.901 0.017 1.802 0.034 2.73 0.051 C3.747 0.068 4.765 0.085 5.814 0.103 C6.367 0.114 6.367 0.114 9.169 0.175 C10.297 0.196 11.425 0.217 12.588 0.239 C14.979 0.286 17.37 0.335 19.76 0.386 C23.434 0.464 27.108 0.531 30.782 0.597 C33.099 0.643 35.415 0.69 37.732 0.737 C38.285 0.747 38.285 0.747 41.087 0.798 C42.105 0.821 43.122 0.844 44.171 0.868 C45.072 0.886 45.973 0.905 46.901 0.924 C48.95 1.089 48.95 1.089 49.95 2.089 C50.075 5.589 50.075 5.589 49.95 9.089 C48.95 10.089 48.95 10.089 46.856 10.209 C45.934 10.207 45.013 10.205 44.063 10.203 C43.022 10.202 41.981 10.202 40.909 10.202 C39.777 10.197 38.644 10.192 37.478 10.187 C36.325 10.185 35.172 10.184 33.984 10.182 C30.286 10.177 26.587 10.164 22.888 10.152 C20.387 10.147 17.887 10.142 15.386 10.138 C9.241 10.127 3.095 10.11 -3.05 10.089 C-3.077 8.61 -3.096 7.131 -3.112 5.652 C-3.124 4.828 -3.135 4.004 -3.147 3.155 C-3.015 0.363 -2.794 0.121 0 0 Z " fill="#A8A8A9" transform="translate(104.0496826171875,39.910980224609375)"/>
<path d="M0 0 C17.359 -0.143 34.657 0.273 52 1 C52 3.97 52 6.94 52 10 C34.84 10 17.68 10 0 10 C0 6.7 0 3.4 0 0 Z " fill="#A6A6A6" transform="translate(359,40)"/>
<path d="M0 0 C0.672 1.75 0.672 1.75 1 4 C-0.109 6 -0.109 6 -1.75 8 C-2.281 8.66 -2.812 9.32 -3.359 10 C-4.462 11.344 -5.576 12.677 -6.703 14 C-8 16 -8 16 -8 20 C-9 22 -10 24 -11 26 C-11.355 27.996 -11.686 29.997 -12 32 C-12.402 33.593 -12.842 35.176 -13.312 36.75 C-13.536 37.508 -13.759 38.266 -13.988 39.047 C-15.252 41.487 -16.483 42.024 -19 43 C-18.405 38.971 -17.541 35.238 -16.258 31.375 C-15.914 30.339 -15.569 29.302 -15.215 28.234 C-14.855 27.167 -14.496 26.1 -14.125 25 C-13.773 23.933 -13.421 22.865 -13.059 21.766 C-7.435 4.956 -7.435 4.956 0 0 Z " fill="#A2A2A2" transform="translate(196,156)"/>
<path d="M0 0 C4.833 -0.083 9.237 0.047 14 1 C11.861 3.139 10.867 3.427 8 4 C8.33 5.65 8.66 7.3 9 9 C2.07 9 -4.86 9 -12 9 C-11 6 -11 6 -9.188 4.812 C-7 4 -7 4 -3 4 C-3 3.34 -3 2.68 -3 2 C-2.01 2 -1.02 2 0 2 C0 1.34 0 0.68 0 0 Z " fill="#E0442D" transform="translate(187,130)"/>
<path d="M0 0 C0.33 0 0.66 0 1 0 C1.171 0.605 1.343 1.209 1.519 1.833 C2.303 4.597 3.089 7.361 3.875 10.125 C4.144 11.076 4.414 12.028 4.691 13.008 C5.788 16.859 6.89 20.68 8.188 24.469 C9.133 27.414 9.146 29.926 9 33 C8.34 33 7.68 33 7 33 C-1.357 10.405 -1.357 10.405 0 0 Z " fill="#B9B9B9" transform="translate(154,339)"/>
<path d="M0 0 C0.562 0.005 0.562 0.005 3.409 0.03 C6.997 0.069 10.581 0.157 14.168 0.246 C16.602 0.281 19.036 0.313 21.471 0.342 C27.433 0.419 33.394 0.536 39.355 0.684 C39.355 1.014 39.355 1.344 39.355 1.684 C23.185 2.014 7.015 2.344 -9.645 2.684 C-9.975 4.004 -10.305 5.324 -10.645 6.684 C-12.492 8.387 -12.492 8.387 -14.707 9.934 C-15.441 10.454 -16.174 10.975 -16.93 11.512 C-17.496 11.898 -18.061 12.285 -18.645 12.684 C-15.075 1.976 -11.169 -0.37 0 0 Z " fill="#DE4028" transform="translate(201.64453125,113.31640625)"/>
<path d="M0 0 C1.434 0.005 2.868 0.01 4.303 0.014 C7.764 0.025 11.226 0.042 14.688 0.062 C12.26 2.995 12.26 2.995 9.726 3.295 C9.363 3.263 9.363 3.263 7.527 3.102 C7.131 3.072 7.131 3.072 5.123 2.922 C4.711 2.883 4.711 2.883 2.625 2.688 C0.989 2.55 -0.648 2.417 -2.285 2.289 C-3.01 2.223 -3.734 2.157 -4.481 2.088 C-6.312 2.062 -6.312 2.062 -8.312 3.062 C-9.241 2.897 -10.169 2.733 -11.125 2.562 C-16.825 1.604 -22.602 2.504 -28.312 3.062 C-28.643 2.403 -28.972 1.743 -29.312 1.062 C-19.525 0.129 -9.819 -0.061 0 0 Z " fill="#E24730" transform="translate(280.3125,112.9375)"/>
<path d="M0 0 C0.33 0 0.66 0 1 0 C1.392 7.632 0.57 13.817 -2 21 C-2.392 22.196 -2.784 23.392 -3.188 24.625 C-3.456 25.409 -3.724 26.192 -4 27 C-4.99 26.67 -5.98 26.34 -7 26 C-5.458 19.537 -3.809 13.192 -1.629 6.914 C-0.881 4.639 -0.381 2.363 0 0 Z " fill="#BCBCBC" transform="translate(357,339)"/>
<path d="M0 0 C0.33 0 0.66 0 1 0 C0.429 6.155 -0.943 11.597 -2.938 17.438 C-3.202 18.252 -3.467 19.066 -3.74 19.904 C-4 20.677 -4.26 21.45 -4.527 22.246 C-4.762 22.944 -4.996 23.642 -5.238 24.361 C-6 26 -6 26 -8 27 C-7.395 22.17 -6.462 17.617 -5.125 12.938 C-4.961 12.354 -4.961 12.354 -4.133 9.402 C-3.024 6.072 -1.648 3.094 0 0 Z " fill="#BFBFBF" transform="translate(351,364)"/>
<path d="M0 0 C0 2.64 0 5.28 0 8 C-3.378 8.845 -5.675 9.108 -9 8 C-7.474 4.115 -4.498 0 0 0 Z " fill="#BBBCBB" transform="translate(155,352)"/>
<path d="M0 0 C2.102 3.781 3.337 7.829 4.625 11.938 C4.854 12.641 5.084 13.344 5.32 14.068 C6.498 17.809 7.292 21.07 7 25 C3.959 21.959 3.159 18.213 1.812 14.188 C1.527 13.38 1.241 12.572 0.947 11.74 C-1.534 4.37 -1.534 4.37 0 0 Z " fill="#BBBCBB" transform="translate(163,370)"/>
<path d="M0 0 C1.65 0.33 3.3 0.66 5 1 C2.44 3.56 -0.21 4.618 -3.5 6.125 C-4.665 6.664 -5.831 7.203 -7.031 7.758 C-10 9 -10 9 -12 9 C-11 6 -11 6 -9.188 4.812 C-7 4 -7 4 -3 4 C-3 3.34 -3 2.68 -3 2 C-2.01 2 -1.02 2 0 2 C0 1.34 0 0.68 0 0 Z " fill="#D53316" transform="translate(187,130)"/>
<path d="M0 0 C4.29 0 8.58 0 13 0 C9.11 2.918 7.666 3.702 3 4 C2.01 3.34 1.02 2.68 0 2 C0 1.34 0 0.68 0 0 Z " fill="#A2A1A1" transform="translate(211,150)"/>
<path d="M0 0 C0.33 0 0.66 0 1 0 C1.369 11.522 1.369 11.522 -1 17 C-1.33 17 -1.66 17 -2 17 C-2.218 10.998 -1.506 5.808 0 0 Z " fill="#7F7F7E" transform="translate(357,339)"/>
<path d="M0 0 C0.33 0 0.66 0 1 0 C2.229 6.068 3.276 11.799 3 18 C0.126 15.126 0.032 13 -0.098 8.984 C-0.086 7.917 -0.074 6.85 -0.062 5.75 C-0.058 5.211 -0.058 5.211 -0.035 2.484 C-0.024 1.665 -0.012 0.845 0 0 Z " fill="#757473" transform="translate(154,339)"/>
<path d="M0 0 C1.603 -0.081 3.208 -0.139 4.812 -0.188 C5.259 -0.205 5.259 -0.205 7.52 -0.293 C10 0 10 0 13 3 C8.71 3 4.42 3 0 3 C0 2.01 0 1.02 0 0 Z " fill="#ACACAC" transform="translate(250,187)"/>
<path d="M0 0 C1.932 2.898 2.548 4.602 3.25 7.938 C3.441 8.792 3.632 9.647 3.828 10.527 C4.024 13.343 3.471 14.635 2 17 C1.663 14.917 1.33 12.834 1 10.75 C0.814 9.59 0.629 8.43 0.438 7.234 C0 4 0 4 0 0 Z " fill="#AEAEAE" transform="translate(156,346)"/>
<path d="M0 0 C0.33 0.66 0.66 1.32 1 2 C0.217 3.172 -0.577 4.338 -1.375 5.5 C-1.816 6.15 -2.257 6.799 -2.711 7.469 C-3.136 7.974 -3.562 8.479 -4 9 C-4.66 9 -5.32 9 -6 9 C-5.528 4.752 -3.033 2.8 0 0 Z " fill="#9A9A9A" transform="translate(194,160)"/>
<path d="M0 0 C0.33 0 0.66 0 1 0 C1 3.3 1 6.6 1 10 C-0.32 9.67 -1.64 9.34 -3 9 C-2.01 6.03 -1.02 3.06 0 0 Z " fill="#E54D37" transform="translate(336,129)"/>
<path d="M0 0 C0.99 0.33 1.98 0.66 3 1 C4.125 3.875 4.125 3.875 5 7 C5.33 7.99 5.66 8.98 6 10 C5.34 10 4.68 10 4 10 C1.161 6.325 0 4.731 0 0 Z " fill="#A0A0A0" transform="translate(319,161)"/>
<path d="M0 0 C1.65 0 3.3 0 5 0 C4.67 0.66 4.34 1.32 4 2 C3.34 2 2.68 2 2 2 C1.67 3.98 1.34 5.96 1 8 C0.67 8 0.34 8 0 8 C0 5.36 0 2.72 0 0 Z " fill="#F26653" transform="translate(175,58)"/>
</svg>
