<svg xmlns="http://www.w3.org/2000/svg" viewBox="0 0 60 52">
  <defs>
    <linearGradient id="bridge-beam-blue" x1="0%" y1="0%" x2="0%" y2="100%">
      <stop offset="0%" style="stop-color:#5577CC"/>
      <stop offset="100%" style="stop-color:#334499"/>
    </linearGradient>
  </defs>
  <rect x="4" y="24" width="52" height="6" fill="url(#bridge-beam-blue)" stroke="#223377" stroke-width="1"/>
  <polygon points="8,24 12,16 16,24" fill="#4466AA" stroke="#334499" stroke-width="0.5"/>
  <polygon points="26,24 30,16 34,24" fill="#4466AA" stroke="#334499" stroke-width="0.5"/>
  <polygon points="44,24 48,16 52,24" fill="#4466AA" stroke="#334499" stroke-width="0.5"/>
  <rect x="8" y="14" width="44" height="3" fill="#5588BB" stroke="#4477AA" stroke-width="0.5"/>
  <line x1="12" y1="17" x2="26" y2="24" stroke="#7799DD" stroke-width="0.8"/>
  <line x1="26" y1="17" x2="12" y2="24" stroke="#7799DD" stroke-width="0.8"/>
  <line x1="34" y1="17" x2="48" y2="24" stroke="#7799DD" stroke-width="0.8"/>
  <line x1="48" y1="17" x2="34" y2="24" stroke="#7799DD" stroke-width="0.8"/>
  <rect x="16" y="30" width="12" height="8" rx="2" fill="#223355" stroke="#112244" stroke-width="0.5"/>
  <rect x="32" y="30" width="12" height="8" rx="2" fill="#223355" stroke="#112244" stroke-width="0.5"/>
  <circle cx="20" cy="36" r="3" fill="#334466"/>
  <circle cx="40" cy="36" r="3" fill="#334466"/>
  <rect x="26" y="30" width="8" height="12" fill="#334477" stroke="#223366" stroke-width="0.5"/>
</svg>
