<?xml version="1.0" encoding="UTF-8"?>
<svg xmlns="http://www.w3.org/2000/svg" viewBox="0 0 60 52" width="60" height="52">
<g transform="translate(3.00, 2.64) scale(0.11)">
<path d="M0 0 C3.23 1.53 6.19 3.24 9.20 5.17 C14.09 8.26 19.04 11.13 24.13 13.86 C27.47 15.67 30.78 17.54 34.07 19.42 C34.67 19.76 35.26 20.10 35.87 20.45 C40.30 22.99 44.67 25.61 49.02 28.29 C51.01 29.42 51.01 29.42 54.01 30.42 C54.01 31.08 54.01 31.74 54.01 32.42 C54.80 32.63 55.58 32.83 56.39 33.05 C60.34 34.55 63.61 36.54 67.20 38.76 C71.99 41.59 77.00 43.99 82.01 46.42 C82.01 47.08 82.01 47.74 82.01 48.42 C82.90 48.69 83.78 48.96 84.70 49.23 C88.01 50.42 88.01 50.42 90.07 51.99 C94.47 54.13 98.58 53.66 103.39 53.48 C105.23 53.42 107.07 53.37 108.91 53.33 C109.72 53.30 110.53 53.27 111.37 53.24 C114.01 53.42 114.01 53.42 121.01 55.42 C121.34 60.37 121.67 65.32 122.01 70.42 C123.11 70.87 124.21 71.32 125.34 71.78 C126.79 72.39 128.25 73.00 129.70 73.61 C130.42 73.90 131.14 74.19 131.88 74.49 C132.59 74.79 133.30 75.09 134.02 75.40 C134.67 75.67 135.31 75.94 135.97 76.21 C141.99 79.78 144.32 84.61 146.75 90.84 C147.09 91.66 147.42 92.48 147.76 93.32 C148.81 95.94 149.85 98.55 150.89 101.17 C151.57 102.89 152.26 104.60 152.95 106.31 C154.31 109.69 155.67 113.07 157.01 116.46 C158.34 119.77 159.69 123.06 161.08 126.34 C161.24 126.73 161.24 126.73 162.07 128.69 C162.69 130.15 163.31 131.60 163.94 133.06 C165.38 136.47 166.01 138.64 166.01 142.42 C163.70 142.75 161.39 143.08 159.01 143.42 C159.16 143.66 159.16 143.66 159.89 144.89 C162.74 150.04 163.43 153.55 163.01 159.42 C164.00 159.09 164.99 158.76 166.01 158.42 C175.17 175.30 175.17 175.30 177.99 182.82 C179.36 186.32 180.93 189.71 182.51 193.11 C182.65 193.42 182.65 193.42 183.38 194.98 C184.83 198.09 186.37 201.09 188.09 204.05 C189.72 206.90 191.02 209.62 192.20 212.67 C192.52 213.50 192.85 214.33 193.18 215.19 C193.82 216.92 194.43 218.67 195.01 220.42 C191.24 223.66 186.9 225.40 182.39 227.36 C181.59 227.71 180.78 228.06 179.96 228.43 C174.35 230.87 168.72 233.22 163.01 235.42 C157.82 225.14 152.75 214.82 147.85 204.40 C146.82 202.22 145.78 200.05 144.75 197.87 C140.79 189.50 137.18 181.12 134.01 172.42 C134.67 172.09 135.33 171.76 136.01 171.42 C135.35 170.97 134.69 170.51 134.01 170.05 C133.35 169.51 132.69 168.97 132.01 168.42 C132.01 167.76 132.01 167.10 132.01 166.42 C131.35 166.42 130.69 166.42 130.01 166.42 C129.68 165.76 129.35 165.10 129.01 164.42 C129.01 164.79 129.01 164.79 129.01 166.64 C128.99 173.54 128.95 180.44 128.88 187.34 C128.84 190.89 128.82 194.44 128.82 197.99 C128.81 202.07 128.77 206.14 128.72 210.22 C128.72 211.50 128.73 212.77 128.73 214.09 C128.71 215.27 128.69 216.45 128.67 217.66 C128.66 218.71 128.66 219.75 128.65 220.82 C128.01 223.42 128.01 223.42 125.60 225.28 C123.01 226.42 123.01 226.42 121.01 226.42 C121.01 232.03 121.01 237.64 121.01 243.42 C119.14 243.41 117.27 243.40 115.34 243.40 C90.17 243.58 90.17 243.58 80.01 251.42 C78.54 252.43 77.06 253.43 75.57 254.42 C74.87 254.91 74.16 255.40 73.43 255.90 C69.96 258.08 66.29 259.81 62.60 261.60 C57.36 264.17 52.39 267.08 47.42 270.14 C43.46 272.58 39.43 274.88 35.35 277.12 C31.40 279.32 27.49 281.59 23.57 283.86 C23.16 284.1 23.16 284.1 21.06 285.32 C5.42 294.39 5.42 294.39 1.57 297.20 C-0.99 298.42 -0.99 298.42 -3.36 297.66 C-5.86 296.48 -8.26 295.24 -10.66 293.88 C-11.56 293.37 -12.46 292.86 -13.38 292.34 C-14.35 291.79 -15.31 291.24 -16.30 290.67 C-17.32 290.10 -18.33 289.52 -19.38 288.93 C-27.54 284.27 -35.67 279.55 -43.78 274.81 C-49.07 271.71 -54.37 268.62 -59.68 265.56 C-60.80 264.91 -61.91 264.27 -63.06 263.61 C-65.29 262.32 -67.53 261.05 -69.77 259.78 C-74.46 257.11 -79.06 254.46 -83.42 251.29 C-95.35 242.84 -107.24 243.10 -121.57 243.47 C-123.99 243.42 -123.99 243.42 -124.99 242.42 C-124.90 240.15 -124.80 237.88 -124.68 235.61 C-124.63 231.74 -124.63 231.74 -124.99 228.42 C-127.93 225.98 -127.93 225.98 -130.99 224.42 C-132.51 218.14 -132.12 211.57 -132.09 205.15 C-132.09 203.98 -132.08 202.81 -132.08 201.61 C-132.08 197.90 -132.06 194.19 -132.05 190.48 C-132.05 187.96 -132.04 185.44 -132.04 182.92 C-132.03 176.75 -132.01 170.59 -131.99 164.42 C-133.14 165.38 -134.28 166.34 -135.43 167.30 C-136.06 167.83 -136.70 168.36 -137.36 168.91 C-138.99 170.42 -138.99 170.42 -139.99 172.42 C-139.33 172.42 -138.67 172.42 -137.99 172.42 C-139.24 177.14 -140.75 181.37 -142.86 185.80 C-143.01 186.10 -143.01 186.10 -143.75 187.66 C-144.82 189.92 -145.90 192.17 -146.99 194.42 C-148.52 197.60 -150.04 200.78 -151.57 203.96 C-152.62 206.14 -153.67 208.32 -154.72 210.50 C-157.28 215.81 -159.79 221.13 -162.15 226.53 C-163.34 229.21 -164.65 231.82 -165.99 234.42 C-170.53 233.85 -174.13 232.64 -178.26 230.70 C-178.84 230.43 -178.84 230.43 -181.76 229.07 C-182.95 228.50 -184.14 227.94 -185.36 227.36 C-186.59 226.78 -187.81 226.21 -189.04 225.64 C-192.03 224.24 -195.01 222.83 -197.99 221.42 C-197.23 217.33 -196.03 213.87 -194.36 210.05 C-194.23 209.74 -194.23 209.74 -193.56 208.2 C-191.37 203.20 -189.07 198.25 -186.74 193.32 C-184.74 189.08 -182.83 184.81 -180.95 180.51 C-177.63 172.93 -174.16 165.59 -169.99 158.42 C-169.33 158.42 -168.67 158.42 -167.99 158.42 C-167.81 157.60 -167.63 156.78 -167.44 155.94 C-167.19 154.86 -166.94 153.78 -166.68 152.67 C-166.43 151.60 -166.19 150.54 -165.94 149.44 C-165.01 146.5 -163.99 144.73 -161.99 142.42 C-164.63 142.42 -167.27 142.42 -169.99 142.42 C-169.37 136.26 -166.96 130.81 -164.68 125.11 C-164.28 124.11 -163.89 123.12 -163.49 122.10 C-161.73 117.65 -159.93 113.24 -157.97 108.89 C-156.48 105.61 -155.15 102.30 -153.88 98.94 C-153.51 98.00 -153.15 97.07 -152.78 96.10 C-152.04 94.18 -151.32 92.26 -150.61 90.33 C-147.68 82.87 -144.33 78.45 -137.00 75.03 C-136.09 74.75 -135.18 74.46 -134.24 74.17 C-131.01 73.14 -128.84 72.32 -125.99 70.42 C-125.15 66.60 -124.95 62.94 -124.99 59.05 C-124.99 55.42 -124.99 55.42 -123.99 54.42 C-122.11 54.34 -120.22 54.31 -118.34 54.32 C-117.75 54.31 -117.75 54.31 -114.79 54.27 C-112.33 54.25 -109.87 54.24 -107.42 54.26 C-98.89 54.10 -93.87 52.32 -86.99 47.42 C-85.40 46.52 -83.79 45.65 -82.18 44.80 C-68.85 37.60 -55.78 29.90 -42.67 22.29 C-38.58 19.91 -34.47 17.55 -30.35 15.22 C-24.11 11.68 -17.99 8 -11.93 4.18 C-10.96 3.60 -9.99 3.02 -8.99 2.42 C-8.00 1.81 -7.01 1.20 -5.99 0.57 C-2.99 -0.58 -2.99 -0.58 0 0 Z M-135.99 142.42 C-134.67 144.73 -133.35 147.04 -131.99 149.42 C-131.30 146.93 -130.99 145.04 -130.99 142.42 C-132.64 142.42 -134.29 142.42 -135.99 142.42 Z M128.01 142.42 C127.01 145.42 127.01 145.42 127.95 147.61 C128.3 148.21 128.65 148.81 129.01 149.42 C130.00 147.11 130.99 144.80 132.01 142.42 C130.69 142.42 129.37 142.42 128.01 142.42 Z M-131.99 160.42 C-130.99 162.42 -130.99 162.42 -130.99 162.42 Z " fill="#000000" transform="translate(266.99,36.58)"/>
<path d="M0 0 C3.23 1.53 6.19 3.24 9.20 5.17 C14.09 8.26 19.04 11.13 24.13 13.86 C27.47 15.67 30.78 17.54 34.07 19.42 C34.67 19.76 35.26 20.10 35.87 20.45 C40.30 22.99 44.67 25.61 49.02 28.29 C51.01 29.42 51.01 29.42 54.01 30.42 C54.01 31.08 54.01 31.74 54.01 32.42 C54.80 32.63 55.58 32.83 56.39 33.05 C60.34 34.55 63.61 36.54 67.20 38.76 C71.99 41.59 77.00 43.99 82.01 46.42 C82.01 47.08 82.01 47.74 82.01 48.42 C82.90 48.69 83.78 48.96 84.70 49.23 C88.01 50.42 88.01 50.42 90.07 51.99 C94.47 54.13 98.58 53.66 103.39 53.48 C105.23 53.42 107.07 53.37 108.91 53.33 C109.72 53.30 110.53 53.27 111.37 53.24 C114.01 53.42 114.01 53.42 121.01 55.42 C121.34 60.37 121.67 65.32 122.01 70.42 C123.11 70.87 124.21 71.32 125.34 71.78 C126.79 72.39 128.25 73.00 129.70 73.61 C130.42 73.90 131.14 74.19 131.88 74.49 C132.59 74.79 133.30 75.09 134.02 75.40 C134.67 75.67 135.31 75.94 135.97 76.21 C141.99 79.78 144.32 84.61 146.75 90.84 C147.09 91.66 147.42 92.48 147.76 93.32 C148.81 95.94 149.85 98.55 150.89 101.17 C151.57 102.89 152.26 104.60 152.95 106.31 C154.31 109.69 155.67 113.07 157.01 116.46 C158.34 119.77 159.69 123.06 161.08 126.34 C161.24 126.73 161.24 126.73 162.07 128.69 C162.69 130.15 163.31 131.60 163.94 133.06 C165.38 136.47 166.01 138.64 166.01 142.42 C163.70 142.75 161.39 143.08 159.01 143.42 C159.16 143.66 159.16 143.66 159.89 144.89 C162.74 150.04 163.43 153.55 163.01 159.42 C164.00 159.09 164.99 158.76 166.01 158.42 C175.17 175.30 175.17 175.30 177.99 182.82 C179.36 186.32 180.93 189.71 182.51 193.11 C182.65 193.42 182.65 193.42 183.38 194.98 C184.83 198.09 186.37 201.09 188.09 204.05 C189.72 206.90 191.02 209.62 192.20 212.67 C192.52 213.50 192.85 214.33 193.18 215.19 C193.82 216.92 194.43 218.67 195.01 220.42 C191.24 223.66 186.9 225.40 182.39 227.36 C181.59 227.71 180.78 228.06 179.96 228.43 C174.35 230.87 168.72 233.22 163.01 235.42 C157.82 225.14 152.75 214.82 147.85 204.40 C146.82 202.22 145.78 200.05 144.75 197.87 C140.79 189.50 137.18 181.12 134.01 172.42 C134.67 172.09 135.33 171.76 136.01 171.42 C135.35 170.97 134.69 170.51 134.01 170.05 C133.35 169.51 132.69 168.97 132.01 168.42 C132.01 167.76 132.01 167.10 132.01 166.42 C131.35 166.42 130.69 166.42 130.01 166.42 C129.68 165.76 129.35 165.10 129.01 164.42 C129.01 164.79 129.01 164.79 129.01 166.64 C128.99 173.54 128.95 180.44 128.88 187.34 C128.84 190.89 128.82 194.44 128.82 197.99 C128.81 202.07 128.77 206.14 128.72 210.22 C128.72 211.50 128.73 212.77 128.73 214.09 C128.71 215.27 128.69 216.45 128.67 217.66 C128.66 218.71 128.66 219.75 128.65 220.82 C128.01 223.42 128.01 223.42 125.60 225.28 C123.01 226.42 123.01 226.42 121.01 226.42 C121.01 232.03 121.01 237.64 121.01 243.42 C119.14 243.41 117.27 243.40 115.34 243.40 C90.17 243.58 90.17 243.58 80.01 251.42 C78.54 252.43 77.06 253.43 75.57 254.42 C74.87 254.91 74.16 255.40 73.43 255.90 C69.96 258.08 66.29 259.81 62.60 261.60 C57.36 264.17 52.39 267.08 47.42 270.14 C43.46 272.58 39.43 274.88 35.35 277.12 C31.40 279.32 27.49 281.59 23.57 283.86 C23.16 284.1 23.16 284.1 21.06 285.32 C5.42 294.39 5.42 294.39 1.57 297.20 C-0.99 298.42 -0.99 298.42 -3.36 297.66 C-5.86 296.48 -8.26 295.24 -10.66 293.88 C-11.56 293.37 -12.46 292.86 -13.38 292.34 C-14.35 291.79 -15.31 291.24 -16.30 290.67 C-17.32 290.10 -18.33 289.52 -19.38 288.93 C-27.54 284.27 -35.67 279.55 -43.78 274.81 C-49.07 271.71 -54.37 268.62 -59.68 265.56 C-60.80 264.91 -61.91 264.27 -63.06 263.61 C-65.29 262.32 -67.53 261.05 -69.77 259.78 C-74.46 257.11 -79.06 254.46 -83.42 251.29 C-95.35 242.84 -107.24 243.10 -121.57 243.47 C-123.99 243.42 -123.99 243.42 -124.99 242.42 C-124.90 240.15 -124.80 237.88 -124.68 235.61 C-124.63 231.74 -124.63 231.74 -124.99 228.42 C-127.93 225.98 -127.93 225.98 -130.99 224.42 C-132.51 218.14 -132.12 211.57 -132.09 205.15 C-132.09 203.98 -132.08 202.81 -132.08 201.61 C-132.08 197.90 -132.06 194.19 -132.05 190.48 C-132.05 187.96 -132.04 185.44 -132.04 182.92 C-132.03 176.75 -132.01 170.59 -131.99 164.42 C-133.14 165.38 -134.28 166.34 -135.43 167.30 C-136.06 167.83 -136.70 168.36 -137.36 168.91 C-138.99 170.42 -138.99 170.42 -139.99 172.42 C-139.33 172.42 -138.67 172.42 -137.99 172.42 C-139.24 177.14 -140.75 181.37 -142.86 185.80 C-143.01 186.10 -143.01 186.10 -143.75 187.66 C-144.82 189.92 -145.90 192.17 -146.99 194.42 C-148.52 197.60 -150.04 200.78 -151.57 203.96 C-152.62 206.14 -153.67 208.32 -154.72 210.50 C-157.28 215.81 -159.79 221.13 -162.15 226.53 C-163.34 229.21 -164.65 231.82 -165.99 234.42 C-170.53 233.85 -174.13 232.64 -178.26 230.70 C-178.84 230.43 -178.84 230.43 -181.76 229.07 C-182.95 228.50 -184.14 227.94 -185.36 227.36 C-186.59 226.78 -187.81 226.21 -189.04 225.64 C-192.03 224.24 -195.01 222.83 -197.99 221.42 C-197.23 217.33 -196.03 213.87 -194.36 210.05 C-194.23 209.74 -194.23 209.74 -193.56 208.2 C-191.37 203.20 -189.07 198.25 -186.74 193.32 C-184.74 189.08 -182.83 184.81 -180.95 180.51 C-177.63 172.93 -174.16 165.59 -169.99 158.42 C-169.33 158.42 -168.67 158.42 -167.99 158.42 C-167.81 157.60 -167.63 156.78 -167.44 155.94 C-167.19 154.86 -166.94 153.78 -166.68 152.67 C-166.43 151.60 -166.19 150.54 -165.94 149.44 C-165.01 146.5 -163.99 144.73 -161.99 142.42 C-164.63 142.42 -167.27 142.42 -169.99 142.42 C-169.37 136.26 -166.96 130.81 -164.68 125.11 C-164.28 124.11 -163.89 123.12 -163.49 122.10 C-161.73 117.65 -159.93 113.24 -157.97 108.89 C-156.48 105.61 -155.15 102.30 -153.88 98.94 C-153.51 98.00 -153.15 97.07 -152.78 96.10 C-152.04 94.18 -151.32 92.26 -150.61 90.33 C-147.68 82.87 -144.33 78.45 -137.00 75.03 C-136.09 74.75 -135.18 74.46 -134.24 74.17 C-131.01 73.14 -128.84 72.32 -125.99 70.42 C-125.15 66.60 -124.95 62.94 -124.99 59.05 C-124.99 55.42 -124.99 55.42 -123.99 54.42 C-122.11 54.34 -120.22 54.31 -118.34 54.32 C-117.75 54.31 -117.75 54.31 -114.79 54.27 C-112.33 54.25 -109.87 54.24 -107.42 54.26 C-98.89 54.10 -93.87 52.32 -86.99 47.42 C-85.40 46.52 -83.79 45.65 -82.18 44.80 C-68.85 37.60 -55.78 29.90 -42.67 22.29 C-38.58 19.91 -34.47 17.55 -30.35 15.22 C-24.11 11.68 -17.99 8 -11.93 4.18 C-10.96 3.60 -9.99 3.02 -8.99 2.42 C-8.00 1.81 -7.01 1.20 -5.99 0.57 C-2.99 -0.58 -2.99 -0.58 0 0 Z M-66.99 38.42 C-68.32 39.09 -69.65 39.76 -70.99 40.42 C-70.99 41.08 -70.99 41.74 -70.99 42.42 C-71.71 42.67 -72.42 42.91 -73.16 43.17 C-78.47 45.53 -82.61 49.67 -86.99 53.42 C-87.84 54.13 -88.69 54.83 -89.57 55.56 C-108.54 71.74 -121.44 96.35 -126.99 120.42 C-127.17 121.18 -127.34 121.94 -127.53 122.72 C-129.26 130.96 -129.35 139.16 -129.30 147.55 C-129.30 148.28 -129.30 149.01 -129.29 149.77 C-129.10 186.75 -114.21 217.16 -88.34 243.07 C-63.89 266.34 -30.68 277.36 2.62 276.64 C9.21 276.42 15.54 275.76 22.01 274.42 C23.24 274.18 24.48 273.93 25.75 273.68 C57.91 266.75 85.73 247.20 104.28 220.22 C106.01 217.42 106.01 217.42 106.01 215.42 C112.61 215.42 119.21 215.42 126.01 215.42 C126.01 171.53 126.01 127.64 126.01 82.42 C119.74 82.09 113.47 81.76 107.01 81.42 C103.57 77.34 102.06 75.03 100.01 70.42 C96.80 66.05 92.93 62.16 89.01 58.42 C88.69 58.10 88.69 58.10 87.04 56.5 C60.01 31.05 27.12 20.39 -9.52 21.14 C-30.61 21.88 -48.49 28.68 -66.99 38.42 Z M-135.99 142.42 C-134.67 144.73 -133.35 147.04 -131.99 149.42 C-131.30 146.93 -130.99 145.04 -130.99 142.42 C-132.64 142.42 -134.29 142.42 -135.99 142.42 Z M128.01 142.42 C127.01 145.42 127.01 145.42 127.95 147.61 C128.3 148.21 128.65 148.81 129.01 149.42 C130.00 147.11 130.99 144.80 132.01 142.42 C130.69 142.42 129.37 142.42 128.01 142.42 Z M-131.99 160.42 C-130.99 162.42 -130.99 162.42 -130.99 162.42 Z " fill="#C5C5C5" transform="translate(266.99,36.58)"/>
<path d="M0 0 C3.23 1.53 6.19 3.24 9.20 5.17 C14.09 8.26 19.04 11.13 24.13 13.86 C27.47 15.67 30.78 17.54 34.07 19.42 C34.67 19.76 35.26 20.10 35.87 20.45 C40.30 22.99 44.67 25.61 49.02 28.29 C51.01 29.42 51.01 29.42 54.01 30.42 C54.01 31.08 54.01 31.74 54.01 32.42 C54.80 32.63 55.58 32.83 56.39 33.05 C60.34 34.55 63.61 36.54 67.20 38.76 C71.99 41.59 77.00 43.99 82.01 46.42 C82.01 48.40 82.01 50.38 82.01 52.42 C80.72 51.57 79.43 50.72 78.14 49.86 C77.31 49.31 76.47 48.76 75.62 48.19 C73.97 47.08 72.35 45.93 70.75 44.75 C43.59 24.69 9.65 18.82 -23.42 23.20 C-37.82 25.50 -50.87 31.03 -63.70 37.78 C-66.23 39.04 -68.23 39.94 -70.99 40.42 C-70.99 41.08 -70.99 41.74 -70.99 42.42 C-72.47 43.51 -72.47 43.51 -74.61 44.80 C-100.97 61.90 -118.97 89.98 -125.99 120.42 C-126.16 121.17 -126.34 121.92 -126.52 122.7 C-128.27 131.12 -128.43 139.54 -128.61 148.11 C-128.65 149.60 -128.69 151.09 -128.73 152.58 C-128.82 156.20 -128.91 159.81 -128.99 163.42 C-129.78 163.72 -130.56 164.01 -131.38 164.31 C-134.23 165.52 -135.39 166.65 -137.30 169.05 C-137.81 169.68 -138.32 170.31 -138.85 170.96 C-139.23 171.44 -139.60 171.93 -139.99 172.42 C-139.33 172.42 -138.67 172.42 -137.99 172.42 C-139.24 177.14 -140.75 181.37 -142.86 185.80 C-143.01 186.10 -143.01 186.10 -143.75 187.66 C-144.82 189.92 -145.90 192.17 -146.99 194.42 C-148.52 197.60 -150.04 200.78 -151.57 203.96 C-152.62 206.14 -153.67 208.32 -154.72 210.50 C-157.28 215.81 -159.79 221.13 -162.15 226.53 C-163.34 229.21 -164.65 231.82 -165.99 234.42 C-170.53 233.85 -174.13 232.64 -178.26 230.70 C-178.84 230.43 -178.84 230.43 -181.76 229.07 C-182.95 228.50 -184.14 227.94 -185.36 227.36 C-186.59 226.78 -187.81 226.21 -189.04 225.64 C-192.03 224.24 -195.01 222.83 -197.99 221.42 C-197.23 217.33 -196.03 213.87 -194.36 210.05 C-194.23 209.74 -194.23 209.74 -193.56 208.2 C-191.37 203.20 -189.07 198.25 -186.74 193.32 C-184.74 189.08 -182.83 184.81 -180.95 180.51 C-177.63 172.93 -174.16 165.59 -169.99 158.42 C-169.33 158.42 -168.67 158.42 -167.99 158.42 C-167.81 157.60 -167.63 156.78 -167.44 155.94 C-167.19 154.86 -166.94 153.78 -166.68 152.67 C-166.43 151.60 -166.19 150.54 -165.94 149.44 C-165.01 146.5 -163.99 144.73 -161.99 142.42 C-164.63 142.42 -167.27 142.42 -169.99 142.42 C-169.37 136.26 -166.96 130.81 -164.68 125.11 C-164.28 124.11 -163.89 123.12 -163.49 122.10 C-161.73 117.65 -159.93 113.24 -157.97 108.89 C-156.48 105.61 -155.15 102.30 -153.88 98.94 C-153.51 98.00 -153.15 97.07 -152.78 96.10 C-152.04 94.18 -151.32 92.26 -150.61 90.33 C-147.68 82.87 -144.33 78.45 -137.00 75.03 C-136.09 74.75 -135.18 74.46 -134.24 74.17 C-131.01 73.14 -128.84 72.32 -125.99 70.42 C-125.15 66.60 -124.95 62.94 -124.99 59.05 C-124.99 55.42 -124.99 55.42 -123.99 54.42 C-122.11 54.34 -120.22 54.31 -118.34 54.32 C-117.75 54.31 -117.75 54.31 -114.79 54.27 C-112.33 54.25 -109.87 54.24 -107.42 54.26 C-98.89 54.10 -93.87 52.32 -86.99 47.42 C-85.40 46.52 -83.79 45.65 -82.18 44.80 C-68.85 37.60 -55.78 29.90 -42.67 22.29 C-38.58 19.91 -34.47 17.55 -30.35 15.22 C-24.11 11.68 -17.99 8 -11.93 4.18 C-10.96 3.60 -9.99 3.02 -8.99 2.42 C-8.00 1.81 -7.01 1.20 -5.99 0.57 C-2.99 -0.58 -2.99 -0.58 0 0 Z M-135.99 142.42 C-134.67 144.73 -133.35 147.04 -131.99 149.42 C-131.30 146.93 -130.99 145.04 -130.99 142.42 C-132.64 142.42 -134.29 142.42 -135.99 142.42 Z M-131.99 160.42 C-130.99 162.42 -130.99 162.42 -130.99 162.42 Z " fill="#BCBCBC" transform="translate(266.99,36.58)"/>
<path d="M0 0 C6.56 5.57 9.88 16.43 12.91 24.30 C14.33 27.81 15.90 31.25 17.5 34.69 C17.79 35.31 18.07 35.92 18.36 36.56 C19.82 39.66 21.36 42.67 23.08 45.63 C24.70 48.48 26.01 51.20 27.19 54.25 C27.35 54.66 27.35 54.66 28.17 56.77 C28.81 58.50 29.41 60.25 30 62 C26.23 65.24 21.89 66.98 17.38 68.94 C16.57 69.29 15.77 69.64 14.95 70.00 C9.34 72.45 3.71 74.80 -2 77 C-7.19 66.72 -12.26 56.40 -17.16 45.98 C-18.19 43.80 -19.23 41.62 -20.26 39.45 C-24.22 31.08 -27.84 22.70 -31 14 C-30.53 13.84 -30.53 13.84 -28.18 13.05 C-18.34 9.73 -8.69 5.79 0 0 Z " fill="#C8C8C8" transform="translate(432,195)"/>
<path d="M0 0 C3.07 1.15 5.70 2.37 8.38 4.25 C15.28 8.69 23.97 12.30 32 14 C30.75 18.72 29.24 22.95 27.13 27.38 C26.83 27.99 26.54 28.61 26.24 29.24 C25.17 31.50 24.08 33.75 23 36 C21.47 39.18 19.94 42.36 18.42 45.54 C17.37 47.72 16.32 49.90 15.26 52.08 C12.71 57.39 10.20 62.71 7.84 68.11 C6.65 70.78 5.34 73.39 4 76 C-0.54 75.43 -4.14 74.22 -8.27 72.28 C-9.43 71.74 -10.58 71.20 -11.77 70.65 C-12.96 70.08 -14.15 69.52 -15.38 68.94 C-16.6 68.36 -17.82 67.79 -19.05 67.22 C-22.04 65.82 -25.02 64.41 -28 63 C-27.24 58.91 -26.04 55.45 -24.38 51.63 C-24.24 51.32 -24.24 51.32 -23.57 49.78 C-21.38 44.78 -19.08 39.83 -16.75 34.90 C-14.75 30.66 -12.84 26.39 -10.96 22.09 C-7.64 14.51 -4.17 7.17 0 0 Z " fill="#C6C7C6" transform="translate(97,195)"/>
<path d="M0 0 C0.66 0.33 1.32 0.66 2 1 C2.47 3.46 2.85 5.89 3.19 8.38 C7.98 38.81 26.00 66.97 50 86 C58.86 92.30 68.17 97.36 78 102 C77.83 102.50 77.83 102.50 77 105 C71.38 102.87 66.34 99.90 61.13 96.94 C60.09 96.36 59.05 95.78 57.98 95.18 C49.15 90.23 49.15 90.23 45.14 87.18 C34.04 78.93 21.87 79.80 8.45 80.06 C6 80 6 80 5 79 C5.08 76.73 5.19 74.46 5.31 72.19 C5.36 68.32 5.36 68.32 5 65 C2.06 62.56 2.06 62.56 -1 61 C-2.46 54.88 -2.16 48.52 -2.17 42.27 C-2.17 41.15 -2.17 40.04 -2.18 38.89 C-2.18 36.54 -2.19 34.19 -2.19 31.85 C-2.19 28.25 -2.21 24.65 -2.23 21.05 C-2.23 18.77 -2.23 16.49 -2.23 14.20 C-2.24 13.13 -2.25 12.05 -2.25 10.94 C-2.25 9.94 -2.25 8.94 -2.24 7.91 C-2.24 7.03 -2.25 6.16 -2.25 5.25 C-2 3 -2 3 0 0 Z " fill="#4466CC" transform="translate(137,200)"/>
<path d="M0 0 C3.23 1.53 6.19 3.24 9.20 5.17 C14.09 8.26 19.04 11.13 24.13 13.86 C27.47 15.67 30.78 17.54 34.07 19.42 C34.67 19.76 35.26 20.10 35.87 20.45 C40.30 22.99 44.67 25.61 49.02 28.29 C51.01 29.42 51.01 29.42 54.01 30.42 C54.01 31.08 54.01 31.74 54.01 32.42 C54.80 32.63 55.58 32.83 56.39 33.05 C60.34 34.55 63.61 36.54 67.20 38.76 C71.99 41.59 77.00 43.99 82.01 46.42 C82.01 48.40 82.01 50.38 82.01 52.42 C80.72 51.57 79.43 50.72 78.14 49.86 C77.72 49.58 77.72 49.58 75.62 48.19 C73.97 47.08 72.35 45.93 70.75 44.75 C43.59 24.69 9.65 18.82 -23.42 23.20 C-37.82 25.50 -50.87 31.03 -63.70 37.78 C-66.23 39.04 -68.23 39.94 -70.99 40.42 C-70.99 41.08 -70.99 41.74 -70.99 42.42 C-72.85 43.86 -72.85 43.86 -75.30 45.42 C-75.70 45.68 -75.70 45.68 -77.73 46.98 C-78.47 47.46 -79.22 47.93 -79.99 48.42 C-80.98 49.08 -81.97 49.74 -82.99 50.42 C-82.61 47.78 -82.17 46.60 -80.26 44.69 C-74.89 40.65 -69.43 37.23 -63.49 34.11 C-61.72 33.16 -59.96 32.21 -58.20 31.26 C-57.33 30.79 -56.45 30.31 -55.55 29.83 C-51.69 27.71 -47.90 25.48 -44.11 23.23 C-39.02 20.21 -33.9 17.22 -28.74 14.30 C-23.04 11.06 -17.47 7.67 -11.93 4.18 C-10.96 3.60 -9.99 3.02 -8.99 2.42 C-8.00 1.81 -7.01 1.20 -5.99 0.57 C-2.99 -0.58 -2.99 -0.58 0 0 Z " fill="#999999" transform="translate(266.99,36.58)"/>
<path d="M0 0 C1.13 0.01 2.25 0.01 3.41 0.02 C4.63 0.02 5.84 0.02 7.09 0.03 C8.37 0.03 9.65 0.04 10.97 0.05 C12.25 0.06 13.54 0.06 14.86 0.07 C18.04 0.08 21.23 0.09 24.41 0.11 C22.00 2.64 19.79 4.68 16.73 6.37 C16.05 6.75 15.36 7.13 14.66 7.52 C13.96 7.9 13.26 8.28 12.53 8.68 C11.84 9.06 11.14 9.45 10.43 9.85 C-0.91 16.11 -0.91 16.11 -3.59 16.11 C-3.62 13.63 -3.64 11.15 -3.65 8.68 C-3.66 8.32 -3.66 8.32 -3.68 6.53 C-3.69 4.73 -3.64 2.92 -3.59 1.11 C-2.59 0.11 -2.59 0.11 0 0 Z " fill="#B1B1B1" transform="translate(145.59,90.89)"/>
<path d="M0 0 C3.86 1.29 6.73 3.23 9.98 5.64 C12.24 7.16 14.55 8.32 17 9.5 C20.16 11.02 23.00 12.60 25.81 14.69 C28.58 16.69 30.86 17.80 34 19 C34.16 19.33 34.16 19.33 35 21 C18.78 22.93 18.78 22.93 14.28 19.80 C11.07 16.33 9.13 12.20 7 8 C4.84 5.12 2.61 2.48 0 0 Z " fill="#8C8C8C" transform="translate(358,98)"/>
<path d="M0 0 C0 3 0 3 -1.90 5.12 C-2.72 5.89 -3.53 6.65 -4.38 7.44 C-8.82 11.61 -8.82 11.61 -9.95 14.07 C-11.50 16.91 -13.63 17.82 -16.44 19.38 C-17.51 19.98 -18.59 20.58 -19.70 21.20 C-20.24 21.50 -20.24 21.50 -23 23 C-23.98 23.54 -24.95 24.09 -25.96 24.64 C-31.24 27.56 -36.58 30.34 -42 33 C-42 32.34 -42 31.68 -42 31 C-42.66 30.67 -43.32 30.34 -44 30 C-42.97 29.50 -41.95 29.01 -40.89 28.50 C-25.57 21.02 -11.79 12.49 0 0 Z " fill="#B7B6B6" transform="translate(357,273)"/>
<path d="M0 0 C1.32 0.33 2.64 0.66 4 1 C-1.70 5.14 -7.72 8.57 -13.94 11.88 C-14.70 12.28 -15.45 12.69 -16.23 13.10 C-16.95 13.48 -17.66 13.86 -18.40 14.24 C-19.05 14.58 -19.69 14.92 -20.36 15.27 C-22 16 -22 16 -24 16 C-24 14.02 -24 12.04 -24 10 C-23.67 10.66 -23.34 11.32 -23 12 C-21.31 11.08 -19.63 10.17 -17.94 9.25 C-16.93 8.71 -15.93 8.16 -14.89 7.60 C-12.60 6.33 -10.36 5.00 -8.13 3.63 C-5.03 2.01 -3.42 1.58 0 2 C0 1.34 0 0.68 0 0 Z " fill="#A4A4A4" transform="translate(166,91)"/>
<path d="M0 0 C5.71 2.20 10.79 5.16 16.04 8.28 C19.63 10.36 23.27 12.21 27 14 C27 15.98 27 17.96 27 20 C21.41 16.32 15.90 12.54 10.44 8.67 C7.50 6.66 4.48 4.83 1.40 3.04 C0.94 2.70 0.47 2.35 0 2 C0 1.34 0 0.68 0 0 Z " fill="#ADADAD" transform="translate(322,69)"/>
<path d="M0 0 C3.60 1.44 6.64 3.23 9.91 5.31 C16.80 9.68 16.80 9.68 20.29 11.31 C19.96 11.97 19.63 12.63 19.29 13.31 C11.37 9.68 3.45 6.05 -4.71 2.31 C-4.71 1.65 -4.71 0.99 -4.71 0.31 C-2.71 -0.69 -2.71 -0.69 0 0 Z " fill="#B9B9B8" transform="translate(266.71,36.69)"/>
<path d="M0 0 C2.37 0.95 4.75 1.9 7.12 2.85 C9.01 3.60 10.89 4.35 12.79 5.09 C13.66 5.43 14.54 5.77 15.44 6.13 C16.24 6.44 17.04 6.75 17.87 7.07 C20 8 20 8 23 10 C23 10.66 23 11.32 23 12 C23.66 12.33 24.32 12.66 25 13 C20.29 12.32 16.25 10.54 11.94 8.63 C11.23 8.32 10.52 8.02 9.79 7.70 C2.85 4.65 2.85 4.65 0 2 C0 1.34 0 0.68 0 0 Z " fill="#ADADAD" transform="translate(100,195)"/>
<path d="M0 0 C0 0.66 0 1.32 0 2 C-7.79 6.59 -15.87 11.04 -25 12 C-22.77 9.54 -20.65 8.16 -17.66 6.74 C-16.82 6.34 -15.99 5.95 -15.13 5.54 C-14.70 5.33 -14.70 5.33 -12.5 4.31 C-11.63 3.90 -10.77 3.48 -9.87 3.05 C-3.38 0 -3.38 0 0 0 Z " fill="#ABABAB" transform="translate(429,196)"/>
<path d="M0 0 C4.69 0.56 8.20 1.88 12.38 4.06 C13.44 4.61 14.49 5.16 15.59 5.72 C16.38 6.14 17.18 6.57 18 7 C18 7.99 18 8.98 18 10 C13.40 9.45 10.02 7.44 6.19 5 C5.59 4.63 4.99 4.26 4.38 3.88 C2.90 2.96 1.45 1.98 0 1 C0 0.67 0 0.34 0 0 Z " fill="#A1A1A1" transform="translate(370,97)"/>
<path d="M0 0 C0 0.99 0 1.98 0 3 C-0.66 3 -1.32 3 -2 3 C-2 3.66 -2 4.32 -2 5 C-3.86 6.44 -3.86 6.44 -6.31 8 C-6.71 8.26 -6.71 8.26 -8.74 9.56 C-9.48 10.04 -10.23 10.51 -11 11 C-11.99 11.66 -12.98 12.32 -14 13 C-13.64 10.20 -13.14 9.13 -11.07 7.15 C-10.29 6.56 -9.50 5.98 -8.69 5.38 C-7.91 4.79 -7.13 4.19 -6.32 3.59 C-4.27 2.18 -2.26 1.04 0 0 Z " fill="#A3A3A2" transform="translate(198,74)"/>
<path d="M0 0 C13.48 5.34 13.48 5.34 16.23 10.16 C16.48 10.77 16.74 11.37 17 12 C13.45 10.70 10.49 9.14 7.38 7 C6.62 6.48 5.86 5.97 5.09 5.44 C4.40 4.96 3.71 4.49 3 4 C2.01 3.34 1.02 2.68 0 2 C0 1.34 0 0.68 0 0 Z " fill="#A5A5A4" transform="translate(322,69)"/>
<path d="M0 0 C11.49 0.85 11.49 0.85 15 3 C15.33 4.32 15.66 5.64 16 7 C10.72 5.02 5.44 3.04 0 1 C0 0.67 0 0.34 0 0 Z " fill="#8F8F8F" transform="translate(306,64)"/>
<path d="M0 0 C5.07 0.65 9.42 2.85 14 5 C13.67 5.99 13.34 6.98 13 8 C8.28 6.38 4.06 3.89 0 1 C0 0.67 0 0.34 0 0 Z " fill="#C1C2C1" transform="translate(201,297)"/>
<path d="M0 0 C-2.97 1.65 -5.94 3.3 -9 5 C-9 4.34 -9 3.68 -9 3 C-9.66 2.67 -10.32 2.34 -11 2 C-4.5 -1.13 -4.5 -1.13 0 0 Z " fill="#BDBDBD" transform="translate(324,301)"/>
</g>
</svg>