<?xml version="1.0" encoding="UTF-8"?>
<svg xmlns="http://www.w3.org/2000/svg" viewBox="0 0 120 52" width="120" height="52">
<g transform="translate(6.00, 2.64) scale(0.11)">
<path d="M0 0 C0.36 0.00 0.36 0.00 2.16 0.01 C5.56 0.01 8.95 -0.04 12.35 -0.16 C34.87 -0.96 34.87 -0.96 40.37 2.14 C43.51 5.17 44.98 8.86 46.46 12.90 C47.97 16.61 50.24 19.83 52.43 23.16 C53.27 24.51 54.11 25.85 54.95 27.20 C57.48 31.27 60.05 35.31 62.63 39.35 C63.18 40.21 63.73 41.08 64.30 41.97 C64.71 42.49 65.12 43.00 65.54 43.53 C70.08 49.70 69.99 55.35 69.90 62.82 C69.90 63.46 69.90 63.46 69.92 66.71 C69.93 70.26 69.91 73.81 69.88 77.36 C69.86 81.20 69.87 85.03 69.87 88.87 C69.87 95.51 69.86 102.15 69.83 108.78 C69.79 118.38 69.78 127.98 69.77 137.58 C69.76 153.16 69.72 168.73 69.68 184.30 C69.63 199.43 69.60 214.56 69.58 229.68 C69.57 230.62 69.57 231.55 69.57 232.51 C69.56 237.19 69.56 241.87 69.55 246.55 C69.50 285.36 69.41 324.17 69.30 362.97 C67.42 363.45 65.54 363.93 63.66 364.40 C62.61 364.67 61.56 364.93 60.49 365.20 C50.04 367.73 39.75 368.36 29.05 368.60 C27.61 368.64 26.17 368.68 24.73 368.71 C21.26 368.81 17.78 368.89 14.30 368.97 C13.97 369.96 13.64 370.95 13.30 371.97 C2.27 373.05 -8.52 372.92 -19.57 372.54 C-21.25 372.48 -22.91 372.43 -24.59 372.38 C-28.62 372.25 -32.66 372.11 -36.70 371.97 C-37.03 370.65 -37.36 369.33 -37.70 367.97 C-38.52 367.99 -39.35 368.01 -40.20 368.04 C-80.79 368.93 -80.79 368.93 -92.70 362.97 C-92.97 323.42 -93.19 283.87 -93.31 244.32 C-93.33 239.64 -93.34 234.97 -93.36 230.29 C-93.36 229.36 -93.36 228.43 -93.37 227.47 C-93.42 212.42 -93.52 197.38 -93.63 182.33 C-93.74 166.88 -93.80 151.42 -93.83 135.97 C-93.84 126.44 -93.90 116.92 -93.99 107.39 C-94.06 100.85 -94.08 94.30 -94.06 87.76 C-94.05 83.99 -94.06 80.22 -94.13 76.46 C-94.41 59.16 -93.29 46.48 -82.07 32.70 C-80.27 30.43 -78.82 28.00 -77.39 25.47 C-74.28 20.23 -71.02 15.08 -67.70 9.97 C-67.52 9.61 -67.52 9.61 -66.60 7.76 C-63.17 1.48 -63.17 1.48 -59.27 0.14 C-56.27 -0.17 -53.39 -0.20 -50.37 -0.13 C-49.27 -0.13 -48.16 -0.14 -47.03 -0.15 C-43.50 -0.17 -39.98 -0.13 -36.45 -0.09 C-34.12 -0.09 -31.80 -0.1 -29.47 -0.11 C-23.88 -0.13 -18.29 -0.10 -12.70 -0.05 C-8.47 -0.02 -4.23 -0.00 0 0 Z " fill="#CBCBCB" transform="translate(523.70,35.03)"/>
<path d="M0 0 C32.01 0 64.02 0 97 0 C97 1.32 97 2.64 97 4 C64.99 4 32.98 4 0 4 C0 2.68 0 1.36 0 0 Z " fill="#ABACAC" transform="translate(463,234)"/>
<path d="M0 0 C31.68 0 63.36 0 96 0 C96.17 0.49 96.17 0.49 97 3 C95.11 4.89 92.36 4.12 89.85 4.12 C88.96 4.12 88.08 4.12 87.17 4.11 C86.24 4.11 85.31 4.11 84.36 4.11 C81.28 4.11 78.2 4.11 75.12 4.10 C72.99 4.10 70.86 4.09 68.74 4.09 C63.12 4.09 57.51 4.08 51.89 4.07 C46.17 4.06 40.45 4.05 34.72 4.05 C23.48 4.04 12.24 4.02 1 4 C0.67 2.68 0.34 1.36 0 0 Z " fill="#ACACAC" transform="translate(463,357)"/>
<path d="M0 0 C31.68 0 63.36 0 96 0 C96.17 0.49 96.17 0.49 97 3 C64.99 3 32.98 3 0 3 C0 2.01 0 1.02 0 0 Z " fill="#A5A5A5" transform="translate(463,296)"/>
<path d="M0 0 C31.35 0 62.7 0 95 0 C95 0.66 95 1.32 95 2 C95.33 2.17 95.33 2.17 97 3 C64.99 3 32.98 3 0 3 C0 2.01 0 1.02 0 0 Z " fill="#A4A4A4" transform="translate(463,173)"/>
<path d="M0 0 C0.45 0 0.45 0 2.73 0 C3.70 0.01 4.68 0.01 5.68 0.02 C6.68 0.02 7.67 0.02 8.70 0.02 C11.89 0.03 15.08 0.04 18.27 0.05 C20.43 0.06 22.59 0.06 24.74 0.07 C30.04 0.08 35.34 0.09 40.64 0.11 C40.64 1.10 40.64 2.09 40.64 3.11 C25.13 3.11 9.62 3.11 -6.36 3.11 C-6.36 2.45 -6.36 1.79 -6.36 1.11 C-4.01 -0.06 -2.62 -0.01 0 0 Z " fill="#A7A7A7" transform="translate(493.36,393.89)"/>
<path d="M0 0 C2.31 0 4.62 0 7 0 C6.67 0.17 6.67 0.17 5 1 C5 1.66 5 2.32 5 3 C21.17 2.67 37.34 2.34 54 2 C53.67 2.66 53.34 3.32 53 4 C37.16 4 21.32 4 5 4 C5 5.32 5 6.64 5 8 C3.35 8.33 1.7 8.66 0 9 C0 6.03 0 3.06 0 0 Z " fill="#BEBEBE" transform="translate(482,394)"/>
</g>
</svg>