<svg xmlns="http://www.w3.org/2000/svg" viewBox="0 0 60 52">
  <defs>
    <linearGradient id="crab-body-green" x1="0%" y1="0%" x2="0%" y2="100%">
      <stop offset="0%" style="stop-color:#55BB55"/>
      <stop offset="100%" style="stop-color:#228822"/>
    </linearGradient>
  </defs>
  <line x1="18" y1="26" x2="6" y2="20" stroke="#228822" stroke-width="2.5"/>
  <line x1="16" y1="30" x2="4" y2="30" stroke="#228822" stroke-width="2.5"/>
  <line x1="18" y1="34" x2="6" y2="40" stroke="#228822" stroke-width="2.5"/>
  <line x1="42" y1="26" x2="54" y2="20" stroke="#228822" stroke-width="2.5"/>
  <line x1="44" y1="30" x2="56" y2="30" stroke="#228822" stroke-width="2.5"/>
  <line x1="42" y1="34" x2="54" y2="40" stroke="#228822" stroke-width="2.5"/>
  <ellipse cx="30" cy="30" rx="16" ry="12" fill="url(#crab-body-green)" stroke="#116611" stroke-width="1.5"/>
  <path d="M18,26 Q30,20 42,26" fill="none" stroke="#77DD77" stroke-width="1"/>
  <path d="M20,32 Q30,28 40,32" fill="none" stroke="#77DD77" stroke-width="1"/>
  <ellipse cx="10" cy="18" rx="5" ry="4" fill="#55BB55" stroke="#228822" stroke-width="1"/>
  <ellipse cx="50" cy="18" rx="5" ry="4" fill="#55BB55" stroke="#228822" stroke-width="1"/>
  <circle cx="24" cy="22" r="3" fill="#2A2A2A"/>
  <circle cx="36" cy="22" r="3" fill="#2A2A2A"/>
  <circle cx="24" cy="21" r="1" fill="#FFFFFF"/>
  <circle cx="36" cy="21" r="1" fill="#FFFFFF"/>
</svg>
