<?xml version="1.0" encoding="UTF-8"?>
<svg xmlns="http://www.w3.org/2000/svg" viewBox="0 0 60 52" width="60" height="52">
<g transform="translate(3.00, 2.64) scale(0.11)">
<path d="M0 0 C1.12 0.00 2.25 0.00 3.40 0.00 C30.19 0.04 56.97 0.29 83.76 0.53 C87.26 0.56 90.76 0.59 94.26 0.62 C99.82 0.67 105.39 0.72 110.95 0.78 C113.04 0.80 115.12 0.82 117.21 0.83 C120.08 0.86 122.95 0.89 125.82 0.92 C126.67 0.93 127.52 0.93 128.40 0.94 C134.20 1.01 134.20 1.01 135.31 2.13 C135.31 6.75 135.31 11.37 135.31 16.13 C152.47 16.13 169.63 16.13 187.31 16.13 C188.01 20.34 188.44 23.71 188.44 27.88 C188.44 28.45 188.44 28.45 188.45 31.31 C188.44 31.93 188.44 31.93 188.44 35.04 C188.44 36.36 188.44 37.68 188.44 39.04 C188.45 42.69 188.45 46.34 188.44 49.99 C188.44 53.92 188.44 57.86 188.45 61.80 C188.45 69.51 188.45 77.23 188.45 84.94 C188.45 91.21 188.44 97.47 188.45 103.74 C188.45 104.63 188.45 105.53 188.45 106.44 C188.45 108.25 188.45 110.07 188.45 111.88 C188.45 128.86 188.45 145.85 188.44 162.84 C188.44 177.42 188.44 192.00 188.44 206.58 C188.45 223.51 188.45 240.44 188.45 257.36 C188.45 259.17 188.45 260.97 188.45 262.78 C188.45 263.66 188.45 264.55 188.45 265.47 C188.44 271.73 188.45 277.99 188.45 284.25 C188.45 291.88 188.45 299.51 188.45 307.13 C188.44 311.03 188.44 314.92 188.44 318.81 C188.45 323.03 188.44 327.25 188.44 331.46 C188.44 332.70 188.44 333.93 188.45 335.21 C188.44 336.33 188.44 337.46 188.44 338.62 C188.44 339.59 188.44 340.57 188.44 341.57 C188.32 343.91 187.98 345.89 187.31 348.13 C180.87 348.29 174.43 348.45 167.99 348.61 C165.80 348.66 163.61 348.72 161.42 348.77 C158.27 348.86 155.11 348.93 151.96 349.00 C151.47 349.02 151.47 349.02 149.01 349.09 C148.09 349.11 147.16 349.13 146.22 349.15 C145.81 349.16 145.81 349.16 143.78 349.21 C141.31 349.13 141.31 349.13 135.31 348.13 C135.31 353.07 135.31 358.02 135.31 363.13 C131.45 363.90 128.47 364.25 124.60 364.26 C123.52 364.26 122.44 364.26 121.33 364.26 C120.21 364.26 119.09 364.25 117.94 364.25 C116.83 364.25 115.72 364.26 114.57 364.26 C109.05 364.25 103.75 364.11 98.31 363.13 C97.65 366.10 96.99 369.06 96.31 372.13 C91.83 372.15 87.35 372.17 82.88 372.19 C81.60 372.20 80.32 372.20 79.00 372.21 C78.39 372.21 78.39 372.21 75.32 372.22 C74.19 372.23 73.06 372.23 71.91 372.24 C69.31 372.13 69.31 372.13 68.31 371.13 C67.94 368.80 67.61 366.46 67.31 364.13 C66.81 364.13 66.81 364.13 64.24 364.14 C60.48 364.16 56.71 364.17 52.95 364.18 C51.32 364.19 49.69 364.19 48.06 364.2 C45.72 364.21 43.38 364.22 41.04 364.22 C40.31 364.23 39.59 364.23 38.84 364.24 C35.72 364.24 33.30 364.12 30.31 363.13 C30.31 366.10 30.31 369.06 30.31 372.13 C21.40 372.13 12.49 372.13 3.31 372.13 C1.31 366.13 1.31 366.13 1.31 363.13 C0.81 363.21 0.81 363.21 -1.73 363.62 C-7.80 364.37 -13.89 364.27 -20.00 364.25 C-22.08 364.25 -24.16 364.25 -26.24 364.26 C-26.89 364.26 -26.89 364.26 -30.21 364.26 C-31.41 364.26 -32.60 364.26 -33.83 364.25 C-36.69 364.13 -36.69 364.13 -38.69 363.13 C-38.69 358.18 -38.69 353.23 -38.69 348.13 C-41.08 348.29 -43.47 348.45 -45.94 348.63 C-54.44 349.14 -62.92 349.24 -71.44 349.25 C-72.04 349.25 -72.04 349.25 -75.11 349.26 C-76.27 349.26 -77.42 349.26 -78.61 349.26 C-79.64 349.26 -80.66 349.26 -81.72 349.25 C-84.78 349.12 -87.68 348.69 -90.69 348.13 C-91.92 341.44 -91.83 334.82 -91.81 328.03 C-91.82 326.70 -91.82 325.36 -91.82 324.02 C-91.82 320.36 -91.82 316.70 -91.82 313.03 C-91.82 309.08 -91.82 305.13 -91.82 301.17 C-91.83 293.43 -91.83 285.69 -91.82 277.95 C-91.82 271.66 -91.82 265.37 -91.82 259.08 C-91.82 258.19 -91.82 257.29 -91.82 256.37 C-91.82 254.55 -91.82 252.74 -91.82 250.92 C-91.83 233.88 -91.82 216.84 -91.82 199.79 C-91.81 185.16 -91.81 170.53 -91.82 155.89 C-91.82 138.90 -91.83 121.92 -91.82 104.93 C-91.82 103.12 -91.82 101.31 -91.82 99.50 C-91.82 98.61 -91.82 97.72 -91.82 96.80 C-91.82 90.51 -91.82 84.23 -91.82 77.94 C-91.83 70.29 -91.83 62.63 -91.82 54.98 C-91.82 51.08 -91.82 47.17 -91.82 43.26 C-91.82 39.03 -91.82 34.81 -91.81 30.58 C-91.82 29.34 -91.82 28.09 -91.82 26.80 C-91.82 26.24 -91.82 26.24 -91.81 23.40 C-91.81 22.42 -91.81 21.44 -91.81 20.44 C-91.69 18.13 -91.69 18.13 -90.69 16.13 C-73.53 16.13 -56.37 16.13 -38.69 16.13 C-38.69 11.18 -38.69 6.22 -38.69 1.13 C-25.77 0.16 -12.95 -0.03 0 0 Z " fill="#CACACA" transform="translate(207.69,34.88)"/>
<path d="M0 0 C37.62 0 75.24 0 114 0 C114 18.48 114 36.96 114 56 C76.38 56 38.76 56 0 56 C0 37.52 0 19.04 0 0 Z " fill="#F46D5B" transform="translate(199,59)"/>
<path d="M0 0 C0.17 0.33 0.17 0.33 1 2 C3.91 2.07 6.58 2.09 9.44 1.5 C12.65 0.87 15.73 0.94 19 1 C21.09 4.63 23.14 8.24 25 12 C25.35 12.70 25.71 13.39 26.07 14.11 C26.42 14.79 26.77 15.48 27.13 16.19 C27.48 16.88 27.83 17.58 28.20 18.29 C29 20 29 20 29 21 C-7.96 21 -44.92 21 -83 21 C-80.73 14.20 -80.73 14.20 -78.56 10.81 C-78.15 10.16 -77.74 9.51 -77.32 8.83 C-77.10 8.53 -77.10 8.53 -76 7 C-75.62 6.47 -75.25 5.95 -74.86 5.41 C-71.99 3.24 -69.51 3.64 -65.96 3.66 C-65.25 3.66 -64.53 3.66 -63.80 3.66 C-61.45 3.66 -59.09 3.68 -56.74 3.71 C-55.11 3.71 -53.47 3.72 -51.84 3.72 C-47.55 3.73 -43.25 3.76 -38.95 3.79 C-34.57 3.83 -30.19 3.84 -25.80 3.85 C-17.20 3.89 -8.60 3.94 0 4 C0 2.68 0 1.36 0 0 Z " fill="#DB3A21" transform="translate(283,94)"/>
<path d="M0 0 C16.5 0 33 0 50 0 C50 18.48 50 36.96 50 56 C47.01 54.51 46.46 51.92 45 49 C44.34 48.67 43.68 48.34 43 48 C42.18 46.00 42.18 46.00 41.44 43.56 C40.06 39.13 40.06 39.13 39 37 C37.93 37.02 36.85 37.04 35.75 37.06 C32.85 37.01 30.71 36.87 28 36 C27.84 36.33 27.84 36.33 27 38 C25.02 37.67 23.04 37.34 21 37 C20.84 37.33 20.84 37.33 20 39 C-4.42 39.33 -28.84 39.66 -54 40 C-54 39.34 -54 38.68 -54 38 C-42.12 37.84 -42.12 37.84 18 37 C19.12 33.64 19.11 31.12 19.10 27.58 C19.09 26.33 19.09 25.07 19.09 23.78 C19.08 22.47 19.07 21.16 19.06 19.81 C19.06 18.48 19.05 17.14 19.05 15.81 C19.04 12.54 19.02 9.27 19 6 C16.69 5.67 14.38 5.34 12 5 C12 4.34 12 3.68 12 3 C11.45 3.08 11.45 3.08 8.69 3.5 C5 4 5 4 2 4 C1.34 2.68 0.68 1.36 0 0 Z " fill="#ED5F4C" transform="translate(263,59)"/>
<path d="M0 0 C0.8 -0.00 1.60 -0.01 2.42 -0.01 C5.04 -0.02 7.65 -0.01 10.26 -0.01 C12.09 -0.01 13.92 -0.01 15.75 -0.01 C19.58 -0.02 23.40 -0.01 27.23 -0.00 C32.12 0.01 37.01 0.00 41.90 -0.01 C45.67 -0.02 49.45 -0.01 53.23 -0.01 C55.03 -0.01 56.83 -0.01 58.63 -0.01 C61.16 -0.02 63.68 -0.01 66.20 0 C66.94 -0.00 67.67 -0.01 68.43 -0.01 C73.17 0.03 77.02 0.79 81.47 2.26 C79.47 4.26 79.47 4.26 75.91 4.32 C74.77 4.30 73.64 4.28 72.47 4.26 C72.14 4.59 71.81 4.92 71.47 5.26 C68.67 5.35 65.89 5.38 63.09 5.37 C62.66 5.37 62.66 5.37 60.43 5.37 C57.52 5.37 54.60 5.36 51.69 5.36 C49.67 5.36 47.65 5.35 45.64 5.35 C40.32 5.35 35.00 5.34 29.68 5.33 C24.26 5.32 18.84 5.31 13.41 5.31 C2.77 5.30 -7.88 5.28 -18.53 5.26 C-18.2 4.27 -17.87 3.28 -17.53 2.26 C-12.05 0.02 -5.84 -0.03 0 0 Z " fill="#E34933" transform="translate(224.53,109.74)"/>
<path d="M0 0 C0 2.64 0 5.28 0 8 C-17.49 8 -34.98 8 -53 8 C-54 3 -54 3 -53 1 C-45.61 0.86 -38.23 0.71 -30.84 0.57 C-28.32 0.52 -25.81 0.48 -23.29 0.43 C-19.69 0.36 -16.08 0.29 -12.47 0.22 C-11.91 0.21 -11.91 0.21 -9.04 0.15 C-8.00 0.13 -6.96 0.11 -5.89 0.09 C-4.96 0.07 -4.04 0.06 -3.09 0.04 C-1 0 -1 0 0 0 Z " fill="#A9A9A9" transform="translate(170,50)"/>
<path d="M0 0 C17.49 0.33 34.98 0.66 53 1 C53.16 1.99 53.16 1.99 54 7 C53 8 53 8 50.87 8.12 C49.93 8.12 48.99 8.12 48.02 8.11 C46.96 8.11 45.90 8.11 44.81 8.11 C44.23 8.11 44.23 8.11 41.31 8.10 C40.13 8.10 38.96 8.10 37.75 8.09 C33.98 8.09 30.21 8.07 26.44 8.06 C23.89 8.06 21.34 8.05 18.79 8.05 C12.53 8.04 6.26 8.02 0 8 C0 5.36 0 2.72 0 0 Z " fill="#A6A6A5" transform="translate(342,50)"/>
<path d="M0 0 C0 0.66 0 1.32 0 2 C-1.98 2 -3.96 2 -6 2 C-6.14 2.30 -6.14 2.30 -6.88 3.81 C-8 6 -8 6 -10 9 C-12.63 9.69 -12.63 9.69 -15 10 C-15.39 6.58 -15.13 5.21 -13.25 2.25 C-9.00 -2.00 -5.72 -0.99 0 0 Z " fill="#B6B6B6" transform="translate(302,188)"/>
<path d="M0 0 C-5.97 7.26 -5.97 7.26 -8 9 C-8.66 9 -9.32 9 -10 9 C-10.66 6.03 -11.32 3.06 -12 0 C-7.45 -2.48 -4.78 -1.69 0 0 Z " fill="#AFAFAF" transform="translate(287,157)"/>
<path d="M0 0 C0 0.66 0 1.32 0 2 C0.66 2 1.32 2 2 2 C2 2.99 2 3.98 2 5 C-0.67 4.33 -3.33 3.67 -6 3 C-6 2.34 -6 1.68 -6 1 C-4 0 -4 0 0 0 Z " fill="#B3B3B2" transform="translate(216,187)"/>
<path d="M0 0 C0.99 0 1.98 0 3 0 C3.75 1.69 3.75 1.69 4 4 C2.06 6.75 2.06 6.75 0 9 C0 6.03 0 3.06 0 0 Z " fill="#B4B4B2" transform="translate(276,397)"/>
<path d="M0 0 C2.31 0.33 4.62 0.66 7 1 C7 1.66 7 2.32 7 3 C4.36 3 1.72 3 -1 3 C-0.67 2.01 -0.34 1.02 0 0 Z " fill="#A8A8A8" transform="translate(295,187)"/>
</g>
</svg>